<svg width="1500" height="760" viewBox="0 0 1500 760" fill="none" xmlns="http://www.w3.org/2000/svg">
<g clip-path="url(#clip0_3281_1102)">
<rect width="1500" height="760" fill="white"/>
<path fill-rule="evenodd" clip-rule="evenodd" d="M119.157 380L131.848 401.156C136.286 389.406 149.878 380 165.658 380H238.629C263.91 380 280.86 410.74 288.042 425.391C281.818 439.947 264.025 469.059 242.651 469.059H157.902C144.765 469.059 135.424 459.394 131.887 448.091L119.157 469.059H74L98.6821 425.364L74 380H119.157ZM245.587 415.624C248.443 415.624 250.759 413.437 250.759 410.74C250.759 408.042 248.443 405.856 245.587 405.856C242.732 405.856 240.416 408.042 240.416 410.74C240.416 413.437 242.732 415.624 245.587 415.624Z" fill="#FF3636"/>
<path d="M294 152L294 -7" stroke="#13176F" stroke-width="4"/>
<path d="M294 795L294 636" stroke="#13176F" stroke-width="4"/>
<path d="M263 323L263 -7" stroke="#13176F" stroke-width="4"/>
<path d="M263 840L263 510" stroke="#13176F" stroke-width="4"/>
<path d="M233 764L233 -7" stroke="#13176F" stroke-width="4"/>
<path d="M533 764L533 -7" stroke="#13176F" stroke-width="4"/>
<path d="M202 764L202 -7" stroke="#13176F" stroke-width="4"/>
<path d="M502 764L502 -7" stroke="#13176F" stroke-width="4"/>
<path d="M172 760V-7" stroke="#13176F" stroke-width="4"/>
<path d="M472 760V-7" stroke="#13176F" stroke-width="4"/>
<path d="M141 760V-7" stroke="#13176F" stroke-width="4"/>
<path d="M441 760V-7" stroke="#13176F" stroke-width="4"/>
<path d="M111 760V-7" stroke="#13176F" stroke-width="4"/>
<path d="M411 760V-7" stroke="#13176F" stroke-width="4"/>
<path d="M81 760V-7" stroke="#13176F" stroke-width="4"/>
<path d="M381 760V-7" stroke="#13176F" stroke-width="4"/>
<path d="M51 760V-7" stroke="#13176F" stroke-width="4"/>
<path d="M351 760V-7" stroke="#13176F" stroke-width="4"/>
<path d="M22 760V-7" stroke="#13176F" stroke-width="4"/>
<path d="M322 760V-7" stroke="#13176F" stroke-width="4"/>
<path d="M-77 64L310 64" stroke="#13176F" stroke-width="4"/>
<path d="M223 64L610 64" stroke="#13176F" stroke-width="4"/>
<path d="M-77 35L315 35" stroke="#13176F" stroke-width="4"/>
<path d="M223 35L615 35" stroke="#13176F" stroke-width="4"/>
<path d="M-77 95L305 95" stroke="#13176F" stroke-width="4"/>
<path d="M223 95L605 95" stroke="#13176F" stroke-width="4"/>
<path d="M-77 124L300 124" stroke="#13176F" stroke-width="4"/>
<path d="M223 124L600 124" stroke="#13176F" stroke-width="4"/>
<path d="M-77 152L294 152" stroke="#13176F" stroke-width="4"/>
<path d="M223 152L594 152" stroke="#13176F" stroke-width="4"/>
<path d="M-77 180L288 180" stroke="#13176F" stroke-width="4"/>
<path d="M223 180L588 180" stroke="#13176F" stroke-width="4"/>
<path d="M-77 208L282 208" stroke="#13176F" stroke-width="4"/>
<path d="M223 208L582 208" stroke="#13176F" stroke-width="4"/>
<path d="M-77 236L277 236" stroke="#13176F" stroke-width="4"/>
<path d="M223 236L577 236" stroke="#13176F" stroke-width="4"/>
<path d="M-77 264H273" stroke="#13176F" stroke-width="4"/>
<path d="M223 264H573" stroke="#13176F" stroke-width="4"/>
<path d="M-77 292H263" stroke="#13176F" stroke-width="4"/>
<path d="M223 292H563" stroke="#13176F" stroke-width="4"/>
<path d="M-77 320H263" stroke="#13176F" stroke-width="4"/>
<path d="M223 320H563" stroke="#13176F" stroke-width="4"/>
<path d="M-77 348H256" stroke="#13176F" stroke-width="4"/>
<path d="M223 348H556" stroke="#13176F" stroke-width="4"/>
<path d="M-77 376H252" stroke="#13176F" stroke-width="4"/>
<path d="M223 376H552" stroke="#13176F" stroke-width="4"/>
<path d="M-77 404H244" stroke="#13176F" stroke-width="4"/>
<path d="M223 404H544" stroke="#13176F" stroke-width="4"/>
<path d="M-77 432H244" stroke="#13176F" stroke-width="4"/>
<path d="M223 432H544" stroke="#13176F" stroke-width="4"/>
<path d="M-77 460H252" stroke="#13176F" stroke-width="4"/>
<path d="M223 460H552" stroke="#13176F" stroke-width="4"/>
<path d="M-77 488H259" stroke="#13176F" stroke-width="4"/>
<path d="M223 488H559" stroke="#13176F" stroke-width="4"/>
<path d="M-77 516H267" stroke="#13176F" stroke-width="4"/>
<path d="M223 516H567" stroke="#13176F" stroke-width="4"/>
<path d="M-77 544H267" stroke="#13176F" stroke-width="4"/>
<path d="M223 544H567" stroke="#13176F" stroke-width="4"/>
<path d="M-77 572H277" stroke="#13176F" stroke-width="4"/>
<path d="M223 572H577" stroke="#13176F" stroke-width="4"/>
<path d="M-77 600H288" stroke="#13176F" stroke-width="4"/>
<path d="M223 600H588" stroke="#13176F" stroke-width="4"/>
<path d="M-77 628H294" stroke="#13176F" stroke-width="4"/>
<path d="M223 628H594" stroke="#13176F" stroke-width="4"/>
<path d="M-77 656H298" stroke="#13176F" stroke-width="4"/>
<path d="M223 656H598" stroke="#13176F" stroke-width="4"/>
<path d="M-77 684H303" stroke="#13176F" stroke-width="4"/>
<path d="M223 684H603" stroke="#13176F" stroke-width="4"/>
<path d="M-77 712H315" stroke="#13176F" stroke-width="4"/>
<path d="M223 712H615" stroke="#13176F" stroke-width="4"/>
<path d="M-77 740H315" stroke="#13176F" stroke-width="4"/>
<path d="M223 740H615" stroke="#13176F" stroke-width="4"/>
<rect x="615" width="760" height="729" transform="rotate(90 615 0)" fill="url(#paint0_linear_3281_1102)"/>
<path d="M202 386L269.833 29L356 386L242.944 755L202 386Z" fill="white" stroke="#13176F" stroke-width="4"/>
<path fill-rule="evenodd" clip-rule="evenodd" d="M339.157 223L351.848 244.156C356.286 232.406 369.878 223 385.658 223H458.629C483.91 223 500.86 253.74 508.042 268.391C501.818 282.947 484.025 312.059 462.651 312.059H377.902C364.765 312.059 355.424 302.394 351.887 291.091L339.157 312.059H294L318.682 268.364L294 223H339.157ZM465.587 258.624C468.443 258.624 470.759 256.437 470.759 253.74C470.759 251.042 468.443 248.856 465.587 248.856C462.732 248.856 460.416 251.042 460.416 253.74C460.416 256.437 462.732 258.624 465.587 258.624Z" fill="#FF3636"/>
<path fill-rule="evenodd" clip-rule="evenodd" d="M777.157 223L789.848 244.156C794.286 232.406 807.878 223 823.658 223H896.629C921.91 223 938.86 253.74 946.042 268.391C939.818 282.947 922.025 312.059 900.651 312.059H815.902C802.765 312.059 793.424 302.394 789.887 291.091L777.157 312.059H732L756.682 268.364L732 223H777.157ZM903.587 258.624C906.443 258.624 908.759 256.437 908.759 253.74C908.759 251.042 906.443 248.856 903.587 248.856C900.732 248.856 898.416 251.042 898.416 253.74C898.416 256.437 900.732 258.624 903.587 258.624Z" fill="#E336FF"/>
<path fill-rule="evenodd" clip-rule="evenodd" d="M339.157 333.479L351.848 354.635C356.286 342.884 369.878 333.479 385.658 333.479H458.629C483.91 333.479 500.86 364.218 508.042 378.87C501.818 393.426 484.025 422.538 462.651 422.538H377.902C364.764 422.538 355.424 412.873 351.887 401.57L339.157 422.537H294L318.682 378.843L294 333.479H339.157ZM465.587 369.102C468.443 369.102 470.759 366.916 470.759 364.219C470.759 361.521 468.443 359.335 465.587 359.335C462.732 359.335 460.416 361.521 460.416 364.219C460.416 366.916 462.732 369.102 465.587 369.102Z" fill="#FF3636"/>
<path fill-rule="evenodd" clip-rule="evenodd" d="M777.157 333.479L789.848 354.635C794.286 342.884 807.878 333.479 823.658 333.479H896.629C921.91 333.479 938.86 364.218 946.042 378.87C939.818 393.426 922.025 422.538 900.651 422.538H815.902C802.764 422.538 793.424 412.873 789.887 401.57L777.157 422.537H732L756.682 378.843L732 333.479H777.157ZM903.587 369.102C906.443 369.102 908.759 366.916 908.759 364.219C908.759 361.521 906.443 359.335 903.587 359.335C900.732 359.335 898.416 361.521 898.416 364.219C898.416 366.916 900.732 369.102 903.587 369.102Z" fill="#E336FF"/>
<path fill-rule="evenodd" clip-rule="evenodd" d="M385.658 443.958C369.878 443.958 356.286 453.363 351.848 465.114L339.157 443.958H294L318.682 489.322L294 533.017H339.157L351.887 512.049C355.424 523.352 364.765 533.016 377.902 533.016H462.651C484.025 533.016 501.818 503.905 508.042 489.349C500.86 474.697 483.91 443.958 458.629 443.958H385.658ZM465.587 479.581C468.443 479.581 470.759 477.395 470.759 474.698C470.759 472 468.443 469.814 465.587 469.814C462.732 469.814 460.416 472 460.416 474.698C460.416 477.395 462.732 479.581 465.587 479.581Z" fill="#FF3636"/>
<path fill-rule="evenodd" clip-rule="evenodd" d="M823.658 443.958C807.878 443.958 794.286 453.363 789.848 465.114L777.157 443.958H732L756.682 489.322L732 533.017H777.157L789.887 512.049C793.424 523.352 802.765 533.016 815.902 533.016H900.651C922.025 533.016 939.818 503.905 946.042 489.349C938.86 474.697 921.91 443.958 896.629 443.958H823.658ZM903.587 479.581C906.443 479.581 908.759 477.395 908.759 474.698C908.759 472 906.443 469.814 903.587 469.814C900.732 469.814 898.416 472 898.416 474.698C898.416 477.395 900.732 479.581 903.587 479.581Z" fill="#FFA336"/>
<path fill-rule="evenodd" clip-rule="evenodd" d="M339.157 554.437L351.848 575.593C356.286 563.842 369.878 554.437 385.658 554.437H458.629C483.91 554.437 500.86 585.176 508.042 599.828C501.818 614.384 484.025 643.495 462.651 643.495H377.902C364.765 643.495 355.424 633.831 351.887 622.527L339.157 643.495H294L318.682 599.801L294 554.437H339.157ZM465.587 590.06C468.443 590.06 470.759 587.874 470.759 585.176C470.759 582.479 468.443 580.292 465.587 580.292C462.732 580.292 460.416 582.479 460.416 585.176C460.416 587.874 462.732 590.06 465.587 590.06Z" fill="#FF3636"/>
<path fill-rule="evenodd" clip-rule="evenodd" d="M777.157 554.437L789.848 575.593C794.286 563.842 807.878 554.437 823.658 554.437H896.629C921.91 554.437 938.86 585.176 946.042 599.828C939.818 614.384 922.025 643.495 900.651 643.495H815.902C802.765 643.495 793.424 633.831 789.887 622.527L777.157 643.495H732L756.682 599.801L732 554.437H777.157ZM903.587 590.06C906.443 590.06 908.759 587.874 908.759 585.176C908.759 582.479 906.443 580.292 903.587 580.292C900.732 580.292 898.416 582.479 898.416 585.176C898.416 587.874 900.732 590.06 903.587 590.06Z" fill="#5E36FF"/>
<path fill-rule="evenodd" clip-rule="evenodd" d="M560.114 223L572.805 244.156C577.243 232.406 590.835 223 606.616 223H679.586C704.868 223 721.817 253.74 729 268.391C722.775 282.947 704.982 312.059 683.608 312.059H598.859C585.722 312.059 576.381 302.394 572.844 291.091L560.114 312.059H514.957L539.639 268.364L514.957 223H560.114ZM686.545 258.624C689.4 258.624 691.716 256.437 691.716 253.74C691.716 251.042 689.4 248.856 686.545 248.856C683.689 248.856 681.373 251.042 681.373 253.74C681.373 256.437 683.689 258.624 686.545 258.624Z" fill="#FF3636"/>
<path fill-rule="evenodd" clip-rule="evenodd" d="M998.114 223L1010.81 244.156C1015.24 232.406 1028.84 223 1044.62 223H1117.59C1142.87 223 1159.82 253.74 1167 268.391C1160.78 282.947 1142.98 312.059 1121.61 312.059H1036.86C1023.72 312.059 1014.38 302.394 1010.84 291.091L998.114 312.059H952.957L977.639 268.364L952.957 223H998.114ZM1124.54 258.624C1127.4 258.624 1129.72 256.437 1129.72 253.74C1129.72 251.042 1127.4 248.856 1124.54 248.856C1121.69 248.856 1119.37 251.042 1119.37 253.74C1119.37 256.437 1121.69 258.624 1124.54 258.624Z" fill="#E336FF"/>
<path fill-rule="evenodd" clip-rule="evenodd" d="M560.114 333.479L572.805 354.635C577.243 342.884 590.835 333.479 606.616 333.479H679.586C704.868 333.479 721.817 364.218 729 378.87C722.775 393.426 704.982 422.538 683.608 422.538H598.859C585.722 422.538 576.381 412.873 572.844 401.569L560.114 422.537H514.957L539.639 378.843L514.957 333.479H560.114ZM686.545 369.102C689.4 369.102 691.716 366.916 691.716 364.219C691.716 361.521 689.4 359.335 686.545 359.335C683.689 359.335 681.373 361.521 681.373 364.219C681.373 366.916 683.689 369.102 686.545 369.102Z" fill="#FF3636"/>
<path fill-rule="evenodd" clip-rule="evenodd" d="M998.114 333.479L1010.81 354.635C1015.24 342.884 1028.84 333.479 1044.62 333.479H1117.59C1142.87 333.479 1159.82 364.218 1167 378.87C1160.78 393.426 1142.98 422.538 1121.61 422.538H1036.86C1023.72 422.538 1014.38 412.873 1010.84 401.569L998.114 422.537H952.957L977.639 378.843L952.957 333.479H998.114ZM1124.54 369.102C1127.4 369.102 1129.72 366.916 1129.72 364.219C1129.72 361.521 1127.4 359.335 1124.54 359.335C1121.69 359.335 1119.37 361.521 1119.37 364.219C1119.37 366.916 1121.69 369.102 1124.54 369.102Z" fill="#E336FF"/>
<path fill-rule="evenodd" clip-rule="evenodd" d="M606.616 443.958C590.835 443.958 577.243 453.363 572.805 465.114L560.114 443.958H514.957L539.639 489.322L514.957 533.017H560.114L572.844 512.049C576.381 523.352 585.722 533.016 598.859 533.016H683.608C704.982 533.016 722.775 503.905 729 489.349C721.817 474.697 704.868 443.958 679.586 443.958H606.616ZM686.545 479.581C689.4 479.581 691.716 477.395 691.716 474.698C691.716 472 689.4 469.814 686.545 469.814C683.689 469.814 681.373 472 681.373 474.698C681.373 477.395 683.689 479.581 686.545 479.581Z" fill="#FF3636"/>
<path fill-rule="evenodd" clip-rule="evenodd" d="M1044.62 443.958C1028.84 443.958 1015.24 453.363 1010.81 465.114L998.114 443.958H952.957L977.639 489.322L952.957 533.017H998.114L1010.84 512.049C1014.38 523.352 1023.72 533.016 1036.86 533.016H1121.61C1142.98 533.016 1160.78 503.905 1167 489.349C1159.82 474.697 1142.87 443.958 1117.59 443.958H1044.62ZM1124.54 479.581C1127.4 479.581 1129.72 477.395 1129.72 474.698C1129.72 472 1127.4 469.814 1124.54 469.814C1121.69 469.814 1119.37 472 1119.37 474.698C1119.37 477.395 1121.69 479.581 1124.54 479.581Z" fill="#FFA336"/>
<path fill-rule="evenodd" clip-rule="evenodd" d="M560.114 554.437L572.805 575.593C577.243 563.842 590.835 554.437 606.616 554.437H679.586C704.868 554.437 721.817 585.176 729 599.828C722.775 614.384 704.982 643.495 683.608 643.495H598.859C585.722 643.495 576.381 633.831 572.844 622.527L560.114 643.495H514.957L539.639 599.801L514.957 554.437H560.114ZM686.545 590.06C689.4 590.06 691.716 587.874 691.716 585.176C691.716 582.479 689.4 580.292 686.545 580.292C683.689 580.292 681.373 582.479 681.373 585.176C681.373 587.874 683.689 590.06 686.545 590.06Z" fill="#FF3636"/>
<path fill-rule="evenodd" clip-rule="evenodd" d="M998.114 554.437L1010.81 575.593C1015.24 563.842 1028.84 554.437 1044.62 554.437H1117.59C1142.87 554.437 1159.82 585.176 1167 599.828C1160.78 614.384 1142.98 643.495 1121.61 643.495H1036.86C1023.72 643.495 1014.38 633.831 1010.84 622.527L998.114 643.495H952.957L977.639 599.801L952.957 554.437H998.114ZM1124.54 590.06C1127.4 590.06 1129.72 587.874 1129.72 585.176C1129.72 582.479 1127.4 580.292 1124.54 580.292C1121.69 580.292 1119.37 582.479 1119.37 585.176C1119.37 587.874 1121.69 590.06 1124.54 590.06Z" fill="#5E36FF"/>
<rect width="170" height="45" transform="translate(868 299)" fill="#EBF97B"/>
<path d="M934.976 333H929.152L929.12 319.72L924.608 330.792H920.256L915.744 319.72V333H909.888V310.568H917.024L922.432 322.984L927.84 310.568H934.976V333ZM947.179 315.368C953.035 315.368 956.843 318.888 956.843 324.296C956.843 329.672 953.035 333.224 947.179 333.224C941.323 333.224 937.483 329.672 937.483 324.296C937.483 318.888 941.323 315.368 947.179 315.368ZM947.179 320.488C945.259 320.488 944.011 322.056 944.011 324.36C944.011 326.696 945.259 328.232 947.179 328.232C949.067 328.232 950.315 326.696 950.315 324.36C950.315 322.056 949.067 320.488 947.179 320.488ZM981.578 333H975.21L972.33 323.016L969.386 333H963.018L956.681 315.592H963.242L966.378 326.696L969.386 315.592H975.466L978.57 326.696L981.642 315.592H987.914L981.578 333ZM992.841 307.304C994.793 307.304 996.169 308.68 996.169 310.632C996.169 312.584 994.793 313.96 992.841 313.96C990.889 313.96 989.513 312.584 989.513 310.632C989.513 308.68 990.889 307.304 992.841 307.304ZM996.041 333H989.577V315.592H996.041V333Z" fill="black"/>
<rect width="170" height="45" transform="translate(430 410)" fill="#EBF97B"/>
<path d="M469.276 421.28C472.7 421.28 476.22 422.304 478.652 423.872L476.188 428.992C473.884 427.68 470.62 426.496 468.732 426.496C467.612 426.496 466.876 426.88 466.876 427.712C466.876 431.008 478.588 429.056 478.588 437.152C478.588 441.92 474.364 444.192 469.34 444.192C465.532 444.192 461.372 442.848 458.556 440.64L461.052 435.584C463.356 437.536 467.1 439.008 469.404 439.008C470.812 439.008 471.708 438.528 471.708 437.504C471.708 434.112 459.996 436.256 459.996 428.352C459.996 424.032 463.676 421.28 469.276 421.28ZM489.285 426.336C494.181 426.336 497.093 428.672 497.093 432.704V444H490.757V442.08C489.701 443.488 487.973 444.288 485.669 444.288C481.957 444.288 479.781 442.08 479.781 438.816C479.781 435.456 482.117 433.6 486.501 433.536H490.757V433.472C490.757 432.032 489.733 431.168 487.749 431.168C486.373 431.168 484.421 431.584 482.501 432.416L480.901 428.128C483.749 426.976 486.565 426.336 489.285 426.336ZM487.813 440.064C489.125 440.064 490.277 439.36 490.757 438.272V436.704H487.813C486.533 436.704 485.861 437.248 485.861 438.336C485.861 439.424 486.565 440.064 487.813 440.064ZM507.154 444H500.69V420.256H507.154V444ZM536.273 444H530.449L530.417 430.72L525.905 441.792H521.553L517.041 430.72V444H511.185V421.568H518.321L523.729 433.984L529.137 421.568H536.273V444ZM548.316 426.336C553.212 426.336 556.124 428.672 556.124 432.704V444H549.788V442.08C548.732 443.488 547.004 444.288 544.7 444.288C540.988 444.288 538.812 442.08 538.812 438.816C538.812 435.456 541.148 433.6 545.532 433.536H549.788V433.472C549.788 432.032 548.764 431.168 546.78 431.168C545.404 431.168 543.452 431.584 541.532 432.416L539.932 428.128C542.78 426.976 545.596 426.336 548.316 426.336ZM546.844 440.064C548.156 440.064 549.308 439.36 549.788 438.272V436.704H546.844C545.564 436.704 544.892 437.248 544.892 438.336C544.892 439.424 545.596 440.064 546.844 440.064ZM566.025 426.592V429.344C567.241 427.424 569.129 426.336 571.497 426.336V432.16C568.169 431.744 566.025 433.152 566.025 435.68V444H559.561V426.592H566.025Z" fill="black"/>
<rect width="228" height="45" transform="translate(839 465)" fill="#EBF97B"/>
<path d="M856.732 476.568H867.74C872.988 476.568 876.348 478.776 876.348 482.232C876.348 484.504 874.876 486.392 872.54 487.064C875.292 487.64 877.052 489.88 877.052 492.728C877.052 496.568 873.596 499 868.22 499H856.732V476.568ZM863.356 481.56V485.368H867.388C868.7 485.368 869.532 484.6 869.532 483.416C869.532 482.264 868.7 481.56 867.388 481.56H863.356ZM863.356 489.912V494.04H867.388C869.084 494.04 870.14 493.208 870.14 491.896C870.14 490.68 869.084 489.912 867.388 489.912H863.356ZM888.019 481.336C892.915 481.336 895.827 483.672 895.827 487.704V499H889.491V497.08C888.435 498.488 886.707 499.288 884.403 499.288C880.691 499.288 878.515 497.08 878.515 493.816C878.515 490.456 880.851 488.6 885.235 488.536H889.491V488.472C889.491 487.032 888.467 486.168 886.483 486.168C885.107 486.168 883.155 486.584 881.235 487.416L879.635 483.128C882.483 481.976 885.299 481.336 888.019 481.336ZM886.547 495.064C887.859 495.064 889.011 494.36 889.491 493.272V491.704H886.547C885.267 491.704 884.595 492.248 884.595 493.336C884.595 494.424 885.299 495.064 886.547 495.064ZM907.201 492.952L905.889 494.328V499H899.424V475.256H905.889V486.808L910.689 481.592H917.985L911.617 488.312L918.017 499H910.369L907.201 492.952ZM927.951 492.952L926.639 494.328V499H920.174V475.256H926.639V486.808L931.439 481.592H938.735L932.367 488.312L938.767 499H931.119L927.951 492.952ZM948.269 481.336C953.165 481.336 956.077 483.672 956.077 487.704V499H949.741V497.08C948.685 498.488 946.957 499.288 944.653 499.288C940.941 499.288 938.765 497.08 938.765 493.816C938.765 490.456 941.101 488.6 945.485 488.536H949.741V488.472C949.741 487.032 948.717 486.168 946.733 486.168C945.357 486.168 943.405 486.584 941.485 487.416L939.885 483.128C942.733 481.976 945.549 481.336 948.269 481.336ZM946.797 495.064C948.109 495.064 949.261 494.36 949.741 493.272V491.704H946.797C945.517 491.704 944.845 492.248 944.845 493.336C944.845 494.424 945.549 495.064 946.797 495.064ZM965.979 481.592V484.344C967.195 482.424 969.083 481.336 971.451 481.336V487.16C968.123 486.744 965.979 488.152 965.979 490.68V499H959.515V481.592H965.979ZM983.141 479.992C982.053 479.992 981.317 480.6 981.317 481.656V482.488H984.933V486.616H981.317V499H974.917V486.616H972.549V482.488H974.917V480.888C974.917 477.176 977.765 474.936 981.861 474.968C983.717 474.968 985.797 475.416 987.205 476.216L984.997 480.664C984.421 480.248 983.685 479.992 983.141 479.992ZM993.291 481.592V484.344C994.507 482.424 996.395 481.336 998.763 481.336V487.16C995.435 486.744 993.291 488.152 993.291 490.68V499H986.827V481.592H993.291ZM1009.4 481.368C1015.25 481.368 1019.06 484.888 1019.06 490.296C1019.06 495.672 1015.25 499.224 1009.4 499.224C1003.54 499.224 999.702 495.672 999.702 490.296C999.702 484.888 1003.54 481.368 1009.4 481.368ZM1009.4 486.488C1007.48 486.488 1006.23 488.056 1006.23 490.36C1006.23 492.696 1007.48 494.232 1009.4 494.232C1011.29 494.232 1012.53 492.696 1012.53 490.36C1012.53 488.056 1011.29 486.488 1009.4 486.488ZM1028.36 481.304C1030.98 481.304 1033.64 482.04 1036.01 483.416L1033.86 487.48C1031.5 486.264 1029.54 485.656 1028.17 485.656C1027.37 485.656 1026.86 485.944 1026.86 486.488C1026.86 488.44 1035.94 487.576 1035.94 493.528C1035.94 497.112 1032.84 499.288 1028.3 499.288C1025.22 499.288 1022.38 498.456 1020.1 496.824L1022.09 492.76C1024.26 494.168 1026.47 494.904 1028.39 494.904C1029.26 494.904 1029.83 494.648 1029.83 494.104C1029.83 492.12 1020.94 493.08 1020.94 487.128C1020.94 483.48 1023.98 481.304 1028.36 481.304ZM1049.49 493.72L1050.64 498.168C1049.42 498.872 1047.57 499.288 1045.81 499.288C1042.09 499.32 1039.6 497.176 1039.6 493.56V486.616H1037.2V482.488H1039.6V477.656H1046.03V482.488H1050.32V486.616H1046.03V492.568C1046.03 493.688 1046.61 494.232 1047.5 494.232C1048.01 494.232 1048.72 494.008 1049.49 493.72Z" fill="black"/>
<rect width="165" height="45" transform="translate(868 575)" fill="#EBF97B"/>
<path d="M911.961 605.416H902.905L901.561 609H894.713L904.281 586.568H911.129L920.377 609H913.273L911.961 605.416ZM910.201 600.552L907.513 593.224L904.761 600.552H910.201ZM938.862 591.592V609H932.398V606.408C931.214 608.264 929.39 609.288 927.054 609.288C923.406 609.288 920.91 606.696 920.91 602.632V591.592H927.374V600.808C927.374 602.504 928.302 603.592 929.71 603.592C931.374 603.56 932.398 602.184 932.398 600.2V591.592H938.862ZM953.517 603.72L954.669 608.168C953.453 608.872 951.597 609.288 949.837 609.288C946.125 609.32 943.629 607.176 943.629 603.56V596.616H941.229V592.488H943.629V587.656H950.061V592.488H954.349V596.616H950.061V602.568C950.061 603.688 950.637 604.232 951.533 604.232C952.045 604.232 952.749 604.008 953.517 603.72ZM963.604 591.592V594.344C964.82 592.424 966.708 591.336 969.076 591.336V597.16C965.748 596.744 963.604 598.152 963.604 600.68V609H957.14V591.592H963.604ZM979.198 591.368C985.31 591.368 988.638 595.464 988.254 601.864H976.542C977.054 603.528 978.27 604.456 979.934 604.456C981.31 604.456 982.622 603.848 983.774 602.792L987.134 606.088C985.31 608.104 982.686 609.224 979.39 609.224C973.566 609.224 970.014 605.704 970.014 600.36C970.014 594.92 973.694 591.368 979.198 591.368ZM976.414 598.696H981.886C981.918 596.968 980.83 595.752 979.262 595.752C977.758 595.752 976.734 596.936 976.414 598.696ZM997.61 591.304C1000.23 591.304 1002.89 592.04 1005.26 593.416L1003.11 597.48C1000.75 596.264 998.794 595.656 997.418 595.656C996.618 595.656 996.106 595.944 996.106 596.488C996.106 598.44 1005.19 597.576 1005.19 603.528C1005.19 607.112 1002.09 609.288 997.546 609.288C994.474 609.288 991.626 608.456 989.354 606.824L991.338 602.76C993.514 604.168 995.722 604.904 997.642 604.904C998.506 604.904 999.082 604.648 999.082 604.104C999.082 602.12 990.186 603.08 990.186 597.128C990.186 593.48 993.226 591.304 997.61 591.304Z" fill="black"/>
<mask id="mask0_3281_1102" style="mask-type:alpha" maskUnits="userSpaceOnUse" x="202" y="28" width="160" height="728">
<path d="M205 386L272.833 29L359 386L245.944 755L205 386Z" fill="white" stroke="#13176F" stroke-width="4"/>
</mask>
<g mask="url(#mask0_3281_1102)">
<path fill-rule="evenodd" clip-rule="evenodd" d="M109.157 380L121.848 401.156C126.286 389.406 139.878 380 155.658 380H228.629C253.91 380 270.86 410.74 278.042 425.391C271.818 439.947 254.025 469.059 232.651 469.059H147.902C134.765 469.059 125.424 459.394 121.887 448.091L109.157 469.059H64L88.6821 425.364L64 380H109.157ZM235.587 415.624C238.443 415.624 240.759 413.437 240.759 410.74C240.759 408.042 238.443 405.856 235.587 405.856C232.732 405.856 230.416 408.042 230.416 410.74C230.416 413.437 232.732 415.624 235.587 415.624Z" fill="#FF3636"/>
</g>
<path d="M419.539 84H413.715L413.683 70.72L409.171 81.792H404.819L400.307 70.72V84H394.451V61.568H401.587L406.995 73.984L412.403 61.568H419.539V84ZM431.742 66.368C437.597 66.368 441.406 69.888 441.406 75.296C441.406 80.672 437.597 84.224 431.742 84.224C425.886 84.224 422.046 80.672 422.046 75.296C422.046 69.888 425.886 66.368 431.742 66.368ZM431.742 71.488C429.822 71.488 428.574 73.056 428.574 75.36C428.574 77.696 429.822 79.232 431.742 79.232C433.63 79.232 434.878 77.696 434.878 75.36C434.878 73.056 433.63 71.488 431.742 71.488ZM450.416 66.592V69.344C451.632 67.424 453.52 66.336 455.888 66.336V72.16C452.56 71.744 450.416 73.152 450.416 75.68V84H443.952V66.592H450.416ZM466.011 66.368C472.123 66.368 475.451 70.464 475.067 76.864H463.355C463.867 78.528 465.083 79.456 466.747 79.456C468.123 79.456 469.435 78.848 470.587 77.792L473.947 81.088C472.123 83.104 469.499 84.224 466.203 84.224C460.379 84.224 456.827 80.704 456.827 75.36C456.827 69.92 460.507 66.368 466.011 66.368ZM463.227 73.696H468.699C468.731 71.968 467.643 70.752 466.075 70.752C464.571 70.752 463.547 71.936 463.227 73.696ZM495.423 78.72L496.575 83.168C495.359 83.872 493.503 84.288 491.743 84.288C488.031 84.32 485.535 82.176 485.535 78.56V71.616H483.135V67.488H485.535V62.656H491.967V67.488H496.255V71.616H491.967V77.568C491.967 78.688 492.543 79.232 493.439 79.232C493.951 79.232 494.655 79.008 495.423 78.72ZM511.206 66.336C514.95 66.336 517.478 68.928 517.478 72.96V84H511.014V74.816C511.014 73.088 510.054 72 508.518 72C506.758 72.032 505.67 73.408 505.67 75.392V84H499.206V60.256H505.67V69.28C506.886 67.36 508.774 66.336 511.206 66.336ZM529.082 66.336C533.978 66.336 536.89 68.672 536.89 72.704V84H530.554V82.08C529.498 83.488 527.77 84.288 525.466 84.288C521.754 84.288 519.578 82.08 519.578 78.816C519.578 75.456 521.914 73.6 526.298 73.536H530.554V73.472C530.554 72.032 529.53 71.168 527.546 71.168C526.17 71.168 524.218 71.584 522.298 72.416L520.698 68.128C523.546 66.976 526.362 66.336 529.082 66.336ZM527.61 80.064C528.922 80.064 530.074 79.36 530.554 78.272V76.704H527.61C526.33 76.704 525.658 77.248 525.658 78.336C525.658 79.424 526.362 80.064 527.61 80.064ZM552.327 66.336C556.039 66.336 558.599 68.928 558.599 72.96V84H552.135V74.816C552.135 73.088 551.143 72 549.639 72C547.879 72.032 546.791 73.408 546.791 75.392V84H540.327V66.592H546.791V69.28C548.007 67.36 549.895 66.336 552.327 66.336ZM574.679 74.528H578.487V70.016H584.663V74.528H587.607V79.424H584.663V84H578.487V79.424H567.895V75.008L574.679 61.568H581.047L574.679 74.528ZM620.315 66.336C623.995 66.336 626.491 68.928 626.491 72.96V84H620.027V74.816C620.027 73.088 619.067 72 617.627 72C615.963 72.032 614.907 73.408 614.907 75.392V84H608.443V74.816C608.443 73.088 607.483 72 606.043 72C604.347 72.032 603.291 73.408 603.291 75.392V84H596.827V66.592H603.291V69.248C604.475 67.36 606.331 66.336 608.699 66.336C611.419 66.336 613.499 67.744 614.427 70.112C615.547 67.68 617.595 66.336 620.315 66.336ZM633.185 58.304C635.137 58.304 636.513 59.68 636.513 61.632C636.513 63.584 635.137 64.96 633.185 64.96C631.233 64.96 629.857 63.584 629.857 61.632C629.857 59.68 631.233 58.304 633.185 58.304ZM636.385 84H629.921V66.592H636.385V84ZM646.92 84H640.456V60.256H646.92V84ZM657.639 84H651.174V60.256H657.639V84ZM664.997 58.304C666.949 58.304 668.325 59.68 668.325 61.632C668.325 63.584 666.949 64.96 664.997 64.96C663.045 64.96 661.669 63.584 661.669 61.632C661.669 59.68 663.045 58.304 664.997 58.304ZM668.197 84H661.733V66.592H668.197V84ZM680.46 66.368C686.316 66.368 690.124 69.888 690.124 75.296C690.124 80.672 686.316 84.224 680.46 84.224C674.604 84.224 670.764 80.672 670.764 75.296C670.764 69.888 674.604 66.368 680.46 66.368ZM680.46 71.488C678.54 71.488 677.292 73.056 677.292 75.36C677.292 77.696 678.54 79.232 680.46 79.232C682.348 79.232 683.596 77.696 683.596 75.36C683.596 73.056 682.348 71.488 680.46 71.488ZM704.671 66.336C708.383 66.336 710.943 68.928 710.943 72.96V84H704.479V74.816C704.479 73.088 703.487 72 701.983 72C700.223 72.032 699.135 73.408 699.135 75.392V84H692.671V66.592H699.135V69.28C700.351 67.36 702.239 66.336 704.671 66.336ZM737.71 64.96C735.758 64.96 734.382 63.584 734.382 61.632C734.382 59.68 735.758 58.304 737.71 58.304C739.662 58.304 741.038 59.68 741.038 61.632C741.038 63.584 739.662 64.96 737.71 64.96ZM722.542 67.232V65.888C722.542 62.144 725.422 59.936 729.486 59.968C730.734 59.968 732.078 60.192 732.974 60.544L732.75 65.664C732.11 65.248 731.342 65.024 730.766 65.024C729.678 64.992 728.942 65.568 728.942 66.656V67.232H732.558V71.392H728.942V84H722.542V71.392H720.174V67.232H722.542ZM734.446 66.592H740.91V84H734.446V66.592ZM751.579 66.304C754.203 66.304 756.859 67.04 759.227 68.416L757.083 72.48C754.715 71.264 752.763 70.656 751.387 70.656C750.587 70.656 750.075 70.944 750.075 71.488C750.075 73.44 759.163 72.576 759.163 78.528C759.163 82.112 756.059 84.288 751.515 84.288C748.443 84.288 745.595 83.456 743.323 81.824L745.307 77.76C747.483 79.168 749.691 79.904 751.611 79.904C752.475 79.904 753.051 79.648 753.051 79.104C753.051 77.12 744.155 78.08 744.155 72.128C744.155 68.48 747.195 66.304 751.579 66.304ZM774.112 66.336C777.856 66.336 780.384 68.928 780.384 72.96V84H773.92V74.816C773.92 73.088 772.96 72 771.424 72C769.664 72.032 768.576 73.408 768.576 75.392V84H762.112V60.256H768.576V69.28C769.792 67.36 771.68 66.336 774.112 66.336ZM802.956 66.336C806.7 66.336 809.228 68.928 809.228 72.96V84H802.764V74.816C802.764 73.088 801.804 72 800.268 72C798.508 72.032 797.42 73.408 797.42 75.392V84H790.956V60.256H797.42V69.28C798.636 67.36 800.524 66.336 802.956 66.336ZM820.832 66.336C825.728 66.336 828.64 68.672 828.64 72.704V84H822.304V82.08C821.248 83.488 819.52 84.288 817.216 84.288C813.504 84.288 811.328 82.08 811.328 78.816C811.328 75.456 813.664 73.6 818.048 73.536H822.304V73.472C822.304 72.032 821.28 71.168 819.296 71.168C817.92 71.168 815.968 71.584 814.048 72.416L812.448 68.128C815.296 66.976 818.112 66.336 820.832 66.336ZM819.36 80.064C820.672 80.064 821.824 79.36 822.304 78.272V76.704H819.36C818.08 76.704 817.408 77.248 817.408 78.336C817.408 79.424 818.112 80.064 819.36 80.064ZM842.831 84H836.239L829.775 66.592H836.431L839.631 78.112L842.863 66.592H849.327L842.831 84ZM858.323 66.368C864.435 66.368 867.763 70.464 867.379 76.864H855.667C856.179 78.528 857.395 79.456 859.059 79.456C860.435 79.456 861.747 78.848 862.899 77.792L866.259 81.088C864.435 83.104 861.811 84.224 858.515 84.224C852.691 84.224 849.139 80.704 849.139 75.36C849.139 69.92 852.819 66.368 858.323 66.368ZM855.539 73.696H861.011C861.043 71.968 859.955 70.752 858.387 70.752C856.883 70.752 855.859 71.936 855.539 73.696ZM884.823 66.368C890.935 66.368 894.263 70.464 893.879 76.864H882.167C882.679 78.528 883.895 79.456 885.559 79.456C886.935 79.456 888.247 78.848 889.399 77.792L892.759 81.088C890.935 83.104 888.311 84.224 885.015 84.224C879.191 84.224 875.639 80.704 875.639 75.36C875.639 69.92 879.319 66.368 884.823 66.368ZM882.039 73.696H887.511C887.543 71.968 886.455 70.752 884.887 70.752C883.383 70.752 882.359 71.936 882.039 73.696ZM903.235 66.304C905.859 66.304 908.515 67.04 910.883 68.416L908.739 72.48C906.371 71.264 904.419 70.656 903.043 70.656C902.243 70.656 901.731 70.944 901.731 71.488C901.731 73.44 910.819 72.576 910.819 78.528C910.819 82.112 907.715 84.288 903.171 84.288C900.099 84.288 897.251 83.456 894.979 81.824L896.963 77.76C899.139 79.168 901.347 79.904 903.267 79.904C904.131 79.904 904.707 79.648 904.707 79.104C904.707 77.12 895.811 78.08 895.811 72.128C895.811 68.48 898.851 66.304 903.235 66.304ZM921.384 66.368C925.032 66.368 927.944 68.032 929.416 70.912L924.456 73.344C923.848 72.256 922.888 71.616 921.672 71.616C919.944 71.616 918.792 73.12 918.792 75.328C918.792 77.6 919.944 79.104 921.672 79.104C922.92 79.104 923.88 78.496 924.424 77.184L929.448 79.712C928.104 82.592 925.16 84.224 921.32 84.224C915.848 84.224 912.264 80.704 912.264 75.36C912.264 69.952 915.88 66.368 921.384 66.368ZM939.613 66.336C944.509 66.336 947.421 68.672 947.421 72.704V84H941.085V82.08C940.029 83.488 938.301 84.288 935.997 84.288C932.285 84.288 930.109 82.08 930.109 78.816C930.109 75.456 932.445 73.6 936.829 73.536H941.085V73.472C941.085 72.032 940.061 71.168 938.077 71.168C936.701 71.168 934.749 71.584 932.829 72.416L931.229 68.128C934.077 66.976 936.893 66.336 939.613 66.336ZM938.141 80.064C939.453 80.064 940.605 79.36 941.085 78.272V76.704H938.141C936.861 76.704 936.189 77.248 936.189 78.336C936.189 79.424 936.893 80.064 938.141 80.064ZM962.25 66.368C967.114 66.368 970.314 69.952 970.314 75.392C970.314 80.736 967.21 84.224 962.41 84.224C960.362 84.224 958.666 83.424 957.482 81.984V90.208H951.018V66.592H957.482V68.608C958.634 67.168 960.298 66.368 962.25 66.368ZM960.618 79.104C962.538 79.104 963.786 77.536 963.786 75.232C963.786 72.928 962.538 71.36 960.618 71.36C958.762 71.36 957.482 72.928 957.482 75.232C957.482 77.536 958.762 79.104 960.618 79.104ZM980.73 66.368C986.842 66.368 990.17 70.464 989.786 76.864H978.074C978.586 78.528 979.802 79.456 981.466 79.456C982.842 79.456 984.154 78.848 985.306 77.792L988.666 81.088C986.842 83.104 984.218 84.224 980.922 84.224C975.098 84.224 971.546 80.704 971.546 75.36C971.546 69.92 975.226 66.368 980.73 66.368ZM977.946 73.696H983.418C983.45 71.968 982.362 70.752 980.794 70.752C979.29 70.752 978.266 71.936 977.946 73.696ZM1010.34 60.256V84H1003.88V82.016C1002.73 83.424 1001.09 84.224 999.11 84.224C994.246 84.224 991.046 80.672 991.046 75.2C991.046 69.856 994.182 66.368 998.95 66.368C1001 66.368 1002.69 67.168 1003.88 68.608V60.256H1010.34ZM1000.74 79.264C1002.63 79.264 1003.88 77.696 1003.88 75.36C1003.88 73.056 1002.63 71.488 1000.74 71.488C998.822 71.488 997.574 73.056 997.574 75.36C997.574 77.696 998.822 79.264 1000.74 79.264ZM1030.83 64.992C1029.74 64.992 1029 65.6 1029 66.656V67.488H1032.62V71.616H1029V84H1022.6V71.616H1020.24V67.488H1022.6V65.888C1022.6 62.176 1025.45 59.936 1029.55 59.968C1031.4 59.968 1033.48 60.416 1034.89 61.216L1032.68 65.664C1032.11 65.248 1031.37 64.992 1030.83 64.992ZM1040.98 66.592V69.344C1042.19 67.424 1044.08 66.336 1046.45 66.336V72.16C1043.12 71.744 1040.98 73.152 1040.98 75.68V84H1034.51V66.592H1040.98ZM1057.09 66.368C1062.94 66.368 1066.75 69.888 1066.75 75.296C1066.75 80.672 1062.94 84.224 1057.09 84.224C1051.23 84.224 1047.39 80.672 1047.39 75.296C1047.39 69.888 1051.23 66.368 1057.09 66.368ZM1057.09 71.488C1055.17 71.488 1053.92 73.056 1053.92 75.36C1053.92 77.696 1055.17 79.232 1057.09 79.232C1058.97 79.232 1060.22 77.696 1060.22 75.36C1060.22 73.056 1058.97 71.488 1057.09 71.488ZM1092.78 66.336C1096.46 66.336 1098.96 68.928 1098.96 72.96V84H1092.5V74.816C1092.5 73.088 1091.54 72 1090.1 72C1088.43 72.032 1087.38 73.408 1087.38 75.392V84H1080.91V74.816C1080.91 73.088 1079.95 72 1078.51 72C1076.82 72.032 1075.76 73.408 1075.76 75.392V84H1069.3V66.592H1075.76V69.248C1076.94 67.36 1078.8 66.336 1081.17 66.336C1083.89 66.336 1085.97 67.744 1086.9 70.112C1088.02 67.68 1090.06 66.336 1092.78 66.336ZM572.987 111.336C576.667 111.336 579.163 113.928 579.163 117.96V129H572.699V119.816C572.699 118.088 571.739 117 570.299 117C568.635 117.032 567.579 118.408 567.579 120.392V129H561.115V119.816C561.115 118.088 560.155 117 558.715 117C557.019 117.032 555.963 118.408 555.963 120.392V129H549.499V111.592H555.963V114.248C557.147 112.36 559.003 111.336 561.371 111.336C564.091 111.336 566.171 112.744 567.099 115.112C568.219 112.68 570.267 111.336 572.987 111.336ZM590.785 111.336C595.681 111.336 598.593 113.672 598.593 117.704V129H592.257V127.08C591.201 128.488 589.473 129.288 587.169 129.288C583.457 129.288 581.281 127.08 581.281 123.816C581.281 120.456 583.617 118.6 588.001 118.536H592.257V118.472C592.257 117.032 591.233 116.168 589.249 116.168C587.873 116.168 585.921 116.584 584.001 117.416L582.401 113.128C585.249 111.976 588.065 111.336 590.785 111.336ZM589.313 125.064C590.625 125.064 591.777 124.36 592.257 123.272V121.704H589.313C588.033 121.704 587.361 122.248 587.361 123.336C587.361 124.424 588.065 125.064 589.313 125.064ZM608.494 111.592V114.344C609.71 112.424 611.598 111.336 613.966 111.336V117.16C610.638 116.744 608.494 118.152 608.494 120.68V129H602.03V111.592H608.494ZM619.513 103.304C621.465 103.304 622.841 104.68 622.841 106.632C622.841 108.584 621.465 109.96 619.513 109.96C617.561 109.96 616.185 108.584 616.185 106.632C616.185 104.68 617.561 103.304 619.513 103.304ZM622.713 129H616.249V111.592H622.713V129ZM638.624 111.336C642.336 111.336 644.896 113.928 644.896 117.96V129H638.432V119.816C638.432 118.088 637.44 117 635.936 117C634.176 117.032 633.088 118.408 633.088 120.392V129H626.624V111.592H633.088V114.28C634.304 112.36 636.192 111.336 638.624 111.336ZM656.151 111.368C662.263 111.368 665.591 115.464 665.207 121.864H653.495C654.007 123.528 655.223 124.456 656.887 124.456C658.263 124.456 659.575 123.848 660.727 122.792L664.087 126.088C662.263 128.104 659.639 129.224 656.343 129.224C650.519 129.224 646.967 125.704 646.967 120.36C646.967 114.92 650.647 111.368 656.151 111.368ZM653.367 118.696H658.839C658.871 116.968 657.783 115.752 656.215 115.752C654.711 115.752 653.687 116.936 653.367 118.696ZM682.587 111.368C686.235 111.368 689.147 113.032 690.619 115.912L685.659 118.344C685.051 117.256 684.091 116.616 682.875 116.616C681.147 116.616 679.995 118.12 679.995 120.328C679.995 122.6 681.147 124.104 682.875 124.104C684.123 124.104 685.083 123.496 685.627 122.184L690.651 124.712C689.307 127.592 686.363 129.224 682.523 129.224C677.051 129.224 673.467 125.704 673.467 120.36C673.467 114.952 677.083 111.368 682.587 111.368ZM700.816 111.336C705.712 111.336 708.624 113.672 708.624 117.704V129H702.288V127.08C701.232 128.488 699.504 129.288 697.2 129.288C693.488 129.288 691.312 127.08 691.312 123.816C691.312 120.456 693.648 118.6 698.032 118.536H702.288V118.472C702.288 117.032 701.264 116.168 699.28 116.168C697.904 116.168 695.952 116.584 694.032 117.416L692.432 113.128C695.28 111.976 698.096 111.336 700.816 111.336ZM699.344 125.064C700.656 125.064 701.808 124.36 702.288 123.272V121.704H699.344C698.064 121.704 697.392 122.248 697.392 123.336C697.392 124.424 698.096 125.064 699.344 125.064ZM729.085 111.592V127.496C729.085 132.392 725.213 135.496 719.517 135.496C716.285 135.496 713.373 134.472 711.485 133.224L713.629 128.872C715.165 129.896 717.181 130.472 718.973 130.472C721.309 130.472 722.685 129.384 722.685 127.688V125.928C721.565 127.272 719.997 128.008 718.013 128.008C713.789 128.008 710.717 124.68 710.717 119.592C710.717 114.632 713.693 111.368 717.885 111.368C719.933 111.368 721.565 112.136 722.685 113.48V111.592H729.085ZM719.709 123.368C721.501 123.368 722.685 121.928 722.685 119.784C722.685 117.576 721.501 116.136 719.709 116.136C717.949 116.136 716.765 117.608 716.765 119.784C716.765 121.928 717.949 123.368 719.709 123.368ZM740.745 111.368C746.857 111.368 750.185 115.464 749.801 121.864H738.089C738.601 123.528 739.817 124.456 741.481 124.456C742.857 124.456 744.169 123.848 745.321 122.792L748.681 126.088C746.857 128.104 744.233 129.224 740.937 129.224C735.113 129.224 731.561 125.704 731.561 120.36C731.561 114.92 735.241 111.368 740.745 111.368ZM737.961 118.696H743.433C743.465 116.968 742.377 115.752 740.809 115.752C739.305 115.752 738.281 116.936 737.961 118.696ZM759.157 111.304C761.781 111.304 764.437 112.04 766.805 113.416L764.661 117.48C762.293 116.264 760.341 115.656 758.965 115.656C758.165 115.656 757.653 115.944 757.653 116.488C757.653 118.44 766.741 117.576 766.741 123.528C766.741 127.112 763.637 129.288 759.093 129.288C756.021 129.288 753.173 128.456 750.901 126.824L752.885 122.76C755.061 124.168 757.269 124.904 759.189 124.904C760.053 124.904 760.629 124.648 760.629 124.104C760.629 122.12 751.733 123.08 751.733 117.128C751.733 113.48 754.773 111.304 759.157 111.304ZM783.282 111.304C785.906 111.304 788.562 112.04 790.93 113.416L788.786 117.48C786.418 116.264 784.466 115.656 783.09 115.656C782.29 115.656 781.778 115.944 781.778 116.488C781.778 118.44 790.866 117.576 790.866 123.528C790.866 127.112 787.762 129.288 783.218 129.288C780.146 129.288 777.298 128.456 775.026 126.824L777.01 122.76C779.186 124.168 781.394 124.904 783.314 124.904C784.178 124.904 784.754 124.648 784.754 124.104C784.754 122.12 775.858 123.08 775.858 117.128C775.858 113.48 778.898 111.304 783.282 111.304ZM796.919 103.304C798.871 103.304 800.247 104.68 800.247 106.632C800.247 108.584 798.871 109.96 796.919 109.96C794.967 109.96 793.591 108.584 793.591 106.632C793.591 104.68 794.967 103.304 796.919 103.304ZM800.119 129H793.655V111.592H800.119V129ZM816.03 111.336C819.742 111.336 822.302 113.928 822.302 117.96V129H815.838V119.816C815.838 118.088 814.846 117 813.342 117C811.582 117.032 810.494 118.408 810.494 120.392V129H804.03V111.592H810.494V114.28C811.71 112.36 813.598 111.336 816.03 111.336ZM833.494 111.368C837.142 111.368 840.054 113.032 841.526 115.912L836.566 118.344C835.958 117.256 834.998 116.616 833.782 116.616C832.054 116.616 830.902 118.12 830.902 120.328C830.902 122.6 832.054 124.104 833.782 124.104C835.03 124.104 835.99 123.496 836.534 122.184L841.558 124.712C840.214 127.592 837.27 129.224 833.43 129.224C827.958 129.224 824.374 125.704 824.374 120.36C824.374 114.952 827.99 111.368 833.494 111.368ZM851.151 111.368C857.263 111.368 860.591 115.464 860.207 121.864H848.495C849.007 123.528 850.223 124.456 851.887 124.456C853.263 124.456 854.575 123.848 855.727 122.792L859.087 126.088C857.263 128.104 854.639 129.224 851.343 129.224C845.519 129.224 841.967 125.704 841.967 120.36C841.967 114.92 845.647 111.368 851.151 111.368ZM848.367 118.696H853.839C853.871 116.968 852.783 115.752 851.215 115.752C849.711 115.752 848.687 116.936 848.367 118.696ZM877.971 106.28C882.483 106.28 885.843 108.68 885.843 112.264C885.843 114.792 884.019 117.288 881.555 119.816L877.651 123.816H886.323V129H869.139V124.776L877.011 116.52C878.067 115.4 878.899 114.12 878.899 113.224C878.899 112.232 878.195 111.688 876.947 111.688C875.187 111.688 872.979 112.776 870.867 114.536L868.371 109.736C871.411 107.592 874.579 106.28 877.971 106.28ZM898.594 106.376C905.058 106.376 908.706 110.44 908.706 117.768C908.706 125.128 905.058 129.192 898.594 129.192C892.034 129.192 888.45 125.128 888.45 117.768C888.45 110.44 892.034 106.376 898.594 106.376ZM898.594 111.208C896.194 111.208 895.266 112.968 895.266 117.768C895.266 122.568 896.194 124.36 898.594 124.36C900.93 124.36 901.858 122.568 901.858 117.768C901.858 112.968 900.93 111.208 898.594 111.208ZM920.707 129H914.019V111.88H910.019V106.568H920.707V129ZM933.852 106.28C938.908 106.28 942.172 108.712 942.172 112.456C942.172 114.248 941.148 116.008 939.58 117C941.884 118.056 943.356 120.232 943.356 122.664C943.356 126.696 939.644 129.288 933.884 129.288C928.124 129.288 924.412 126.728 924.412 122.76C924.412 120.296 926.012 118.056 928.508 117C926.748 115.88 925.596 114.056 925.596 112.264C925.596 108.616 928.86 106.28 933.852 106.28ZM933.884 110.664C932.124 110.664 931.196 111.4 931.196 112.808C931.196 114.152 932.124 114.888 933.884 114.888C935.644 114.888 936.572 114.152 936.572 112.808C936.572 111.4 935.644 110.664 933.884 110.664ZM933.884 119.624C931.804 119.624 930.684 120.488 930.684 122.088C930.684 123.656 931.804 124.488 933.884 124.488C935.964 124.488 937.084 123.656 937.084 122.088C937.084 120.488 935.964 119.624 933.884 119.624ZM948.361 123.24C950.153 123.24 951.401 124.456 951.401 126.216C951.401 128.008 950.153 129.256 948.361 129.256C946.601 129.256 945.353 128.008 945.353 126.216C945.353 124.456 946.601 123.24 948.361 123.24Z" fill="black"/>
</g>
<defs>
<linearGradient id="paint0_linear_3281_1102" x1="995" y1="0" x2="995" y2="729" gradientUnits="userSpaceOnUse">
<stop offset="0.13" stop-color="white"/>
<stop offset="0.455" stop-color="white" stop-opacity="0.873563"/>
<stop offset="0.515" stop-color="white" stop-opacity="0"/>
</linearGradient>
<clipPath id="clip0_3281_1102">
<rect width="1500" height="760" fill="white"/>
</clipPath>
</defs>
</svg>
