<svg width="1500" height="760" viewBox="0 0 1500 760" fill="none" xmlns="http://www.w3.org/2000/svg">
<rect width="1500" height="760" fill="white"/>
<path d="M401.826 56.88H395.298V74H388.61V56.88H382.114V51.568H401.826V56.88ZM414.909 56.336C418.653 56.336 421.181 58.928 421.181 62.96V74H414.717V64.816C414.717 63.088 413.757 62 412.221 62C410.461 62.032 409.373 63.408 409.373 65.392V74H402.909V50.256H409.373V59.28C410.589 57.36 412.477 56.336 414.909 56.336ZM432.433 56.368C438.545 56.368 441.873 60.464 441.489 66.864H429.777C430.289 68.528 431.505 69.456 433.169 69.456C434.545 69.456 435.857 68.848 437.009 67.792L440.369 71.088C438.545 73.104 435.921 74.224 432.625 74.224C426.801 74.224 423.249 70.704 423.249 65.36C423.249 59.92 426.929 56.368 432.433 56.368ZM429.649 63.696H435.121C435.153 61.968 434.065 60.752 432.497 60.752C430.993 60.752 429.969 61.936 429.649 63.696ZM474.581 56.336C478.261 56.336 480.757 58.928 480.757 62.96V74H474.293V64.816C474.293 63.088 473.333 62 471.893 62C470.229 62.032 469.173 63.408 469.173 65.392V74H462.709V64.816C462.709 63.088 461.749 62 460.309 62C458.613 62.032 457.557 63.408 457.557 65.392V74H451.093V56.592H457.557V59.248C458.741 57.36 460.597 56.336 462.965 56.336C465.685 56.336 467.765 57.744 468.693 60.112C469.813 57.68 471.861 56.336 474.581 56.336ZM492.378 56.336C497.274 56.336 500.186 58.672 500.186 62.704V74H493.85V72.08C492.794 73.488 491.066 74.288 488.762 74.288C485.05 74.288 482.874 72.08 482.874 68.816C482.874 65.456 485.21 63.6 489.594 63.536H493.85V63.472C493.85 62.032 492.826 61.168 490.842 61.168C489.466 61.168 487.514 61.584 485.594 62.416L483.994 58.128C486.842 56.976 489.658 56.336 492.378 56.336ZM490.906 70.064C492.218 70.064 493.37 69.36 493.85 68.272V66.704H490.906C489.626 66.704 488.954 67.248 488.954 68.336C488.954 69.424 489.658 70.064 490.906 70.064ZM506.888 48.304C508.84 48.304 510.216 49.68 510.216 51.632C510.216 53.584 508.84 54.96 506.888 54.96C504.936 54.96 503.56 53.584 503.56 51.632C503.56 49.68 504.936 48.304 506.888 48.304ZM510.088 74H503.624V56.592H510.088V74ZM525.999 56.336C529.711 56.336 532.271 58.928 532.271 62.96V74H525.807V64.816C525.807 63.088 524.815 62 523.311 62C521.551 62.032 520.463 63.408 520.463 65.392V74H513.999V56.592H520.463V59.28C521.679 57.36 523.567 56.336 525.999 56.336ZM554.078 56.368C558.942 56.368 562.142 59.952 562.142 65.392C562.142 70.736 559.038 74.224 554.238 74.224C552.19 74.224 550.494 73.424 549.31 71.984V80.208H542.846V56.592H549.31V58.608C550.462 57.168 552.126 56.368 554.078 56.368ZM552.446 69.104C554.366 69.104 555.614 67.536 555.614 65.232C555.614 62.928 554.366 61.36 552.446 61.36C550.59 61.36 549.31 62.928 549.31 65.232C549.31 67.536 550.59 69.104 552.446 69.104ZM571.182 56.592V59.344C572.398 57.424 574.286 56.336 576.654 56.336V62.16C573.326 61.744 571.182 63.152 571.182 65.68V74H564.718V56.592H571.182ZM587.288 56.368C593.144 56.368 596.952 59.888 596.952 65.296C596.952 70.672 593.144 74.224 587.288 74.224C581.432 74.224 577.592 70.672 577.592 65.296C577.592 59.888 581.432 56.368 587.288 56.368ZM587.288 61.488C585.368 61.488 584.12 63.056 584.12 65.36C584.12 67.696 585.368 69.232 587.288 69.232C589.176 69.232 590.424 67.696 590.424 65.36C590.424 63.056 589.176 61.488 587.288 61.488ZM617.451 50.256V74H610.987V72.016C609.835 73.424 608.203 74.224 606.219 74.224C601.355 74.224 598.155 70.672 598.155 65.2C598.155 59.856 601.291 56.368 606.059 56.368C608.107 56.368 609.803 57.168 610.987 58.608V50.256H617.451ZM607.851 69.264C609.739 69.264 610.987 67.696 610.987 65.36C610.987 63.056 609.739 61.488 607.851 61.488C605.931 61.488 604.683 63.056 604.683 65.36C604.683 67.696 605.931 69.264 607.851 69.264ZM639.002 56.592V74H632.538V71.408C631.354 73.264 629.53 74.288 627.194 74.288C623.546 74.288 621.05 71.696 621.05 67.632V56.592H627.514V65.808C627.514 67.504 628.442 68.592 629.85 68.592C631.514 68.56 632.538 67.184 632.538 65.2V56.592H639.002ZM650.681 56.368C654.329 56.368 657.241 58.032 658.713 60.912L653.753 63.344C653.145 62.256 652.185 61.616 650.969 61.616C649.241 61.616 648.089 63.12 648.089 65.328C648.089 67.6 649.241 69.104 650.969 69.104C652.217 69.104 653.177 68.496 653.721 67.184L658.745 69.712C657.401 72.592 654.457 74.224 650.617 74.224C645.145 74.224 641.561 70.704 641.561 65.36C641.561 59.952 645.177 56.368 650.681 56.368ZM668.339 56.368C674.451 56.368 677.779 60.464 677.395 66.864H665.683C666.195 68.528 667.411 69.456 669.075 69.456C670.451 69.456 671.763 68.848 672.915 67.792L676.275 71.088C674.451 73.104 671.827 74.224 668.531 74.224C662.707 74.224 659.155 70.704 659.155 65.36C659.155 59.92 662.835 56.368 668.339 56.368ZM665.555 63.696H671.027C671.059 61.968 669.971 60.752 668.403 60.752C666.899 60.752 665.875 61.936 665.555 63.696ZM686.463 56.592V59.344C687.679 57.424 689.567 56.336 691.935 56.336V62.16C688.607 61.744 686.463 63.152 686.463 65.68V74H679.999V56.592H686.463ZM700.97 56.304C703.594 56.304 706.25 57.04 708.618 58.416L706.474 62.48C704.106 61.264 702.154 60.656 700.778 60.656C699.978 60.656 699.466 60.944 699.466 61.488C699.466 63.44 708.554 62.576 708.554 68.528C708.554 72.112 705.45 74.288 700.906 74.288C697.834 74.288 694.986 73.456 692.714 71.824L694.698 67.76C696.874 69.168 699.082 69.904 701.002 69.904C701.866 69.904 702.442 69.648 702.442 69.104C702.442 67.12 693.546 68.08 693.546 62.128C693.546 58.48 696.586 56.304 700.97 56.304ZM721.607 48.304C723.559 48.304 724.935 49.68 724.935 51.632C724.935 53.584 723.559 54.96 721.607 54.96C719.655 54.96 718.279 53.584 718.279 51.632C718.279 49.68 719.655 48.304 721.607 48.304ZM724.807 74H718.343V56.592H724.807V74ZM740.718 56.336C744.43 56.336 746.99 58.928 746.99 62.96V74H740.526V64.816C740.526 63.088 739.534 62 738.03 62C736.27 62.032 735.182 63.408 735.182 65.392V74H728.718V56.592H735.182V59.28C736.398 57.36 738.286 56.336 740.718 56.336ZM768.125 51.376C771.517 51.376 775.133 52.912 777.405 55.344L773.565 59.888C772.157 58.096 770.077 56.912 768.221 56.912C765.181 56.912 762.877 59.376 762.877 62.672C762.877 65.968 765.181 68.464 768.221 68.464C769.949 68.464 772.029 67.44 773.565 65.872L777.405 69.968C774.973 72.592 771.293 74.288 767.901 74.288C761.085 74.288 756.061 69.36 756.061 62.736C756.061 56.208 761.181 51.376 768.125 51.376ZM791.659 56.336C795.403 56.336 797.931 58.928 797.931 62.96V74H791.467V64.816C791.467 63.088 790.507 62 788.971 62C787.211 62.032 786.123 63.408 786.123 65.392V74H779.659V50.256H786.123V59.28C787.339 57.36 789.227 56.336 791.659 56.336ZM804.607 48.304C806.559 48.304 807.935 49.68 807.935 51.632C807.935 53.584 806.559 54.96 804.607 54.96C802.655 54.96 801.279 53.584 801.279 51.632C801.279 49.68 802.655 48.304 804.607 48.304ZM807.807 74H801.343V56.592H807.807V74ZM818.342 74H811.878V50.256H818.342V74ZM830.276 56.368C836.388 56.368 839.716 60.464 839.332 66.864H827.62C828.132 68.528 829.348 69.456 831.012 69.456C832.388 69.456 833.7 68.848 834.852 67.792L838.212 71.088C836.388 73.104 833.764 74.224 830.468 74.224C824.644 74.224 821.092 70.704 821.092 65.36C821.092 59.92 824.772 56.368 830.276 56.368ZM827.492 63.696H832.964C832.996 61.968 831.908 60.752 830.34 60.752C828.836 60.752 827.812 61.936 827.492 63.696ZM866.408 56.592V74H859.944V71.408C858.76 73.264 856.936 74.288 854.6 74.288C850.952 74.288 848.456 71.696 848.456 67.632V56.592H854.92V65.808C854.92 67.504 855.848 68.592 857.256 68.592C858.92 68.56 859.944 67.184 859.944 65.2V56.592H866.408ZM877.063 56.304C879.687 56.304 882.343 57.04 884.711 58.416L882.567 62.48C880.199 61.264 878.247 60.656 876.871 60.656C876.071 60.656 875.559 60.944 875.559 61.488C875.559 63.44 884.647 62.576 884.647 68.528C884.647 72.112 881.543 74.288 876.999 74.288C873.927 74.288 871.079 73.456 868.807 71.824L870.791 67.76C872.967 69.168 875.175 69.904 877.095 69.904C877.959 69.904 878.535 69.648 878.535 69.104C878.535 67.12 869.639 68.08 869.639 62.128C869.639 58.48 872.679 56.304 877.063 56.304ZM895.276 56.368C901.388 56.368 904.716 60.464 904.332 66.864H892.62C893.132 68.528 894.348 69.456 896.012 69.456C897.388 69.456 898.7 68.848 899.852 67.792L903.212 71.088C901.388 73.104 898.764 74.224 895.468 74.224C889.644 74.224 886.092 70.704 886.092 65.36C886.092 59.92 889.772 56.368 895.276 56.368ZM892.492 63.696H897.964C897.996 61.968 896.908 60.752 895.34 60.752C893.836 60.752 892.812 61.936 892.492 63.696ZM924.888 50.256V74H918.424V72.016C917.272 73.424 915.64 74.224 913.656 74.224C908.792 74.224 905.592 70.672 905.592 65.2C905.592 59.856 908.728 56.368 913.496 56.368C915.544 56.368 917.24 57.168 918.424 58.608V50.256H924.888ZM915.288 69.264C917.176 69.264 918.424 67.696 918.424 65.36C918.424 63.056 917.176 61.488 915.288 61.488C913.368 61.488 912.12 63.056 912.12 65.36C912.12 67.696 913.368 69.264 915.288 69.264ZM941.632 64.528H945.44V60.016H951.616V64.528H954.56V69.424H951.616V74H945.44V69.424H934.848V65.008L941.632 51.568H948L941.632 64.528ZM966.732 51.28C969.388 51.28 972.332 52.048 974.252 53.2L971.724 57.872C970.476 56.912 968.876 56.4 967.148 56.4C963.948 56.4 962.38 58.096 962.412 61.136C963.404 59.952 965.036 59.12 967.34 59.12C971.756 59.12 974.604 62.096 974.604 66.448C974.604 71.248 971.148 74.288 965.996 74.288C959.788 74.288 956.044 69.936 956.044 63.056C956.044 55.92 960.236 51.28 966.732 51.28ZM965.804 63.984C964.012 63.984 963.02 64.944 963.02 66.48C963.02 67.952 963.916 68.976 965.74 68.976C967.468 68.976 968.428 68.112 968.428 66.416C968.428 64.848 967.5 63.984 965.804 63.984ZM986.688 51.376C993.152 51.376 996.8 55.44 996.8 62.768C996.8 70.128 993.152 74.192 986.688 74.192C980.128 74.192 976.544 70.128 976.544 62.768C976.544 55.44 980.128 51.376 986.688 51.376ZM986.688 56.208C984.288 56.208 983.36 57.968 983.36 62.768C983.36 67.568 984.288 69.36 986.688 69.36C989.024 69.36 989.952 67.568 989.952 62.768C989.952 57.968 989.024 56.208 986.688 56.208ZM1017.69 68.72L1018.84 73.168C1017.62 73.872 1015.77 74.288 1014.01 74.288C1010.3 74.32 1007.8 72.176 1007.8 68.56V61.616H1005.4V57.488H1007.8V52.656H1014.23V57.488H1018.52V61.616H1014.23V67.568C1014.23 68.688 1014.81 69.232 1015.7 69.232C1016.22 69.232 1016.92 69.008 1017.69 68.72ZM1029.63 56.368C1035.49 56.368 1039.3 59.888 1039.3 65.296C1039.3 70.672 1035.49 74.224 1029.63 74.224C1023.78 74.224 1019.94 70.672 1019.94 65.296C1019.94 59.888 1023.78 56.368 1029.63 56.368ZM1029.63 61.488C1027.71 61.488 1026.46 63.056 1026.46 65.36C1026.46 67.696 1027.71 69.232 1029.63 69.232C1031.52 69.232 1032.77 67.696 1032.77 65.36C1032.77 63.056 1031.52 61.488 1029.63 61.488ZM1053.84 56.336C1057.55 56.336 1060.11 58.928 1060.11 62.96V74H1053.65V64.816C1053.65 63.088 1052.66 62 1051.15 62C1049.39 62.032 1048.31 63.408 1048.31 65.392V74H1041.84V56.592H1048.31V59.28C1049.52 57.36 1051.41 56.336 1053.84 56.336ZM1070.28 56.304C1072.91 56.304 1075.56 57.04 1077.93 58.416L1075.79 62.48C1073.42 61.264 1071.47 60.656 1070.09 60.656C1069.29 60.656 1068.78 60.944 1068.78 61.488C1068.78 63.44 1077.87 62.576 1077.87 68.528C1077.87 72.112 1074.76 74.288 1070.22 74.288C1067.15 74.288 1064.3 73.456 1062.03 71.824L1064.01 67.76C1066.19 69.168 1068.39 69.904 1070.31 69.904C1071.18 69.904 1071.75 69.648 1071.75 69.104C1071.75 67.12 1062.86 68.08 1062.86 62.128C1062.86 58.48 1065.9 56.304 1070.28 56.304ZM1096.01 56.368C1101.86 56.368 1105.67 59.888 1105.67 65.296C1105.67 70.672 1101.86 74.224 1096.01 74.224C1090.15 74.224 1086.31 70.672 1086.31 65.296C1086.31 59.888 1090.15 56.368 1096.01 56.368ZM1096.01 61.488C1094.09 61.488 1092.84 63.056 1092.84 65.36C1092.84 67.696 1094.09 69.232 1096.01 69.232C1097.9 69.232 1099.14 67.696 1099.14 65.36C1099.14 63.056 1097.9 61.488 1096.01 61.488ZM1117.34 54.992C1116.26 54.992 1115.52 55.6 1115.52 56.656V57.488H1119.14V61.616H1115.52V74H1109.12V61.616H1106.75V57.488H1109.12V55.888C1109.12 52.176 1111.97 49.936 1116.06 49.968C1117.92 49.968 1120 50.416 1121.41 51.216L1119.2 55.664C1118.62 55.248 1117.89 54.992 1117.34 54.992ZM473.644 101.336C478.54 101.336 481.452 103.672 481.452 107.704V119H475.116V117.08C474.06 118.488 472.332 119.288 470.028 119.288C466.316 119.288 464.14 117.08 464.14 113.816C464.14 110.456 466.476 108.6 470.86 108.536H475.116V108.472C475.116 107.032 474.092 106.168 472.108 106.168C470.732 106.168 468.78 106.584 466.86 107.416L465.26 103.128C468.108 101.976 470.924 101.336 473.644 101.336ZM472.172 115.064C473.484 115.064 474.636 114.36 475.116 113.272V111.704H472.172C470.892 111.704 470.22 112.248 470.22 113.336C470.22 114.424 470.924 115.064 472.172 115.064ZM496.89 101.336C500.602 101.336 503.162 103.928 503.162 107.96V119H496.698V109.816C496.698 108.088 495.706 107 494.202 107C492.442 107.032 491.354 108.408 491.354 110.392V119H484.89V101.592H491.354V104.28C492.57 102.36 494.458 101.336 496.89 101.336ZM517.329 113.72L518.481 118.168C517.265 118.872 515.409 119.288 513.649 119.288C509.937 119.32 507.441 117.176 507.441 113.56V106.616H505.041V102.488H507.441V97.656H513.873V102.488H518.161V106.616H513.873V112.568C513.873 113.688 514.449 114.232 515.345 114.232C515.857 114.232 516.561 114.008 517.329 113.72ZM524.216 93.304C526.168 93.304 527.544 94.68 527.544 96.632C527.544 98.584 526.168 99.96 524.216 99.96C522.264 99.96 520.888 98.584 520.888 96.632C520.888 94.68 522.264 93.304 524.216 93.304ZM527.416 119H520.952V101.592H527.416V119ZM542.719 101.368C547.583 101.368 550.783 104.952 550.783 110.392C550.783 115.736 547.679 119.224 542.879 119.224C540.831 119.224 539.135 118.424 537.951 116.984V119H531.487V95.256H537.951V103.608C539.103 102.168 540.767 101.368 542.719 101.368ZM541.087 114.104C543.007 114.104 544.255 112.536 544.255 110.232C544.255 107.928 543.007 106.36 541.087 106.36C539.231 106.36 537.951 107.928 537.951 110.232C537.951 112.536 539.231 114.104 541.087 114.104ZM556.622 93.304C558.574 93.304 559.95 94.68 559.95 96.632C559.95 98.584 558.574 99.96 556.622 99.96C554.67 99.96 553.294 98.584 553.294 96.632C553.294 94.68 554.67 93.304 556.622 93.304ZM559.822 119H553.358V101.592H559.822V119ZM572.085 101.368C577.941 101.368 581.749 104.888 581.749 110.296C581.749 115.672 577.941 119.224 572.085 119.224C566.229 119.224 562.389 115.672 562.389 110.296C562.389 104.888 566.229 101.368 572.085 101.368ZM572.085 106.488C570.165 106.488 568.917 108.056 568.917 110.36C568.917 112.696 570.165 114.232 572.085 114.232C573.973 114.232 575.221 112.696 575.221 110.36C575.221 108.056 573.973 106.488 572.085 106.488ZM595.048 113.72L596.2 118.168C594.984 118.872 593.128 119.288 591.368 119.288C587.656 119.32 585.16 117.176 585.16 113.56V106.616H582.76V102.488H585.16V97.656H591.592V102.488H595.88V106.616H591.592V112.568C591.592 113.688 592.168 114.232 593.064 114.232C593.576 114.232 594.28 114.008 595.048 113.72ZM601.935 93.304C603.887 93.304 605.263 94.68 605.263 96.632C605.263 98.584 603.887 99.96 601.935 99.96C599.983 99.96 598.607 98.584 598.607 96.632C598.607 94.68 599.983 93.304 601.935 93.304ZM605.135 119H598.671V101.592H605.135V119ZM616.822 101.368C620.47 101.368 623.382 103.032 624.854 105.912L619.894 108.344C619.286 107.256 618.326 106.616 617.11 106.616C615.382 106.616 614.23 108.12 614.23 110.328C614.23 112.6 615.382 114.104 617.11 114.104C618.358 114.104 619.318 113.496 619.862 112.184L624.886 114.712C623.542 117.592 620.598 119.224 616.758 119.224C611.286 119.224 607.702 115.704 607.702 110.36C607.702 104.952 611.318 101.368 616.822 101.368ZM633.767 101.304C636.391 101.304 639.047 102.04 641.415 103.416L639.271 107.48C636.903 106.264 634.951 105.656 633.575 105.656C632.775 105.656 632.263 105.944 632.263 106.488C632.263 108.44 641.351 107.576 641.351 113.528C641.351 117.112 638.247 119.288 633.703 119.288C630.631 119.288 627.783 118.456 625.511 116.824L627.495 112.76C629.671 114.168 631.879 114.904 633.799 114.904C634.663 114.904 635.239 114.648 635.239 114.104C635.239 112.12 626.343 113.08 626.343 107.128C626.343 103.48 629.383 101.304 633.767 101.304ZM654.404 93.304C656.356 93.304 657.732 94.68 657.732 96.632C657.732 98.584 656.356 99.96 654.404 99.96C652.452 99.96 651.076 98.584 651.076 96.632C651.076 94.68 652.452 93.304 654.404 93.304ZM657.604 119H651.14V101.592H657.604V119ZM673.515 101.336C677.227 101.336 679.787 103.928 679.787 107.96V119H673.323V109.816C673.323 108.088 672.331 107 670.827 107C669.067 107.032 667.979 108.408 667.979 110.392V119H661.515V101.592H667.979V104.28C669.195 102.36 671.083 101.336 673.515 101.336ZM713.69 101.336C717.37 101.336 719.866 103.928 719.866 107.96V119H713.402V109.816C713.402 108.088 712.442 107 711.002 107C709.338 107.032 708.282 108.408 708.282 110.392V119H701.818V109.816C701.818 108.088 700.858 107 699.418 107C697.722 107.032 696.666 108.408 696.666 110.392V119H690.202V101.592H696.666V104.248C697.85 102.36 699.706 101.336 702.074 101.336C704.794 101.336 706.874 102.744 707.802 105.112C708.922 102.68 710.97 101.336 713.69 101.336ZM731.488 101.336C736.384 101.336 739.296 103.672 739.296 107.704V119H732.96V117.08C731.904 118.488 730.176 119.288 727.872 119.288C724.16 119.288 721.984 117.08 721.984 113.816C721.984 110.456 724.32 108.6 728.704 108.536H732.96V108.472C732.96 107.032 731.936 106.168 729.952 106.168C728.576 106.168 726.624 106.584 724.704 107.416L723.104 103.128C725.952 101.976 728.768 101.336 731.488 101.336ZM730.016 115.064C731.328 115.064 732.48 114.36 732.96 113.272V111.704H730.016C728.736 111.704 728.064 112.248 728.064 113.336C728.064 114.424 728.768 115.064 730.016 115.064ZM749.197 101.592V104.344C750.413 102.424 752.301 101.336 754.669 101.336V107.16C751.341 106.744 749.197 108.152 749.197 110.68V119H742.733V101.592H749.197ZM760.216 93.304C762.168 93.304 763.544 94.68 763.544 96.632C763.544 98.584 762.168 99.96 760.216 99.96C758.264 99.96 756.888 98.584 756.888 96.632C756.888 94.68 758.264 93.304 760.216 93.304ZM763.416 119H756.952V101.592H763.416V119ZM779.327 101.336C783.039 101.336 785.599 103.928 785.599 107.96V119H779.135V109.816C779.135 108.088 778.143 107 776.639 107C774.879 107.032 773.791 108.408 773.791 110.392V119H767.327V101.592H773.791V104.28C775.007 102.36 776.895 101.336 779.327 101.336ZM796.855 101.368C802.967 101.368 806.295 105.464 805.911 111.864H794.199C794.711 113.528 795.927 114.456 797.591 114.456C798.967 114.456 800.279 113.848 801.431 112.792L804.791 116.088C802.967 118.104 800.343 119.224 797.047 119.224C791.223 119.224 787.671 115.704 787.671 110.36C787.671 104.92 791.351 101.368 796.855 101.368ZM794.071 108.696H799.543C799.575 106.968 798.487 105.752 796.919 105.752C795.415 105.752 794.391 106.936 794.071 108.696ZM823.291 101.368C826.939 101.368 829.851 103.032 831.323 105.912L826.363 108.344C825.755 107.256 824.795 106.616 823.579 106.616C821.851 106.616 820.699 108.12 820.699 110.328C820.699 112.6 821.851 114.104 823.579 114.104C824.827 114.104 825.787 113.496 826.331 112.184L831.355 114.712C830.01 117.592 827.067 119.224 823.227 119.224C817.755 119.224 814.171 115.704 814.171 110.36C814.171 104.952 817.786 101.368 823.291 101.368ZM841.519 101.336C846.415 101.336 849.327 103.672 849.327 107.704V119H842.991V117.08C841.935 118.488 840.207 119.288 837.903 119.288C834.191 119.288 832.015 117.08 832.015 113.816C832.015 110.456 834.351 108.6 838.735 108.536H842.991V108.472C842.991 107.032 841.967 106.168 839.983 106.168C838.607 106.168 836.655 106.584 834.735 107.416L833.135 103.128C835.983 101.976 838.799 101.336 841.519 101.336ZM840.047 115.064C841.359 115.064 842.511 114.36 842.991 113.272V111.704H840.047C838.767 111.704 838.095 112.248 838.095 113.336C838.095 114.424 838.799 115.064 840.047 115.064ZM869.789 101.592V117.496C869.789 122.392 865.917 125.496 860.22 125.496C856.989 125.496 854.077 124.472 852.189 123.224L854.333 118.872C855.869 119.896 857.885 120.472 859.677 120.472C862.013 120.472 863.389 119.384 863.389 117.688V115.928C862.269 117.272 860.701 118.008 858.717 118.008C854.493 118.008 851.421 114.68 851.421 109.592C851.421 104.632 854.397 101.368 858.589 101.368C860.637 101.368 862.269 102.136 863.389 103.48V101.592H869.789ZM860.413 113.368C862.205 113.368 863.389 111.928 863.389 109.784C863.389 107.576 862.205 106.136 860.413 106.136C858.653 106.136 857.469 107.608 857.469 109.784C857.469 111.928 858.653 113.368 860.413 113.368ZM881.448 101.368C887.56 101.368 890.888 105.464 890.504 111.864H878.792C879.304 113.528 880.52 114.456 882.184 114.456C883.56 114.456 884.872 113.848 886.024 112.792L889.384 116.088C887.56 118.104 884.936 119.224 881.64 119.224C875.816 119.224 872.264 115.704 872.264 110.36C872.264 104.92 875.944 101.368 881.448 101.368ZM878.664 108.696H884.136C884.168 106.968 883.08 105.752 881.512 105.752C880.008 105.752 878.984 106.936 878.664 108.696ZM899.86 101.304C902.484 101.304 905.14 102.04 907.508 103.416L905.364 107.48C902.996 106.264 901.044 105.656 899.668 105.656C898.868 105.656 898.356 105.944 898.356 106.488C898.356 108.44 907.444 107.576 907.444 113.528C907.444 117.112 904.34 119.288 899.796 119.288C896.724 119.288 893.876 118.456 891.604 116.824L893.588 112.76C895.764 114.168 897.972 114.904 899.892 114.904C900.756 114.904 901.332 114.648 901.332 114.104C901.332 112.12 892.436 113.08 892.436 107.128C892.436 103.48 895.476 101.304 899.86 101.304ZM920.497 93.304C922.449 93.304 923.825 94.68 923.825 96.632C923.825 98.584 922.449 99.96 920.497 99.96C918.545 99.96 917.169 98.584 917.169 96.632C917.169 94.68 918.545 93.304 920.497 93.304ZM923.697 119H917.233V101.592H923.697V119ZM939.608 101.336C943.32 101.336 945.88 103.928 945.88 107.96V119H939.416V109.816C939.416 108.088 938.424 107 936.92 107C935.16 107.032 934.072 108.408 934.072 110.392V119H927.608V101.592H934.072V104.28C935.288 102.36 937.176 101.336 939.608 101.336ZM964.456 96.28C968.968 96.28 972.328 98.68 972.328 102.264C972.328 104.792 970.504 107.288 968.04 109.816L964.136 113.816H972.808V119H955.624V114.776L963.496 106.52C964.552 105.4 965.384 104.12 965.384 103.224C965.384 102.232 964.68 101.688 963.432 101.688C961.672 101.688 959.464 102.776 957.352 104.536L954.856 99.736C957.896 97.592 961.064 96.28 964.456 96.28ZM985.079 96.376C991.543 96.376 995.191 100.44 995.191 107.768C995.191 115.128 991.543 119.192 985.079 119.192C978.519 119.192 974.935 115.128 974.935 107.768C974.935 100.44 978.519 96.376 985.079 96.376ZM985.079 101.208C982.679 101.208 981.751 102.968 981.751 107.768C981.751 112.568 982.679 114.36 985.079 114.36C987.415 114.36 988.343 112.568 988.343 107.768C988.343 102.968 987.415 101.208 985.079 101.208ZM1006.49 96.28C1011 96.28 1014.36 98.68 1014.36 102.264C1014.36 104.792 1012.53 107.288 1010.07 109.816L1006.17 113.816H1014.84V119H997.655V114.776L1005.53 106.52C1006.58 105.4 1007.42 104.12 1007.42 103.224C1007.42 102.232 1006.71 101.688 1005.46 101.688C1003.7 101.688 1001.5 102.776 999.383 104.536L996.887 99.736C999.927 97.592 1003.1 96.28 1006.49 96.28ZM1026.57 119H1019.88V101.88H1015.88V96.568H1026.57V119ZM1033.41 113.24C1035.2 113.24 1036.45 114.456 1036.45 116.216C1036.45 118.008 1035.2 119.256 1033.41 119.256C1031.65 119.256 1030.4 118.008 1030.4 116.216C1030.4 114.456 1031.65 113.24 1033.41 113.24Z" fill="black"/>
<path d="M533.487 374.016C533.487 374.578 533.224 375.827 531.19 377.791C529.148 379.761 525.812 381.948 520.972 384.209C511.323 388.714 496.98 392.927 478.779 396.522C442.475 403.692 392.058 408.169 336.186 408.169C280.314 408.169 229.897 403.692 193.593 396.522C175.392 392.927 161.049 388.714 151.4 384.209C146.56 381.948 143.224 379.761 141.182 377.791C139.148 375.827 138.885 374.578 138.885 374.016C138.885 373.454 139.148 372.205 141.182 370.241C143.224 368.271 146.56 366.083 151.4 363.823C161.049 359.318 175.392 355.105 193.593 351.51C229.897 344.34 280.314 339.863 336.186 339.863C392.058 339.863 442.475 344.34 478.779 351.51C496.98 355.105 511.323 359.318 520.972 363.823C525.812 366.083 529.148 368.271 531.19 370.241C533.224 372.205 533.487 373.454 533.487 374.016Z" stroke="#13176F" stroke-width="12"/>
<path d="M534.414 642.407C534.414 664.349 446.232 682.137 337.454 682.137C228.675 682.137 140.493 664.349 140.493 642.407" stroke="#13176F" stroke-width="12"/>
<path d="M140.07 379.933V647.901" stroke="#13176F" stroke-width="12"/>
<path d="M534.415 373.593L534.415 648.324" stroke="#13176F" stroke-width="12"/>
<mask id="mask0_3281_949" style="mask-type:alpha" maskUnits="userSpaceOnUse" x="94" y="425" width="470" height="210">
<path fill-rule="evenodd" clip-rule="evenodd" d="M218.096 426.241C209.812 426.077 202.578 430.874 200.127 436.997L193.684 425.758L169.978 425.29L182.465 449.361L169.054 472.044L192.76 472.512L199.661 461.636C201.4 467.607 206.204 472.777 213.101 472.914L257.592 473.792C268.813 474.014 278.455 458.916 281.874 451.339C278.255 443.573 269.676 427.259 256.404 426.997L218.096 426.241ZM259.688 445.771C261.187 445.801 262.425 444.677 262.453 443.261C262.481 441.845 261.288 440.673 259.789 440.643C258.29 440.614 257.051 441.738 257.024 443.154C256.996 444.57 258.188 445.742 259.688 445.771Z" fill="#FF3636"/>
<path fill-rule="evenodd" clip-rule="evenodd" d="M331.082 426.241C322.797 426.077 315.564 430.874 313.112 436.997L306.669 425.758L282.963 425.29L295.45 449.361L282.039 472.044L305.746 472.512L312.646 461.636C314.386 467.607 319.189 472.777 326.086 472.914L370.577 473.792C381.798 474.014 391.441 458.916 394.859 451.339C391.241 443.573 382.661 427.259 369.389 426.997L331.082 426.241ZM372.673 445.771C374.173 445.801 375.411 444.677 375.439 443.261C375.467 441.845 374.274 440.673 372.775 440.643C371.275 440.614 370.037 441.738 370.009 443.154C369.981 444.57 371.174 445.742 372.673 445.771Z" fill="#FF3636"/>
<path fill-rule="evenodd" clip-rule="evenodd" d="M277.817 478.698C269.532 478.534 262.299 483.331 259.848 489.454L253.405 478.216L229.698 477.748L242.185 501.819L228.775 524.501L252.481 524.969L259.381 514.093C261.121 520.064 265.924 525.235 272.821 525.371L317.313 526.25C328.533 526.472 338.176 511.373 341.595 503.796C337.976 496.03 329.397 479.717 316.125 479.455L277.817 478.698ZM319.409 498.229C320.908 498.258 322.146 497.134 322.174 495.718C322.202 494.302 321.009 493.13 319.51 493.101C318.011 493.071 316.773 494.195 316.745 495.611C316.717 497.027 317.91 498.199 319.409 498.229Z" fill="#FF3636"/>
<path fill-rule="evenodd" clip-rule="evenodd" d="M210.026 532.77C201.741 532.606 194.508 537.403 192.057 543.526L185.613 532.287L161.907 531.819L174.394 555.89L160.984 578.573L184.69 579.041L191.59 568.165C193.33 574.136 198.134 579.306 205.03 579.443L249.522 580.322C260.742 580.543 270.385 565.445 273.804 557.868C270.185 550.102 261.606 533.788 248.334 533.526L210.026 532.77ZM251.617 552.3C253.117 552.33 254.355 551.206 254.383 549.79C254.411 548.374 253.218 547.202 251.719 547.172C250.219 547.143 248.981 548.267 248.953 549.683C248.925 551.099 250.118 552.271 251.617 552.3Z" fill="#FF3636"/>
<path fill-rule="evenodd" clip-rule="evenodd" d="M323.818 532.77C315.534 532.606 308.301 537.402 305.849 543.525L299.406 532.287L275.7 531.819L288.187 555.89L274.777 578.573L298.483 579.041L305.383 568.166C307.123 574.136 311.926 579.306 318.822 579.443L363.313 580.322C374.534 580.543 384.177 565.445 387.595 557.868C383.977 550.102 375.397 533.788 362.125 533.526L323.818 532.77ZM365.409 552.3C366.908 552.33 368.147 551.206 368.175 549.79C368.202 548.374 367.01 547.202 365.51 547.172C364.011 547.143 362.773 548.267 362.745 549.683C362.717 551.099 363.91 552.271 365.409 552.3Z" fill="#FF3636"/>
<path fill-rule="evenodd" clip-rule="evenodd" d="M437.611 532.77C429.326 532.606 422.093 537.403 419.642 543.526L413.198 532.287L389.492 531.819L401.979 555.89L388.569 578.573L412.275 579.041L419.175 568.165C420.915 574.136 425.718 579.306 432.615 579.443L477.106 580.322C488.327 580.543 497.97 565.445 501.388 557.868C497.77 550.102 489.191 533.788 475.919 533.526L437.611 532.77ZM479.202 552.3C480.702 552.33 481.94 551.206 481.968 549.79C481.996 548.374 480.803 547.202 479.304 547.172C477.804 547.143 476.566 548.267 476.538 549.683C476.51 551.099 477.703 552.271 479.202 552.3Z" fill="#FF3636"/>
<path fill-rule="evenodd" clip-rule="evenodd" d="M255.22 586.841C246.935 586.677 239.702 591.474 237.251 597.597L230.808 586.359L207.102 585.891L219.589 609.962L206.178 632.644L229.884 633.112L236.784 622.237C238.524 628.208 243.327 633.378 250.224 633.514L294.715 634.393C305.936 634.615 315.579 619.516 318.997 611.939C315.379 604.173 306.799 587.86 293.527 587.598L255.22 586.841ZM296.811 606.372C298.31 606.401 299.548 605.277 299.576 603.861C299.604 602.445 298.412 601.274 296.912 601.244C295.413 601.214 294.175 602.338 294.147 603.754C294.119 605.17 295.312 606.342 296.811 606.372Z" fill="#FF3636"/>
<path fill-rule="evenodd" clip-rule="evenodd" d="M118.63 586.359L125.073 597.597C127.525 591.474 134.758 586.678 143.042 586.841L181.35 587.598C194.622 587.86 203.201 604.173 206.82 611.939C203.401 619.516 193.759 634.615 182.538 634.393L138.047 633.514C131.15 633.378 126.347 628.207 124.607 622.237L117.707 633.112L94.0003 632.644L107.411 609.962L94.9238 585.891L118.63 586.359ZM184.633 606.372C186.132 606.401 187.371 605.277 187.399 603.861C187.427 602.445 186.234 601.274 184.734 601.244C183.235 601.214 181.997 602.338 181.969 603.754C181.941 605.17 183.134 606.342 184.633 606.372Z" fill="#FF3636"/>
<path fill-rule="evenodd" clip-rule="evenodd" d="M367.398 586.841C359.114 586.678 351.881 591.474 349.429 597.597L342.986 586.359L319.28 585.891L331.767 609.962L318.356 632.644L342.063 633.112L348.963 622.237C350.703 628.208 355.506 633.378 362.403 633.514L406.894 634.393C418.115 634.615 427.757 619.516 431.176 611.939C427.557 604.173 418.978 587.86 405.706 587.598L367.398 586.841ZM408.99 606.372C410.489 606.401 411.727 605.277 411.755 603.861C411.783 602.445 410.59 601.274 409.091 601.244C407.592 601.214 406.353 602.338 406.325 603.754C406.298 605.17 407.49 606.342 408.99 606.372Z" fill="#FF3636"/>
<path fill-rule="evenodd" clip-rule="evenodd" d="M488.455 586.841C480.17 586.678 472.937 591.474 470.486 597.597L464.042 586.359L440.336 585.891L452.823 609.962L439.412 632.644L463.119 633.112L470.019 622.236C471.759 628.207 476.562 633.378 483.459 633.514L527.95 634.393C539.171 634.615 548.814 619.516 552.232 611.939C548.614 604.173 540.034 587.86 526.762 587.598L488.455 586.841ZM530.046 606.372C531.545 606.401 532.783 605.277 532.811 603.861C532.839 602.445 531.647 601.274 530.147 601.244C528.648 601.214 527.41 602.338 527.382 603.754C527.354 605.17 528.547 606.342 530.046 606.372Z" fill="#FF3636"/>
<path fill-rule="evenodd" clip-rule="evenodd" d="M389.995 481.119C381.711 480.956 374.478 485.752 372.026 491.875L365.583 480.637L341.877 480.169L354.364 504.24L340.953 526.922L364.66 527.391L371.56 516.515C373.3 522.486 378.103 527.656 385 527.792L429.491 528.671C440.712 528.893 450.354 513.794 453.773 506.217C450.154 498.451 441.575 482.138 428.303 481.876L389.995 481.119ZM431.587 500.65C433.086 500.679 434.324 499.555 434.352 498.139C434.38 496.723 433.188 495.552 431.688 495.522C430.189 495.492 428.951 496.616 428.923 498.032C428.895 499.448 430.088 500.62 431.587 500.65Z" fill="#FF3636"/>
<path fill-rule="evenodd" clip-rule="evenodd" d="M499.752 481.119C491.468 480.956 484.235 485.752 481.783 491.875L475.34 480.637L451.634 480.169L464.121 504.24L450.71 526.922L474.417 527.391L481.317 516.515C483.056 522.486 487.86 527.656 494.756 527.792L539.248 528.671C550.468 528.893 560.111 513.794 563.53 506.218C559.911 498.451 551.332 482.138 538.06 481.876L499.752 481.119ZM541.344 500.65C542.843 500.679 544.081 499.555 544.109 498.139C544.137 496.723 542.944 495.552 541.445 495.522C539.946 495.492 538.708 496.616 538.68 498.032C538.652 499.448 539.845 500.62 541.344 500.65Z" fill="#FF3636"/>
<path fill-rule="evenodd" clip-rule="evenodd" d="M444.066 429.469C435.782 429.305 428.549 434.101 426.097 440.224L419.655 428.987L395.948 428.518L408.435 452.589L395.025 475.272L418.731 475.74L425.631 464.865C427.371 470.836 432.174 476.006 439.07 476.142L483.561 477.021C494.782 477.242 504.425 462.144 507.844 454.567C504.225 446.801 495.646 430.488 482.374 430.225L444.066 429.469ZM485.657 448.999C487.157 449.029 488.395 447.905 488.423 446.489C488.451 445.073 487.258 443.901 485.759 443.871C484.259 443.842 483.021 444.966 482.993 446.382C482.965 447.798 484.158 448.97 485.657 448.999Z" fill="#FF3636"/>
<path fill-rule="evenodd" clip-rule="evenodd" d="M168.867 476.277C160.583 476.113 153.35 480.91 150.898 487.032L144.455 475.795L120.749 475.327L133.236 499.398L119.825 522.08L143.532 522.548L150.432 511.673C152.172 517.644 156.975 522.814 163.871 522.95L208.362 523.829C219.583 524.05 229.226 508.952 232.645 501.375C229.026 493.609 220.447 477.296 207.175 477.034L168.867 476.277ZM210.459 495.807C211.958 495.837 213.196 494.713 213.224 493.297C213.252 491.881 212.059 490.709 210.56 490.68C209.061 490.65 207.823 491.774 207.795 493.19C207.767 494.606 208.959 495.778 210.459 495.807Z" fill="#FF3636"/>
</mask>
<g mask="url(#mask0_3281_949)">
<rect x="145.65" y="380.096" width="384.15" height="255.024" fill="#FF3636"/>
</g>
<path d="M216 171H461V297.391L338.5 361L216 297.391V171Z" fill="#FF3636"/>
<path d="M323.874 221.064C324.07 221.064 324.228 221.143 324.346 221.3C324.503 221.418 324.582 221.575 324.582 221.772V227.849C324.582 228.046 324.503 228.223 324.346 228.38C324.228 228.498 324.07 228.557 323.874 228.557H322.045C321.848 228.557 321.75 228.655 321.75 228.852V238.292C321.75 238.489 321.671 238.666 321.514 238.823C321.396 238.941 321.238 239 321.042 239H314.139C313.942 239 313.765 238.941 313.608 238.823C313.49 238.666 313.431 238.489 313.431 238.292V228.852C313.431 228.655 313.332 228.557 313.136 228.557H298.386C298.189 228.557 298.012 228.498 297.855 228.38C297.737 228.223 297.678 228.046 297.678 227.849V223.011C297.678 222.657 297.717 222.362 297.796 222.126L305.643 198.29C305.761 197.897 306.016 197.7 306.41 197.7H313.903C314.139 197.7 314.316 197.779 314.434 197.936C314.552 198.054 314.571 198.251 314.493 198.526L307.413 220.71C307.373 220.946 307.452 221.064 307.649 221.064H313.136C313.332 221.064 313.431 220.966 313.431 220.769V214.633C313.431 214.436 313.49 214.279 313.608 214.161C313.765 214.004 313.942 213.925 314.139 213.925H321.042C321.238 213.925 321.396 214.004 321.514 214.161C321.671 214.279 321.75 214.436 321.75 214.633V220.769C321.75 220.966 321.848 221.064 322.045 221.064H323.874ZM349.797 222.657C349.954 223.601 350.033 224.761 350.033 226.138C350.033 227.003 349.993 228.183 349.915 229.678C349.797 232.785 348.735 235.204 346.729 236.935C344.723 238.626 342.048 239.472 338.705 239.472C335.558 239.472 333.001 238.685 331.035 237.112C329.107 235.539 327.967 233.198 327.613 230.091C327.455 229.265 327.377 228.183 327.377 226.846L327.259 207.789C327.259 204.564 328.281 202.007 330.327 200.119C332.411 198.192 335.165 197.228 338.587 197.228C341.773 197.228 344.369 198.192 346.375 200.119C348.42 202.046 349.443 204.603 349.443 207.789V209.559C349.443 209.756 349.364 209.933 349.207 210.09C349.089 210.208 348.931 210.267 348.735 210.267H341.832C341.635 210.267 341.458 210.208 341.301 210.09C341.183 209.933 341.124 209.756 341.124 209.559V208.261C341.124 207.199 340.868 206.314 340.357 205.606C339.845 204.898 339.255 204.544 338.587 204.544C337.721 204.544 337.013 204.898 336.463 205.606C335.912 206.275 335.637 207.16 335.637 208.261V214.22C335.637 214.338 335.676 214.417 335.755 214.456C335.833 214.456 335.912 214.417 335.991 214.338C337.289 213.237 338.764 212.686 340.416 212.686C343.169 212.686 345.372 213.591 347.024 215.4C348.715 217.209 349.639 219.628 349.797 222.657ZM341.478 229.029C341.556 227.141 341.596 225.981 341.596 225.548C341.596 224.486 341.517 223.267 341.36 221.89C341.242 220.985 340.947 220.277 340.475 219.766C340.003 219.255 339.393 218.999 338.646 218.999C337.859 218.999 337.21 219.274 336.699 219.825C336.227 220.336 335.932 221.064 335.814 222.008C335.696 223.542 335.637 224.722 335.637 225.548C335.637 226.492 335.696 227.711 335.814 229.206C335.932 230.229 336.227 231.015 336.699 231.566C337.21 232.117 337.859 232.392 338.646 232.392C339.432 232.392 340.062 232.097 340.534 231.507C341.045 230.917 341.36 230.091 341.478 229.029ZM364.749 239.649C361.288 239.649 358.495 238.567 356.371 236.404C354.247 234.201 353.185 231.31 353.185 227.731V208.969C353.185 205.39 354.247 202.518 356.371 200.355C358.495 198.152 361.288 197.051 364.749 197.051C367.03 197.051 369.056 197.543 370.826 198.526C372.596 199.509 373.953 200.906 374.897 202.715C375.88 204.524 376.372 206.609 376.372 208.969V227.731C376.372 230.091 375.88 232.176 374.897 233.985C373.953 235.794 372.596 237.191 370.826 238.174C369.056 239.157 367.03 239.649 364.749 239.649ZM364.749 232.51C365.732 232.51 366.519 232.117 367.109 231.33C367.738 230.543 368.053 229.501 368.053 228.203V208.497C368.053 207.199 367.738 206.157 367.109 205.37C366.519 204.583 365.732 204.19 364.749 204.19C363.766 204.19 362.979 204.583 362.389 205.37C361.799 206.157 361.504 207.199 361.504 208.497V228.203C361.504 229.501 361.799 230.543 362.389 231.33C362.979 232.117 363.766 232.51 364.749 232.51ZM307.532 256.7C307.729 256.7 307.886 256.779 308.004 256.936C308.161 257.054 308.24 257.211 308.24 257.408V263.131C308.24 263.328 308.161 263.505 308.004 263.662C307.886 263.78 307.729 263.839 307.532 263.839H300.157C299.96 263.839 299.862 263.937 299.862 264.134V297.292C299.862 297.489 299.783 297.666 299.626 297.823C299.508 297.941 299.351 298 299.154 298H292.251C292.054 298 291.877 297.941 291.72 297.823C291.602 297.666 291.543 297.489 291.543 297.292V264.134C291.543 263.937 291.445 263.839 291.248 263.839H284.168C283.971 263.839 283.794 263.78 283.637 263.662C283.519 263.505 283.46 263.328 283.46 263.131V257.408C283.46 257.211 283.519 257.054 283.637 256.936C283.794 256.779 283.971 256.7 284.168 256.7H307.532ZM322.472 298.472C318.853 298.472 315.962 297.41 313.799 295.286C311.636 293.162 310.554 290.33 310.554 286.79V267.91C310.554 264.37 311.636 261.538 313.799 259.414C315.962 257.29 318.853 256.228 322.472 256.228C326.091 256.228 328.982 257.29 331.145 259.414C333.348 261.538 334.449 264.37 334.449 267.91V286.79C334.449 290.33 333.348 293.162 331.145 295.286C328.982 297.41 326.091 298.472 322.472 298.472ZM322.472 291.333C323.573 291.333 324.458 290.959 325.127 290.212C325.796 289.425 326.13 288.403 326.13 287.144V267.556C326.13 266.297 325.796 265.294 325.127 264.547C324.458 263.76 323.573 263.367 322.472 263.367C321.371 263.367 320.486 263.76 319.817 264.547C319.188 265.294 318.873 266.297 318.873 267.556V287.144C318.873 288.403 319.188 289.425 319.817 290.212C320.486 290.959 321.371 291.333 322.472 291.333ZM355.905 257.408C355.905 257.211 355.964 257.054 356.082 256.936C356.239 256.779 356.416 256.7 356.613 256.7H363.457C363.653 256.7 363.811 256.779 363.929 256.936C364.086 257.054 364.165 257.211 364.165 257.408V297.292C364.165 297.489 364.086 297.666 363.929 297.823C363.811 297.941 363.653 298 363.457 298H355.669C355.275 298 355.02 297.803 354.902 297.41L347.586 274.577C347.546 274.459 347.468 274.42 347.35 274.459C347.271 274.459 347.232 274.518 347.232 274.636L347.291 297.292C347.291 297.489 347.212 297.666 347.055 297.823C346.937 297.941 346.779 298 346.583 298H339.739C339.542 298 339.365 297.941 339.208 297.823C339.09 297.666 339.031 297.489 339.031 297.292V257.408C339.031 257.211 339.09 257.054 339.208 256.936C339.365 256.779 339.542 256.7 339.739 256.7H347.468C347.861 256.7 348.117 256.897 348.235 257.29L355.61 280.123C355.649 280.241 355.708 280.3 355.787 280.3C355.905 280.261 355.964 280.182 355.964 280.064L355.905 257.408ZM379.957 298.472C377.676 298.472 375.67 298.02 373.939 297.115C372.209 296.21 370.871 294.952 369.927 293.339C368.983 291.687 368.511 289.799 368.511 287.675V285.964C368.511 285.767 368.57 285.61 368.688 285.492C368.846 285.335 369.023 285.256 369.219 285.256H376.004C376.201 285.256 376.358 285.335 376.476 285.492C376.634 285.61 376.712 285.767 376.712 285.964V287.262C376.712 288.481 377.027 289.465 377.656 290.212C378.286 290.959 379.072 291.333 380.016 291.333C380.96 291.333 381.747 290.979 382.376 290.271C383.006 289.563 383.32 288.639 383.32 287.498C383.32 286.318 382.927 285.315 382.14 284.489C381.354 283.624 379.82 282.365 377.538 280.713C375.572 279.297 373.979 278.038 372.759 276.937C371.54 275.836 370.498 274.479 369.632 272.866C368.767 271.253 368.334 269.385 368.334 267.261C368.334 263.918 369.377 261.243 371.461 259.237C373.546 257.231 376.299 256.228 379.721 256.228C383.183 256.228 385.956 257.27 388.04 259.355C390.164 261.44 391.226 264.173 391.226 267.556V268.972C391.226 269.169 391.148 269.346 390.99 269.503C390.872 269.621 390.715 269.68 390.518 269.68H383.733C383.537 269.68 383.36 269.621 383.202 269.503C383.084 269.346 383.025 269.169 383.025 268.972V267.379C383.025 266.16 382.711 265.196 382.081 264.488C381.491 263.741 380.705 263.367 379.721 263.367C378.777 263.367 378.01 263.721 377.42 264.429C376.83 265.098 376.535 266.042 376.535 267.261C376.535 268.441 376.909 269.483 377.656 270.388C378.404 271.293 379.879 272.551 382.081 274.164C384.52 275.973 386.349 277.448 387.568 278.589C388.827 279.69 389.791 280.929 390.459 282.306C391.167 283.643 391.521 285.256 391.521 287.144C391.521 290.605 390.459 293.359 388.335 295.404C386.211 297.449 383.419 298.472 379.957 298.472Z" fill="black"/>
<mask id="path-23-inside-1_3281_949" fill="white">
<path fill-rule="evenodd" clip-rule="evenodd" d="M1071.33 409.408C1077.36 412.767 1083.8 415.306 1090.55 416.899C1089.69 420.505 1089.01 424.191 1088.51 427.945C1078.03 432.563 1070.72 443.038 1070.72 455.222C1070.72 469.947 1081.41 482.178 1095.45 484.586C1105.88 510.544 1125.78 530.539 1150.12 538.846V557.992C1101.92 571.51 1066.55 615.778 1066.55 668.248V679H1178H1289.45V662.055C1289.45 609.908 1252.52 566.331 1203.39 556.048V537.858C1226.41 529.052 1245.17 509.689 1255.23 484.823C1270.09 483.127 1281.62 470.521 1281.62 455.222C1281.62 442.408 1273.53 431.483 1262.18 427.276C1261.7 423.82 1261.06 420.424 1260.28 417.096C1267.42 415.518 1274.22 412.908 1280.57 409.408H1280.6C1268.84 356.328 1226.25 317 1175.46 317L1175.36 317L1175.27 317C1125.07 317 1082.94 356.328 1071.33 409.408Z"/>
</mask>
<path d="M1090.55 416.899L1102.22 419.664L1104.99 407.981L1093.31 405.221L1090.55 416.899ZM1071.33 409.408L1059.61 406.844L1057.7 415.553L1065.49 419.891L1071.33 409.408ZM1088.51 427.945L1093.35 438.926L1099.52 436.207L1100.41 429.523L1088.51 427.945ZM1095.45 484.586L1106.59 480.111L1104.09 473.892L1097.48 472.759L1095.45 484.586ZM1150.12 538.846H1162.12V530.262L1153.99 527.489L1150.12 538.846ZM1150.12 557.992L1153.36 569.546L1162.12 567.089V557.992H1150.12ZM1066.55 679H1054.55V691H1066.55V679ZM1289.45 679V691H1301.45V679H1289.45ZM1203.39 556.048H1191.39V565.796L1200.94 567.793L1203.39 556.048ZM1203.39 537.858L1199.11 526.65L1191.39 529.6V537.858H1203.39ZM1255.23 484.823L1253.87 472.9L1246.79 473.709L1244.11 480.321L1255.23 484.823ZM1262.18 427.276L1250.29 428.925L1251.28 436.034L1258.01 438.528L1262.18 427.276ZM1260.28 417.096L1257.69 405.378L1245.82 408.003L1248.6 419.839L1260.28 417.096ZM1280.57 409.408V397.408H1277.49L1274.78 398.897L1280.57 409.408ZM1280.6 409.408V421.408H1295.55L1292.31 406.813L1280.6 409.408ZM1175.46 317L1175.46 305L1175.46 305L1175.46 317ZM1175.36 317L1175.36 329L1175.37 329L1175.36 317ZM1175.27 317L1175.27 305H1175.27V317ZM1093.31 405.221C1087.68 403.891 1082.27 401.765 1077.17 398.925L1065.49 419.891C1072.45 423.769 1079.93 426.721 1087.79 428.578L1093.31 405.221ZM1100.41 429.523C1100.86 426.168 1101.46 422.878 1102.22 419.664L1078.87 414.134C1077.92 418.131 1077.17 422.214 1076.62 426.367L1100.41 429.523ZM1082.72 455.222C1082.72 447.967 1087.07 441.697 1093.35 438.926L1083.68 416.964C1069 423.429 1058.72 438.11 1058.72 455.222H1082.72ZM1097.48 472.759C1089.09 471.321 1082.72 464 1082.72 455.222H1058.72C1058.72 475.895 1073.72 493.035 1093.42 496.414L1097.48 472.759ZM1153.99 527.489C1133.36 520.446 1115.88 503.239 1106.59 480.111L1084.32 489.061C1095.89 517.849 1118.2 540.632 1146.24 550.203L1153.99 527.489ZM1162.12 557.992V538.846H1138.12V557.992H1162.12ZM1078.55 668.248C1078.55 621.305 1110.2 581.652 1153.36 569.546L1146.88 546.438C1093.65 561.369 1054.55 610.252 1054.55 668.248H1078.55ZM1078.55 679V668.248H1054.55V679H1078.55ZM1178 667H1066.55V691H1178V667ZM1289.45 667H1178V691H1289.45V667ZM1277.45 662.055V679H1301.45V662.055H1277.45ZM1200.94 567.793C1244.62 576.938 1277.45 615.709 1277.45 662.055H1301.45C1301.45 604.107 1260.42 555.725 1205.85 544.302L1200.94 567.793ZM1191.39 537.858V556.048H1215.39V537.858H1191.39ZM1244.11 480.321C1235.15 502.467 1218.66 519.168 1199.11 526.65L1207.68 549.065C1234.16 538.935 1255.19 516.91 1266.36 489.324L1244.11 480.321ZM1269.62 455.222C1269.62 464.346 1262.74 471.888 1253.87 472.9L1256.6 496.745C1277.44 494.366 1293.62 476.696 1293.62 455.222H1269.62ZM1258.01 438.528C1264.81 441.049 1269.62 447.591 1269.62 455.222H1293.62C1293.62 437.225 1282.25 421.917 1266.34 416.023L1258.01 438.528ZM1248.6 419.839C1249.29 422.806 1249.86 425.837 1250.29 428.925L1274.06 425.627C1273.53 421.804 1272.83 418.042 1271.96 414.352L1248.6 419.839ZM1274.78 398.897C1269.4 401.865 1263.67 404.057 1257.69 405.378L1262.87 428.813C1271.16 426.979 1279.04 423.951 1286.36 419.919L1274.78 398.897ZM1280.6 397.408H1280.57V421.408H1280.6V397.408ZM1175.46 329C1219.59 329 1258.1 363.346 1268.88 412.003L1292.31 406.813C1279.58 349.31 1232.91 305 1175.46 305V329ZM1175.37 329L1175.47 329L1175.46 305L1175.36 305L1175.37 329ZM1175.26 329L1175.36 329L1175.37 305L1175.27 305L1175.26 329ZM1083.05 411.972C1093.71 363.237 1131.82 329 1175.27 329V305C1118.32 305 1072.17 349.42 1059.61 406.844L1083.05 411.972Z" fill="#13176F" mask="url(#path-23-inside-1_3281_949)"/>
<rect x="1160.17" y="451.888" width="45.031" height="18.1159" rx="9.05796" transform="rotate(-49.6293 1160.17 451.888)" fill="#FF3636"/>
<rect x="1183.62" y="491.916" width="45.031" height="18.1159" rx="9.05796" transform="rotate(-97.4594 1183.62 491.916)" fill="#FF3636"/>
<rect x="1131.29" y="490.48" width="45.031" height="18.1159" rx="9.05796" transform="rotate(-134.075 1131.29 490.48)" fill="#FF3636"/>
<rect x="1144.87" y="642.004" width="45.031" height="18.1159" rx="9.05796" transform="rotate(-96.9762 1144.87 642.004)" fill="#FF3636"/>
<rect x="1177.47" y="625.445" width="45.031" height="18.1159" rx="9.05796" transform="rotate(-71.218 1177.47 625.445)" fill="#FF3636"/>
<rect x="1146.79" y="497.835" width="45.031" height="18.1159" rx="9.05796" transform="rotate(-71.218 1146.79 497.835)" fill="#FF3636"/>
<rect x="1131.64" y="441.663" width="45.031" height="18.1159" rx="9.05796" transform="rotate(-71.218 1131.64 441.663)" fill="#FF3636"/>
<rect x="1184.24" y="418.48" width="45.031" height="18.1159" rx="9.05796" transform="rotate(-71.218 1184.24 418.48)" fill="#FF3636"/>
<rect x="1193.16" y="387.274" width="45.031" height="18.1159" rx="9.05796" transform="rotate(-71.218 1193.16 387.274)" fill="#FF3636"/>
<rect x="1148.58" y="381.924" width="45.031" height="18.1159" rx="9.05796" transform="rotate(-71.218 1148.58 381.924)" fill="#FF3636"/>
<rect x="1209.21" y="438.096" width="45.031" height="18.1159" rx="9.05796" transform="rotate(-71.218 1209.21 438.096)" fill="#FF3636"/>
<rect x="1194.94" y="480.003" width="45.031" height="18.1159" rx="9.05796" transform="rotate(-71.218 1194.94 480.003)" fill="#FF3636"/>
<rect x="1162.84" y="557.574" width="45.031" height="18.1159" rx="9.05796" transform="rotate(-71.218 1162.84 557.574)" fill="#FF3636"/>
<rect x="1136.99" y="654.761" width="45.031" height="18.1159" rx="9.05796" transform="rotate(-71.218 1136.99 654.761)" fill="#FF3636"/>
<rect x="1100.43" y="661.003" width="45.031" height="18.1159" rx="9.05796" transform="rotate(-71.218 1100.43 661.003)" fill="#FF3636"/>
<rect x="1224.16" y="655.304" width="45.031" height="18.1159" rx="9.05796" transform="rotate(-110.604 1224.16 655.304)" fill="#FF3636"/>
<rect x="1177.8" y="673.137" width="45.031" height="18.1159" rx="9.05796" transform="rotate(-110.604 1177.8 673.137)" fill="#FF3636"/>
<rect x="1172.45" y="601.807" width="45.031" height="18.1159" rx="9.05796" transform="rotate(-110.604 1172.45 601.807)" fill="#FF3636"/>
<rect x="1129.84" y="641.23" width="45.031" height="18.1159" rx="9.05796" transform="rotate(-110.604 1129.84 641.23)" fill="#FF3636"/>
<rect x="1242" y="649.954" width="45.031" height="18.1159" rx="9.05796" transform="rotate(-110.604 1242 649.954)" fill="#FF3636"/>
<rect x="1126.97" y="423.481" width="45.031" height="18.1159" rx="9.05796" transform="rotate(-110.604 1126.97 423.481)" fill="#FF3636"/>
<path d="M703.206 446.394C702.409 446.394 701.692 446.155 701.055 445.677C700.577 445.04 700.338 444.323 700.338 443.526V423.928C700.338 423.131 700.577 422.494 701.055 422.016C701.692 421.379 702.409 421.06 703.206 421.06H790.919C791.716 421.06 792.353 421.379 792.831 422.016C793.468 422.494 793.787 423.131 793.787 423.928V443.526C793.787 444.323 793.468 445.04 792.831 445.677C792.353 446.155 791.716 446.394 790.919 446.394H703.206ZM703.206 490.37C702.409 490.37 701.692 490.131 701.055 489.653C700.577 489.016 700.338 488.299 700.338 487.502V467.904C700.338 467.107 700.577 466.47 701.055 465.992C701.692 465.355 702.409 465.036 703.206 465.036H790.919C791.716 465.036 792.353 465.355 792.831 465.992C793.468 466.47 793.787 467.107 793.787 467.904V487.502C793.787 488.299 793.468 489.016 792.831 489.653C792.353 490.131 791.716 490.37 790.919 490.37H703.206Z" fill="#13176F"/>
<path d="M681.712 528.951C681.712 529.081 681.66 529.198 681.556 529.302C681.478 529.38 681.374 529.419 681.244 529.419H673.093C672.963 529.419 672.898 529.484 672.898 529.614V535.776C672.898 535.906 672.963 535.971 673.093 535.971H677.773C677.903 535.971 678.007 536.023 678.085 536.127C678.189 536.205 678.241 536.309 678.241 536.439V540.222C678.241 540.352 678.189 540.469 678.085 540.573C678.007 540.651 677.903 540.69 677.773 540.69H673.093C672.963 540.69 672.898 540.755 672.898 540.885V547.086C672.898 547.216 672.963 547.281 673.093 547.281H681.244C681.374 547.281 681.478 547.333 681.556 547.437C681.66 547.515 681.712 547.619 681.712 547.749V551.532C681.712 551.662 681.66 551.779 681.556 551.883C681.478 551.961 681.374 552 681.244 552H667.867C667.737 552 667.62 551.961 667.516 551.883C667.438 551.779 667.399 551.662 667.399 551.532V525.168C667.399 525.038 667.438 524.934 667.516 524.856C667.62 524.752 667.737 524.7 667.867 524.7H681.244C681.374 524.7 681.478 524.752 681.556 524.856C681.66 524.934 681.712 525.038 681.712 525.168V528.951ZM691.753 524.388C694.067 524.388 695.926 525.129 697.33 526.611C698.734 528.067 699.436 529.991 699.436 532.383V544.317C699.436 546.137 699.007 547.71 698.149 549.036C697.317 550.362 696.16 551.298 694.678 551.844C694.574 551.87 694.522 551.935 694.522 552.039V555.354C694.522 555.484 694.47 555.588 694.366 555.666C694.288 555.77 694.184 555.822 694.054 555.822H689.491C689.361 555.822 689.244 555.77 689.14 555.666C689.062 555.588 689.023 555.484 689.023 555.354V552.039C689.023 551.935 688.971 551.87 688.867 551.844C687.385 551.298 686.215 550.362 685.357 549.036C684.525 547.71 684.109 546.137 684.109 544.317V532.383C684.109 530.797 684.421 529.406 685.045 528.21C685.695 526.988 686.592 526.052 687.736 525.402C688.906 524.726 690.245 524.388 691.753 524.388ZM689.608 544.902C689.608 545.708 689.803 546.358 690.193 546.852C690.583 547.346 691.103 547.593 691.753 547.593C692.403 547.593 692.923 547.346 693.313 546.852C693.729 546.358 693.937 545.708 693.937 544.902V531.798C693.937 530.992 693.729 530.342 693.313 529.848C692.923 529.354 692.403 529.107 691.753 529.107C691.103 529.107 690.583 529.354 690.193 529.848C689.803 530.342 689.608 530.992 689.608 531.798V544.902ZM710.12 552.312C707.78 552.312 705.895 551.584 704.465 550.128C703.061 548.646 702.359 546.683 702.359 544.239V525.168C702.359 525.038 702.398 524.934 702.476 524.856C702.58 524.752 702.697 524.7 702.827 524.7H707.39C707.52 524.7 707.624 524.752 707.702 524.856C707.806 524.934 707.858 525.038 707.858 525.168V544.785C707.858 545.617 708.066 546.293 708.482 546.813C708.898 547.333 709.444 547.593 710.12 547.593C710.796 547.593 711.329 547.333 711.719 546.813C712.135 546.293 712.343 545.617 712.343 544.785V525.168C712.343 525.038 712.382 524.934 712.46 524.856C712.564 524.752 712.681 524.7 712.811 524.7H717.374C717.504 524.7 717.608 524.752 717.686 524.856C717.79 524.934 717.842 525.038 717.842 525.168V544.239C717.842 546.683 717.127 548.646 715.697 550.128C714.293 551.584 712.434 552.312 710.12 552.312ZM721.606 552C721.476 552 721.359 551.961 721.255 551.883C721.177 551.779 721.138 551.662 721.138 551.532V525.168C721.138 525.038 721.177 524.934 721.255 524.856C721.359 524.752 721.476 524.7 721.606 524.7H726.169C726.299 524.7 726.403 524.752 726.481 524.856C726.585 524.934 726.637 525.038 726.637 525.168V551.532C726.637 551.662 726.585 551.779 726.481 551.883C726.403 551.961 726.299 552 726.169 552H721.606ZM735.391 552C735.105 552 734.936 551.857 734.884 551.571L729.307 525.207L729.268 525.051C729.268 524.817 729.411 524.7 729.697 524.7H734.728C735.04 524.7 735.209 524.843 735.235 525.129L737.926 542.289C737.952 542.393 737.991 542.445 738.043 542.445C738.095 542.445 738.134 542.393 738.16 542.289L740.773 525.129C740.799 524.843 740.968 524.7 741.28 524.7H746.155C746.493 524.7 746.623 524.869 746.545 525.207L740.929 551.571C740.877 551.857 740.708 552 740.422 552H735.391ZM757.703 552C757.391 552 757.222 551.857 757.196 551.571L756.572 547.827C756.572 547.697 756.494 547.632 756.338 547.632H751.385C751.229 547.632 751.151 547.697 751.151 547.827L750.527 551.571C750.501 551.857 750.332 552 750.02 552H745.457C745.119 552 744.989 551.831 745.067 551.493L750.8 525.129C750.852 524.843 751.021 524.7 751.307 524.7H756.572C756.858 524.7 757.027 524.843 757.079 525.129L762.773 551.493L762.812 551.649C762.812 551.883 762.669 552 762.383 552H757.703ZM751.931 543.186C751.931 543.316 751.983 543.381 752.087 543.381H755.597C755.727 543.381 755.779 543.316 755.753 543.186L753.92 532.539C753.894 532.461 753.855 532.422 753.803 532.422C753.751 532.422 753.712 532.461 753.686 532.539L751.931 543.186ZM765.519 552C765.389 552 765.272 551.961 765.168 551.883C765.09 551.779 765.051 551.662 765.051 551.532V525.168C765.051 525.038 765.09 524.934 765.168 524.856C765.272 524.752 765.389 524.7 765.519 524.7H770.082C770.212 524.7 770.316 524.752 770.394 524.856C770.498 524.934 770.55 525.038 770.55 525.168V547.086C770.55 547.216 770.615 547.281 770.745 547.281H778.935C779.065 547.281 779.169 547.333 779.247 547.437C779.351 547.515 779.403 547.619 779.403 547.749V551.532C779.403 551.662 779.351 551.779 779.247 551.883C779.169 551.961 779.065 552 778.935 552H765.519ZM795.969 528.951C795.969 529.081 795.917 529.198 795.813 529.302C795.735 529.38 795.631 529.419 795.501 529.419H787.35C787.22 529.419 787.155 529.484 787.155 529.614V535.776C787.155 535.906 787.22 535.971 787.35 535.971H792.03C792.16 535.971 792.264 536.023 792.342 536.127C792.446 536.205 792.498 536.309 792.498 536.439V540.222C792.498 540.352 792.446 540.469 792.342 540.573C792.264 540.651 792.16 540.69 792.03 540.69H787.35C787.22 540.69 787.155 540.755 787.155 540.885V547.086C787.155 547.216 787.22 547.281 787.35 547.281H795.501C795.631 547.281 795.735 547.333 795.813 547.437C795.917 547.515 795.969 547.619 795.969 547.749V551.532C795.969 551.662 795.917 551.779 795.813 551.883C795.735 551.961 795.631 552 795.501 552H782.124C781.994 552 781.877 551.961 781.773 551.883C781.695 551.779 781.656 551.662 781.656 551.532V525.168C781.656 525.038 781.695 524.934 781.773 524.856C781.877 524.752 781.994 524.7 782.124 524.7H795.501C795.631 524.7 795.735 524.752 795.813 524.856C795.917 524.934 795.969 525.038 795.969 525.168V528.951ZM809.911 525.168C809.911 525.038 809.95 524.934 810.028 524.856C810.132 524.752 810.249 524.7 810.379 524.7H814.903C815.033 524.7 815.137 524.752 815.215 524.856C815.319 524.934 815.371 525.038 815.371 525.168V551.532C815.371 551.662 815.319 551.779 815.215 551.883C815.137 551.961 815.033 552 814.903 552H809.755C809.495 552 809.326 551.87 809.248 551.61L804.412 536.517C804.386 536.439 804.334 536.413 804.256 536.439C804.204 536.439 804.178 536.478 804.178 536.556L804.217 551.532C804.217 551.662 804.165 551.779 804.061 551.883C803.983 551.961 803.879 552 803.749 552H799.225C799.095 552 798.978 551.961 798.874 551.883C798.796 551.779 798.757 551.662 798.757 551.532V525.168C798.757 525.038 798.796 524.934 798.874 524.856C798.978 524.752 799.095 524.7 799.225 524.7H804.334C804.594 524.7 804.763 524.83 804.841 525.09L809.716 540.183C809.742 540.261 809.781 540.3 809.833 540.3C809.911 540.274 809.95 540.222 809.95 540.144L809.911 525.168ZM833.922 524.7C834.052 524.7 834.156 524.752 834.234 524.856C834.338 524.934 834.39 525.038 834.39 525.168V528.951C834.39 529.081 834.338 529.198 834.234 529.302C834.156 529.38 834.052 529.419 833.922 529.419H829.047C828.917 529.419 828.852 529.484 828.852 529.614V551.532C828.852 551.662 828.8 551.779 828.696 551.883C828.618 551.961 828.514 552 828.384 552H823.821C823.691 552 823.574 551.961 823.47 551.883C823.392 551.779 823.353 551.662 823.353 551.532V529.614C823.353 529.484 823.288 529.419 823.158 529.419H818.478C818.348 529.419 818.231 529.38 818.127 529.302C818.049 529.198 818.01 529.081 818.01 528.951V525.168C818.01 525.038 818.049 524.934 818.127 524.856C818.231 524.752 818.348 524.7 818.478 524.7H833.922Z" fill="black"/>
<path d="M1040 171H1315V297.391L1177.5 361L1040 297.391V171Z" fill="#FF3636"/>
<path d="M1139.45 197.877C1139.77 197.759 1140.06 197.7 1140.34 197.7H1147.48C1147.68 197.7 1147.83 197.779 1147.95 197.936C1148.11 198.054 1148.19 198.211 1148.19 198.408V238.292C1148.19 238.489 1148.11 238.666 1147.95 238.823C1147.83 238.941 1147.68 239 1147.48 239H1140.58C1140.38 239 1140.2 238.941 1140.04 238.823C1139.93 238.666 1139.87 238.489 1139.87 238.292V206.078C1139.87 205.921 1139.77 205.842 1139.57 205.842L1135.03 206.373H1134.91C1134.48 206.373 1134.26 206.157 1134.26 205.724L1134.09 200.65C1134.09 200.257 1134.26 199.981 1134.62 199.824L1139.45 197.877ZM1177.34 221.064C1177.54 221.064 1177.7 221.143 1177.82 221.3C1177.97 221.418 1178.05 221.575 1178.05 221.772V227.849C1178.05 228.046 1177.97 228.223 1177.82 228.38C1177.7 228.498 1177.54 228.557 1177.34 228.557H1175.51C1175.32 228.557 1175.22 228.655 1175.22 228.852V238.292C1175.22 238.489 1175.14 238.666 1174.98 238.823C1174.87 238.941 1174.71 239 1174.51 239H1167.61C1167.41 239 1167.23 238.941 1167.08 238.823C1166.96 238.666 1166.9 238.489 1166.9 238.292V228.852C1166.9 228.655 1166.8 228.557 1166.61 228.557H1151.86C1151.66 228.557 1151.48 228.498 1151.32 228.38C1151.21 228.223 1151.15 228.046 1151.15 227.849V223.011C1151.15 222.657 1151.19 222.362 1151.27 222.126L1159.11 198.29C1159.23 197.897 1159.49 197.7 1159.88 197.7H1167.37C1167.61 197.7 1167.79 197.779 1167.9 197.936C1168.02 198.054 1168.04 198.251 1167.96 198.526L1160.88 220.71C1160.84 220.946 1160.92 221.064 1161.12 221.064H1166.61C1166.8 221.064 1166.9 220.966 1166.9 220.769V214.633C1166.9 214.436 1166.96 214.279 1167.08 214.161C1167.23 214.004 1167.41 213.925 1167.61 213.925H1174.51C1174.71 213.925 1174.87 214.004 1174.98 214.161C1175.14 214.279 1175.22 214.436 1175.22 214.633V220.769C1175.22 220.966 1175.32 221.064 1175.51 221.064H1177.34ZM1192.23 239.649C1188.77 239.649 1185.98 238.567 1183.86 236.404C1181.73 234.201 1180.67 231.31 1180.67 227.731V208.969C1180.67 205.39 1181.73 202.518 1183.86 200.355C1185.98 198.152 1188.77 197.051 1192.23 197.051C1194.51 197.051 1196.54 197.543 1198.31 198.526C1200.08 199.509 1201.44 200.906 1202.38 202.715C1203.36 204.524 1203.86 206.609 1203.86 208.969V227.731C1203.86 230.091 1203.36 232.176 1202.38 233.985C1201.44 235.794 1200.08 237.191 1198.31 238.174C1196.54 239.157 1194.51 239.649 1192.23 239.649ZM1192.23 232.51C1193.22 232.51 1194 232.117 1194.59 231.33C1195.22 230.543 1195.54 229.501 1195.54 228.203V208.497C1195.54 207.199 1195.22 206.157 1194.59 205.37C1194 204.583 1193.22 204.19 1192.23 204.19C1191.25 204.19 1190.46 204.583 1189.87 205.37C1189.28 206.157 1188.99 207.199 1188.99 208.497V228.203C1188.99 229.501 1189.28 230.543 1189.87 231.33C1190.46 232.117 1191.25 232.51 1192.23 232.51ZM1131.98 256.641C1134.14 256.641 1136.07 257.172 1137.76 258.234C1139.45 259.296 1140.75 260.791 1141.66 262.718C1142.6 264.606 1143.07 266.769 1143.07 269.208C1143.07 272.866 1142.09 275.796 1140.12 277.999C1138.16 280.202 1135.58 281.303 1132.39 281.303H1127.97C1127.77 281.303 1127.67 281.401 1127.67 281.598V297.292C1127.67 297.489 1127.59 297.666 1127.44 297.823C1127.32 297.941 1127.16 298 1126.96 298H1120.06C1119.87 298 1119.69 297.941 1119.53 297.823C1119.41 297.666 1119.35 297.489 1119.35 297.292V257.349C1119.35 257.152 1119.41 256.995 1119.53 256.877C1119.69 256.72 1119.87 256.641 1120.06 256.641H1131.98ZM1130.56 274.813C1131.82 274.813 1132.83 274.341 1133.57 273.397C1134.36 272.414 1134.75 271.076 1134.75 269.385C1134.75 267.654 1134.36 266.297 1133.57 265.314C1132.83 264.331 1131.82 263.839 1130.56 263.839H1127.97C1127.77 263.839 1127.67 263.937 1127.67 264.134V274.518C1127.67 274.715 1127.77 274.813 1127.97 274.813H1130.56ZM1147.55 298C1147.35 298 1147.17 297.941 1147.02 297.823C1146.9 297.666 1146.84 297.489 1146.84 297.292V257.408C1146.84 257.211 1146.9 257.054 1147.02 256.936C1147.17 256.779 1147.35 256.7 1147.55 256.7H1154.45C1154.65 256.7 1154.8 256.779 1154.92 256.936C1155.08 257.054 1155.16 257.211 1155.16 257.408V297.292C1155.16 297.489 1155.08 297.666 1154.92 297.823C1154.8 297.941 1154.65 298 1154.45 298H1147.55ZM1161.14 298C1160.95 298 1160.77 297.941 1160.61 297.823C1160.5 297.666 1160.44 297.489 1160.44 297.292V257.408C1160.44 257.211 1160.5 257.054 1160.61 256.936C1160.77 256.779 1160.95 256.7 1161.14 256.7H1168.05C1168.24 256.7 1168.4 256.779 1168.52 256.936C1168.68 257.054 1168.76 257.211 1168.76 257.408V290.566C1168.76 290.763 1168.85 290.861 1169.05 290.861H1181.44C1181.64 290.861 1181.79 290.94 1181.91 291.097C1182.07 291.215 1182.15 291.372 1182.15 291.569V297.292C1182.15 297.489 1182.07 297.666 1181.91 297.823C1181.79 297.941 1181.64 298 1181.44 298H1161.14ZM1186.27 298C1186.07 298 1185.89 297.941 1185.73 297.823C1185.62 297.666 1185.56 297.489 1185.56 297.292V257.408C1185.56 257.211 1185.62 257.054 1185.73 256.936C1185.89 256.779 1186.07 256.7 1186.27 256.7H1193.17C1193.37 256.7 1193.52 256.779 1193.64 256.936C1193.8 257.054 1193.88 257.211 1193.88 257.408V290.566C1193.88 290.763 1193.97 290.861 1194.17 290.861H1206.56C1206.76 290.861 1206.92 290.94 1207.03 291.097C1207.19 291.215 1207.27 291.372 1207.27 291.569V297.292C1207.27 297.489 1207.19 297.666 1207.03 297.823C1206.92 297.941 1206.76 298 1206.56 298H1186.27ZM1221.18 298.472C1218.9 298.472 1216.9 298.02 1215.17 297.115C1213.43 296.21 1212.1 294.952 1211.15 293.339C1210.21 291.687 1209.74 289.799 1209.74 287.675V285.964C1209.74 285.767 1209.8 285.61 1209.91 285.492C1210.07 285.335 1210.25 285.256 1210.45 285.256H1217.23C1217.43 285.256 1217.58 285.335 1217.7 285.492C1217.86 285.61 1217.94 285.767 1217.94 285.964V287.262C1217.94 288.481 1218.25 289.465 1218.88 290.212C1219.51 290.959 1220.3 291.333 1221.24 291.333C1222.19 291.333 1222.97 290.979 1223.6 290.271C1224.23 289.563 1224.55 288.639 1224.55 287.498C1224.55 286.318 1224.15 285.315 1223.37 284.489C1222.58 283.624 1221.05 282.365 1218.76 280.713C1216.8 279.297 1215.2 278.038 1213.99 276.937C1212.77 275.836 1211.72 274.479 1210.86 272.866C1209.99 271.253 1209.56 269.385 1209.56 267.261C1209.56 263.918 1210.6 261.243 1212.69 259.237C1214.77 257.231 1217.53 256.228 1220.95 256.228C1224.41 256.228 1227.18 257.27 1229.27 259.355C1231.39 261.44 1232.45 264.173 1232.45 267.556V268.972C1232.45 269.169 1232.37 269.346 1232.22 269.503C1232.1 269.621 1231.94 269.68 1231.74 269.68H1224.96C1224.76 269.68 1224.59 269.621 1224.43 269.503C1224.31 269.346 1224.25 269.169 1224.25 268.972V267.379C1224.25 266.16 1223.94 265.196 1223.31 264.488C1222.72 263.741 1221.93 263.367 1220.95 263.367C1220 263.367 1219.24 263.721 1218.65 264.429C1218.06 265.098 1217.76 266.042 1217.76 267.261C1217.76 268.441 1218.13 269.483 1218.88 270.388C1219.63 271.293 1221.1 272.551 1223.31 274.164C1225.75 275.973 1227.57 277.448 1228.79 278.589C1230.05 279.69 1231.02 280.929 1231.69 282.306C1232.39 283.643 1232.75 285.256 1232.75 287.144C1232.75 290.605 1231.69 293.359 1229.56 295.404C1227.44 297.449 1224.64 298.472 1221.18 298.472Z" fill="black"/>
<path d="M1068.33 698.68V696.02H1076.89V698.18L1074.03 701.44C1075.15 701.627 1076.02 702.1 1076.63 702.86C1077.25 703.607 1077.55 704.473 1077.55 705.46C1077.55 706.927 1077.05 708.08 1076.05 708.92C1075.07 709.747 1073.8 710.16 1072.25 710.16C1070.71 710.16 1069.14 709.613 1067.55 708.52L1068.83 706.04C1070.15 706.973 1071.33 707.44 1072.37 707.44C1073 707.44 1073.51 707.287 1073.91 706.98C1074.33 706.673 1074.53 706.233 1074.53 705.66C1074.53 705.073 1074.3 704.613 1073.83 704.28C1073.37 703.933 1072.72 703.76 1071.89 703.76C1071.45 703.76 1070.83 703.887 1070.03 704.14V701.84L1072.71 698.68H1068.33ZM1088.77 696.02V698.72H1083.25V701.06C1083.66 700.94 1084.14 700.88 1084.67 700.88C1086.02 700.88 1087.18 701.287 1088.15 702.1C1089.12 702.913 1089.61 704.013 1089.61 705.4C1089.61 706.773 1089.1 707.913 1088.09 708.82C1087.09 709.713 1085.85 710.16 1084.37 710.16C1082.48 710.16 1080.9 709.46 1079.63 708.06L1081.27 705.78C1081.39 705.9 1081.55 706.047 1081.75 706.22C1081.95 706.393 1082.32 706.627 1082.85 706.92C1083.38 707.2 1083.92 707.34 1084.45 707.34C1084.98 707.34 1085.46 707.18 1085.87 706.86C1086.28 706.54 1086.49 706.067 1086.49 705.44C1086.49 704.813 1086.26 704.333 1085.81 704C1085.37 703.653 1084.8 703.48 1084.09 703.48C1083.38 703.48 1082.56 703.733 1081.63 704.24L1080.33 702.84V696.02H1088.77ZM1099.52 704.4C1099.52 703.533 1099.28 702.853 1098.8 702.36C1098.32 701.867 1097.73 701.62 1097.02 701.62C1096.32 701.62 1095.7 701.867 1095.18 702.36C1094.68 702.853 1094.42 703.527 1094.42 704.38C1094.42 705.233 1094.67 705.927 1095.16 706.46C1095.67 706.98 1096.28 707.24 1097 707.24C1097.72 707.24 1098.32 706.98 1098.8 706.46C1099.28 705.94 1099.52 705.253 1099.52 704.4ZM1099.94 708.18C1099 709.233 1097.82 709.76 1096.4 709.76C1095 709.76 1093.82 709.287 1092.84 708.34C1091.88 707.38 1091.4 706.107 1091.4 704.52C1091.4 702.92 1091.9 701.613 1092.88 700.6C1093.88 699.573 1095.02 699.06 1096.3 699.06C1097.58 699.06 1098.64 699.587 1099.48 700.64V699.22H1102.48V708.6C1102.48 709.56 1102.32 710.413 1101.98 711.16C1101.65 711.907 1101.2 712.493 1100.64 712.92C1099.54 713.8 1098.23 714.24 1096.72 714.24C1095.92 714.24 1095.1 714.107 1094.26 713.84C1093.44 713.587 1092.71 713.22 1092.08 712.74L1093.24 710.48C1094.23 711.227 1095.27 711.6 1096.36 711.6C1097.47 711.6 1098.34 711.327 1098.98 710.78C1099.62 710.233 1099.94 709.367 1099.94 708.18ZM1110.52 705.32V702.66H1117.64V705.32H1110.52ZM1134.99 708.44C1133.78 709.587 1132.35 710.16 1130.71 710.16C1129.09 710.16 1127.74 709.66 1126.67 708.66C1125.61 707.647 1125.07 706.293 1125.07 704.6C1125.07 702.907 1125.61 701.56 1126.69 700.56C1127.79 699.56 1129.07 699.06 1130.55 699.06C1132.03 699.06 1133.29 699.507 1134.31 700.4C1135.35 701.293 1135.87 702.52 1135.87 704.08V705.68H1128.03C1128.13 706.267 1128.43 706.747 1128.95 707.12C1129.47 707.493 1130.06 707.68 1130.71 707.68C1131.77 707.68 1132.63 707.327 1133.31 706.62L1134.99 708.44ZM1132.83 703.54C1132.77 702.9 1132.53 702.407 1132.11 702.06C1131.7 701.713 1131.19 701.54 1130.59 701.54C1130.01 701.54 1129.47 701.72 1128.97 702.08C1128.48 702.44 1128.19 702.927 1128.11 703.54H1132.83ZM1142.58 710.16C1141.2 710.16 1140 709.647 1138.98 708.62C1137.95 707.58 1137.44 706.253 1137.44 704.64C1137.44 703.013 1137.94 701.68 1138.94 700.64C1139.94 699.587 1141.05 699.06 1142.28 699.06C1143.5 699.06 1144.58 699.52 1145.5 700.44V699.24H1148.52V713.88H1145.5V709.14C1144.64 709.82 1143.67 710.16 1142.58 710.16ZM1140.46 704.64C1140.46 705.507 1140.72 706.22 1141.24 706.78C1141.76 707.327 1142.36 707.6 1143.06 707.6C1143.75 707.6 1144.34 707.327 1144.82 706.78C1145.3 706.22 1145.54 705.507 1145.54 704.64C1145.54 703.76 1145.3 703.033 1144.82 702.46C1144.34 701.873 1143.74 701.58 1143.04 701.58C1142.33 701.58 1141.72 701.873 1141.22 702.46C1140.71 703.033 1140.46 703.76 1140.46 704.64ZM1158.3 705.04V699.24H1161.32V710H1158.3V708.58C1157.55 709.633 1156.58 710.16 1155.4 710.16C1154.22 710.16 1153.24 709.793 1152.44 709.06C1151.64 708.313 1151.24 707.213 1151.24 705.76V699.24H1154.26V705.1C1154.26 706.753 1154.86 707.58 1156.08 707.58C1156.68 707.58 1157.2 707.367 1157.64 706.94C1158.08 706.5 1158.3 705.867 1158.3 705.04ZM1167.15 710H1164.15V699.24H1167.15V710ZM1164.39 697.88C1164.06 697.533 1163.89 697.113 1163.89 696.62C1163.89 696.127 1164.06 695.713 1164.39 695.38C1164.74 695.033 1165.16 694.86 1165.65 694.86C1166.14 694.86 1166.56 695.033 1166.89 695.38C1167.24 695.713 1167.41 696.127 1167.41 696.62C1167.41 697.113 1167.24 697.533 1166.89 697.88C1166.56 698.213 1166.14 698.38 1165.65 698.38C1165.16 698.38 1164.74 698.213 1164.39 697.88ZM1172.89 710L1168.63 699.22H1171.75L1174.43 706L1177.11 699.22H1180.23L1175.97 710H1172.89ZM1190.71 710H1187.89V708.7C1187.12 709.673 1186.16 710.16 1185.01 710.16C1183.88 710.16 1182.93 709.833 1182.15 709.18C1181.38 708.513 1180.99 707.633 1180.99 706.54C1180.99 705.433 1181.39 704.607 1182.19 704.06C1182.99 703.513 1184.09 703.24 1185.47 703.24H1187.71V703.18C1187.71 702.033 1187.11 701.46 1185.89 701.46C1185.37 701.46 1184.82 701.567 1184.23 701.78C1183.66 701.98 1183.17 702.233 1182.77 702.54L1181.43 700.6C1182.85 699.573 1184.46 699.06 1186.27 699.06C1187.58 699.06 1188.65 699.387 1189.47 700.04C1190.3 700.693 1190.71 701.727 1190.71 703.14V710ZM1187.69 705.9V705.38H1185.81C1184.61 705.38 1184.01 705.753 1184.01 706.5C1184.01 706.887 1184.15 707.187 1184.43 707.4C1184.73 707.6 1185.14 707.7 1185.67 707.7C1186.21 707.7 1186.67 707.54 1187.07 707.22C1187.49 706.887 1187.69 706.447 1187.69 705.9ZM1196.45 710H1193.45V695.16H1196.45V710ZM1208.61 708.44C1207.39 709.587 1205.97 710.16 1204.33 710.16C1202.7 710.16 1201.35 709.66 1200.29 708.66C1199.22 707.647 1198.69 706.293 1198.69 704.6C1198.69 702.907 1199.23 701.56 1200.31 700.56C1201.4 699.56 1202.69 699.06 1204.17 699.06C1205.65 699.06 1206.9 699.507 1207.93 700.4C1208.97 701.293 1209.49 702.52 1209.49 704.08V705.68H1201.65C1201.74 706.267 1202.05 706.747 1202.57 707.12C1203.09 707.493 1203.67 707.68 1204.33 707.68C1205.38 707.68 1206.25 707.327 1206.93 706.62L1208.61 708.44ZM1206.45 703.54C1206.38 702.9 1206.14 702.407 1205.73 702.06C1205.31 701.713 1204.81 701.54 1204.21 701.54C1203.62 701.54 1203.08 701.72 1202.59 702.08C1202.09 702.44 1201.81 702.927 1201.73 703.54H1206.45ZM1214.65 704V710H1211.65V699.24H1214.65V700.44C1215.56 699.52 1216.58 699.06 1217.71 699.06C1218.84 699.06 1219.79 699.46 1220.55 700.26C1221.32 701.06 1221.71 702.127 1221.71 703.46V710H1218.71V703.92C1218.71 702.267 1218.1 701.44 1216.89 701.44C1216.29 701.44 1215.76 701.66 1215.31 702.1C1214.87 702.527 1214.65 703.16 1214.65 704ZM1227.85 701.4V706.22C1227.85 706.633 1227.95 706.96 1228.17 707.2C1228.38 707.427 1228.63 707.54 1228.93 707.54C1229.49 707.54 1229.96 707.287 1230.35 706.78L1231.47 708.88C1230.53 709.733 1229.55 710.16 1228.51 710.16C1227.48 710.16 1226.61 709.82 1225.89 709.14C1225.18 708.46 1224.83 707.533 1224.83 706.36V701.4H1223.57V699.24H1224.83V696.02H1227.85V699.24H1230.45V701.4H1227.85ZM1242.65 710.16C1241.38 710.16 1240.25 709.62 1239.25 708.54C1238.25 707.46 1237.75 706.12 1237.75 704.52C1237.75 702.92 1238.24 701.613 1239.21 700.6C1240.18 699.573 1241.32 699.06 1242.63 699.06C1243.94 699.06 1245 699.52 1245.83 700.44V695.16H1248.83V710H1245.83V708.58C1244.99 709.633 1243.93 710.16 1242.65 710.16ZM1240.77 704.64C1240.77 705.507 1241.03 706.22 1241.55 706.78C1242.07 707.327 1242.68 707.6 1243.37 707.6C1244.06 707.6 1244.65 707.327 1245.13 706.78C1245.62 706.22 1245.87 705.507 1245.87 704.64C1245.87 703.76 1245.62 703.033 1245.13 702.46C1244.65 701.873 1244.06 701.58 1243.35 701.58C1242.64 701.58 1242.04 701.873 1241.53 702.46C1241.02 703.047 1240.77 703.773 1240.77 704.64ZM1254.07 704.62C1254.07 705.5 1254.32 706.22 1254.81 706.78C1255.32 707.327 1255.96 707.6 1256.73 707.6C1257.52 707.6 1258.16 707.327 1258.65 706.78C1259.16 706.22 1259.41 705.5 1259.41 704.62C1259.41 703.74 1259.16 703.02 1258.65 702.46C1258.16 701.9 1257.52 701.62 1256.73 701.62C1255.96 701.62 1255.32 701.9 1254.81 702.46C1254.32 703.02 1254.07 703.74 1254.07 704.62ZM1262.43 704.62C1262.43 706.18 1261.89 707.493 1260.81 708.56C1259.73 709.627 1258.37 710.16 1256.73 710.16C1255.1 710.16 1253.75 709.627 1252.67 708.56C1251.59 707.493 1251.05 706.18 1251.05 704.62C1251.05 703.06 1251.59 701.747 1252.67 700.68C1253.75 699.6 1255.1 699.06 1256.73 699.06C1258.37 699.06 1259.73 699.6 1260.81 700.68C1261.89 701.747 1262.43 703.06 1262.43 704.62ZM1272.66 706.66C1272.66 707.713 1272.27 708.56 1271.48 709.2C1270.71 709.84 1269.72 710.16 1268.52 710.16C1267.72 710.16 1266.89 710.02 1266.02 709.74C1265.15 709.447 1264.37 709.02 1263.68 708.46L1265 706.58C1266.12 707.447 1267.31 707.88 1268.58 707.88C1268.97 707.88 1269.27 707.807 1269.5 707.66C1269.73 707.5 1269.84 707.293 1269.84 707.04C1269.84 706.787 1269.68 706.553 1269.36 706.34C1269.05 706.127 1268.6 705.927 1268 705.74C1267.41 705.553 1266.96 705.393 1266.64 705.26C1266.33 705.127 1265.98 704.933 1265.58 704.68C1264.77 704.173 1264.36 703.427 1264.36 702.44C1264.36 701.44 1264.76 700.627 1265.56 700C1266.36 699.373 1267.39 699.06 1268.66 699.06C1269.93 699.06 1271.19 699.487 1272.46 700.34L1271.34 702.34C1270.41 701.7 1269.47 701.38 1268.54 701.38C1267.62 701.38 1267.16 701.633 1267.16 702.14C1267.16 702.42 1267.31 702.64 1267.6 702.8C1267.89 702.96 1268.38 703.147 1269.06 703.36C1269.74 703.573 1270.22 703.74 1270.5 703.86C1270.79 703.967 1271.14 704.14 1271.54 704.38C1272.29 704.833 1272.66 705.593 1272.66 706.66ZM1284.27 708.44C1283.06 709.587 1281.63 710.16 1279.99 710.16C1278.36 710.16 1277.02 709.66 1275.95 708.66C1274.88 707.647 1274.35 706.293 1274.35 704.6C1274.35 702.907 1274.89 701.56 1275.97 700.56C1277.06 699.56 1278.35 699.06 1279.83 699.06C1281.31 699.06 1282.56 699.507 1283.59 700.4C1284.63 701.293 1285.15 702.52 1285.15 704.08V705.68H1277.31C1277.4 706.267 1277.71 706.747 1278.23 707.12C1278.75 707.493 1279.34 707.68 1279.99 707.68C1281.04 707.68 1281.91 707.327 1282.59 706.62L1284.27 708.44ZM1282.11 703.54C1282.04 702.9 1281.8 702.407 1281.39 702.06C1280.98 701.713 1280.47 701.54 1279.87 701.54C1279.28 701.54 1278.74 701.72 1278.25 702.08C1277.76 702.44 1277.47 702.927 1277.39 703.54H1282.11ZM1096.42 727.62V728.34H1099.02V730.5H1096.42V739H1093.4V730.5H1092.14V728.34H1093.4V727.68C1093.4 726.507 1093.76 725.58 1094.46 724.9C1095.18 724.207 1096.07 723.86 1097.12 723.86C1098.19 723.86 1099.16 724.26 1100.02 725.06L1098.94 727.08C1098.5 726.573 1098.02 726.32 1097.48 726.32C1097.18 726.32 1096.92 726.433 1096.72 726.66C1096.52 726.873 1096.42 727.193 1096.42 727.62ZM1103.03 733.62C1103.03 734.5 1103.28 735.22 1103.77 735.78C1104.28 736.327 1104.92 736.6 1105.69 736.6C1106.48 736.6 1107.12 736.327 1107.61 735.78C1108.12 735.22 1108.37 734.5 1108.37 733.62C1108.37 732.74 1108.12 732.02 1107.61 731.46C1107.12 730.9 1106.48 730.62 1105.69 730.62C1104.92 730.62 1104.28 730.9 1103.77 731.46C1103.28 732.02 1103.03 732.74 1103.03 733.62ZM1111.39 733.62C1111.39 735.18 1110.85 736.493 1109.77 737.56C1108.69 738.627 1107.33 739.16 1105.69 739.16C1104.07 739.16 1102.71 738.627 1101.63 737.56C1100.55 736.493 1100.01 735.18 1100.01 733.62C1100.01 732.06 1100.55 730.747 1101.63 729.68C1102.71 728.6 1104.07 728.06 1105.69 728.06C1107.33 728.06 1108.69 728.6 1109.77 729.68C1110.85 730.747 1111.39 732.06 1111.39 733.62ZM1119.28 730.88C1118.39 730.88 1117.72 731.2 1117.28 731.84C1116.84 732.467 1116.62 733.3 1116.62 734.34V739H1113.62V728.24H1116.62V729.66C1117.01 729.22 1117.49 728.847 1118.06 728.54C1118.65 728.233 1119.24 728.073 1119.84 728.06L1119.86 730.88H1119.28ZM1136.26 739H1133.44V737.7C1132.67 738.673 1131.71 739.16 1130.56 739.16C1129.43 739.16 1128.47 738.833 1127.7 738.18C1126.93 737.513 1126.54 736.633 1126.54 735.54C1126.54 734.433 1126.94 733.607 1127.74 733.06C1128.54 732.513 1129.63 732.24 1131.02 732.24H1133.26V732.18C1133.26 731.033 1132.65 730.46 1131.44 730.46C1130.92 730.46 1130.37 730.567 1129.78 730.78C1129.21 730.98 1128.72 731.233 1128.32 731.54L1126.98 729.6C1128.39 728.573 1130.01 728.06 1131.82 728.06C1133.13 728.06 1134.19 728.387 1135.02 729.04C1135.85 729.693 1136.26 730.727 1136.26 732.14V739ZM1133.24 734.9V734.38H1131.36C1130.16 734.38 1129.56 734.753 1129.56 735.5C1129.56 735.887 1129.7 736.187 1129.98 736.4C1130.27 736.6 1130.69 736.7 1131.22 736.7C1131.75 736.7 1132.22 736.54 1132.62 736.22C1133.03 735.887 1133.24 735.447 1133.24 734.9ZM1143.79 729.5V725.02H1153.89V727.38L1148.23 739H1144.83L1150.23 727.7H1146.71V729.5H1143.79ZM1160.77 732.96V730.52H1163.77V732.96H1165.35V735.66H1163.77V739H1160.77V735.66H1155.15V733.28L1160.13 725.02H1163.53L1158.79 732.96H1160.77ZM1170.61 739H1167.61V724.16H1170.61V731.78L1173.95 728.22H1177.73L1173.63 732.58L1177.89 739H1174.33L1171.59 734.88L1170.61 735.9V739ZM1187.04 733.4C1187.04 732.533 1186.8 731.853 1186.32 731.36C1185.84 730.867 1185.25 730.62 1184.54 730.62C1183.84 730.62 1183.22 730.867 1182.7 731.36C1182.2 731.853 1181.94 732.527 1181.94 733.38C1181.94 734.233 1182.19 734.927 1182.68 735.46C1183.19 735.98 1183.8 736.24 1184.52 736.24C1185.24 736.24 1185.84 735.98 1186.32 735.46C1186.8 734.94 1187.04 734.253 1187.04 733.4ZM1187.46 737.18C1186.52 738.233 1185.34 738.76 1183.92 738.76C1182.52 738.76 1181.34 738.287 1180.36 737.34C1179.4 736.38 1178.92 735.107 1178.92 733.52C1178.92 731.92 1179.42 730.613 1180.4 729.6C1181.4 728.573 1182.54 728.06 1183.82 728.06C1185.1 728.06 1186.16 728.587 1187 729.64V728.22H1190V737.6C1190 738.56 1189.84 739.413 1189.5 740.16C1189.17 740.907 1188.72 741.493 1188.16 741.92C1187.06 742.8 1185.75 743.24 1184.24 743.24C1183.44 743.24 1182.62 743.107 1181.78 742.84C1180.96 742.587 1180.23 742.22 1179.6 741.74L1180.76 739.48C1181.75 740.227 1182.79 740.6 1183.88 740.6C1184.99 740.6 1185.86 740.327 1186.5 739.78C1187.14 739.233 1187.46 738.367 1187.46 737.18ZM1201.12 733.2V739H1198.12V724.16H1201.12V729.44C1202.02 728.52 1203.04 728.06 1204.16 728.06C1205.29 728.06 1206.24 728.46 1207.02 729.26C1207.79 730.06 1208.18 731.127 1208.18 732.46V739H1205.18V733.12C1205.18 731.467 1204.57 730.64 1203.36 730.64C1202.76 730.64 1202.23 730.86 1201.78 731.3C1201.34 731.727 1201.12 732.36 1201.12 733.2ZM1217.83 734.04V728.24H1220.85V739H1217.83V737.58C1217.08 738.633 1216.12 739.16 1214.93 739.16C1213.76 739.16 1212.77 738.793 1211.97 738.06C1211.17 737.313 1210.77 736.213 1210.77 734.76V728.24H1213.79V734.1C1213.79 735.753 1214.4 736.58 1215.61 736.58C1216.21 736.58 1216.73 736.367 1217.17 735.94C1217.61 735.5 1217.83 734.867 1217.83 734.04ZM1233.56 733.2V739H1230.54V733.12C1230.54 732.267 1230.41 731.64 1230.14 731.24C1229.89 730.84 1229.47 730.64 1228.88 730.64C1228.31 730.64 1227.8 730.86 1227.34 731.3C1226.9 731.727 1226.68 732.36 1226.68 733.2V739H1223.68V728.24H1226.68V729.46C1227.51 728.527 1228.46 728.06 1229.52 728.06C1230.2 728.06 1230.82 728.26 1231.36 728.66C1231.92 729.06 1232.34 729.547 1232.62 730.12C1233.04 729.467 1233.59 728.96 1234.28 728.6C1234.99 728.24 1235.7 728.06 1236.4 728.06C1237.67 728.06 1238.69 728.44 1239.46 729.2C1240.24 729.947 1240.62 731.033 1240.62 732.46V739H1237.6V733.12C1237.6 731.467 1237 730.64 1235.78 730.64C1235.18 730.64 1234.66 730.86 1234.22 731.3C1233.78 731.727 1233.56 732.36 1233.56 733.2ZM1252.49 739H1249.67V737.7C1248.9 738.673 1247.94 739.16 1246.79 739.16C1245.66 739.16 1244.7 738.833 1243.93 738.18C1243.16 737.513 1242.77 736.633 1242.77 735.54C1242.77 734.433 1243.17 733.607 1243.97 733.06C1244.77 732.513 1245.86 732.24 1247.25 732.24H1249.49V732.18C1249.49 731.033 1248.88 730.46 1247.67 730.46C1247.15 730.46 1246.6 730.567 1246.01 730.78C1245.44 730.98 1244.95 731.233 1244.55 731.54L1243.21 729.6C1244.62 728.573 1246.24 728.06 1248.05 728.06C1249.36 728.06 1250.42 728.387 1251.25 729.04C1252.08 729.693 1252.49 730.727 1252.49 732.14V739ZM1249.47 734.9V734.38H1247.59C1246.39 734.38 1245.79 734.753 1245.79 735.5C1245.79 735.887 1245.93 736.187 1246.21 736.4C1246.5 736.6 1246.92 736.7 1247.45 736.7C1247.98 736.7 1248.45 736.54 1248.85 736.22C1249.26 735.887 1249.47 735.447 1249.47 734.9ZM1258.22 733V739H1255.22V728.24H1258.22V729.44C1259.13 728.52 1260.15 728.06 1261.28 728.06C1262.42 728.06 1263.36 728.46 1264.12 729.26C1264.9 730.06 1265.28 731.127 1265.28 732.46V739H1262.28V732.92C1262.28 731.267 1261.68 730.44 1260.46 730.44C1259.86 730.44 1259.34 730.66 1258.88 731.1C1258.44 731.527 1258.22 732.16 1258.22 733Z" fill="black"/>
<path d="M979.395 538.796L975.537 540.27V544.4V561.637V561.66V566.537L980.311 567.533C1024.12 576.679 1057 615.486 1057 661.963V672H858V667.824C858 620.889 889.617 581.361 932.726 569.283L937.108 568.056V563.506V545.346V541.055L933.046 539.668C911.854 532.432 894.243 514.906 884.929 491.745L883.679 488.637L880.378 488.07C869.888 486.268 861.925 477.17 861.925 466.225C861.925 457.163 867.381 449.361 875.199 445.92L878.279 444.563L878.728 441.227C879.318 436.839 880.168 432.593 881.278 428.463L882.636 423.404L877.807 421.375C877.36 421.187 876.918 420.996 876.48 420.8C883.316 395.137 899.384 374.296 919.936 363.116L925.599 360.035L922.12 354.608C918.185 348.469 915.888 341.21 915.888 333.41C915.888 311.646 933.54 294 955.33 294C977.119 294 994.771 311.646 994.771 333.41C994.771 341.237 992.471 348.514 988.523 354.642L985.012 360.093L990.718 363.172C1011.5 374.385 1027.7 395.193 1034.59 420.81C1033.87 421.134 1033.15 421.441 1032.43 421.731L1027.5 423.713L1028.87 428.848C1029.89 432.652 1030.67 436.612 1031.24 440.664L1031.74 444.203L1035.09 445.451C1043.55 448.603 1049.56 456.716 1049.56 466.225C1049.56 477.598 1040.98 486.981 1029.92 488.253L1026.38 488.66L1025.04 491.961C1016.06 514.141 999.458 531.129 979.395 538.796Z" stroke="#13176F" stroke-width="12"/>
</svg>
