<svg width="100" height="100" viewBox="0 0 100 100" fill="none" xmlns="http://www.w3.org/2000/svg">
<mask id="path-1-inside-1_3283_1316" fill="white">
<path fill-rule="evenodd" clip-rule="evenodd" d="M90 39.5C90 45.991 87.0568 51.7774 82.4637 55.5335L51 93L17.7464 53.4021C14.1965 49.8617 12 44.9652 12 39.5556C12 28.7553 20.7553 20 31.5556 20C40.7151 20 48.4038 26.2972 50.5285 34.7985C52.6017 25.7426 60.5326 19 70 19C81.0457 19 90 28.1782 90 39.5Z"/>
</mask>
<path d="M82.4637 55.5335L80.5645 53.2112L80.347 53.3891L80.1663 53.6043L82.4637 55.5335ZM51 93L48.7026 94.9293L51 97.6649L53.2974 94.9293L51 93ZM17.7464 53.4021L20.0437 51.4728L19.9586 51.3714L19.8648 51.2779L17.7464 53.4021ZM50.5285 34.7985L47.618 35.5259L53.4528 35.468L50.5285 34.7985ZM84.3628 57.8559C89.6352 53.5443 93 46.9134 93 39.5H87C87 45.0685 84.4784 50.0105 80.5645 53.2112L84.3628 57.8559ZM53.2974 94.9293L84.761 57.4628L80.1663 53.6043L48.7026 91.0707L53.2974 94.9293ZM15.449 55.3313L48.7026 94.9293L53.2974 91.0707L20.0437 51.4728L15.449 55.3313ZM9 39.5556C9 45.7942 11.5368 51.4461 15.6279 55.5262L19.8648 51.2779C16.8563 48.2774 15 44.1361 15 39.5556H9ZM31.5556 17C19.0985 17 9 27.0985 9 39.5556H15C15 30.4122 22.4122 23 31.5556 23V17ZM53.4389 34.0711C50.9884 24.266 42.1243 17 31.5556 17V23C39.3059 23 45.8191 28.3284 47.618 35.5259L53.4389 34.0711ZM70 16C59.0552 16 49.9717 23.7875 47.6041 34.129L53.4528 35.468C55.2317 27.6977 62.01 22 70 22V16ZM93 39.5C93 26.5916 82.7719 16 70 16V22C79.3194 22 87 29.7648 87 39.5H93Z" fill="#FF3636" mask="url(#path-1-inside-1_3283_1316)"/>
<path d="M18 50.5H30.375L35.0893 41L46.875 60L56.3036 44.5L63.375 55.5L66.9107 50.5H84" stroke="#FF3636" stroke-width="3" stroke-linecap="round" stroke-linejoin="round"/>
</svg>
