<svg width="100" height="100" viewBox="0 0 100 100" fill="none" xmlns="http://www.w3.org/2000/svg">
<circle cx="48" cy="65" r="21.5" stroke="#FF3636" stroke-width="3" stroke-linecap="round" stroke-linejoin="round"/>
<path d="M30 55C31.11 56.0637 32.8056 57.1912 34.7084 57.1912C37.0869 57.1912 46.1253 57.6471 47.0767 59.4706C48.0281 61.2941 50.8823 66.7647 47.0767 67.6765C43.2711 68.5882 35.1841 67.6765 37.5626 71.7794C39.9412 75.8824 44.2225 79.5294 41.844 85" stroke="#FF3636" stroke-width="3" stroke-linecap="round" stroke-linejoin="round"/>
<path d="M59.1686 47C57.6734 48.1981 54.5933 51.2232 54.2344 53.7391C53.7858 56.8841 53.7858 63.6232 56.0287 64.971C58.2715 66.3188 60.9629 67.2174 60.9629 71.2609C60.9629 75.3043 63.2057 77.5507 65 78" stroke="#FF3636" stroke-width="3" stroke-linecap="round" stroke-linejoin="round"/>
<path d="M36.5702 27.338C40.7381 29.507 49 34.5761 49 43.5M46.2952 38.493C41.3555 39.4225 30.2721 39.1437 25.4559 30.5915C20.6397 22.0394 20.6706 14.6338 21.288 12C22.6773 12.7746 27.1231 14.5099 33.7917 15.2535C42.1274 16.1831 50 19.9014 50 29.1972C50 36.6338 47.5301 38.493 46.2952 38.493Z" stroke="#FF3636" stroke-width="3" stroke-linecap="round" stroke-linejoin="round"/>
<path d="M45.5 18.5C45.5 18.5 52.5 7 61.5656 7C64.0309 13.4859 65.0787 28.1661 49.547 35" stroke="#FF3636" stroke-width="3" stroke-linecap="round" stroke-linejoin="round"/>
<path d="M50 26C51.4286 23.8039 54.6286 19.1294 56 18" stroke="#FF3636" stroke-width="3" stroke-linecap="round" stroke-linejoin="round"/>
</svg>
