<svg width="100" height="100" viewBox="0 0 100 100" fill="none" xmlns="http://www.w3.org/2000/svg">
<path d="M22 56.2647V20.3529H36L50 16L64 20.3529H78V56.2647C78 73.2412 58.4272 85.1029 49.7282 90C40.6667 84.7402 22 70.1941 22 56.2647Z" stroke="#FF3636" stroke-width="3" stroke-linecap="round" stroke-linejoin="round"/>
<path d="M62.5 63.1347C62.5 64.0939 62.2313 64.247 62.1186 64.3112L62.1179 64.3116C61.8068 64.4889 61.1509 64.6063 59.857 64.5165C58.9552 64.4539 57.9417 64.3119 56.77 64.1477C56.3183 64.0844 55.8431 64.0178 55.3417 63.9512C53.5854 63.7179 51.6012 63.5 49.5001 63.5C47.399 63.5 45.4149 63.7179 43.6585 63.9512C43.1572 64.0178 42.682 64.0844 42.2303 64.1477C41.0585 64.3119 40.045 64.4539 39.1431 64.5165C37.8493 64.6063 37.1933 64.4889 36.8821 64.3116L36.8814 64.3112C36.7687 64.247 36.5 64.0939 36.5 63.1347C36.5 62.1099 36.8316 60.6591 37.5235 59.0033C38.2065 57.3689 39.2016 55.6287 40.4325 54.0408C42.943 50.802 46.1809 48.5 49.5 48.5C52.8192 48.5 56.057 50.802 58.5675 54.0408C59.7984 55.6287 60.7935 57.3689 61.4765 59.0033C62.1684 60.6591 62.5 62.1099 62.5 63.1347Z" stroke="#FF3636" stroke-width="3"/>
<path d="M33.7783 36.8933C34.689 36.6492 35.7754 36.8991 36.8397 37.7601C37.9026 38.6199 38.842 40.0261 39.3172 41.7998C39.7925 43.5735 39.6821 45.261 39.1915 46.5371C38.7003 47.8149 37.8843 48.5745 36.9736 48.8185C36.0629 49.0625 34.9765 48.8127 33.9122 47.9517C32.8493 47.0918 31.9099 45.6856 31.4347 43.9119C30.9594 42.1383 31.0698 40.4507 31.5604 39.1746C32.0516 37.8969 32.8676 37.1373 33.7783 36.8933Z" stroke="#FF3636" stroke-width="3"/>
<path d="M49.5 29.5C50.4261 29.5 51.3912 30.0088 52.1795 31.0837C52.9672 32.1578 53.5 33.7143 53.5 35.5C53.5 37.2857 52.9672 38.8422 52.1795 39.9163C51.3912 40.9912 50.4261 41.5 49.5 41.5C48.5739 41.5 47.6088 40.9912 46.8205 39.9163C46.0328 38.8422 45.5 37.2857 45.5 35.5C45.5 33.7143 46.0328 32.1578 46.8205 31.0837C47.6088 30.0088 48.5739 29.5 49.5 29.5Z" stroke="#FF3636" stroke-width="3"/>
<path d="M65.9738 36.8932C66.8845 37.1372 67.7005 37.8968 68.1917 39.1746C68.6822 40.4507 68.7926 42.1382 68.3174 43.9119C67.8421 45.6855 66.9027 47.0918 65.8398 47.9516C64.7756 48.8126 63.6891 49.0624 62.7784 48.8184C61.8677 48.5744 61.0517 47.8148 60.5605 46.537C60.07 45.2609 59.9595 43.5734 60.4348 41.7997C60.91 40.0261 61.8495 38.6198 62.9123 37.76C63.9766 36.899 65.0631 36.6492 65.9738 36.8932Z" stroke="#FF3636" stroke-width="3"/>
</svg>
