<svg width="100" height="100" viewBox="0 0 100 100" fill="none" xmlns="http://www.w3.org/2000/svg">
<path d="M55.6899 35H48.5721C45.7249 42.7714 47.3857 50.4286 48.5721 53.2857C45.7249 62.4286 49.6274 75.9524 52 79C54.9657 76.1429 58.0626 61.2857 55.6899 53.2857C58.0626 47.8 56.6785 38.8095 55.6899 35Z" stroke="#FF3636" stroke-width="3" stroke-linecap="round" stroke-linejoin="round"/>
<path d="M49 35C49 32.3333 47 25.4 39 19" stroke="#FF3636" stroke-width="3" stroke-linecap="round" stroke-linejoin="round"/>
<path d="M55 34C55.8148 30.8889 59.1556 23.7333 66 20" stroke="#FF3636" stroke-width="3" stroke-linecap="round" stroke-linejoin="round"/>
<path d="M47 47C46.0304 44.1312 40.6702 37.1746 32.2932 32.5845C21.8219 26.847 6.11508 26.847 14.2594 41.1908C22.4037 55.5346 36.5288 60.5163 47 56.5" stroke="#FF3636" stroke-width="3" stroke-linecap="round" stroke-linejoin="round"/>
<path d="M58.0588 45.2567C60.7036 40.8915 66.3165 33.5336 76.0817 29.4341C88.2882 24.3097 97.4431 27.1566 90.7295 39.1135C84.0159 51.0705 77.1408 58.8829 57 56.6054" stroke="#FF3636" stroke-width="3" stroke-linecap="round" stroke-linejoin="round"/>
<path d="M36.5 58C32.6472 60.4996 22.5713 68.5366 27.1949 75.4586C31.9605 82.5933 43.9545 74.922 48 68" stroke="#FF3636" stroke-width="3" stroke-linecap="round" stroke-linejoin="round"/>
<path d="M56 66.6737C58.554 71.7291 65.147 79.6889 71.425 76.0989C76.7296 73.0656 72.9277 61.2466 68.2126 57" stroke="#FF3636" stroke-width="3" stroke-linecap="round" stroke-linejoin="round"/>
</svg>
