<svg width="100" height="100" viewBox="0 0 100 100" fill="none" xmlns="http://www.w3.org/2000/svg">
<path d="M58.8694 48.4816C58.8694 53.6341 54.679 57.8186 49.5004 57.8186C44.3218 57.8186 40.1313 53.6341 40.1313 48.4816C40.1313 43.329 44.3218 39.1445 49.5004 39.1445C54.679 39.1445 58.8694 43.329 58.8694 48.4816Z" stroke="#FF3636" stroke-width="3" stroke-linecap="round" stroke-linejoin="round"/>
<path d="M81.5955 42.5702C81.5955 47.7227 77.405 51.9072 72.2265 51.9072C67.0479 51.9072 62.8574 47.7227 62.8574 42.5702C62.8574 37.4177 67.0479 33.2332 72.2265 33.2332C77.405 33.2332 81.5955 37.4177 81.5955 42.5702Z" stroke="#FF3636" stroke-width="3" stroke-linecap="round" stroke-linejoin="round"/>
<path d="M48.0002 23.8519C48.0002 28.4603 44.2521 32.2037 39.6192 32.2037C34.9864 32.2037 31.2383 28.4603 31.2383 23.8519C31.2383 19.2434 34.9864 15.5 39.6192 15.5C44.2521 15.5 48.0002 19.2434 48.0002 23.8519Z" stroke="#FF3636" stroke-width="3" stroke-linecap="round" stroke-linejoin="round"/>
<path d="M68.738 23.8519C68.738 28.4603 64.9899 32.2037 60.357 32.2037C55.7242 32.2037 51.9761 28.4603 51.9761 23.8519C51.9761 19.2434 55.7242 15.5 60.357 15.5C64.9899 15.5 68.738 19.2434 68.738 23.8519Z" stroke="#FF3636" stroke-width="3" stroke-linecap="round" stroke-linejoin="round"/>
<path d="M36.1429 42.5702C36.1429 47.7227 31.9524 51.9072 26.7738 51.9072C21.5953 51.9072 17.4048 47.7227 17.4048 42.5702C17.4048 37.4177 21.5953 33.2332 26.7738 33.2332C31.9524 33.2332 36.1429 37.4177 36.1429 42.5702Z" stroke="#FF3636" stroke-width="3" stroke-linecap="round" stroke-linejoin="round"/>
<path d="M27.2679 55.3777C16.6265 55.3777 8 63.9788 8 74.5888H32C33.9762 67.8895 40.4425 64.4744 43.0774 63.6043C39.595 58.6311 33.8125 55.3777 27.2679 55.3777Z" stroke="#FF3636" stroke-width="3" stroke-linecap="round" stroke-linejoin="round"/>
<path d="M71.4608 55.3777C82.252 55.3777 91 63.7583 91 74.0962H65.9497C63.9457 67.5687 58.1006 64.2412 55.4286 63.3933C58.96 58.5476 64.8239 55.3777 71.4608 55.3777Z" stroke="#FF3636" stroke-width="3" stroke-linecap="round" stroke-linejoin="round"/>
<path d="M31.3011 79.0002C32.0649 69.9241 39.6963 62.7891 49.0061 62.7891C58.316 62.7891 65.9474 69.9241 66.7112 79.0002H31.3011Z" stroke="#FF3636" stroke-width="3" stroke-linecap="round" stroke-linejoin="round"/>
</svg>
