<?xml version="1.0" encoding="utf-8"?>
<!-- Generator: $$$/GeneralStr/196=Adobe Illustrator 27.6.0, SVG Export Plug-In . SVG Version: 6.00 Build 0)  -->
<svg version="1.1" id="Calque_1" xmlns="http://www.w3.org/2000/svg" xmlns:xlink="http://www.w3.org/1999/xlink" x="0px" y="0px"
	 viewBox="0 0 766 617" style="enable-background:new 0 0 766 617;" xml:space="preserve">
<style type="text/css">
	.st0{fill-rule:evenodd;clip-rule:evenodd;fill:#F34620;}
</style>
<g>
	<path class="st0" d="M35.3,110.7l-6.7,2.8L0,103.4V80l28.2,9.9l0.5,0.2l0.5-0.2l29-12.1v23.3l-19,7.9c-0.3-0.1-0.7-0.2-1.1-0.2
		C36.9,108.9,35.8,109.6,35.3,110.7z M35.4,113.9l-6.1,2.5l-0.5,0.2l-0.5-0.2L0,106.6v3.8c0,14,19,25.6,28.6,29.7
		c9.6-4.7,29.7-15.8,29.7-32.3v-3.3l-17,7.1c0.1,0.2,0.1,0.5,0.1,0.8c0,1.9-1.4,3.4-3.2,3.4C37,115.6,35.9,114.9,35.4,113.9z
		 M28.6,86.9l29.6-12.3V59.9c0-2.9-0.5-5.6-1.3-8.2L29.2,63.3l-0.5,0.2l-0.5-0.2L0.1,53.4c0,0.5-0.1,1-0.1,1.5v21.9L28.6,86.9z
		 M55.8,49L28.6,60.3l-28-9.9c1.7-6.2,7.1-10.7,13.1-12.6L0,29.5V0l28.6,16.1L58.3,0v29.5l-13.8,8.3C49.2,39.6,53.3,43.7,55.8,49z"
		/>
	<path class="st0" d="M728.6,249.8l-10.3,4.3L672,237.8v-39.7l45.8,16.1l0.5,0.2l0.5-0.2l47.2-19.6v39.6l-29.6,12.3
		c-0.8-0.6-1.8-0.9-2.8-0.9C731.1,245.6,729.1,247.4,728.6,249.8z M728.7,253l-9.9,4.1l-0.5,0.2l-0.5-0.2L672,241v7
		c0,22.6,30.7,41.3,46.1,47.9c15.5-7.6,47.9-25.5,47.9-52.2v-6.3L738.3,249c0.3,0.7,0.4,1.4,0.4,2.1c0,3-2.3,5.5-5.2,5.5
		C731.3,256.6,729.4,255.1,728.7,253z M718.2,211.2l47.8-19.9v-24.6c0-5-0.9-9.7-2.4-14.1l-44.7,18.6l-0.5,0.2l-0.5-0.2l-45.6-16.1
		c-0.1,1.1-0.2,2.2-0.2,3.3v36.3L718.2,211.2z M762.4,149.9l-44.2,18.4l-45.5-16c2.5-10.5,11.3-18,21.4-21.2L672,117.7V70l46.1,26.1
		L766,70v47.7L743.7,131C751.6,134,758.5,141,762.4,149.9z"/>
	<path class="st0" d="M379.3,503.2l-25.6,10.7L237,472.8v-105l116.2,41l0.5,0.2l0.5-0.2l119.9-49.9v105l-72.8,30.3
		c-2.3-2.4-5.5-3.9-9-3.9C385.4,490.2,379.7,496,379.3,503.2z M379.5,506.4l-25.2,10.5l-0.5,0.2l-0.5-0.2l-116.2-41v20.2
		c0,56.9,77.5,104.3,116.3,120.9c39-19.1,120.9-64.3,120.9-131.6V467l-70.9,29.5c1.3,2.1,2.1,4.7,2.1,7.4c0,7.6-5.8,13.8-13,13.8
		C385.9,517.7,380.6,512.9,379.5,506.4z M353.7,405.7l120.5-50.1v-64.5c0-13.3-2.5-26-6.9-37.6l-112.9,47l-0.5,0.2l-0.5-0.2
		l-115.4-40.7c-0.5,3.4-0.8,7-0.8,10.6v94.1L353.7,405.7z M466.1,250.7l-112.4,46.8l-115.3-40.7c5.7-27.8,28.4-47.5,54.4-55.7
		L237,167.3V47l116.4,65.7L474.2,47v120.3L417.9,201C438.4,208.8,456.3,227.1,466.1,250.7z"/>
</g>
</svg>
