<?xml version="1.0" encoding="utf-8"?>
<!-- Generator: $$$/GeneralStr/196=Adobe Illustrator 27.6.0, SVG Export Plug-In . SVG Version: 6.00 Build 0)  -->
<svg version="1.1" id="Calque_1" xmlns="http://www.w3.org/2000/svg" xmlns:xlink="http://www.w3.org/1999/xlink" x="0px" y="0px"
	 viewBox="0 0 164 116" style="enable-background:new 0 0 164 116;" xml:space="preserve">
<style type="text/css">
	.st0{clip-path:url(#SVGID_00000134222794602438653320000017743418724318230696_);}
	.st1{fill:#E83E3E;}
</style>
<g>
	<defs>
		<rect id="SVGID_1_" x="0" width="164" height="116"/>
	</defs>
	<clipPath id="SVGID_00000070801996067605017360000005223830351138693804_">
		<use xlink:href="#SVGID_1_"  style="overflow:visible;"/>
	</clipPath>
	<g style="clip-path:url(#SVGID_00000070801996067605017360000005223830351138693804_);">
		<path class="st1" d="M92,95.7c-0.2,0.3-0.2,0.5-0.3,0.8c-0.7,2.7-1.5,5.4-2.7,8c-0.7,1.5-1.5,2.9-2.7,4.1
			c-2.8,2.8-6.6,2.6-9.1-0.4c-1.8-2.1-2.8-4.6-3.7-7.1c-0.5-1.5-1-3-1.3-4.6c-0.1-0.2-0.1-0.5-0.3-0.8c-0.5,0.7-1,1.3-1.5,1.9
			c-2.2,2.9-4.4,5.9-6.6,8.8c-3.1,3.9-6.8,6.9-11.5,8.6c-5.9,2.1-11.2,1.1-15.9-3c-4-3.5-6.3-8-6.8-13.3C29,93,29.8,87.6,32.5,82.6
			c1.2-2.2,2.6-4.2,4.4-6c0.6-0.6,0.6-0.6-0.1-0.9c-5.1-2.4-9.7-5.5-13.9-9.3c-6.5-5.9-11.7-12.7-16.1-20.3C5,43.1,3.4,39.9,2,36.6
			c-1.2-2.9-2-5.9-1.9-9c0.2-5.3,2.6-9.3,7.2-11.9c2-1.1,4.2-1.6,6.5-1.9c7.7-0.7,14.8,1.2,21.6,4.5c5.4,2.6,10.2,6.1,14.8,9.9
			c3.5,2.9,6.8,6.1,10,9.4c3,3.2,5.9,6.5,8.7,9.9c0.1,0.2,0.3,0.4,0.5,0.6c0-0.6,0.1-1.2,0.1-1.7c0.2-5.4,1.2-10.7,2.7-15.9
			c0.1-0.5,0.2-0.9,0.1-1.4c-1-5.3-3.4-9.9-6.9-14c-3.2-3.8-7.1-6.7-11.4-9.1c-1.8-1-2.4-3-1.3-4.7c0.9-1.4,2.7-1.9,4.2-1.1
			c2.9,1.5,5.7,3.4,8.2,5.5c4,3.4,7.3,7.3,9.8,12c1.4,2.7,2.6,5.5,3.3,8.5c0.1,0.6,0.4,0.7,0.9,0.7c2,0,4,0,6,0
			c0.4,0,0.6-0.1,0.7-0.6c1.6-6.7,5-12.4,9.7-17.4c3.4-3.6,7.3-6.4,11.6-8.7c1.6-0.8,3.5-0.3,4.3,1.2c0.9,1.6,0.5,3.5-1.1,4.4
			c-2,1.2-4,2.3-5.9,3.8c-5.6,4.3-9.7,9.6-11.9,16.4c-0.3,1-0.5,1.9-0.8,2.9c-0.1,0.5-0.1,1,0.1,1.6c1.3,4.6,2.2,9.4,2.6,14.2
			c0.1,1.1,0.1,2.2,0.2,3.5c0.8-1,1.5-1.9,2.3-2.8c5.3-6.3,10.9-12.3,17.3-17.5c4.7-3.9,9.7-7.3,15.2-9.9c4.5-2.1,9.1-3.6,14-4.1
			c3.4-0.4,6.9-0.3,10.2,0.6c5.5,1.5,9.5,6.1,10.2,11.8c0.4,3.1-0.2,6.1-1.3,9c-1.9,5-4.4,9.6-7.3,14.1c-3.1,5-6.7,9.6-10.8,13.8
			c-5.1,5.2-10.7,9.5-17.3,12.6c-0.6,0.3-0.6,0.3-0.1,0.7c3.7,3.7,6.1,8.2,7,13.4c0.8,4.3,0.8,8.6-0.5,12.9c-0.8,2.7-2.2,5.1-4,7.2
			c-2,2.3-4.3,4-7.2,5.1c-3.5,1.3-7.1,1.2-10.6-0.1c-4.4-1.6-8.1-4.4-11.1-8c-2.4-2.9-4.6-6.1-6.9-9.1C93.2,97.2,92.6,96.5,92,95.7
			L92,95.7z M108.4,73.5c1,0,2.3,0,3.6-0.2c4.7-0.5,9.2-1.8,13.5-3.9c6.6-3.3,12-7.9,16.8-13.4c2.9-3.3,5.6-6.9,7.9-10.7
			c2.4-3.9,4.6-8.1,6.4-12.4c0.8-2,1.3-4.2,0.9-6.4c-0.5-3.1-3.1-5.6-6.4-6.1c-2.8-0.4-5.6-0.4-8.5,0.1c-4.9,0.8-9.5,2.6-13.8,5.1
			c-5.8,3.3-10.9,7.4-15.7,12c-3,2.9-5.9,5.9-8.6,9c-3.6,4.2-7,8.5-10.2,13c-0.2,0.2-0.3,0.5-0.3,0.8c-0.3,1.9-0.6,3.7-1.1,5.5
			c-0.1,0.4-0.1,0.8,0,1.2c0.2,1.1,0.5,2.2,0.6,3.4c0.1,0.3,0.2,0.5,0.5,0.6C98.6,72.6,103.3,73.6,108.4,73.5L108.4,73.5z
			 M55.9,73.5c1,0,2,0,3.1-0.1c3.8-0.3,7.5-1.1,11.1-2.3c0.3-0.1,0.4-0.2,0.4-0.5c0.2-1.2,0.4-2.3,0.7-3.5c0.1-0.4,0-0.8,0-1.2
			c-0.4-1.7-0.7-3.4-1-5.1c-0.1-0.4-0.2-0.8-0.4-1.1c-5.1-7.1-10.7-13.9-16.9-20.1c-3.4-3.4-7-6.6-10.9-9.4
			c-5-3.7-10.4-6.8-16.5-8.6c-4.1-1.2-8.3-1.7-12.6-1c-4,0.6-6.7,4-6.5,8c0.1,2,0.7,3.8,1.5,5.6c3.5,7.9,8,15.2,13.7,21.7
			c3.8,4.3,7.9,8.1,12.7,11.2C40.9,71.2,48,73.6,55.9,73.5z M46.9,109.5c0.4,0,1.1,0,1.8-0.2c3.1-0.7,5.6-2.4,7.9-4.5
			c1.8-1.6,3.1-3.6,4.6-5.5c3-4,6.1-8.1,9.1-12.1c0.2-0.2,0.2-0.4,0.2-0.7c-0.3-2.6-0.5-5.2-0.5-7.9c0-0.7,0-0.7-0.7-0.5
			c-3.7,1-7.4,1.7-11.2,1.8c-4.3,0.2-8.6-0.2-12.9-1.2c-0.4-0.1-0.7,0-1,0.2c-3,2.1-5.3,4.8-6.7,8.1c-1.3,3.2-1.7,6.4-1.6,9.9
			c0.2,3.9,1.6,7.2,4.5,9.9C42.2,108.4,44.2,109.5,46.9,109.5z M117.5,109.5c1,0,2.2-0.2,3.3-0.8c3.5-1.8,5.6-4.7,6.7-8.4
			c0.7-2.5,0.7-5.1,0.4-7.7c-0.6-5.7-3.2-10.2-7.9-13.6c-0.5-0.4-1-0.4-1.6-0.3c-2.7,0.7-5.5,1.1-8.3,1.2
			c-5.2,0.2-10.4-0.5-15.5-1.9c-0.6-0.2-0.6-0.1-0.6,0.4c-0.1,2.6-0.2,5.2-0.5,7.7c-0.1,0.5,0.1,0.8,0.3,1.1
			c3.6,4.8,7.2,9.6,10.9,14.4c1.7,2.2,3.7,4.1,6.2,5.6C112.8,108.6,114.9,109.5,117.5,109.5L117.5,109.5z M82,33.5
			c-1.1,0-2.3,0-3.4,0c-0.5,0-0.7,0.2-0.8,0.6c-1.4,5.8-2.2,11.7-2,17.7c0.1,4,0.6,7.9,1.5,11.8c0.4,1.9,0.5,3.8,0,5.7
			c-0.7,3.1-1,6.3-0.9,9.5c0,1.7,0.1,3.3,0.3,5c0.4,4.9,1.3,9.7,2.8,14.4c0.6,1.7,1.2,3.4,2.2,5c0.3,0.5,0.4,0.5,0.7,0
			c1-1.5,1.6-3.2,2.2-4.9c1.9-6,2.8-12.3,3.1-18.6c0.2-3.8-0.2-7.5-1-11.2c-0.3-1.3-0.3-2.7,0-4c1.1-4.9,1.7-9.9,1.7-15
			c0-1.8-0.1-3.6-0.3-5.4c-0.3-3.4-1-6.8-1.8-10.2c-0.1-0.4-0.3-0.5-0.7-0.5C84.3,33.5,83.2,33.5,82,33.5L82,33.5z"/>
	</g>
</g>
</svg>
