<?xml version="1.0" encoding="utf-8"?>
<!-- Generator: $$$/GeneralStr/196=Adobe Illustrator 27.6.0, SVG Export Plug-In . SVG Version: 6.00 Build 0)  -->
<svg version="1.1" id="Calque_1" xmlns="http://www.w3.org/2000/svg" xmlns:xlink="http://www.w3.org/1999/xlink" x="0px" y="0px"
	 viewBox="0 0 94 153" style="enable-background:new 0 0 94 153;" xml:space="preserve">
<style type="text/css">
	.st0{clip-path:url(#SVGID_00000045613707728524277900000003713335263425878964_);}
	.st1{fill:#E83E3E;}
</style>
<g>
	<defs>
		<rect id="SVGID_1_" x="0" y="0" width="94" height="153"/>
	</defs>
	<clipPath id="SVGID_00000003788036577875986830000009032400668531765633_">
		<use xlink:href="#SVGID_1_"  style="overflow:visible;"/>
	</clipPath>
	<g style="clip-path:url(#SVGID_00000003788036577875986830000009032400668531765633_);">
		<path class="st1" d="M83.9,14.1c0,16.4-6.9,28.1-19.2,36.9c-0.5,0.4-1,0.8-1.5,1c-3.8,1.5-5.8,5-8.1,8c-0.3,0.4-0.3,0.8-0.2,1.3
			c0.7,2.2,1.3,4.5,1.6,6.9c0.1,0.9,0.6,1,1.3,1.2C73,71.9,84.3,80.1,90.3,94.4c6.7,16,4.2,31.1-7.1,44.4
			c-7.2,8.4-16.5,13.1-27.5,14c-21.6,1.9-39.5-12.1-44.5-31.3C4.9,97.4,21,73.1,45.6,69.4c1.4-0.2,2.7-0.3,4.1-0.4
			c1.2,0,1.5-0.5,1.2-1.6c-0.3-1-0.5-2-0.7-3c-0.1-0.7-0.5-1-1.2-0.8c-5.4,1.4-10.8,0.5-15.9-1.1C16.3,57.5,6.3,46,2.8,28.8
			C1.8,23.9,1,18.9,0.1,14c-0.5-2.9,0.6-4.4,3.4-4c9.5,1.3,19,2.2,28.4,4c4.7,0.9,9,3,12.9,5.9c1,0.8,1.4,0.6,2.1-0.4
			C54.1,9.5,63.7,3.2,75.4,0.3C77-0.1,78.5,0,80,0.1c1.4,0.1,1.9,1.2,2.2,2.4C83.3,6.7,84,10.8,83.9,14.1L83.9,14.1z M37.4,93.6
			c2.5,0,4.9,0,7.4,0c2.1,0,3.9,0.7,5.4,2.2c1.9,1.9,3.9,3.8,5.8,5.8c2.4,2.5,3,5.4,1.6,8.6c-0.7,1.5-1.4,3-2.2,4.4
			c-1.5,2.5-3.7,3.9-6.7,3.9c-3.8,0-7.6,0-11.4,0c-1.2,0-2.3,0.3-2.8,1.5c-0.5,1.1,0.1,2,0.8,2.8c6.1,6.4,9.3,14,9.2,22.9
			c0,1.1,0.4,1.4,1.4,1.5c2.7,0.3,5.4,0.5,8.1,0.4c10.2-0.7,18.6-5,25.5-12.6c0.8-0.9,1.1-1.6,0-2.5c-0.8-0.7-1.5-1.5-2.3-2.3
			c-2.1-2.1-3.3-4.7-3.4-7.7c-0.1-2.1-0.8-4-2.4-5.5c-2.3-2.2-4.5-4.5-6.7-6.8c-2.1-2.2-3.2-4.7-3.2-7.8c0-3.4,0-6.9,0-10.3
			c0-3,1-5.5,3.1-7.6c1.4-1.5,2.8-3,4.3-4.3c1-1,0.7-1.4-0.4-1.9c-6.8-3.5-13.9-4.8-21.4-3.8c-9,1.2-16.6,5.2-22.7,12
			c-2.6,2.9-2.6,2.9,0.6,5.1c1.6,1.1,3.1,2.2,5.3,2.1C32.7,93.5,35.1,93.6,37.4,93.6L37.4,93.6z M54.1,48.6
			c-0.1-0.9-0.2-1.9-0.3-2.8c-0.9-13.5-11.7-25.2-25-27c-7-1-14-1.9-21-2.8c-2.1-0.3-2-0.3-1.7,1.8c0.6,3.2,1.1,6.4,1.7,9.5
			c3,15.8,12,26.3,27.7,30.6c3.5,1,7.1,1.5,10.8,1.1c1.5-0.2,1.6-0.4,0.8-1.7c-1.3-2.3-2.9-4.4-4.7-6.3c-3.5-3.7-7.7-6.5-12.4-8.3
			c-1.1-0.4-1.5-0.9-1-2c1.5-3.9,0.5-4,4.9-2.1c0.1,0.1,0.3,0.1,0.4,0.2c7.2,3.4,13,8.5,17.1,15.4c0.6,1.1,0.9,1,1.4,0
			C53.8,52.3,54,50.5,54.1,48.6L54.1,48.6z M42,113.3c1,0,2,0,3.1,0c5.6,0,4.9,0.3,7.3-4.5c0.9-1.9,0.8-2.5-0.7-4.1
			c-1.5-1.5-3-3-4.4-4.5c-1-1-2.1-1.5-3.6-1.5c-3.6,0-7.2-0.2-10.8,0.1c-4.6,0.4-8.7-0.7-12.2-3.8c-1.1-1-1.7-0.7-2.3,0.6
			c-4,9-4.5,18.2-1.2,27.5c3.7,10.2,10.7,17.4,20.7,21.7c1.1,0.5,1.4,0.4,1.3-0.9c-0.2-3.1-0.9-6.1-2-9c-1.4-3.5-3.7-6.5-6.2-9.3
			c-2.1-2.4-2.6-5.1-1.3-8c1.3-2.9,3.6-4.5,6.9-4.5C38.4,113.3,40.2,113.3,42,113.3L42,113.3z M88.5,110.3c-0.1-1.1-0.2-3.3-0.6-5.4
			c-1.5-8.8-5.7-16.1-12.5-21.9c-0.6-0.5-1.1-0.7-1.8,0c-1.6,1.7-3.2,3.3-4.9,4.9c-1.1,1.1-1.8,2.4-2,3.9c-0.4,3.2-0.1,6.3-0.2,9.5
			c-0.1,2.4,0.8,4.5,2.5,6.2c2.3,2.2,4.5,4.5,6.7,6.7c1.7,1.8,2.9,4,3,6.4c0.1,3.1,1.3,5.5,3.6,7.5c1,0.9,1.4,0.8,2-0.3
			C87,122.6,88.3,117.1,88.5,110.3L88.5,110.3z M55.9,33c2.8-4,5.7-7.6,9.1-10.6c2.4-2.2,2.4-2.2,4.5,0.3c1.3,1.6,1.3,1.6-0.2,2.9
			c-4.1,3.6-7.5,7.7-10.3,12.4c-0.6,1-0.8,1.9-0.5,3c0.4,1.9,0.8,3.8,0.7,5.8c0,1.1,0.2,1.5,1.2,0.7C76.1,37.1,80.6,22.9,77.8,6.6
			c-0.2-1.1-0.7-1.3-1.7-1c-3.7,1-7.2,2.4-10.5,4.2c-6,3.3-10.9,7.8-14.7,13.4c-0.4,0.5-0.9,1-0.3,1.8C52.6,27.3,54.3,29.9,55.9,33
			L55.9,33z"/>
	</g>
</g>
</svg>
