<?xml version="1.0" encoding="utf-8"?>
<!-- Generator: $$$/GeneralStr/196=Adobe Illustrator 27.6.0, SVG Export Plug-In . SVG Version: 6.00 Build 0)  -->
<svg version="1.1" id="Calque_1" xmlns="http://www.w3.org/2000/svg" xmlns:xlink="http://www.w3.org/1999/xlink" x="0px" y="0px"
	 viewBox="0 0 859.4 756.1" style="enable-background:new 0 0 859.4 756.1;" xml:space="preserve">
<style type="text/css">
	.st0{fill:none;stroke:#F34620;stroke-width:2;stroke-dasharray:4,8,12,16;}
	.st1{fill:none;stroke:#F34620;stroke-width:2;stroke-dasharray:22,22;}
	.st2{fill:none;stroke:#F34620;stroke-width:11;stroke-miterlimit:16;}
	.st3{fill:#EBF97B;}
	.st4{fill:#F34620;}
</style>
<g>
	<path class="st0" d="M428.4,427c-0.8-66.1-32.7-353-178.5-364.5s-231,75.2-249,110"/>
	<path class="st0" d="M428.4,427c-0.8-53.5-32.5-204-135.5-149c-129,68.9-173,177.8-191,206"/>
	<path class="st1" d="M460.4,372C465.2,245.6,535,25.4,668.4,3.8C821-21,847.5,127.1,859.4,127.1"/>
	<path class="st1" d="M461.4,360c4.8-126.4,107.8-283.9,236-241c142,47.5,130.1,197,142,197"/>
	<path class="st1" d="M464.9,384.5c84.5-164,63.5-155.1,130.5-144S739.1,677.3,733.9,756"/>
	<path class="st2" d="M289,618l73.4-24.9l-94-76.8l109.5,29.2l-48.7-131.2l97.2,94L457.9,358l32.4,147l95-85.9l-44.2,121.3
		l97.2-18.7l-77.6,71.5l64.5,24.9"/>
	<path class="st3" d="M516.3,603.2l47.4,14.7H357.8l46-14.7l-46-38l58.4,12.6l-21.7-61.6l48.5,45.2l17.4-65.3l15,65.3l48.5-45.2
		l-20.3,61.6l57.3-12.6L516.3,603.2z"/>
	<path class="st4" d="M479.3,611l16.1,7h-70l15.7-7l-15.7-18.1l19.8,6l-7.4-29.3l16.5,21.5l5.9-31.1l5.1,31.1l16.5-21.5l-6.9,29.3
		l19.5-6L479.3,611z"/>
</g>
</svg>
