<svg width="46" height="26" viewBox="0 0 46 26" fill="none" xmlns="http://www.w3.org/2000/svg">
<path d="M23 1C11.0632 1 4.02632 9.72727 2 14.0909C5.5 17.7273 14.6 25 23 25C31.4 25 40.5 17.7273 44 14.0909C41.9737 9.72727 34.9368 1 23 1Z" stroke="#F34620" stroke-width="2"/>
<path d="M30.8421 12.4546C30.8421 16.7099 27.3434 20.1818 23 20.1818C18.6566 20.1818 15.1579 16.7099 15.1579 12.4546C15.1579 8.1992 18.6566 4.72729 23 4.72729C27.3434 4.72729 30.8421 8.1992 30.8421 12.4546Z" stroke="#F34620" stroke-width="2"/>
<path d="M26.4211 12.4546C26.4211 14.3 24.9018 15.8182 23 15.8182C21.0982 15.8182 19.5789 14.3 19.5789 12.4546C19.5789 10.6092 21.0982 9.09094 23 9.09094C24.9018 9.09094 26.4211 10.6092 26.4211 12.4546Z" stroke="#F34620" stroke-width="2"/>
</svg>
