<?xml version="1.0" encoding="utf-8"?>
<!-- Generator: $$$/GeneralStr/196=Adobe Illustrator 27.6.0, SVG Export Plug-In . SVG Version: 6.00 Build 0)  -->
<svg version="1.1" id="Calque_1" xmlns="http://www.w3.org/2000/svg" xmlns:xlink="http://www.w3.org/1999/xlink" x="0px" y="0px"
	 viewBox="0 0 693 135" style="enable-background:new 0 0 693 135;" xml:space="preserve">
<style type="text/css">
	.st0{fill-rule:evenodd;clip-rule:evenodd;fill:#F34620;}
	.st1{fill:#FFFFFF;}
	.st2{fill:#13176F;}
</style>
<path class="st0" d="M235.1,102.2l19.1,31.8h68L285,65.8L322.2,0l-68,0L235,31.5C229.7,14.5,215.7,0,195.9,0L68.3,0
	C36.2,0,9.4,43.8,0,65.7c10.8,22.1,36.3,68.3,74.4,68.3h109.8C208,134.1,228.4,119.9,235.1,102.2z"/>
<circle class="st1" cx="127.3" cy="67.5" r="48.2"/>
<circle class="st2" cx="127.3" cy="67.5" r="30.9"/>
<path class="st0" d="M605.4,102.2l19.1,31.8h68l-37.2-68.3L692.5,0l-68,0l-19.2,31.5C600,14.5,586,0,566.2,0L438.6,0
	c-32.2,0-59,43.8-68.3,65.7c10.8,22.1,36.3,68.3,74.4,68.3h109.8C578.3,134.1,598.7,119.9,605.4,102.2z"/>
<circle class="st1" cx="497.6" cy="67.5" r="48.2"/>
<ellipse transform="matrix(0.3827 -0.9239 0.9239 0.3827 244.8146 501.3995)" class="st2" cx="497.6" cy="67.5" rx="30.9" ry="30.9"/>
</svg>
