<svg width="693" height="135" viewBox="0 0 693 135" fill="none" xmlns="http://www.w3.org/2000/svg">
<path fill-rule="evenodd" clip-rule="evenodd" d="M235.099 102.224L254.192 134.053L322.163 134.053L285.011 65.77L322.163 0.000732422L254.192 0.00072648L235.042 31.5445C229.713 14.5378 215.657 0.000250088 195.889 0.00024836L68.3233 0.000237208C36.1508 0.000234395 9.36923 43.8194 -5.47104e-06 65.7289C10.8106 87.7826 36.3237 134.052 74.3772 134.052L184.213 134.052C207.959 134.052 228.413 119.904 235.099 102.224Z" fill="white"/>
<circle cx="127.295" cy="67.5038" r="48.2176" fill="#F34620"/>
<circle cx="127.295" cy="67.5043" r="30.8593" fill="#13176F"/>
<path fill-rule="evenodd" clip-rule="evenodd" d="M605.41 102.224L624.504 134.053L692.474 134.053L655.323 65.77L692.474 0.000732422L624.504 0.00072648L605.353 31.5445C600.025 14.5378 585.968 0.000250088 566.2 0.00024836L438.635 0.000237208C406.462 0.000234395 379.681 43.8194 370.312 65.7289C381.122 87.7826 406.635 134.052 444.689 134.052L554.525 134.052C578.271 134.052 598.724 119.904 605.41 102.224Z" fill="white"/>
<circle cx="497.606" cy="67.5038" r="48.2176" fill="#F34620"/>
<circle cx="497.606" cy="67.5043" r="30.8593" fill="#13176F"/>
</svg>
