<?xml version="1.0" encoding="utf-8"?>
<!-- Generator: $$$/GeneralStr/196=Adobe Illustrator 27.6.0, SVG Export Plug-In . SVG Version: 6.00 Build 0)  -->
<svg version="1.1" id="Calque_1" xmlns="http://www.w3.org/2000/svg" xmlns:xlink="http://www.w3.org/1999/xlink" x="0px" y="0px"
	 viewBox="0 0 108 99" style="enable-background:new 0 0 108 99;" xml:space="preserve">
<style type="text/css">
	.st0{clip-path:url(#SVGID_00000070106125568380733970000008973529147647796153_);}
	.st1{fill:#E83E3E;}
</style>
<g>
	<defs>
		<rect id="SVGID_1_" y="0" width="108" height="99"/>
	</defs>
	<clipPath id="SVGID_00000106843661721535312880000013488385160983754152_">
		<use xlink:href="#SVGID_1_"  style="overflow:visible;"/>
	</clipPath>
	<g style="clip-path:url(#SVGID_00000106843661721535312880000013488385160983754152_);">
		<path class="st1" d="M0,28.3c0.3-2.6,0.7-5.2,1.4-7.8C4.4,9,13,1.5,24.7,0.3c8.6-0.9,16.6,0.9,23.7,6.1c2,1.5,3.6,3.4,5,5.4
			c0.5,0.6,0.7,0.6,1.2,0c4.1-5.3,9.3-9.1,15.9-10.7c6.3-1.5,12.5-1.5,18.7,0.5c9.1,3,14.7,9.5,17.2,18.6
			c3.1,10.9,1.6,21.3-3.9,31.2c-3.3,5.9-7.2,11.4-11.4,16.6c-1.5,1.8-3.2,2.4-5,1.7c-2.9-1.1-3.9-4.3-1.9-6.9
			c1.8-2.4,3.7-4.7,5.4-7.1c0.2-0.3,0.3-0.5,0.5-0.8c-0.2-0.3-0.5-0.2-0.8-0.2c-3,0-6,0-9.1,0c-0.8,0-1.2,0.3-1.6,0.9
			c-0.9,1.6-1.8,3.1-2.7,4.7c-0.9,1.6-2.2,2.5-4.1,2.4c-1.8-0.1-3-1-3.8-2.6c-1.6-3.1-3.1-6.2-4.7-9.3c-0.2-0.3-0.2-0.7-0.7-1
			c-0.3,0.7-0.7,1.5-1,2.2c-2.4,5.4-4.8,10.9-7.2,16.3c-0.8,1.8-2,2.9-4.1,2.9c-2,0-3.4-1-4.1-2.8C43,61,39.7,53.5,36.4,46
			c-0.2-0.5-0.4-1-0.7-1.6c-1,2.2-2,4.2-3,6.3c-0.3,0.6-0.5,1.2-0.9,1.8c-0.9,1.4-2.1,2.3-3.8,2.2c-3.1,0-6.2,0-9.3,0
			c-0.3,0-0.8-0.2-1,0.1c-0.2,0.4,0.3,0.7,0.5,1c3.1,4.5,6.6,8.6,10.2,12.6c6.7,7.3,13.9,14.2,21.7,20.3c2.5,2,5.1,2,7.5,0
			c4.3-3.4,8.4-7.1,12.4-10.8c1.3-1.2,2.8-1.6,4.5-1.1c1.7,0.6,2.7,1.8,2.9,3.6c0.2,1.5-0.3,2.7-1.3,3.7c-4.3,4.1-8.7,8-13.4,11.6
			c-5.3,4.1-12,4.3-17.4,0.2c-7.3-5.5-13.9-11.7-20.1-18.3c-5-5.3-9.8-10.9-14-16.9C7.2,55,3.6,48.9,1.3,42.1
			c-0.6-1.8-0.9-3.7-1.3-5.5L0,28.3L0,28.3z M72.4,49c0.1-0.1,0.2-0.3,0.3-0.4c1-1.9,2.6-2.7,4.8-2.6c5.7,0.1,11.3,0,17,0
			c0.8,0,1.2-0.2,1.5-0.9c3.4-6.7,4.2-13.7,2.6-21c-1-4.6-2.9-8.9-6.9-11.6c-7-4.8-14.5-4.9-22.1-1.8c-5.4,2.2-8.9,6.5-11.2,11.8
			c-0.4,0.9-0.7,1.8-1.5,2.5c-2.4,2.1-5.8,1-7-2.2c-2.3-6.2-6.5-10.6-12.7-12.9c-3.5-1.3-7.2-1.5-10.8-1.1c-6.8,0.6-12,3.6-15.1,9.9
			C9.6,22,9,25.5,8.7,29c-0.5,5.6,0.7,10.9,3.1,16c0.4,0.8,0.8,1.1,1.7,1.1c3.5-0.1,7-0.1,10.5,0c1,0,1.4-0.3,1.8-1.2
			c1.9-4.2,3.9-8.4,5.9-12.5c0.9-1.8,2.2-2.9,4.3-2.8c2,0.1,3.2,1.2,4,3c3.3,7.6,6.7,15.2,10,22.9c0.1,0.2,0.1,0.6,0.5,0.6
			c0.1-0.2,0.3-0.5,0.4-0.7c2.5-5.7,5-11.3,7.6-17c0.8-1.7,2-2.9,4-3c2.1-0.1,3.4,1,4.3,2.8c1.7,3.4,3.4,6.7,5.1,10.1
			C71.9,48.4,72,48.8,72.4,49L72.4,49z"/>
	</g>
</g>
</svg>
