<?xml version="1.0" encoding="utf-8"?>
<!-- Generator: $$$/GeneralStr/196=Adobe Illustrator 27.6.0, SVG Export Plug-In . SVG Version: 6.00 Build 0)  -->
<svg version="1.1" id="Calque_1" xmlns="http://www.w3.org/2000/svg" xmlns:xlink="http://www.w3.org/1999/xlink" x="0px" y="0px"
	 viewBox="0 0 130 114" style="enable-background:new 0 0 130 114;" xml:space="preserve">
<style type="text/css">
	.st0{clip-path:url(#SVGID_00000039117880703970887490000005716889237847650202_);}
	.st1{fill:#E83E3E;}
</style>
<g>
	<defs>
		<rect id="SVGID_1_" x="0" y="0" width="130" height="114"/>
	</defs>
	<clipPath id="SVGID_00000132786735822306281430000001019931416807622040_">
		<use xlink:href="#SVGID_1_"  style="overflow:visible;"/>
	</clipPath>
	<g style="clip-path:url(#SVGID_00000132786735822306281430000001019931416807622040_);">
		<path class="st1" d="M19.8,106c-4.3,0-8.7,0-13,0c-3.8,0-6.2-2.2-6.6-6c-1.8-16.5,9-31.1,25.3-33.6c9.8-1.5,18.4,1.5,25.5,8.5
			c1.3,1.3,2.2,1.5,3.9,0.9c6.8-2.7,13.6-2.7,20.4,0c1.6,0.6,2.7,0.5,4-0.8c8.3-8.2,18.3-11,29.4-7.7c11.4,3.4,18.3,11.4,20.8,23.1
			c0.7,3.4,0.5,6.9,0.3,10.3c-0.2,3.1-2.7,5.2-6.2,5.2c-8.6,0-17.2,0.1-25.7,0c-2.1,0-3.2,0.3-3.4,2.8c-0.2,2.7-2.1,4.5-4.8,5
			c-1,0.2-2.1,0.3-3.1,0.3c-14.3,0-28.6,0-42.8,0c-1.2,0-2.4-0.1-3.6-0.4c-2.3-0.5-4.1-2-4.3-4.3c-0.3-3.1-1.9-3.5-4.5-3.4
			C27.5,106.1,23.6,106,19.8,106L19.8,106z M65,109.5c3.1,0,6.3,0,9.4,0c3.1,0,3.1-0.1,3-3.1c-0.1-3.2-0.1-6.4,0-9.6
			c0-1.4,0.5-2.9,2.3-2.8c1.8,0.1,2,1.5,2,3c0,3.4,0.1,6.8,0,10.1c0,1.8,0.7,2.4,2.4,2.4c6.2,0.1,6.2,0.2,6.2-6.2
			c-0.1-10.8-5.3-18.5-14.9-22.9c-16.8-7.6-35.3,4.6-35.6,23.1c-0.1,6,0.1,6,6,6c2.1,0,2.6-0.8,2.6-2.7c-0.1-3.3,0-6.6,0-9.9
			c0-1.6,0.5-3,2.4-2.9c1.8,0.1,2,1.6,2,3c0,3.5,0.1,6.9,0,10.4c0,1.5,0.6,2.2,2.1,2.1C58.3,109.5,61.6,109.5,65,109.5L65,109.5z
			 M26.4,101.8c2.1,0,4.2-0.1,6.3,0c2,0.1,3-0.5,3.3-2.7c1.1-7.5,4.6-13.6,10.3-18.5c2.2-1.9,2.3-2.1,0-3.9
			c-8.1-6.6-17.1-8.2-26.6-4.1C10,76.9,5,84.9,4.6,95.6c-0.2,6.2,0.1,6.3,6.2,6.2c1.6,0,2.3-0.6,2.3-2.2c-0.1-3.5,0-6.9,0-10.4
			c0-1.6,0.4-3,2.4-2.9c1.8,0.1,2,1.5,2,3c0,3.5,0,6.9,0,10.4c0,1.5,0.5,2.2,2.1,2.2C21.9,101.7,24.2,101.8,26.4,101.8L26.4,101.8z
			 M103.5,101.8c2.2,0,4.5-0.1,6.7,0c1.8,0.1,2.6-0.6,2.5-2.5c-0.1-3.3,0-6.6,0-9.9c0-1.5,0.1-3.1,2.1-3.1c1.9,0,2.3,1.5,2.3,3
			c0.1,2.5,0,5,0,7.5c0,5.3,0,5.2,5.4,5c2-0.1,3.1-0.9,3.2-3.1c0.3-9-2.4-16.7-9.5-22.7c-9.3-7.9-24.7-7.2-33.2,1.5
			c-1.1,1.2-0.9,1.8,0.2,2.6c1.5,1.1,2.8,2.3,4,3.8c3.8,4.5,6.2,9.6,7,15.4c0.3,1.8,1,2.7,2.9,2.6
			C99.3,101.6,101.4,101.7,103.5,101.8L103.5,101.8z"/>
		<path class="st1" d="M80.1,54.1c0.3,5.9-1.6,11.1-6.9,14.6c-9.6,6.3-22.4-0.2-23-11.7c-0.1-1.6-0.1-3.2,0-4.8
			c0.1-8.9,6.3-15.6,14.6-15.7c8.6-0.1,15,6.3,15.3,15.2C80.2,52.5,80.1,53.2,80.1,54.1L80.1,54.1z M54.6,53.7c0,1.1,0,2.1,0,3.1
			c0.2,4.4,2.9,8,7.3,9.5c4,1.4,8.7,0.1,11.2-3.4c3.7-5.1,3.6-10.9,1.2-16.2c-3.2-7.1-13.2-7.6-17.7-1.3
			C54.7,47.9,54.5,50.8,54.6,53.7L54.6,53.7z"/>
		<path class="st1" d="M115.3,45.9c0.2,4.5-0.5,8.5-3.3,11.8c-4.1,4.9-9.3,6.8-15.5,5.1c-6.2-1.7-10-5.9-10.9-12.2
			c-0.8-5.4-0.9-10.8,2.5-15.6c3.8-5.3,10.3-7.5,16.4-5.7c6.1,1.9,10.4,7.2,10.8,13.7C115.3,44,115.3,45.1,115.3,45.9L115.3,45.9z
			 M110.9,46.6c0-1.1,0-1.8,0-2.6c-0.1-6.2-4.6-10.9-10.4-11c-5.9-0.1-10.5,4.8-10.6,11.1c0,1.4,0,2.9,0,4.3
			c0.2,8.2,8.8,13.1,15.9,8.9C109.9,54.9,111.3,50.9,110.9,46.6L110.9,46.6z"/>
		<path class="st1" d="M15,45.5c-0.3-4.6,0.8-9.1,4.5-12.6c4.6-4.3,10.1-5.3,15.8-3.1c5.7,2.2,8.8,6.7,9.3,12.9
			c0.3,3.8,0.5,7.5-1,11.2c-2.6,6.5-9.4,10.5-16.2,9.3C20.3,61.9,15.1,56,15,48.8C15,47.8,15,46.8,15,45.5L15,45.5z M19.4,45.6
			c0,1.3,0,2.2,0,3.2c0.2,5,3.8,9.2,8.5,10c5.1,0.9,9.9-1.9,11.7-6.7c1.3-3.4,1.1-7,0.4-10.5c-1.5-7.8-10.7-11.1-16.9-6.1
			C19.9,38.2,19.1,41.9,19.4,45.6L19.4,45.6z"/>
		<path class="st1" d="M37.1,15.4C36.5,7.2,41.2,2,46.9,0.5c7.4-2,15.5,3.1,16.3,10.9c0.5,4.4,0.8,8.8-1.8,12.9
			c-3.2,5-9,7.3-14.6,5.8c-5.7-1.6-9.5-6.5-9.7-12.4C37.1,16.8,37.1,16,37.1,15.4L37.1,15.4z M58.9,15.9c0-1.5,0-2.3,0-3.1
			c-0.2-4.6-4-8.3-8.6-8.3c-4.7,0-8.4,3.5-8.7,8.2c-0.1,1.7-0.1,3.4,0,5.1C41.8,22,45,25.5,49,26c4.4,0.5,8.4-2,9.6-6.2
			C59.1,18.2,58.9,16.7,58.9,15.9z"/>
		<path class="st1" d="M93.2,15.4c0,9.3-5.3,15.3-13.4,15.1c-6.4-0.1-11.8-5-12.7-11.3c-0.4-3.1-0.4-6.1,0.3-9.1
			C68.6,4,74.8-0.5,80.8,0c6.7,0.6,11.8,5.9,12.3,12.7C93.2,13.6,93.1,14.5,93.2,15.4L93.2,15.4z M88.7,15.4
			C88.7,15.4,88.7,15.4,88.7,15.4c0.1-0.7,0.1-1.5,0.1-2.2C88.6,8.6,85.4,5,81,4.5c-4.5-0.5-8.6,2.4-9.5,7c-0.6,2.9-0.6,5.8,0.3,8.6
			c1.2,3.8,5.1,6.3,9.2,5.9c3.9-0.4,7.3-3.7,7.7-7.7C88.8,17.3,88.7,16.4,88.7,15.4L88.7,15.4z"/>
	</g>
</g>
</svg>
