<svg width="177" height="44" viewBox="0 0 177 44" fill="none" xmlns="http://www.w3.org/2000/svg">
<path fill-rule="evenodd" clip-rule="evenodd" d="M111.992 9.32017L107.718 11.8839C110.092 12.7817 111.992 15.5281 111.992 18.7166V33.4649C111.992 38.5745 105.779 42.0003 102.818 43.4519C99.8759 42.1939 93.992 38.5977 93.992 34.2778V17.1488C93.992 14.4945 95.9441 12.6071 98.2276 11.8916L93.9921 9.32017L93.9921 0.193359L102.823 5.18193L111.992 0.193359V9.32017ZM167.113 41.3362C165.321 41.3362 163.753 41.0002 162.409 40.3282C161.065 39.6562 160.015 38.7322 159.259 37.5562C158.531 36.3522 158.167 34.9802 158.167 33.4402V32.1382C158.167 31.9422 158.223 31.7882 158.335 31.6762C158.447 31.5642 158.601 31.5082 158.797 31.5082H165.349C165.545 31.5082 165.699 31.5642 165.811 31.6762C165.923 31.7882 165.979 31.9422 165.979 32.1382V33.0622C165.979 33.5102 166.091 33.8742 166.315 34.1542C166.539 34.4342 166.819 34.5742 167.155 34.5742C167.491 34.5742 167.771 34.4482 167.995 34.1962C168.219 33.9442 168.331 33.6222 168.331 33.2302C168.331 32.7542 168.107 32.2922 167.659 31.8442C167.211 31.3682 166.273 30.6262 164.845 29.6182C163.445 28.6382 162.283 27.7422 161.359 26.9302C160.463 26.1182 159.679 25.0962 159.007 23.8642C158.335 22.6322 157.999 21.2182 157.999 19.6222C157.999 17.9702 158.363 16.5142 159.091 15.2542C159.847 13.9942 160.897 13.0142 162.241 12.3142C163.613 11.6142 165.181 11.2642 166.945 11.2642C168.737 11.2642 170.305 11.6142 171.649 12.3142C173.021 13.0142 174.071 13.9942 174.799 15.2542C175.555 16.5142 175.933 17.9702 175.933 19.6222V20.5462C175.933 20.7422 175.877 20.8962 175.765 21.0082C175.653 21.1202 175.499 21.1762 175.303 21.1762H168.793C168.597 21.1762 168.443 21.1202 168.331 21.0082C168.219 20.8962 168.163 20.7422 168.163 20.5462V19.4542C168.163 19.0342 168.051 18.6982 167.827 18.4462C167.603 18.1662 167.309 18.0262 166.945 18.0262C166.581 18.0262 166.287 18.1662 166.063 18.4462C165.867 18.7262 165.769 19.1042 165.769 19.5802C165.769 20.1402 165.993 20.6862 166.441 21.2182C166.889 21.7222 167.785 22.4642 169.129 23.4442C170.921 24.7602 172.265 25.8242 173.161 26.6362C174.085 27.4482 174.799 28.3722 175.303 29.4082C175.835 30.4162 176.101 31.6062 176.101 32.9782C176.101 35.5262 175.275 37.5562 173.623 39.0682C171.971 40.5802 169.801 41.3362 167.113 41.3362ZM156.555 32.7261C156.555 35.3861 155.701 37.4301 153.993 38.8581C152.285 40.2861 150.115 41.0001 147.483 41.0001H138.621C138.425 41.0001 138.271 40.9441 138.159 40.8321C138.047 40.7201 137.991 40.5661 137.991 40.3701V12.2301C137.991 12.0341 138.047 11.8801 138.159 11.7681C138.271 11.6561 138.425 11.6001 138.621 11.6001H146.223C149.275 11.6001 151.655 12.2861 153.363 13.6581C155.099 15.0301 155.967 17.1021 155.967 19.8741C155.967 22.4501 155.169 24.3681 153.573 25.6281C153.433 25.7401 153.405 25.8381 153.489 25.9221C155.533 27.4901 156.555 29.7581 156.555 32.7261ZM146.139 18.3621C145.971 18.3621 145.887 18.4461 145.887 18.6141V22.8141C145.887 22.9821 145.971 23.0661 146.139 23.0661H146.349C147.609 23.0661 148.239 22.2821 148.239 20.7141C148.239 19.1461 147.609 18.3621 146.349 18.3621H146.139ZM146.853 34.2381C147.385 34.2381 147.819 34.0141 148.155 33.5661C148.491 33.0901 148.659 32.4181 148.659 31.5501C148.659 30.6821 148.491 29.9961 148.155 29.4921C147.847 28.9601 147.427 28.6941 146.895 28.6941H146.139C145.971 28.6941 145.887 28.7781 145.887 28.9461V33.9861C145.887 34.1541 145.971 34.2381 146.139 34.2381H146.853ZM128.818 11.6001C128.482 11.6001 128.23 11.7541 128.062 12.0621L125.206 17.4381C125.178 17.5501 125.122 17.6061 125.038 17.6061C124.982 17.5781 124.926 17.5221 124.87 17.4381L121.93 12.0621C121.79 11.7541 121.538 11.6001 121.174 11.6001H114.622C114.426 11.6001 114.272 11.6561 114.16 11.7681C114.048 11.8801 113.992 12.0341 113.992 12.2301V40.3701C113.992 40.5661 114.048 40.7201 114.16 40.8321C114.272 40.9441 114.426 41.0001 114.622 41.0001H121.258C121.454 41.0001 121.608 40.9441 121.72 40.8321C121.832 40.7201 121.888 40.5661 121.888 40.3701V23.2761C121.888 23.1361 121.916 23.0661 121.972 23.0661C122.056 23.0381 122.126 23.0801 122.182 23.1921L124.954 27.9801H124.996L125.416 27.2241L127.81 23.1921C127.866 23.0801 127.922 23.0381 127.978 23.0661C128.062 23.0941 128.104 23.1641 128.104 23.2761V40.3701C128.104 40.5661 128.16 40.7201 128.272 40.8321C128.384 40.9441 128.538 41.0001 128.734 41.0001H135.37C135.566 41.0001 135.72 40.9441 135.832 40.8321C135.944 40.7201 136 40.5661 136 40.3701V12.2301C136 12.0341 135.944 11.8801 135.832 11.7681C135.72 11.6561 135.566 11.6001 135.37 11.6001H128.818ZM92.8453 32.7262C92.8453 35.3862 91.9913 37.4302 90.2833 38.8582C88.5753 40.2862 86.4053 41.0002 83.7733 41.0002H74.9113C74.7153 41.0002 74.5613 40.9442 74.4493 40.8322C74.3373 40.7202 74.2813 40.5662 74.2813 40.3702V12.2302C74.2813 12.0342 74.3373 11.8802 74.4493 11.7682C74.5613 11.6562 74.7153 11.6002 74.9113 11.6002H82.5133C85.5653 11.6002 87.9453 12.2862 89.6533 13.6582C91.3893 15.0302 92.2573 17.1022 92.2573 19.8742C92.2573 22.4502 91.4593 24.3682 89.8633 25.6282C89.7233 25.7402 89.6953 25.8382 89.7793 25.9222C91.8233 27.4902 92.8453 29.7582 92.8453 32.7262ZM82.4293 18.3622C82.2613 18.3622 82.1773 18.4462 82.1773 18.6142V22.8142C82.1773 22.9822 82.2613 23.0662 82.4293 23.0662H82.6393C83.8993 23.0662 84.5293 22.2822 84.5293 20.7142C84.5293 19.1462 83.8993 18.3622 82.6393 18.3622H82.4293ZM83.1433 34.2382C83.6753 34.2382 84.1093 34.0142 84.4453 33.5662C84.7813 33.0902 84.9493 32.4182 84.9493 31.5502C84.9493 30.6822 84.7813 29.9962 84.4453 29.4922C84.1373 28.9602 83.7173 28.6942 83.1853 28.6942H82.4293C82.2613 28.6942 82.1773 28.7782 82.1773 28.9462V33.9862C82.1773 34.1542 82.2613 34.2382 82.4293 34.2382H83.1433ZM52.752 40.8322C52.864 40.9442 53.018 41.0002 53.214 41.0002H59.85C60.046 41.0002 60.2 40.9442 60.312 40.8322C60.424 40.7202 60.48 40.5662 60.48 40.3702V33.0622C60.48 32.8942 60.494 32.7822 60.522 32.7262L60.858 31.8862C60.914 31.7462 60.97 31.6762 61.026 31.6762C61.11 31.6762 61.166 31.7462 61.194 31.8862L64.428 40.4962C64.568 40.8322 64.82 41.0002 65.184 41.0002H72.156C72.52 41.0002 72.702 40.8602 72.702 40.5802C72.702 40.4682 72.688 40.3702 72.66 40.2862L66.57 25.0822C66.542 24.9702 66.542 24.8582 66.57 24.7462L72.492 12.3562C72.604 12.1322 72.604 11.9502 72.492 11.8102C72.38 11.6702 72.212 11.6002 71.988 11.6002H65.058C64.694 11.6002 64.442 11.7682 64.302 12.1042L60.774 20.5882C60.718 20.7002 60.648 20.7562 60.564 20.7562C60.508 20.7282 60.48 20.6582 60.48 20.5462V12.2302C60.48 12.0342 60.424 11.8802 60.312 11.7682C60.2 11.6562 60.046 11.6002 59.85 11.6002H53.214C53.018 11.6002 52.864 11.6562 52.752 11.7682C52.64 11.8802 52.584 12.0342 52.584 12.2302V40.3702C52.584 40.5662 52.64 40.7202 52.752 40.8322ZM42.5745 12.2302C42.5745 12.0342 42.6306 11.8802 42.7425 11.7682C42.8545 11.6562 43.0085 11.6002 43.2045 11.6002H49.7565C49.9525 11.6002 50.1065 11.6562 50.2185 11.7682C50.3305 11.8802 50.3865 12.0342 50.3865 12.2302V40.3702C50.3865 40.5662 50.3305 40.7202 50.2185 40.8322C50.1065 40.9442 49.9525 41.0002 49.7565 41.0002H42.2805C41.9165 41.0002 41.6925 40.8182 41.6085 40.4542L38.4165 27.7282C38.3885 27.6442 38.3325 27.6022 38.2485 27.6022C38.1645 27.6022 38.1225 27.6582 38.1225 27.7702L38.2065 40.3702C38.2065 40.5662 38.1505 40.7202 38.0385 40.8322C37.9265 40.9442 37.7725 41.0002 37.5765 41.0002H31.0245C30.8285 41.0002 30.6745 40.9442 30.5625 40.8322C30.4505 40.7202 30.3945 40.5662 30.3945 40.3702V12.2302C30.3945 12.0342 30.4505 11.8802 30.5625 11.7682C30.6745 11.6562 30.8285 11.6002 31.0245 11.6002H38.4165C38.7805 11.6002 39.0045 11.7822 39.0885 12.1462L42.3225 24.9142C42.3505 25.0262 42.4065 25.0822 42.4905 25.0822C42.5745 25.0822 42.6165 25.0262 42.6165 24.9142L42.5745 12.2302ZM20.4727 40.8322C20.5847 40.9442 20.7387 41.0002 20.9347 41.0002H27.5707C27.7667 41.0002 27.9207 40.9442 28.0327 40.8322C28.1447 40.7202 28.2007 40.5662 28.2007 40.3702V12.2302C28.2007 12.0342 28.1447 11.8802 28.0327 11.7682C27.9207 11.6562 27.7667 11.6002 27.5707 11.6002H20.9347C20.7387 11.6002 20.5847 11.6562 20.4727 11.7682C20.3607 11.8802 20.3047 12.0342 20.3047 12.2302V40.3702C20.3047 40.5662 20.3607 40.7202 20.4727 40.8322ZM10.08 11.6002C11.76 11.6002 13.244 12.0062 14.532 12.8182C15.848 13.6022 16.87 14.7082 17.598 16.1362C18.326 17.5642 18.69 19.2022 18.69 21.0502C18.69 22.8422 18.34 24.4242 17.64 25.7962C16.968 27.1682 16.016 28.2322 14.784 28.9882C13.552 29.7162 12.124 30.0802 10.5 30.0802H8.148C7.98 30.0802 7.896 30.1642 7.896 30.3322V40.3702C7.896 40.5662 7.84 40.7202 7.728 40.8322C7.616 40.9442 7.462 41.0002 7.266 41.0002H0.63C0.434 41.0002 0.28 40.9442 0.168 40.8322C0.056 40.7202 0 40.5662 0 40.3702V12.2302C0 12.0342 0.056 11.8802 0.168 11.7682C0.28 11.6562 0.434 11.6002 0.63 11.6002H10.08ZM8.694 23.9902C9.338 23.9902 9.842 23.7662 10.206 23.3182C10.598 22.8422 10.794 22.1422 10.794 21.2182C10.794 20.2942 10.598 19.5942 10.206 19.1182C9.842 18.6142 9.338 18.3622 8.694 18.3622H8.148C7.98 18.3622 7.896 18.4462 7.896 18.6142V23.7382C7.896 23.9062 7.98 23.9902 8.148 23.9902H8.694Z" fill="#13176F"/>
</svg>
