<svg width="640" height="266" viewBox="0 0 640 266" fill="none" xmlns="http://www.w3.org/2000/svg">
<path fill-rule="evenodd" clip-rule="evenodd" d="M512.419 106.319L524.361 135.027L478.249 265.826H360.141L406.093 135.481L406.285 134.938L406.063 134.407L350.15 0H468.19L502.089 81.4873C499.322 84.1219 497.612 87.7491 497.612 91.7533C497.612 99.6055 504.186 106.008 512.419 106.319ZM515.591 106.134L527.353 134.407L527.574 134.938L527.382 135.481L481.43 265.826H504.241C568.039 265.826 621.147 178.932 639.726 135.485C618.288 91.7527 567.696 0 492.236 0H471.439L504.546 79.584C506.984 78.0619 509.906 77.1758 513.047 77.1758C521.572 77.1758 528.482 83.7024 528.482 91.7533C528.482 98.9859 522.905 104.988 515.591 106.134ZM403.072 135.027L346.901 0H274.43C259.444 0 245.119 2.84176 232.125 7.84659L284.774 134.407L284.996 134.938L284.804 135.481L239.186 264.88C243.084 265.501 247.117 265.826 251.277 265.826H356.96L403.072 135.027ZM229.34 8.96097L281.783 135.027L236.195 264.341C204.947 258.041 182.799 232.502 173.641 203.286L135.673 265.826H0.887054L74.5591 135.405L0.887054 0H135.673L173.528 63.1039C182.266 40.0111 202.849 19.9573 229.34 8.96097Z" fill="#F34620"/>
</svg>
