<svg width="1500" height="760" viewBox="0 0 1500 760" fill="none" xmlns="http://www.w3.org/2000/svg">
<rect width="1500" height="760" fill="white"/>
<path fill-rule="evenodd" clip-rule="evenodd" d="M266.174 366.071L315.744 381.116C306.092 356.571 313.994 322.776 338.558 300.536L342.218 297.222H286.054L341.199 243.567H401.481L452.143 197.699C491.495 162.07 561.2 186.031 593.029 198.716C596.26 208.1 599.716 220.958 602.088 235.179C585.59 244.819 566.478 263.787 566.478 297.967H573.478C573.478 268.712 588.837 251.814 603.214 242.671C607.475 274.511 605.532 311.085 583.914 330.658L451.994 450.095C431.545 468.609 403.386 466.729 381.95 454.12L391.685 504.698L321.394 568.338L298.235 465.539L195.884 429.71L266.174 366.071ZM513.179 243.344C517.625 239.319 518.147 232.652 514.346 228.454C510.544 224.255 503.859 224.115 499.414 228.139C494.968 232.164 494.446 238.831 498.247 243.029C502.048 247.228 508.734 247.369 513.179 243.344Z" fill="#FF3636"/>
<path fill-rule="evenodd" clip-rule="evenodd" d="M623.227 345.248C598.663 367.488 590.761 401.284 600.414 425.829L550.844 410.783L480.553 474.423L582.905 510.252L606.064 613.05L676.354 549.41L666.619 498.832C688.055 511.442 716.214 513.322 736.664 494.807L868.583 375.37C890.201 355.797 892.144 319.223 887.884 287.384C873.506 296.526 858.147 313.424 858.147 342.68H851.147C851.147 308.499 870.259 289.531 886.757 279.892C884.385 265.67 880.93 252.812 877.698 243.428C845.87 230.743 776.164 206.782 736.812 242.411L686.15 288.28H625.868L570.723 341.934H626.888L623.227 345.248ZM797.848 288.056C802.293 284.031 802.816 277.365 799.014 273.166C795.213 268.968 788.528 268.827 784.082 272.852C779.637 276.877 779.114 283.543 782.916 287.742C786.717 291.94 793.402 292.081 797.848 288.056Z" fill="#FF3636"/>
<path fill-rule="evenodd" clip-rule="evenodd" d="M970.685 318.421C946.121 340.66 938.219 374.457 947.871 399.001L898.302 383.956L828.011 447.595L930.363 483.424L953.522 586.223L1023.81 522.583L1014.08 472.005C1035.51 484.614 1063.67 486.494 1084.12 467.98L1216.04 348.543C1237.66 328.97 1239.6 292.396 1235.34 260.556C1220.96 269.698 1205.6 286.597 1205.6 315.852H1198.6C1198.6 281.671 1217.72 262.703 1234.21 253.064C1231.84 238.842 1228.39 225.985 1225.16 216.601C1193.33 203.916 1123.62 179.955 1084.27 215.583L1033.61 261.452H973.326L918.181 315.107H974.345L970.685 318.421ZM1145.31 261.228C1149.75 257.204 1150.27 250.537 1146.47 246.339C1142.67 242.14 1135.99 241.999 1131.54 246.024C1127.09 250.049 1126.57 256.715 1130.37 260.914C1134.17 265.113 1140.86 265.253 1145.31 261.228Z" fill="#FF3636"/>
<path d="M186 312H1314V439C1314 560.503 1215.5 659 1094 659H406C284.497 659 186 560.503 186 439V312Z" fill="#13176F"/>
<path d="M386.427 666.961V590H424V723H336V699.09L386.427 666.961Z" fill="#EBF97B"/>
<path d="M1120.57 666.961V590H1083V723H1171V699.09L1120.57 666.961Z" fill="#EBF97B"/>
<path d="M338.184 70.528L339.176 70.752C342.184 71.328 344.36 73.504 344.36 76.896C344.36 81.248 340.936 84.288 335.592 84.288C332.328 84.288 328.968 83.136 326.824 81.44L329.48 76.384C331.176 78.336 333.064 79.328 335.048 79.328C336.872 79.328 337.864 78.496 337.832 76.96C337.832 75.392 336.872 74.624 335.016 74.624H331.176V71.104L335.752 66.56H327.976V61.632H343.336V65.376L338.184 70.528ZM360.845 66.304C363.469 66.304 366.125 67.04 368.493 68.416L366.349 72.48C363.981 71.264 362.029 70.656 360.653 70.656C359.853 70.656 359.341 70.944 359.341 71.488C359.341 73.44 368.429 72.576 368.429 78.528C368.429 82.112 365.325 84.288 360.781 84.288C357.709 84.288 354.861 83.456 352.589 81.824L354.573 77.76C356.749 79.168 358.957 79.904 360.877 79.904C361.741 79.904 362.317 79.648 362.317 79.104C362.317 77.12 353.421 78.08 353.421 72.128C353.421 68.48 356.461 66.304 360.845 66.304ZM379.41 66.336C384.306 66.336 387.218 68.672 387.218 72.704V84H380.882V82.08C379.826 83.488 378.098 84.288 375.794 84.288C372.082 84.288 369.906 82.08 369.906 78.816C369.906 75.456 372.242 73.6 376.626 73.536H380.882V73.472C380.882 72.032 379.858 71.168 377.874 71.168C376.498 71.168 374.546 71.584 372.626 72.416L371.026 68.128C373.874 66.976 376.69 66.336 379.41 66.336ZM377.938 80.064C379.25 80.064 380.402 79.36 380.882 78.272V76.704H377.938C376.658 76.704 375.986 77.248 375.986 78.336C375.986 79.424 376.69 80.064 377.938 80.064ZM408.127 66.592V84H401.663V81.408C400.479 83.264 398.655 84.288 396.319 84.288C392.671 84.288 390.175 81.696 390.175 77.632V66.592H396.639V75.808C396.639 77.504 397.567 78.592 398.975 78.592C400.639 78.56 401.663 77.184 401.663 75.2V66.592H408.127ZM435.518 66.336C439.198 66.336 441.694 68.928 441.694 72.96V84H435.23V74.816C435.23 73.088 434.27 72 432.83 72C431.166 72.032 430.11 73.408 430.11 75.392V84H423.646V74.816C423.646 73.088 422.686 72 421.246 72C419.55 72.032 418.494 73.408 418.494 75.392V84H412.03V66.592H418.494V69.248C419.678 67.36 421.534 66.336 423.902 66.336C426.622 66.336 428.702 67.744 429.63 70.112C430.75 67.68 432.798 66.336 435.518 66.336ZM453.476 66.368C459.332 66.368 463.14 69.888 463.14 75.296C463.14 80.672 459.332 84.224 453.476 84.224C447.62 84.224 443.78 80.672 443.78 75.296C443.78 69.888 447.62 66.368 453.476 66.368ZM453.476 71.488C451.556 71.488 450.308 73.056 450.308 75.36C450.308 77.696 451.556 79.232 453.476 79.232C455.364 79.232 456.612 77.696 456.612 75.36C456.612 73.056 455.364 71.488 453.476 71.488ZM477.686 66.336C481.398 66.336 483.958 68.928 483.958 72.96V84H477.494V74.816C477.494 73.088 476.502 72 474.998 72C473.238 72.032 472.15 73.408 472.15 75.392V84H465.686V66.592H472.15V69.28C473.366 67.36 475.254 66.336 477.686 66.336ZM494.126 66.304C496.75 66.304 499.406 67.04 501.774 68.416L499.63 72.48C497.262 71.264 495.31 70.656 493.934 70.656C493.134 70.656 492.622 70.944 492.622 71.488C492.622 73.44 501.71 72.576 501.71 78.528C501.71 82.112 498.606 84.288 494.062 84.288C490.99 84.288 488.142 83.456 485.87 81.824L487.854 77.76C490.03 79.168 492.238 79.904 494.158 79.904C495.022 79.904 495.598 79.648 495.598 79.104C495.598 77.12 486.702 78.08 486.702 72.128C486.702 68.48 489.742 66.304 494.126 66.304ZM529.451 60.256V84H522.987V82.016C521.835 83.424 520.203 84.224 518.219 84.224C513.355 84.224 510.155 80.672 510.155 75.2C510.155 69.856 513.291 66.368 518.059 66.368C520.107 66.368 521.803 67.168 522.987 68.608V60.256H529.451ZM519.851 79.264C521.739 79.264 522.987 77.696 522.987 75.36C522.987 73.056 521.739 71.488 519.851 71.488C517.931 71.488 516.683 73.056 516.683 75.36C516.683 77.696 517.931 79.264 519.851 79.264ZM541.722 66.336C546.618 66.336 549.53 68.672 549.53 72.704V84H543.194V82.08C542.138 83.488 540.41 84.288 538.106 84.288C534.394 84.288 532.218 82.08 532.218 78.816C532.218 75.456 534.554 73.6 538.938 73.536H543.194V73.472C543.194 72.032 542.17 71.168 540.186 71.168C538.81 71.168 536.858 71.584 534.938 72.416L533.338 68.128C536.186 66.976 539.002 66.336 541.722 66.336ZM540.25 80.064C541.562 80.064 542.714 79.36 543.194 78.272V76.704H540.25C538.97 76.704 538.298 77.248 538.298 78.336C538.298 79.424 539.002 80.064 540.25 80.064ZM564.968 66.336C568.68 66.336 571.24 68.928 571.24 72.96V84H564.776V74.816C564.776 73.088 563.784 72 562.28 72C560.52 72.032 559.432 73.408 559.432 75.392V84H552.968V66.592H559.432V69.28C560.648 67.36 562.536 66.336 564.968 66.336ZM581.407 66.304C584.031 66.304 586.687 67.04 589.055 68.416L586.911 72.48C584.543 71.264 582.591 70.656 581.215 70.656C580.415 70.656 579.903 70.944 579.903 71.488C579.903 73.44 588.991 72.576 588.991 78.528C588.991 82.112 585.887 84.288 581.343 84.288C578.271 84.288 575.423 83.456 573.151 81.824L575.135 77.76C577.311 79.168 579.519 79.904 581.439 79.904C582.303 79.904 582.879 79.648 582.879 79.104C582.879 77.12 573.983 78.08 573.983 72.128C573.983 68.48 577.023 66.304 581.407 66.304ZM605.404 84H598.94V60.256H605.404V84ZM611.675 61.568C613.243 61.568 614.651 62.624 614.651 64.544C614.651 65.44 614.331 66.208 613.851 66.912L611.259 70.656H608.251L609.787 66.88C609.019 66.336 608.635 65.504 608.635 64.576C608.635 62.816 609.915 61.568 611.675 61.568ZM626.968 64.96H622.232L625.656 59.2L631.256 61.056L626.968 64.96ZM625.464 66.368C631.576 66.368 634.904 70.464 634.52 76.864H622.808C623.32 78.528 624.536 79.456 626.2 79.456C627.576 79.456 628.888 78.848 630.04 77.792L633.4 81.088C631.576 83.104 628.952 84.224 625.656 84.224C619.832 84.224 616.28 80.704 616.28 75.36C616.28 69.92 619.96 66.368 625.464 66.368ZM622.68 73.696H628.152C628.184 71.968 627.096 70.752 625.528 70.752C624.024 70.752 623 71.936 622.68 73.696ZM655.076 66.592V90.208H648.612V82.016C647.46 83.424 645.828 84.224 643.844 84.224C638.98 84.224 635.78 80.672 635.78 75.2C635.78 69.856 638.916 66.368 643.684 66.368C645.732 66.368 647.428 67.168 648.612 68.608V66.592H655.076ZM645.476 79.264C647.364 79.264 648.612 77.696 648.612 75.36C648.612 73.056 647.364 71.488 645.476 71.488C643.556 71.488 642.308 73.056 642.308 75.36C642.308 77.696 643.556 79.264 645.476 79.264ZM676.627 66.592V84H670.163V81.408C668.979 83.264 667.155 84.288 664.819 84.288C661.171 84.288 658.675 81.696 658.675 77.632V66.592H665.139V75.808C665.139 77.504 666.067 78.592 667.475 78.592C669.139 78.56 670.163 77.184 670.163 75.2V66.592H676.627ZM683.794 58.304C685.746 58.304 687.122 59.68 687.122 61.632C687.122 63.584 685.746 64.96 683.794 64.96C681.842 64.96 680.466 63.584 680.466 61.632C680.466 59.68 681.842 58.304 683.794 58.304ZM686.994 84H680.53V66.592H686.994V84ZM701.753 84H695.161L688.697 66.592H695.353L698.553 78.112L701.785 66.592H708.249L701.753 84ZM717.628 66.336C722.524 66.336 725.436 68.672 725.436 72.704V84H719.1V82.08C718.044 83.488 716.316 84.288 714.012 84.288C710.3 84.288 708.124 82.08 708.124 78.816C708.124 75.456 710.46 73.6 714.844 73.536H719.1V73.472C719.1 72.032 718.076 71.168 716.092 71.168C714.716 71.168 712.764 71.584 710.844 72.416L709.244 68.128C712.092 66.976 714.908 66.336 717.628 66.336ZM716.156 80.064C717.468 80.064 718.62 79.36 719.1 78.272V76.704H716.156C714.876 76.704 714.204 77.248 714.204 78.336C714.204 79.424 714.908 80.064 716.156 80.064ZM735.498 84H729.034V60.256H735.498V84ZM747.433 66.368C753.545 66.368 756.873 70.464 756.489 76.864H744.777C745.289 78.528 746.505 79.456 748.169 79.456C749.545 79.456 750.857 78.848 752.009 77.792L755.369 81.088C753.545 83.104 750.921 84.224 747.625 84.224C741.801 84.224 738.249 80.704 738.249 75.36C738.249 69.92 741.929 66.368 747.433 66.368ZM744.649 73.696H750.121C750.153 71.968 749.065 70.752 747.497 70.752C745.993 70.752 744.969 71.936 744.649 73.696ZM771.093 66.336C774.805 66.336 777.365 68.928 777.365 72.96V84H770.901V74.816C770.901 73.088 769.909 72 768.405 72C766.645 72.032 765.557 73.408 765.557 75.392V84H759.093V66.592H765.557V69.28C766.773 67.36 768.661 66.336 771.093 66.336ZM791.532 78.72L792.684 83.168C791.468 83.872 789.612 84.288 787.852 84.288C784.14 84.32 781.644 82.176 781.644 78.56V71.616H779.244V67.488H781.644V62.656H788.076V67.488H792.364V71.616H788.076V77.568C788.076 78.688 788.652 79.232 789.548 79.232C790.06 79.232 790.764 79.008 791.532 78.72ZM820.107 60.256V84H813.643V82.016C812.491 83.424 810.859 84.224 808.875 84.224C804.011 84.224 800.811 80.672 800.811 75.2C800.811 69.856 803.947 66.368 808.715 66.368C810.763 66.368 812.459 67.168 813.643 68.608V60.256H820.107ZM810.507 79.264C812.395 79.264 813.643 77.696 813.643 75.36C813.643 73.056 812.395 71.488 810.507 71.488C808.587 71.488 807.339 73.056 807.339 75.36C807.339 77.696 808.587 79.264 810.507 79.264ZM826.362 61.568C827.93 61.568 829.338 62.624 829.338 64.544C829.338 65.44 829.018 66.208 828.538 66.912L825.946 70.656H822.938L824.474 66.88C823.706 66.336 823.322 65.504 823.322 64.576C823.322 62.816 824.602 61.568 826.362 61.568ZM849.783 66.592V84H843.319V81.408C842.135 83.264 840.311 84.288 837.975 84.288C834.327 84.288 831.831 81.696 831.831 77.632V66.592H838.295V75.808C838.295 77.504 839.223 78.592 840.631 78.592C842.295 78.56 843.319 77.184 843.319 75.2V66.592H849.783ZM865.686 66.336C869.398 66.336 871.958 68.928 871.958 72.96V84H865.494V74.816C865.494 73.088 864.502 72 862.998 72C861.238 72.032 860.15 73.408 860.15 75.392V84H853.686V66.592H860.15V69.28C861.366 67.36 863.254 66.336 865.686 66.336ZM883.214 66.368C889.326 66.368 892.654 70.464 892.27 76.864H880.558C881.07 78.528 882.286 79.456 883.95 79.456C885.326 79.456 886.638 78.848 887.79 77.792L891.15 81.088C889.326 83.104 886.702 84.224 883.406 84.224C877.582 84.224 874.03 80.704 874.03 75.36C874.03 69.92 877.71 66.368 883.214 66.368ZM880.43 73.696H885.902C885.934 71.968 884.846 70.752 883.278 70.752C881.774 70.752 880.75 71.936 880.43 73.696ZM913.266 66.368C918.13 66.368 921.33 69.952 921.33 75.392C921.33 80.736 918.226 84.224 913.426 84.224C911.378 84.224 909.682 83.424 908.498 81.984V84H902.034V60.256H908.498V68.608C909.65 67.168 911.314 66.368 913.266 66.368ZM911.634 79.104C913.554 79.104 914.802 77.536 914.802 75.232C914.802 72.928 913.554 71.36 911.634 71.36C909.778 71.36 908.498 72.928 908.498 75.232C908.498 77.536 909.778 79.104 911.634 79.104ZM932.097 66.336C936.993 66.336 939.905 68.672 939.905 72.704V84H933.569V82.08C932.513 83.488 930.785 84.288 928.481 84.288C924.769 84.288 922.593 82.08 922.593 78.816C922.593 75.456 924.929 73.6 929.313 73.536H933.569V73.472C933.569 72.032 932.545 71.168 930.561 71.168C929.185 71.168 927.233 71.584 925.313 72.416L923.713 68.128C926.561 66.976 929.377 66.336 932.097 66.336ZM930.625 80.064C931.937 80.064 933.089 79.36 933.569 78.272V76.704H930.625C929.345 76.704 928.673 77.248 928.673 78.336C928.673 79.424 929.377 80.064 930.625 80.064ZM946.607 58.304C948.559 58.304 949.935 59.68 949.935 61.632C949.935 63.584 948.559 64.96 946.607 64.96C944.655 64.96 943.279 63.584 943.279 61.632C943.279 59.68 944.655 58.304 946.607 58.304ZM949.807 84H943.343V66.592H949.807V84ZM970.742 66.592V82.496C970.742 87.392 966.87 90.496 961.174 90.496C957.942 90.496 955.03 89.472 953.142 88.224L955.286 83.872C956.822 84.896 958.838 85.472 960.63 85.472C962.966 85.472 964.342 84.384 964.342 82.688V80.928C963.222 82.272 961.654 83.008 959.67 83.008C955.446 83.008 952.374 79.68 952.374 74.592C952.374 69.632 955.35 66.368 959.542 66.368C961.59 66.368 963.222 67.136 964.342 68.48V66.592H970.742ZM961.366 78.368C963.158 78.368 964.342 76.928 964.342 74.784C964.342 72.576 963.158 71.136 961.366 71.136C959.606 71.136 958.422 72.608 958.422 74.784C958.422 76.928 959.606 78.368 961.366 78.368ZM986.561 66.336C990.273 66.336 992.833 68.928 992.833 72.96V84H986.369V74.816C986.369 73.088 985.377 72 983.873 72C982.113 72.032 981.025 73.408 981.025 75.392V84H974.561V66.592H981.025V69.28C982.241 67.36 984.129 66.336 986.561 66.336ZM1004.6 66.368C1010.46 66.368 1014.26 69.888 1014.26 75.296C1014.26 80.672 1010.46 84.224 1004.6 84.224C998.745 84.224 994.905 80.672 994.905 75.296C994.905 69.888 998.745 66.368 1004.6 66.368ZM1004.6 71.488C1002.68 71.488 1001.43 73.056 1001.43 75.36C1001.43 77.696 1002.68 79.232 1004.6 79.232C1006.49 79.232 1007.74 77.696 1007.74 75.36C1007.74 73.056 1006.49 71.488 1004.6 71.488ZM1020.08 58.304C1022.03 58.304 1023.4 59.68 1023.4 61.632C1023.4 63.584 1022.03 64.96 1020.08 64.96C1018.12 64.96 1016.75 63.584 1016.75 61.632C1016.75 59.68 1018.12 58.304 1020.08 58.304ZM1023.28 84H1016.81V66.592H1023.28V84ZM1033.65 66.592V69.344C1034.87 67.424 1036.75 66.336 1039.12 66.336V72.16C1035.79 71.744 1033.65 73.152 1033.65 75.68V84H1027.19V66.592H1033.65ZM1049.25 66.368C1055.36 66.368 1058.69 70.464 1058.3 76.864H1046.59C1047.1 78.528 1048.32 79.456 1049.98 79.456C1051.36 79.456 1052.67 78.848 1053.82 77.792L1057.18 81.088C1055.36 83.104 1052.73 84.224 1049.44 84.224C1043.61 84.224 1040.06 80.704 1040.06 75.36C1040.06 69.92 1043.74 66.368 1049.25 66.368ZM1046.46 73.696H1051.93C1051.97 71.968 1050.88 70.752 1049.31 70.752C1047.81 70.752 1046.78 71.936 1046.46 73.696ZM1085.86 60.256V84H1079.39V82.016C1078.24 83.424 1076.61 84.224 1074.63 84.224C1069.76 84.224 1066.56 80.672 1066.56 75.2C1066.56 69.856 1069.7 66.368 1074.47 66.368C1076.51 66.368 1078.21 67.168 1079.39 68.608V60.256H1085.86ZM1076.26 79.264C1078.15 79.264 1079.39 77.696 1079.39 75.36C1079.39 73.056 1078.15 71.488 1076.26 71.488C1074.34 71.488 1073.09 73.056 1073.09 75.36C1073.09 77.696 1074.34 79.264 1076.26 79.264ZM1092.11 61.568C1093.68 61.568 1095.09 62.624 1095.09 64.544C1095.09 65.44 1094.77 66.208 1094.29 66.912L1091.7 70.656H1088.69L1090.22 66.88C1089.46 66.336 1089.07 65.504 1089.07 64.576C1089.07 62.816 1090.35 61.568 1092.11 61.568ZM1105.9 66.368C1112.01 66.368 1115.34 70.464 1114.96 76.864H1103.25C1103.76 78.528 1104.97 79.456 1106.64 79.456C1108.01 79.456 1109.33 78.848 1110.48 77.792L1113.84 81.088C1112.01 83.104 1109.39 84.224 1106.09 84.224C1100.27 84.224 1096.72 80.704 1096.72 75.36C1096.72 69.92 1100.4 66.368 1105.9 66.368ZM1103.12 73.696H1108.59C1108.62 71.968 1107.53 70.752 1105.97 70.752C1104.46 70.752 1103.44 71.936 1103.12 73.696ZM1125.75 66.336C1130.65 66.336 1133.56 68.672 1133.56 72.704V84H1127.23V82.08C1126.17 83.488 1124.44 84.288 1122.14 84.288C1118.43 84.288 1116.25 82.08 1116.25 78.816C1116.25 75.456 1118.59 73.6 1122.97 73.536H1127.23V73.472C1127.23 72.032 1126.2 71.168 1124.22 71.168C1122.84 71.168 1120.89 71.584 1118.97 72.416L1117.37 68.128C1120.22 66.976 1123.03 66.336 1125.75 66.336ZM1124.28 80.064C1125.59 80.064 1126.75 79.36 1127.23 78.272V76.704H1124.28C1123 76.704 1122.33 77.248 1122.33 78.336C1122.33 79.424 1123.03 80.064 1124.28 80.064ZM1154.47 66.592V84H1148.01V81.408C1146.82 83.264 1145 84.288 1142.66 84.288C1139.01 84.288 1136.52 81.696 1136.52 77.632V66.592H1142.98V75.808C1142.98 77.504 1143.91 78.592 1145.32 78.592C1146.98 78.56 1148.01 77.184 1148.01 75.2V66.592H1154.47ZM1160.49 78.24C1162.28 78.24 1163.53 79.456 1163.53 81.216C1163.53 83.008 1162.28 84.256 1160.49 84.256C1158.73 84.256 1157.48 83.008 1157.48 81.216C1157.48 79.456 1158.73 78.24 1160.49 78.24ZM233.234 125.576C234.535 125.576 235.655 125.363 236.594 124.936C237.533 124.488 238.514 123.784 239.538 122.824L241.97 125.32C239.602 127.944 236.722 129.256 233.33 129.256C229.959 129.256 227.154 128.168 224.914 125.992C222.695 123.816 221.586 121.064 221.586 117.736C221.586 114.408 222.717 111.635 224.978 109.416C227.261 107.197 230.13 106.088 233.586 106.088C237.063 106.088 239.965 107.368 242.29 109.928L239.89 112.552C238.823 111.528 237.81 110.813 236.85 110.408C235.911 110.003 234.802 109.8 233.522 109.8C231.261 109.8 229.362 110.536 227.826 112.008C226.29 113.459 225.522 115.325 225.522 117.608C225.522 119.869 226.279 121.768 227.794 123.304C229.33 124.819 231.143 125.576 233.234 125.576ZM245.82 110.248C245.244 109.907 244.956 109.405 244.956 108.744C244.956 108.061 245.148 107.539 245.532 107.176C245.916 106.792 246.396 106.6 246.972 106.6C247.548 106.6 248.028 106.781 248.412 107.144C248.818 107.507 249.02 107.987 249.02 108.584C249.02 109.16 248.828 109.725 248.444 110.28L246.556 113H244.604L245.82 110.248ZM268.854 122.056H255.51C255.595 123.293 256.161 124.296 257.206 125.064C258.251 125.811 259.446 126.184 260.79 126.184C262.923 126.184 264.545 125.512 265.654 124.168L267.702 126.408C265.867 128.307 263.478 129.256 260.534 129.256C258.145 129.256 256.107 128.467 254.422 126.888C252.758 125.288 251.926 123.155 251.926 120.488C251.926 117.8 252.779 115.667 254.486 114.088C256.193 112.509 258.198 111.72 260.502 111.72C262.827 111.72 264.801 112.424 266.422 113.832C268.043 115.219 268.854 117.139 268.854 119.592V122.056ZM255.51 119.24H265.27C265.27 117.811 264.822 116.712 263.926 115.944C263.03 115.176 261.921 114.792 260.598 114.792C259.297 114.792 258.123 115.197 257.078 116.008C256.033 116.797 255.51 117.875 255.51 119.24ZM284.923 123.912C284.923 125.533 284.336 126.835 283.163 127.816C281.99 128.776 280.486 129.256 278.651 129.256C277.414 129.256 276.123 129.032 274.779 128.584C273.456 128.136 272.283 127.507 271.259 126.696L272.987 123.912C274.971 125.405 276.891 126.152 278.747 126.152C279.558 126.152 280.198 125.971 280.667 125.608C281.136 125.224 281.371 124.744 281.371 124.168C281.371 123.315 280.24 122.547 277.979 121.864C277.808 121.8 277.68 121.757 277.595 121.736C274.054 120.776 272.283 119.176 272.283 116.936C272.283 115.357 272.891 114.099 274.107 113.16C275.344 112.2 276.944 111.72 278.907 111.72C280.87 111.72 282.726 112.296 284.475 113.448L283.131 116.104C281.744 115.187 280.24 114.728 278.619 114.728C277.766 114.728 277.072 114.888 276.539 115.208C276.006 115.507 275.739 115.965 275.739 116.584C275.739 117.139 276.016 117.544 276.571 117.8C276.955 117.992 277.488 118.173 278.171 118.344C278.875 118.515 279.494 118.685 280.027 118.856C280.56 119.027 281.072 119.219 281.563 119.432C282.075 119.645 282.619 119.944 283.195 120.328C284.347 121.096 284.923 122.291 284.923 123.912ZM293.399 114.856V123.496C293.399 124.307 293.612 124.957 294.039 125.448C294.465 125.917 295.063 126.152 295.831 126.152C296.599 126.152 297.335 125.779 298.039 125.032L299.511 127.56C298.252 128.691 296.855 129.256 295.319 129.256C293.804 129.256 292.503 128.733 291.415 127.688C290.348 126.621 289.815 125.192 289.815 123.4V114.856H287.671V111.976H289.815V106.632H293.399V111.976H297.879V114.856H293.399ZM314.723 129H311.139V105.256H314.723V129ZM333.712 129H330.448V126.728C329.04 128.413 327.152 129.256 324.784 129.256C323.013 129.256 321.541 128.755 320.368 127.752C319.216 126.749 318.64 125.416 318.64 123.752C318.64 122.067 319.259 120.808 320.496 119.976C321.733 119.144 323.408 118.728 325.52 118.728H330.16V118.088C330.16 115.827 328.901 114.696 326.384 114.696C324.805 114.696 323.163 115.272 321.456 116.424L319.856 114.184C321.925 112.541 324.272 111.72 326.896 111.72C328.901 111.72 330.533 112.232 331.792 113.256C333.072 114.259 333.712 115.848 333.712 118.024V129ZM330.128 122.664V121.224H326.096C323.515 121.224 322.224 122.035 322.224 123.656C322.224 124.488 322.544 125.128 323.184 125.576C323.824 126.003 324.709 126.216 325.84 126.216C326.992 126.216 327.995 125.896 328.848 125.256C329.701 124.616 330.128 123.752 330.128 122.664ZM354.427 129.256C352.272 129.256 350.395 128.445 348.795 126.824C347.195 125.203 346.395 123.069 346.395 120.424C346.395 117.779 347.216 115.667 348.859 114.088C350.501 112.509 352.453 111.72 354.715 111.72C356.997 111.72 358.832 112.68 360.219 114.6V105.256H363.803V129H360.219V126.44C358.896 128.317 356.965 129.256 354.427 129.256ZM349.979 120.584C349.979 122.205 350.501 123.528 351.547 124.552C352.592 125.576 353.819 126.088 355.227 126.088C356.635 126.088 357.829 125.576 358.811 124.552C359.792 123.507 360.283 122.173 360.283 120.552C360.283 118.931 359.792 117.576 358.811 116.488C357.829 115.4 356.624 114.856 355.195 114.856C353.765 114.856 352.539 115.4 351.515 116.488C350.491 117.576 349.979 118.941 349.979 120.584ZM384.823 122.056H371.479C371.564 123.293 372.129 124.296 373.175 125.064C374.22 125.811 375.415 126.184 376.759 126.184C378.892 126.184 380.513 125.512 381.623 124.168L383.671 126.408C381.836 128.307 379.447 129.256 376.503 129.256C374.113 129.256 372.076 128.467 370.391 126.888C368.727 125.288 367.895 123.155 367.895 120.488C367.895 117.8 368.748 115.667 370.455 114.088C372.161 112.509 374.167 111.72 376.471 111.72C378.796 111.72 380.769 112.424 382.391 113.832C384.012 115.219 384.823 117.139 384.823 119.592V122.056ZM371.479 119.24H381.239C381.239 117.811 380.791 116.712 379.895 115.944C378.999 115.176 377.889 114.792 376.567 114.792C375.265 114.792 374.092 115.197 373.047 116.008C372.001 116.797 371.479 117.875 371.479 119.24ZM392.348 119.784V129H388.764V111.976H392.348V115.08C392.924 114.035 393.713 113.213 394.716 112.616C395.74 112.019 396.839 111.72 398.012 111.72C399.932 111.72 401.479 112.307 402.652 113.48C403.847 114.653 404.444 116.349 404.444 118.568V129H400.86V119.656C400.86 116.52 399.559 114.952 396.956 114.952C395.719 114.952 394.641 115.368 393.724 116.2C392.807 117.011 392.348 118.205 392.348 119.784ZM421.579 123.912C421.579 125.533 420.993 126.835 419.819 127.816C418.646 128.776 417.142 129.256 415.307 129.256C414.07 129.256 412.779 129.032 411.435 128.584C410.113 128.136 408.939 127.507 407.915 126.696L409.643 123.912C411.627 125.405 413.547 126.152 415.403 126.152C416.214 126.152 416.854 125.971 417.323 125.608C417.793 125.224 418.027 124.744 418.027 124.168C418.027 123.315 416.897 122.547 414.635 121.864C414.465 121.8 414.337 121.757 414.251 121.736C410.71 120.776 408.939 119.176 408.939 116.936C408.939 115.357 409.547 114.099 410.763 113.16C412.001 112.2 413.601 111.72 415.563 111.72C417.526 111.72 419.382 112.296 421.131 113.448L419.787 116.104C418.401 115.187 416.897 114.728 415.275 114.728C414.422 114.728 413.729 114.888 413.195 115.208C412.662 115.507 412.395 115.965 412.395 116.584C412.395 117.139 412.673 117.544 413.227 117.8C413.611 117.992 414.145 118.173 414.827 118.344C415.531 118.515 416.15 118.685 416.683 118.856C417.217 119.027 417.729 119.219 418.219 119.432C418.731 119.645 419.275 119.944 419.851 120.328C421.003 121.096 421.579 122.291 421.579 123.912ZM429.223 129H425.639V111.976H429.223V129ZM425.863 108.584C425.415 108.136 425.191 107.603 425.191 106.984C425.191 106.365 425.415 105.832 425.863 105.384C426.311 104.936 426.844 104.712 427.463 104.712C428.082 104.712 428.615 104.936 429.063 105.384C429.511 105.832 429.735 106.365 429.735 106.984C429.735 107.603 429.511 108.136 429.063 108.584C428.615 109.032 428.082 109.256 427.463 109.256C426.844 109.256 426.311 109.032 425.863 108.584ZM438.836 114.856V123.496C438.836 124.307 439.049 124.957 439.476 125.448C439.903 125.917 440.5 126.152 441.268 126.152C442.036 126.152 442.772 125.779 443.476 125.032L444.948 127.56C443.689 128.691 442.292 129.256 440.756 129.256C439.241 129.256 437.94 128.733 436.852 127.688C435.785 126.621 435.252 125.192 435.252 123.4V114.856H433.108V111.976H435.252V106.632H438.836V111.976H443.316V114.856H438.836ZM463.635 122.056H450.291C450.376 123.293 450.942 124.296 451.987 125.064C453.032 125.811 454.227 126.184 455.571 126.184C457.704 126.184 459.326 125.512 460.435 124.168L462.483 126.408C460.648 128.307 458.259 129.256 455.315 129.256C452.926 129.256 450.888 128.467 449.203 126.888C447.539 125.288 446.707 123.155 446.707 120.488C446.707 117.8 447.56 115.667 449.267 114.088C450.974 112.509 452.979 111.72 455.283 111.72C457.608 111.72 459.582 112.424 461.203 113.832C462.824 115.219 463.635 117.139 463.635 119.592V122.056ZM450.291 119.24H460.051C460.051 117.811 459.603 116.712 458.707 115.944C457.811 115.176 456.702 114.792 455.379 114.792C454.078 114.792 452.904 115.197 451.859 116.008C450.814 116.797 450.291 117.875 450.291 119.24ZM457.235 109.736H453.971L457.363 105.096L461.139 106.664L457.235 109.736ZM485.286 115.336C483.515 115.336 482.182 115.912 481.286 117.064C480.39 118.216 479.942 119.763 479.942 121.704V129H476.358V111.976H479.942V115.4C480.518 114.333 481.296 113.459 482.278 112.776C483.28 112.093 484.336 111.741 485.446 111.72L485.478 115.336C485.414 115.336 485.35 115.336 485.286 115.336ZM504.916 122.056H491.572C491.658 123.293 492.223 124.296 493.268 125.064C494.314 125.811 495.508 126.184 496.852 126.184C498.986 126.184 500.607 125.512 501.716 124.168L503.764 126.408C501.93 128.307 499.54 129.256 496.596 129.256C494.207 129.256 492.17 128.467 490.484 126.888C488.82 125.288 487.988 123.155 487.988 120.488C487.988 117.8 488.842 115.667 490.548 114.088C492.255 112.509 494.26 111.72 496.564 111.72C498.89 111.72 500.863 112.424 502.484 113.832C504.106 115.219 504.916 117.139 504.916 119.592V122.056ZM491.572 119.24H501.332C501.332 117.811 500.884 116.712 499.988 115.944C499.092 115.176 497.983 114.792 496.66 114.792C495.359 114.792 494.186 115.197 493.14 116.008C492.095 116.797 491.572 117.875 491.572 119.24ZM515.802 129.256C513.668 129.256 511.791 128.435 510.17 126.792C508.57 125.149 507.77 123.016 507.77 120.392C507.77 117.768 508.58 115.667 510.202 114.088C511.823 112.509 513.775 111.72 516.058 111.72C518.34 111.72 520.186 112.797 521.594 114.952V111.976H525.178V135.208H521.594V126.44C519.887 128.317 517.956 129.256 515.802 129.256ZM511.354 120.552C511.354 122.173 511.876 123.496 512.922 124.52C513.967 125.544 515.194 126.056 516.602 126.056C518.01 126.056 519.204 125.544 520.186 124.52C521.167 123.475 521.658 122.141 521.658 120.52C521.658 118.899 521.167 117.555 520.186 116.488C519.204 115.4 517.999 114.856 516.57 114.856C515.14 114.856 513.914 115.4 512.89 116.488C511.866 117.555 511.354 118.909 511.354 120.552ZM542.262 121.192V111.976H545.846V129H542.262V125.896C541.686 126.941 540.886 127.763 539.862 128.36C538.859 128.957 537.771 129.256 536.598 129.256C534.678 129.256 533.12 128.669 531.926 127.496C530.752 126.323 530.166 124.627 530.166 122.408V111.976H533.75V121.32C533.75 124.456 535.051 126.024 537.654 126.024C538.891 126.024 539.968 125.619 540.886 124.808C541.803 123.976 542.262 122.771 542.262 121.192ZM554.629 129H551.045V111.976H554.629V129ZM551.269 108.584C550.821 108.136 550.597 107.603 550.597 106.984C550.597 106.365 550.821 105.832 551.269 105.384C551.717 104.936 552.25 104.712 552.869 104.712C553.488 104.712 554.021 104.936 554.469 105.384C554.917 105.832 555.141 106.365 555.141 106.984C555.141 107.603 554.917 108.136 554.469 108.584C554.021 109.032 553.488 109.256 552.869 109.256C552.25 109.256 551.717 109.032 551.269 108.584ZM571.954 123.912C571.954 125.533 571.368 126.835 570.194 127.816C569.021 128.776 567.517 129.256 565.682 129.256C564.445 129.256 563.154 129.032 561.81 128.584C560.488 128.136 559.314 127.507 558.29 126.696L560.018 123.912C562.002 125.405 563.922 126.152 565.778 126.152C566.589 126.152 567.229 125.971 567.698 125.608C568.168 125.224 568.402 124.744 568.402 124.168C568.402 123.315 567.272 122.547 565.01 121.864C564.84 121.8 564.712 121.757 564.626 121.736C561.085 120.776 559.314 119.176 559.314 116.936C559.314 115.357 559.922 114.099 561.138 113.16C562.376 112.2 563.976 111.72 565.938 111.72C567.901 111.72 569.757 112.296 571.506 113.448L570.162 116.104C568.776 115.187 567.272 114.728 565.65 114.728C564.797 114.728 564.104 114.888 563.57 115.208C563.037 115.507 562.77 115.965 562.77 116.584C562.77 117.139 563.048 117.544 563.602 117.8C563.986 117.992 564.52 118.173 565.202 118.344C565.906 118.515 566.525 118.685 567.058 118.856C567.592 119.027 568.104 119.219 568.594 119.432C569.106 119.645 569.65 119.944 570.226 120.328C571.378 121.096 571.954 122.291 571.954 123.912ZM591.854 122.056H578.51C578.595 123.293 579.161 124.296 580.206 125.064C581.251 125.811 582.446 126.184 583.79 126.184C585.923 126.184 587.545 125.512 588.654 124.168L590.702 126.408C588.867 128.307 586.478 129.256 583.534 129.256C581.145 129.256 579.107 128.467 577.422 126.888C575.758 125.288 574.926 123.155 574.926 120.488C574.926 117.8 575.779 115.667 577.486 114.088C579.193 112.509 581.198 111.72 583.502 111.72C585.827 111.72 587.801 112.424 589.422 113.832C591.043 115.219 591.854 117.139 591.854 119.592V122.056ZM578.51 119.24H588.27C588.27 117.811 587.822 116.712 586.926 115.944C586.03 115.176 584.921 114.792 583.598 114.792C582.297 114.792 581.123 115.197 580.078 116.008C579.033 116.797 578.51 117.875 578.51 119.24ZM613.696 111.72C615.979 111.72 617.931 112.509 619.552 114.088C621.174 115.667 621.984 117.768 621.984 120.392C621.984 123.016 621.174 125.149 619.552 126.792C617.952 128.435 616.075 129.256 613.92 129.256C611.787 129.256 609.867 128.317 608.16 126.44V135.208H604.576V111.976H608.16V114.952C609.568 112.797 611.414 111.72 613.696 111.72ZM608.096 120.52C608.096 122.141 608.587 123.475 609.568 124.52C610.55 125.544 611.744 126.056 613.152 126.056C614.56 126.056 615.787 125.544 616.832 124.52C617.878 123.496 618.4 122.173 618.4 120.552C618.4 118.909 617.888 117.555 616.864 116.488C615.84 115.4 614.614 114.856 613.184 114.856C611.755 114.856 610.55 115.4 609.568 116.488C608.587 117.555 608.096 118.899 608.096 120.52ZM630.044 124.52C631.068 125.544 632.359 126.056 633.916 126.056C635.474 126.056 636.754 125.544 637.756 124.52C638.78 123.475 639.292 122.131 639.292 120.488C639.292 118.845 638.78 117.512 637.756 116.488C636.754 115.443 635.474 114.92 633.916 114.92C632.359 114.92 631.068 115.443 630.044 116.488C629.042 117.512 628.54 118.845 628.54 120.488C628.54 122.131 629.042 123.475 630.044 124.52ZM640.316 126.728C638.61 128.413 636.476 129.256 633.916 129.256C631.356 129.256 629.223 128.413 627.516 126.728C625.81 125.021 624.956 122.941 624.956 120.488C624.956 118.035 625.81 115.965 627.516 114.28C629.223 112.573 631.356 111.72 633.916 111.72C636.476 111.72 638.61 112.573 640.316 114.28C642.023 115.965 642.876 118.035 642.876 120.488C642.876 122.941 642.023 125.021 640.316 126.728ZM658.855 121.192V111.976H662.439V129H658.855V125.896C658.279 126.941 657.479 127.763 656.455 128.36C655.453 128.957 654.365 129.256 653.191 129.256C651.271 129.256 649.714 128.669 648.519 127.496C647.346 126.323 646.759 124.627 646.759 122.408V111.976H650.343V121.32C650.343 124.456 651.645 126.024 654.247 126.024C655.485 126.024 656.562 125.619 657.479 124.808C658.397 123.976 658.855 122.771 658.855 121.192ZM676.567 115.336C674.796 115.336 673.463 115.912 672.567 117.064C671.671 118.216 671.223 119.763 671.223 121.704V129H667.639V111.976H671.223V115.4C671.799 114.333 672.578 113.459 673.559 112.776C674.562 112.093 675.618 111.741 676.727 111.72L676.759 115.336C676.695 115.336 676.631 115.336 676.567 115.336ZM696.083 129.256C693.95 129.256 692.072 128.435 690.451 126.792C688.851 125.149 688.051 123.016 688.051 120.392C688.051 117.768 688.862 115.667 690.483 114.088C692.104 112.509 694.056 111.72 696.339 111.72C698.622 111.72 700.467 112.797 701.875 114.952V111.976H705.459V135.208H701.875V126.44C700.168 128.317 698.238 129.256 696.083 129.256ZM691.635 120.552C691.635 122.173 692.158 123.496 693.203 124.52C694.248 125.544 695.475 126.056 696.883 126.056C698.291 126.056 699.486 125.544 700.467 124.52C701.448 123.475 701.939 122.141 701.939 120.52C701.939 118.899 701.448 117.555 700.467 116.488C699.486 115.4 698.28 114.856 696.851 114.856C695.422 114.856 694.195 115.4 693.171 116.488C692.147 117.555 691.635 118.909 691.635 120.552ZM722.543 121.192V111.976H726.127V129H722.543V125.896C721.967 126.941 721.167 127.763 720.143 128.36C719.14 128.957 718.052 129.256 716.879 129.256C714.959 129.256 713.402 128.669 712.207 127.496C711.034 126.323 710.447 124.627 710.447 122.408V111.976H714.031V121.32C714.031 124.456 715.332 126.024 717.935 126.024C719.172 126.024 720.25 125.619 721.167 124.808C722.084 123.976 722.543 122.771 722.543 121.192ZM747.166 122.056H733.822C733.908 123.293 734.473 124.296 735.518 125.064C736.564 125.811 737.758 126.184 739.102 126.184C741.236 126.184 742.857 125.512 743.966 124.168L746.014 126.408C744.18 128.307 741.79 129.256 738.846 129.256C736.457 129.256 734.42 128.467 732.734 126.888C731.07 125.288 730.238 123.155 730.238 120.488C730.238 117.8 731.092 115.667 732.798 114.088C734.505 112.509 736.51 111.72 738.814 111.72C741.14 111.72 743.113 112.424 744.734 113.832C746.356 115.219 747.166 117.139 747.166 119.592V122.056ZM733.822 119.24H743.582C743.582 117.811 743.134 116.712 742.238 115.944C741.342 115.176 740.233 114.792 738.91 114.792C737.609 114.792 736.436 115.197 735.39 116.008C734.345 116.797 733.822 117.875 733.822 119.24ZM763.473 129H759.889V105.256H763.473V129ZM784.51 122.056H771.166C771.251 123.293 771.817 124.296 772.862 125.064C773.907 125.811 775.102 126.184 776.446 126.184C778.579 126.184 780.201 125.512 781.31 124.168L783.358 126.408C781.523 128.307 779.134 129.256 776.19 129.256C773.801 129.256 771.763 128.467 770.078 126.888C768.414 125.288 767.582 123.155 767.582 120.488C767.582 117.8 768.435 115.667 770.142 114.088C771.849 112.509 773.854 111.72 776.158 111.72C778.483 111.72 780.457 112.424 782.078 113.832C783.699 115.219 784.51 117.139 784.51 119.592V122.056ZM771.166 119.24H780.926C780.926 117.811 780.478 116.712 779.582 115.944C778.686 115.176 777.577 114.792 776.254 114.792C774.953 114.792 773.779 115.197 772.734 116.008C771.689 116.797 771.166 117.875 771.166 119.24ZM800.579 123.912C800.579 125.533 799.993 126.835 798.819 127.816C797.646 128.776 796.142 129.256 794.307 129.256C793.07 129.256 791.779 129.032 790.435 128.584C789.113 128.136 787.939 127.507 786.915 126.696L788.643 123.912C790.627 125.405 792.547 126.152 794.403 126.152C795.214 126.152 795.854 125.971 796.323 125.608C796.793 125.224 797.027 124.744 797.027 124.168C797.027 123.315 795.897 122.547 793.635 121.864C793.465 121.8 793.337 121.757 793.251 121.736C789.71 120.776 787.939 119.176 787.939 116.936C787.939 115.357 788.547 114.099 789.763 113.16C791.001 112.2 792.601 111.72 794.563 111.72C796.526 111.72 798.382 112.296 800.131 113.448L798.787 116.104C797.401 115.187 795.897 114.728 794.275 114.728C793.422 114.728 792.729 114.888 792.195 115.208C791.662 115.507 791.395 115.965 791.395 116.584C791.395 117.139 791.673 117.544 792.227 117.8C792.611 117.992 793.145 118.173 793.827 118.344C794.531 118.515 795.15 118.685 795.683 118.856C796.217 119.027 796.729 119.219 797.219 119.432C797.731 119.645 798.275 119.944 798.851 120.328C800.003 121.096 800.579 122.291 800.579 123.912ZM825.324 121.192V111.976H828.908V129H825.324V125.896C824.748 126.941 823.948 127.763 822.924 128.36C821.921 128.957 820.833 129.256 819.66 129.256C817.74 129.256 816.183 128.669 814.988 127.496C813.815 126.323 813.228 124.627 813.228 122.408V111.976H816.812V121.32C816.812 124.456 818.113 126.024 820.716 126.024C821.953 126.024 823.031 125.619 823.948 124.808C824.865 123.976 825.324 122.771 825.324 121.192ZM846.236 123.912C846.236 125.533 845.649 126.835 844.476 127.816C843.302 128.776 841.798 129.256 839.964 129.256C838.726 129.256 837.436 129.032 836.092 128.584C834.769 128.136 833.596 127.507 832.572 126.696L834.3 123.912C836.284 125.405 838.204 126.152 840.06 126.152C840.87 126.152 841.51 125.971 841.98 125.608C842.449 125.224 842.684 124.744 842.684 124.168C842.684 123.315 841.553 122.547 839.292 121.864C839.121 121.8 838.993 121.757 838.908 121.736C835.366 120.776 833.596 119.176 833.596 116.936C833.596 115.357 834.204 114.099 835.42 113.16C836.657 112.2 838.257 111.72 840.22 111.72C842.182 111.72 844.038 112.296 845.788 113.448L844.444 116.104C843.057 115.187 841.553 114.728 839.932 114.728C839.078 114.728 838.385 114.888 837.852 115.208C837.318 115.507 837.052 115.965 837.052 116.584C837.052 117.139 837.329 117.544 837.884 117.8C838.268 117.992 838.801 118.173 839.484 118.344C840.188 118.515 840.806 118.685 841.34 118.856C841.873 119.027 842.385 119.219 842.876 119.432C843.388 119.645 843.932 119.944 844.508 120.328C845.66 121.096 846.236 122.291 846.236 123.912ZM853.879 129H850.295V111.976H853.879V129ZM850.519 108.584C850.071 108.136 849.847 107.603 849.847 106.984C849.847 106.365 850.071 105.832 850.519 105.384C850.967 104.936 851.5 104.712 852.119 104.712C852.738 104.712 853.271 104.936 853.719 105.384C854.167 105.832 854.391 106.365 854.391 106.984C854.391 107.603 854.167 108.136 853.719 108.584C853.271 109.032 852.738 109.256 852.119 109.256C851.5 109.256 850.967 109.032 850.519 108.584ZM862.66 119.784V129H859.076V111.976H862.66V115.08C863.236 114.035 864.026 113.213 865.028 112.616C866.052 112.019 867.151 111.72 868.324 111.72C870.244 111.72 871.791 112.307 872.964 113.48C874.159 114.653 874.756 116.349 874.756 118.568V129H871.172V119.656C871.172 116.52 869.871 114.952 867.268 114.952C866.031 114.952 864.954 115.368 864.036 116.2C863.119 117.011 862.66 118.205 862.66 119.784ZM895.604 122.056H882.26C882.345 123.293 882.911 124.296 883.956 125.064C885.001 125.811 886.196 126.184 887.54 126.184C889.673 126.184 891.295 125.512 892.404 124.168L894.452 126.408C892.617 128.307 890.228 129.256 887.284 129.256C884.895 129.256 882.857 128.467 881.172 126.888C879.508 125.288 878.676 123.155 878.676 120.488C878.676 117.8 879.529 115.667 881.236 114.088C882.943 112.509 884.948 111.72 887.252 111.72C889.577 111.72 891.551 112.424 893.172 113.832C894.793 115.219 895.604 117.139 895.604 119.592V122.056ZM882.26 119.24H892.02C892.02 117.811 891.572 116.712 890.676 115.944C889.78 115.176 888.671 114.792 887.348 114.792C886.047 114.792 884.873 115.197 883.828 116.008C882.783 116.797 882.26 117.875 882.26 119.24ZM911.673 123.912C911.673 125.533 911.086 126.835 909.913 127.816C908.74 128.776 907.236 129.256 905.401 129.256C904.164 129.256 902.873 129.032 901.529 128.584C900.206 128.136 899.033 127.507 898.009 126.696L899.737 123.912C901.721 125.405 903.641 126.152 905.497 126.152C906.308 126.152 906.948 125.971 907.417 125.608C907.886 125.224 908.121 124.744 908.121 124.168C908.121 123.315 906.99 122.547 904.729 121.864C904.558 121.8 904.43 121.757 904.345 121.736C900.804 120.776 899.033 119.176 899.033 116.936C899.033 115.357 899.641 114.099 900.857 113.16C902.094 112.2 903.694 111.72 905.657 111.72C907.62 111.72 909.476 112.296 911.225 113.448L909.881 116.104C908.494 115.187 906.99 114.728 905.369 114.728C904.516 114.728 903.822 114.888 903.289 115.208C902.756 115.507 902.489 115.965 902.489 116.584C902.489 117.139 902.766 117.544 903.321 117.8C903.705 117.992 904.238 118.173 904.921 118.344C905.625 118.515 906.244 118.685 906.777 118.856C907.31 119.027 907.822 119.219 908.313 119.432C908.825 119.645 909.369 119.944 909.945 120.328C911.097 121.096 911.673 122.291 911.673 123.912ZM938.306 129H935.042V126.728C933.634 128.413 931.746 129.256 929.378 129.256C927.607 129.256 926.135 128.755 924.962 127.752C923.81 126.749 923.234 125.416 923.234 123.752C923.234 122.067 923.853 120.808 925.09 119.976C926.327 119.144 928.002 118.728 930.114 118.728H934.754V118.088C934.754 115.827 933.495 114.696 930.978 114.696C929.399 114.696 927.757 115.272 926.05 116.424L924.45 114.184C926.519 112.541 928.866 111.72 931.49 111.72C933.495 111.72 935.127 112.232 936.386 113.256C937.666 114.259 938.306 115.848 938.306 118.024V129ZM934.722 122.664V121.224H930.69C928.109 121.224 926.818 122.035 926.818 123.656C926.818 124.488 927.138 125.128 927.778 125.576C928.418 126.003 929.303 126.216 930.434 126.216C931.586 126.216 932.589 125.896 933.442 125.256C934.295 124.616 934.722 123.752 934.722 122.664ZM934.21 109.8H930.946L927.042 106.728L930.818 105.16L934.21 109.8ZM956.492 114.856V123.496C956.492 124.307 956.706 124.957 957.132 125.448C957.559 125.917 958.156 126.152 958.924 126.152C959.692 126.152 960.428 125.779 961.132 125.032L962.604 127.56C961.346 128.691 959.948 129.256 958.412 129.256C956.898 129.256 955.596 128.733 954.508 127.688C953.442 126.621 952.908 125.192 952.908 123.4V114.856H950.764V111.976H952.908V106.632H956.492V111.976H960.972V114.856H956.492ZM981.291 122.056H967.947C968.033 123.293 968.598 124.296 969.643 125.064C970.689 125.811 971.883 126.184 973.227 126.184C975.361 126.184 976.982 125.512 978.091 124.168L980.139 126.408C978.305 128.307 975.915 129.256 972.971 129.256C970.582 129.256 968.545 128.467 966.859 126.888C965.195 125.288 964.363 123.155 964.363 120.488C964.363 117.8 965.217 115.667 966.923 114.088C968.63 112.509 970.635 111.72 972.939 111.72C975.265 111.72 977.238 112.424 978.859 113.832C980.481 115.219 981.291 117.139 981.291 119.592V122.056ZM967.947 119.24H977.707C977.707 117.811 977.259 116.712 976.363 115.944C975.467 115.176 974.358 114.792 973.035 114.792C971.734 114.792 970.561 115.197 969.515 116.008C968.47 116.797 967.947 117.875 967.947 119.24ZM994.161 115.336C992.39 115.336 991.057 115.912 990.161 117.064C989.265 118.216 988.817 119.763 988.817 121.704V129H985.233V111.976H988.817V115.4C989.393 114.333 990.171 113.459 991.153 112.776C992.155 112.093 993.211 111.741 994.321 111.72L994.353 115.336C994.289 115.336 994.225 115.336 994.161 115.336ZM1006.88 115.336C1005.11 115.336 1003.78 115.912 1002.88 117.064C1001.98 118.216 1001.54 119.763 1001.54 121.704V129H997.951V111.976H1001.54V115.4C1002.11 114.333 1002.89 113.459 1003.87 112.776C1004.87 112.093 1005.93 111.741 1007.04 111.72L1007.07 115.336C1007.01 115.336 1006.94 115.336 1006.88 115.336ZM1026.51 122.056H1013.17C1013.25 123.293 1013.82 124.296 1014.86 125.064C1015.91 125.811 1017.1 126.184 1018.45 126.184C1020.58 126.184 1022.2 125.512 1023.31 124.168L1025.36 126.408C1023.52 128.307 1021.13 129.256 1018.19 129.256C1015.8 129.256 1013.76 128.467 1012.08 126.888C1010.41 125.288 1009.58 123.155 1009.58 120.488C1009.58 117.8 1010.44 115.667 1012.14 114.088C1013.85 112.509 1015.85 111.72 1018.16 111.72C1020.48 111.72 1022.46 112.424 1024.08 113.832C1025.7 115.219 1026.51 117.139 1026.51 119.592V122.056ZM1013.17 119.24H1022.93C1022.93 117.811 1022.48 116.712 1021.58 115.944C1020.69 115.176 1019.58 114.792 1018.25 114.792C1016.95 114.792 1015.78 115.197 1014.73 116.008C1013.69 116.797 1013.17 117.875 1013.17 119.24ZM1051.36 123.912C1051.36 125.533 1050.77 126.835 1049.6 127.816C1048.43 128.776 1046.92 129.256 1045.09 129.256C1043.85 129.256 1042.56 129.032 1041.22 128.584C1039.89 128.136 1038.72 127.507 1037.7 126.696L1039.42 123.912C1041.41 125.405 1043.33 126.152 1045.18 126.152C1046 126.152 1046.64 125.971 1047.1 125.608C1047.57 125.224 1047.81 124.744 1047.81 124.168C1047.81 123.315 1046.68 122.547 1044.42 121.864C1044.25 121.8 1044.12 121.757 1044.03 121.736C1040.49 120.776 1038.72 119.176 1038.72 116.936C1038.72 115.357 1039.33 114.099 1040.54 113.16C1041.78 112.2 1043.38 111.72 1045.34 111.72C1047.31 111.72 1049.16 112.296 1050.91 113.448L1049.57 116.104C1048.18 115.187 1046.68 114.728 1045.06 114.728C1044.2 114.728 1043.51 114.888 1042.98 115.208C1042.44 115.507 1042.18 115.965 1042.18 116.584C1042.18 117.139 1042.45 117.544 1043.01 117.8C1043.39 117.992 1043.93 118.173 1044.61 118.344C1045.31 118.515 1045.93 118.685 1046.46 118.856C1047 119.027 1047.51 119.219 1048 119.432C1048.51 119.645 1049.06 119.944 1049.63 120.328C1050.78 121.096 1051.36 122.291 1051.36 123.912ZM1059.39 124.52C1060.41 125.544 1061.7 126.056 1063.26 126.056C1064.82 126.056 1066.1 125.544 1067.1 124.52C1068.12 123.475 1068.64 122.131 1068.64 120.488C1068.64 118.845 1068.12 117.512 1067.1 116.488C1066.1 115.443 1064.82 114.92 1063.26 114.92C1061.7 114.92 1060.41 115.443 1059.39 116.488C1058.39 117.512 1057.88 118.845 1057.88 120.488C1057.88 122.131 1058.39 123.475 1059.39 124.52ZM1069.66 126.728C1067.95 128.413 1065.82 129.256 1063.26 129.256C1060.7 129.256 1058.57 128.413 1056.86 126.728C1055.15 125.021 1054.3 122.941 1054.3 120.488C1054.3 118.035 1055.15 115.965 1056.86 114.28C1058.57 112.573 1060.7 111.72 1063.26 111.72C1065.82 111.72 1067.95 112.573 1069.66 114.28C1071.37 115.965 1072.22 118.035 1072.22 120.488C1072.22 122.941 1071.37 125.021 1069.66 126.728ZM1079.88 129H1076.3V111.976H1079.88V129ZM1076.52 108.584C1076.07 108.136 1075.85 107.603 1075.85 106.984C1075.85 106.365 1076.07 105.832 1076.52 105.384C1076.97 104.936 1077.5 104.712 1078.12 104.712C1078.74 104.712 1079.27 104.936 1079.72 105.384C1080.17 105.832 1080.39 106.365 1080.39 106.984C1080.39 107.603 1080.17 108.136 1079.72 108.584C1079.27 109.032 1078.74 109.256 1078.12 109.256C1077.5 109.256 1076.97 109.032 1076.52 108.584ZM1100.92 122.056H1087.57C1087.66 123.293 1088.22 124.296 1089.27 125.064C1090.31 125.811 1091.51 126.184 1092.85 126.184C1094.99 126.184 1096.61 125.512 1097.72 124.168L1099.76 126.408C1097.93 128.307 1095.54 129.256 1092.6 129.256C1090.21 129.256 1088.17 128.467 1086.48 126.888C1084.82 125.288 1083.99 123.155 1083.99 120.488C1083.99 117.8 1084.84 115.667 1086.55 114.088C1088.26 112.509 1090.26 111.72 1092.56 111.72C1094.89 111.72 1096.86 112.424 1098.48 113.832C1100.11 115.219 1100.92 117.139 1100.92 119.592V122.056ZM1087.57 119.24H1097.33C1097.33 117.811 1096.88 116.712 1095.99 115.944C1095.09 115.176 1093.98 114.792 1092.66 114.792C1091.36 114.792 1090.19 115.197 1089.14 116.008C1088.1 116.797 1087.57 117.875 1087.57 119.24ZM1108.44 119.784V129H1104.86V111.976H1108.44V115.08C1109.02 114.035 1109.81 113.213 1110.81 112.616C1111.83 112.019 1112.93 111.72 1114.11 111.72C1116.03 111.72 1117.57 112.307 1118.75 113.48C1119.94 114.653 1120.54 116.349 1120.54 118.568V129H1116.95V119.656C1116.95 116.52 1115.65 114.952 1113.05 114.952C1111.81 114.952 1110.73 115.368 1109.82 116.2C1108.9 117.011 1108.44 118.205 1108.44 119.784ZM1129.74 114.856V123.496C1129.74 124.307 1129.96 124.957 1130.38 125.448C1130.81 125.917 1131.41 126.152 1132.17 126.152C1132.94 126.152 1133.68 125.779 1134.38 125.032L1135.85 127.56C1134.6 128.691 1133.2 129.256 1131.66 129.256C1130.15 129.256 1128.85 128.733 1127.76 127.688C1126.69 126.621 1126.16 125.192 1126.16 123.4V114.856H1124.01V111.976H1126.16V106.632H1129.74V111.976H1134.22V114.856H1129.74ZM1156.41 115.336C1154.64 115.336 1153.31 115.912 1152.41 117.064C1151.51 118.216 1151.07 119.763 1151.07 121.704V129H1147.48V111.976H1151.07V115.4C1151.64 114.333 1152.42 113.459 1153.4 112.776C1154.41 112.093 1155.46 111.741 1156.57 111.72L1156.6 115.336C1156.54 115.336 1156.47 115.336 1156.41 115.336ZM1176.04 122.056H1162.7C1162.78 123.293 1163.35 124.296 1164.39 125.064C1165.44 125.811 1166.63 126.184 1167.98 126.184C1170.11 126.184 1171.73 125.512 1172.84 124.168L1174.89 126.408C1173.05 128.307 1170.67 129.256 1167.72 129.256C1165.33 129.256 1163.29 128.467 1161.61 126.888C1159.95 125.288 1159.11 123.155 1159.11 120.488C1159.11 117.8 1159.97 115.667 1161.67 114.088C1163.38 112.509 1165.39 111.72 1167.69 111.72C1170.01 111.72 1171.99 112.424 1173.61 113.832C1175.23 115.219 1176.04 117.139 1176.04 119.592V122.056ZM1162.7 119.24H1172.46C1172.46 117.811 1172.01 116.712 1171.11 115.944C1170.22 115.176 1169.11 114.792 1167.79 114.792C1166.48 114.792 1165.31 115.197 1164.27 116.008C1163.22 116.797 1162.7 117.875 1162.7 119.24ZM1183.57 119.784V129H1179.98V111.976H1183.57V115.08C1184.14 114.035 1184.93 113.213 1185.93 112.616C1186.96 112.019 1188.06 111.72 1189.23 111.72C1191.15 111.72 1192.7 112.307 1193.87 113.48C1195.07 114.653 1195.66 116.349 1195.66 118.568V129H1192.08V119.656C1192.08 116.52 1190.78 114.952 1188.17 114.952C1186.94 114.952 1185.86 115.368 1184.94 116.2C1184.03 117.011 1183.57 118.205 1183.57 119.784ZM1204.87 114.856V123.496C1204.87 124.307 1205.08 124.957 1205.51 125.448C1205.93 125.917 1206.53 126.152 1207.3 126.152C1208.07 126.152 1208.8 125.779 1209.51 125.032L1210.98 127.56C1209.72 128.691 1208.32 129.256 1206.79 129.256C1205.27 129.256 1203.97 128.733 1202.88 127.688C1201.82 126.621 1201.28 125.192 1201.28 123.4V114.856H1199.14V111.976H1201.28V106.632H1204.87V111.976H1209.35V114.856H1204.87ZM1227.62 129H1224.35V126.728C1222.95 128.413 1221.06 129.256 1218.69 129.256C1216.92 129.256 1215.45 128.755 1214.27 127.752C1213.12 126.749 1212.55 125.416 1212.55 123.752C1212.55 122.067 1213.17 120.808 1214.4 119.976C1215.64 119.144 1217.31 118.728 1219.43 118.728H1224.07V118.088C1224.07 115.827 1222.81 114.696 1220.29 114.696C1218.71 114.696 1217.07 115.272 1215.36 116.424L1213.76 114.184C1215.83 112.541 1218.18 111.72 1220.8 111.72C1222.81 111.72 1224.44 112.232 1225.7 113.256C1226.98 114.259 1227.62 115.848 1227.62 118.024V129ZM1224.03 122.664V121.224H1220C1217.42 121.224 1216.13 122.035 1216.13 123.656C1216.13 124.488 1216.45 125.128 1217.09 125.576C1217.73 126.003 1218.62 126.216 1219.75 126.216C1220.9 126.216 1221.9 125.896 1222.75 125.256C1223.61 124.616 1224.03 123.752 1224.03 122.664ZM1241.73 111.72C1244.01 111.72 1245.96 112.509 1247.58 114.088C1249.2 115.667 1250.02 117.768 1250.02 120.392C1250.02 123.016 1249.2 125.149 1247.58 126.792C1245.98 128.435 1244.11 129.256 1241.95 129.256C1239.82 129.256 1237.9 128.317 1236.19 126.44V129H1232.61V105.256H1236.19V114.952C1237.6 112.797 1239.44 111.72 1241.73 111.72ZM1236.13 120.52C1236.13 122.141 1236.62 123.475 1237.6 124.52C1238.58 125.544 1239.78 126.056 1241.18 126.056C1242.59 126.056 1243.82 125.544 1244.86 124.52C1245.91 123.496 1246.43 122.173 1246.43 120.552C1246.43 118.909 1245.92 117.555 1244.9 116.488C1243.87 115.4 1242.64 114.856 1241.22 114.856C1239.79 114.856 1238.58 115.4 1237.6 116.488C1236.62 117.555 1236.13 118.899 1236.13 120.52ZM1257.69 129H1254.11V105.256H1257.69V129ZM1278.73 122.056H1265.38C1265.47 123.293 1266.04 124.296 1267.08 125.064C1268.13 125.811 1269.32 126.184 1270.66 126.184C1272.8 126.184 1274.42 125.512 1275.53 124.168L1277.58 126.408C1275.74 128.307 1273.35 129.256 1270.41 129.256C1268.02 129.256 1265.98 128.467 1264.3 126.888C1262.63 125.288 1261.8 123.155 1261.8 120.488C1261.8 117.8 1262.65 115.667 1264.36 114.088C1266.07 112.509 1268.07 111.72 1270.38 111.72C1272.7 111.72 1274.68 112.424 1276.3 113.832C1277.92 115.219 1278.73 117.139 1278.73 119.592V122.056ZM1265.38 119.24H1275.14C1275.14 117.811 1274.7 116.712 1273.8 115.944C1272.9 115.176 1271.8 114.792 1270.47 114.792C1269.17 114.792 1268 115.197 1266.95 116.008C1265.91 116.797 1265.38 117.875 1265.38 119.24Z" fill="black"/>
</svg>
