<svg width="1500" height="760" viewBox="0 0 1500 760" fill="none" xmlns="http://www.w3.org/2000/svg">
<g clip-path="url(#clip0_3277_44)">
<rect width="1500" height="760" fill="white"/>
<path fill-rule="evenodd" clip-rule="evenodd" d="M119.157 380L131.848 401.156C136.286 389.406 149.878 380 165.658 380H238.629C263.91 380 280.86 410.74 288.042 425.391C281.818 439.947 264.025 469.059 242.651 469.059H157.902C144.765 469.059 135.424 459.394 131.887 448.091L119.157 469.059H74L98.6821 425.364L74 380H119.157ZM245.587 415.624C248.443 415.624 250.759 413.437 250.759 410.74C250.759 408.042 248.443 405.856 245.587 405.856C242.732 405.856 240.416 408.042 240.416 410.74C240.416 413.437 242.732 415.624 245.587 415.624Z" fill="#FF3636"/>
<path d="M294 152L294 -7" stroke="#13176F" stroke-width="4"/>
<path d="M294 795L294 636" stroke="#13176F" stroke-width="4"/>
<path d="M263 323L263 -7" stroke="#13176F" stroke-width="4"/>
<path d="M263 840L263 510" stroke="#13176F" stroke-width="4"/>
<path d="M233 764L233 -7" stroke="#13176F" stroke-width="4"/>
<path d="M533 764L533 -7" stroke="#13176F" stroke-width="4"/>
<path d="M202 764L202 -7" stroke="#13176F" stroke-width="4"/>
<path d="M502 764L502 -7" stroke="#13176F" stroke-width="4"/>
<path d="M172 760V-7" stroke="#13176F" stroke-width="4"/>
<path d="M472 760V-7" stroke="#13176F" stroke-width="4"/>
<path d="M141 760V-7" stroke="#13176F" stroke-width="4"/>
<path d="M441 760V-7" stroke="#13176F" stroke-width="4"/>
<path d="M111 760V-7" stroke="#13176F" stroke-width="4"/>
<path d="M411 760V-7" stroke="#13176F" stroke-width="4"/>
<path d="M81 760V-7" stroke="#13176F" stroke-width="4"/>
<path d="M381 760V-7" stroke="#13176F" stroke-width="4"/>
<path d="M51 760V-7" stroke="#13176F" stroke-width="4"/>
<path d="M351 760V-7" stroke="#13176F" stroke-width="4"/>
<path d="M22 760V-7" stroke="#13176F" stroke-width="4"/>
<path d="M322 760V-7" stroke="#13176F" stroke-width="4"/>
<path d="M-77 64L310 64" stroke="#13176F" stroke-width="4"/>
<path d="M223 64L610 64" stroke="#13176F" stroke-width="4"/>
<path d="M-77 35L315 35" stroke="#13176F" stroke-width="4"/>
<path d="M223 35L615 35" stroke="#13176F" stroke-width="4"/>
<path d="M-77 95L305 95" stroke="#13176F" stroke-width="4"/>
<path d="M223 95L605 95" stroke="#13176F" stroke-width="4"/>
<path d="M-77 124L300 124" stroke="#13176F" stroke-width="4"/>
<path d="M223 124L600 124" stroke="#13176F" stroke-width="4"/>
<path d="M-77 152L294 152" stroke="#13176F" stroke-width="4"/>
<path d="M223 152L594 152" stroke="#13176F" stroke-width="4"/>
<path d="M-77 180L288 180" stroke="#13176F" stroke-width="4"/>
<path d="M223 180L588 180" stroke="#13176F" stroke-width="4"/>
<path d="M-77 208L282 208" stroke="#13176F" stroke-width="4"/>
<path d="M223 208L582 208" stroke="#13176F" stroke-width="4"/>
<path d="M-77 236L277 236" stroke="#13176F" stroke-width="4"/>
<path d="M223 236L577 236" stroke="#13176F" stroke-width="4"/>
<path d="M-77 264H273" stroke="#13176F" stroke-width="4"/>
<path d="M223 264H573" stroke="#13176F" stroke-width="4"/>
<path d="M-77 292H263" stroke="#13176F" stroke-width="4"/>
<path d="M223 292H563" stroke="#13176F" stroke-width="4"/>
<path d="M-77 320H263" stroke="#13176F" stroke-width="4"/>
<path d="M223 320H563" stroke="#13176F" stroke-width="4"/>
<path d="M-77 348H256" stroke="#13176F" stroke-width="4"/>
<path d="M223 348H556" stroke="#13176F" stroke-width="4"/>
<path d="M-77 376H252" stroke="#13176F" stroke-width="4"/>
<path d="M223 376H552" stroke="#13176F" stroke-width="4"/>
<path d="M-77 404H244" stroke="#13176F" stroke-width="4"/>
<path d="M223 404H544" stroke="#13176F" stroke-width="4"/>
<path d="M-77 432H244" stroke="#13176F" stroke-width="4"/>
<path d="M223 432H544" stroke="#13176F" stroke-width="4"/>
<path d="M-77 460H252" stroke="#13176F" stroke-width="4"/>
<path d="M223 460H552" stroke="#13176F" stroke-width="4"/>
<path d="M-77 488H259" stroke="#13176F" stroke-width="4"/>
<path d="M223 488H559" stroke="#13176F" stroke-width="4"/>
<path d="M-77 516H267" stroke="#13176F" stroke-width="4"/>
<path d="M223 516H567" stroke="#13176F" stroke-width="4"/>
<path d="M-77 544H267" stroke="#13176F" stroke-width="4"/>
<path d="M223 544H567" stroke="#13176F" stroke-width="4"/>
<path d="M-77 572H277" stroke="#13176F" stroke-width="4"/>
<path d="M223 572H577" stroke="#13176F" stroke-width="4"/>
<path d="M-77 600H288" stroke="#13176F" stroke-width="4"/>
<path d="M223 600H588" stroke="#13176F" stroke-width="4"/>
<path d="M-77 628H294" stroke="#13176F" stroke-width="4"/>
<path d="M223 628H594" stroke="#13176F" stroke-width="4"/>
<path d="M-77 656H298" stroke="#13176F" stroke-width="4"/>
<path d="M223 656H598" stroke="#13176F" stroke-width="4"/>
<path d="M-77 684H303" stroke="#13176F" stroke-width="4"/>
<path d="M223 684H603" stroke="#13176F" stroke-width="4"/>
<path d="M-77 712H315" stroke="#13176F" stroke-width="4"/>
<path d="M223 712H615" stroke="#13176F" stroke-width="4"/>
<path d="M-77 740H315" stroke="#13176F" stroke-width="4"/>
<path d="M223 740H615" stroke="#13176F" stroke-width="4"/>
<rect x="615" width="760" height="729" transform="rotate(90 615 0)" fill="url(#paint0_linear_3277_44)"/>
<path d="M202 386L269.833 29L356 386L242.944 755L202 386Z" fill="white" stroke="#13176F" stroke-width="4"/>
<path fill-rule="evenodd" clip-rule="evenodd" d="M339.157 223L351.848 244.156C356.286 232.406 369.878 223 385.658 223H458.629C483.91 223 500.86 253.74 508.042 268.391C501.818 282.947 484.025 312.059 462.651 312.059H377.902C364.765 312.059 355.424 302.394 351.887 291.091L339.157 312.059H294L318.682 268.364L294 223H339.157ZM465.587 258.624C468.443 258.624 470.759 256.437 470.759 253.74C470.759 251.042 468.443 248.856 465.587 248.856C462.732 248.856 460.416 251.042 460.416 253.74C460.416 256.437 462.732 258.624 465.587 258.624Z" fill="#FF3636"/>
<path fill-rule="evenodd" clip-rule="evenodd" d="M777.157 223L789.848 244.156C794.286 232.406 807.878 223 823.658 223H896.629C921.91 223 938.86 253.74 946.042 268.391C939.818 282.947 922.025 312.059 900.651 312.059H815.902C802.765 312.059 793.424 302.394 789.887 291.091L777.157 312.059H732L756.682 268.364L732 223H777.157ZM903.587 258.624C906.443 258.624 908.759 256.437 908.759 253.74C908.759 251.042 906.443 248.856 903.587 248.856C900.732 248.856 898.416 251.042 898.416 253.74C898.416 256.437 900.732 258.624 903.587 258.624Z" fill="#E336FF"/>
<path fill-rule="evenodd" clip-rule="evenodd" d="M339.157 333.479L351.848 354.635C356.286 342.884 369.878 333.479 385.658 333.479H458.629C483.91 333.479 500.86 364.218 508.042 378.87C501.818 393.426 484.025 422.538 462.651 422.538H377.902C364.764 422.538 355.424 412.873 351.887 401.57L339.157 422.537H294L318.682 378.843L294 333.479H339.157ZM465.587 369.102C468.443 369.102 470.759 366.916 470.759 364.219C470.759 361.521 468.443 359.335 465.587 359.335C462.732 359.335 460.416 361.521 460.416 364.219C460.416 366.916 462.732 369.102 465.587 369.102Z" fill="#FF3636"/>
<path fill-rule="evenodd" clip-rule="evenodd" d="M777.157 333.479L789.848 354.635C794.286 342.884 807.878 333.479 823.658 333.479H896.629C921.91 333.479 938.86 364.218 946.042 378.87C939.818 393.426 922.025 422.538 900.651 422.538H815.902C802.764 422.538 793.424 412.873 789.887 401.57L777.157 422.537H732L756.682 378.843L732 333.479H777.157ZM903.587 369.102C906.443 369.102 908.759 366.916 908.759 364.219C908.759 361.521 906.443 359.335 903.587 359.335C900.732 359.335 898.416 361.521 898.416 364.219C898.416 366.916 900.732 369.102 903.587 369.102Z" fill="#E336FF"/>
<path fill-rule="evenodd" clip-rule="evenodd" d="M385.658 443.958C369.878 443.958 356.286 453.363 351.848 465.114L339.157 443.958H294L318.682 489.322L294 533.017H339.157L351.887 512.049C355.424 523.352 364.765 533.016 377.902 533.016H462.651C484.025 533.016 501.818 503.905 508.042 489.349C500.86 474.697 483.91 443.958 458.629 443.958H385.658ZM465.587 479.581C468.443 479.581 470.759 477.395 470.759 474.698C470.759 472 468.443 469.814 465.587 469.814C462.732 469.814 460.416 472 460.416 474.698C460.416 477.395 462.732 479.581 465.587 479.581Z" fill="#FF3636"/>
<path fill-rule="evenodd" clip-rule="evenodd" d="M823.658 443.958C807.878 443.958 794.286 453.363 789.848 465.114L777.157 443.958H732L756.682 489.322L732 533.017H777.157L789.887 512.049C793.424 523.352 802.765 533.016 815.902 533.016H900.651C922.025 533.016 939.818 503.905 946.042 489.349C938.86 474.697 921.91 443.958 896.629 443.958H823.658ZM903.587 479.581C906.443 479.581 908.759 477.395 908.759 474.698C908.759 472 906.443 469.814 903.587 469.814C900.732 469.814 898.416 472 898.416 474.698C898.416 477.395 900.732 479.581 903.587 479.581Z" fill="#FFA336"/>
<path fill-rule="evenodd" clip-rule="evenodd" d="M339.157 554.437L351.848 575.593C356.286 563.842 369.878 554.437 385.658 554.437H458.629C483.91 554.437 500.86 585.176 508.042 599.828C501.818 614.384 484.025 643.495 462.651 643.495H377.902C364.765 643.495 355.424 633.831 351.887 622.527L339.157 643.495H294L318.682 599.801L294 554.437H339.157ZM465.587 590.06C468.443 590.06 470.759 587.874 470.759 585.176C470.759 582.479 468.443 580.292 465.587 580.292C462.732 580.292 460.416 582.479 460.416 585.176C460.416 587.874 462.732 590.06 465.587 590.06Z" fill="#FF3636"/>
<path fill-rule="evenodd" clip-rule="evenodd" d="M777.157 554.437L789.848 575.593C794.286 563.842 807.878 554.437 823.658 554.437H896.629C921.91 554.437 938.86 585.176 946.042 599.828C939.818 614.384 922.025 643.495 900.651 643.495H815.902C802.765 643.495 793.424 633.831 789.887 622.527L777.157 643.495H732L756.682 599.801L732 554.437H777.157ZM903.587 590.06C906.443 590.06 908.759 587.874 908.759 585.176C908.759 582.479 906.443 580.292 903.587 580.292C900.732 580.292 898.416 582.479 898.416 585.176C898.416 587.874 900.732 590.06 903.587 590.06Z" fill="#5E36FF"/>
<path fill-rule="evenodd" clip-rule="evenodd" d="M560.115 223L572.806 244.156C577.243 232.406 590.836 223 606.616 223H679.587C704.868 223 721.818 253.74 729 268.391C722.776 282.947 704.983 312.059 683.609 312.059H598.859C585.722 312.059 576.382 302.394 572.844 291.091L560.115 312.059H514.958L539.64 268.364L514.958 223H560.115ZM686.545 258.624C689.401 258.624 691.716 256.437 691.716 253.74C691.716 251.042 689.401 248.856 686.545 248.856C683.689 248.856 681.374 251.042 681.374 253.74C681.374 256.437 683.689 258.624 686.545 258.624Z" fill="#FF3636"/>
<path fill-rule="evenodd" clip-rule="evenodd" d="M998.115 223L1010.81 244.156C1015.24 232.406 1028.84 223 1044.62 223H1117.59C1142.87 223 1159.82 253.74 1167 268.391C1160.78 282.947 1142.98 312.059 1121.61 312.059H1036.86C1023.72 312.059 1014.38 302.394 1010.84 291.091L998.115 312.059H952.958L977.64 268.364L952.958 223H998.115ZM1124.54 258.624C1127.4 258.624 1129.72 256.437 1129.72 253.74C1129.72 251.042 1127.4 248.856 1124.54 248.856C1121.69 248.856 1119.37 251.042 1119.37 253.74C1119.37 256.437 1121.69 258.624 1124.54 258.624Z" fill="#E336FF"/>
<path fill-rule="evenodd" clip-rule="evenodd" d="M560.115 333.479L572.806 354.635C577.243 342.884 590.836 333.479 606.616 333.479H679.587C704.868 333.479 721.818 364.218 729 378.87C722.776 393.426 704.983 422.538 683.609 422.538H598.859C585.722 422.538 576.382 412.873 572.844 401.569L560.115 422.537H514.958L539.64 378.843L514.958 333.479H560.115ZM686.545 369.102C689.401 369.102 691.716 366.916 691.716 364.219C691.716 361.521 689.401 359.335 686.545 359.335C683.689 359.335 681.374 361.521 681.374 364.219C681.374 366.916 683.689 369.102 686.545 369.102Z" fill="#FF3636"/>
<path fill-rule="evenodd" clip-rule="evenodd" d="M998.115 333.479L1010.81 354.635C1015.24 342.884 1028.84 333.479 1044.62 333.479H1117.59C1142.87 333.479 1159.82 364.218 1167 378.87C1160.78 393.426 1142.98 422.538 1121.61 422.538H1036.86C1023.72 422.538 1014.38 412.873 1010.84 401.569L998.115 422.537H952.958L977.64 378.843L952.958 333.479H998.115ZM1124.54 369.102C1127.4 369.102 1129.72 366.916 1129.72 364.219C1129.72 361.521 1127.4 359.335 1124.54 359.335C1121.69 359.335 1119.37 361.521 1119.37 364.219C1119.37 366.916 1121.69 369.102 1124.54 369.102Z" fill="#E336FF"/>
<path fill-rule="evenodd" clip-rule="evenodd" d="M606.616 443.958C590.836 443.958 577.243 453.363 572.806 465.114L560.115 443.958H514.958L539.64 489.322L514.958 533.017H560.115L572.844 512.048C576.382 523.352 585.722 533.016 598.859 533.016H683.609C704.983 533.016 722.776 503.905 729 489.349C721.818 474.697 704.868 443.958 679.587 443.958H606.616ZM686.545 479.581C689.401 479.581 691.716 477.395 691.716 474.698C691.716 472 689.401 469.814 686.545 469.814C683.689 469.814 681.374 472 681.374 474.698C681.374 477.395 683.689 479.581 686.545 479.581Z" fill="#FF3636"/>
<path fill-rule="evenodd" clip-rule="evenodd" d="M1044.62 443.958C1028.84 443.958 1015.24 453.363 1010.81 465.114L998.115 443.958H952.958L977.64 489.322L952.958 533.017H998.115L1010.84 512.049C1014.38 523.352 1023.72 533.016 1036.86 533.016H1121.61C1142.98 533.016 1160.78 503.905 1167 489.349C1159.82 474.697 1142.87 443.958 1117.59 443.958H1044.62ZM1124.54 479.581C1127.4 479.581 1129.72 477.395 1129.72 474.698C1129.72 472 1127.4 469.814 1124.54 469.814C1121.69 469.814 1119.37 472 1119.37 474.698C1119.37 477.395 1121.69 479.581 1124.54 479.581Z" fill="#FFA336"/>
<path fill-rule="evenodd" clip-rule="evenodd" d="M560.115 554.437L572.806 575.593C577.243 563.842 590.836 554.437 606.616 554.437H679.587C704.868 554.437 721.818 585.176 729 599.828C722.776 614.384 704.983 643.495 683.609 643.495H598.859C585.722 643.495 576.382 633.831 572.844 622.527L560.115 643.495H514.958L539.64 599.801L514.958 554.437H560.115ZM686.545 590.06C689.401 590.06 691.716 587.874 691.716 585.176C691.716 582.479 689.401 580.292 686.545 580.292C683.689 580.292 681.374 582.479 681.374 585.176C681.374 587.874 683.689 590.06 686.545 590.06Z" fill="#FF3636"/>
<path fill-rule="evenodd" clip-rule="evenodd" d="M998.115 554.437L1010.81 575.593C1015.24 563.842 1028.84 554.437 1044.62 554.437H1117.59C1142.87 554.437 1159.82 585.176 1167 599.828C1160.78 614.384 1142.98 643.495 1121.61 643.495H1036.86C1023.72 643.495 1014.38 633.831 1010.84 622.527L998.115 643.495H952.958L977.64 599.801L952.958 554.437H998.115ZM1124.54 590.06C1127.4 590.06 1129.72 587.874 1129.72 585.176C1129.72 582.479 1127.4 580.292 1124.54 580.292C1121.69 580.292 1119.37 582.479 1119.37 585.176C1119.37 587.874 1121.69 590.06 1124.54 590.06Z" fill="#5E36FF"/>
<rect width="170" height="45" transform="translate(868 299)" fill="#EBF97B"/>
<path d="M934.976 333H929.152L929.12 319.72L924.608 330.792H920.256L915.744 319.72V333H909.888V310.568H917.024L922.432 322.984L927.84 310.568H934.976V333ZM947.179 315.368C953.035 315.368 956.843 318.888 956.843 324.296C956.843 329.672 953.035 333.224 947.179 333.224C941.323 333.224 937.483 329.672 937.483 324.296C937.483 318.888 941.323 315.368 947.179 315.368ZM947.179 320.488C945.259 320.488 944.011 322.056 944.011 324.36C944.011 326.696 945.259 328.232 947.179 328.232C949.067 328.232 950.315 326.696 950.315 324.36C950.315 322.056 949.067 320.488 947.179 320.488ZM981.578 333H975.21L972.33 323.016L969.386 333H963.018L956.681 315.592H963.242L966.378 326.696L969.386 315.592H975.466L978.57 326.696L981.642 315.592H987.914L981.578 333ZM992.841 307.304C994.793 307.304 996.169 308.68 996.169 310.632C996.169 312.584 994.793 313.96 992.841 313.96C990.889 313.96 989.513 312.584 989.513 310.632C989.513 308.68 990.889 307.304 992.841 307.304ZM996.041 333H989.577V315.592H996.041V333Z" fill="black"/>
<rect width="170" height="45" transform="translate(430 410)" fill="#EBF97B"/>
<path d="M469.276 421.28C472.7 421.28 476.22 422.304 478.652 423.872L476.188 428.992C473.884 427.68 470.62 426.496 468.732 426.496C467.612 426.496 466.876 426.88 466.876 427.712C466.876 431.008 478.588 429.056 478.588 437.152C478.588 441.92 474.364 444.192 469.34 444.192C465.532 444.192 461.372 442.848 458.556 440.64L461.052 435.584C463.356 437.536 467.1 439.008 469.404 439.008C470.812 439.008 471.708 438.528 471.708 437.504C471.708 434.112 459.996 436.256 459.996 428.352C459.996 424.032 463.676 421.28 469.276 421.28ZM489.285 426.336C494.181 426.336 497.093 428.672 497.093 432.704V444H490.757V442.08C489.701 443.488 487.973 444.288 485.669 444.288C481.957 444.288 479.781 442.08 479.781 438.816C479.781 435.456 482.117 433.6 486.501 433.536H490.757V433.472C490.757 432.032 489.733 431.168 487.749 431.168C486.373 431.168 484.421 431.584 482.501 432.416L480.901 428.128C483.749 426.976 486.565 426.336 489.285 426.336ZM487.813 440.064C489.125 440.064 490.277 439.36 490.757 438.272V436.704H487.813C486.533 436.704 485.861 437.248 485.861 438.336C485.861 439.424 486.565 440.064 487.813 440.064ZM507.154 444H500.69V420.256H507.154V444ZM536.273 444H530.449L530.417 430.72L525.905 441.792H521.553L517.041 430.72V444H511.185V421.568H518.321L523.729 433.984L529.137 421.568H536.273V444ZM548.316 426.336C553.212 426.336 556.124 428.672 556.124 432.704V444H549.788V442.08C548.732 443.488 547.004 444.288 544.7 444.288C540.988 444.288 538.812 442.08 538.812 438.816C538.812 435.456 541.148 433.6 545.532 433.536H549.788V433.472C549.788 432.032 548.764 431.168 546.78 431.168C545.404 431.168 543.452 431.584 541.532 432.416L539.932 428.128C542.78 426.976 545.596 426.336 548.316 426.336ZM546.844 440.064C548.156 440.064 549.308 439.36 549.788 438.272V436.704H546.844C545.564 436.704 544.892 437.248 544.892 438.336C544.892 439.424 545.596 440.064 546.844 440.064ZM566.025 426.592V429.344C567.241 427.424 569.129 426.336 571.497 426.336V432.16C568.169 431.744 566.025 433.152 566.025 435.68V444H559.561V426.592H566.025Z" fill="black"/>
<rect width="228" height="45" transform="translate(839 465)" fill="#EBF97B"/>
<path d="M856.732 476.568H867.74C872.988 476.568 876.348 478.776 876.348 482.232C876.348 484.504 874.876 486.392 872.54 487.064C875.292 487.64 877.052 489.88 877.052 492.728C877.052 496.568 873.596 499 868.22 499H856.732V476.568ZM863.356 481.56V485.368H867.388C868.7 485.368 869.532 484.6 869.532 483.416C869.532 482.264 868.7 481.56 867.388 481.56H863.356ZM863.356 489.912V494.04H867.388C869.084 494.04 870.14 493.208 870.14 491.896C870.14 490.68 869.084 489.912 867.388 489.912H863.356ZM888.019 481.336C892.915 481.336 895.827 483.672 895.827 487.704V499H889.491V497.08C888.435 498.488 886.707 499.288 884.403 499.288C880.691 499.288 878.515 497.08 878.515 493.816C878.515 490.456 880.851 488.6 885.235 488.536H889.491V488.472C889.491 487.032 888.467 486.168 886.483 486.168C885.107 486.168 883.155 486.584 881.235 487.416L879.635 483.128C882.483 481.976 885.299 481.336 888.019 481.336ZM886.547 495.064C887.859 495.064 889.011 494.36 889.491 493.272V491.704H886.547C885.267 491.704 884.595 492.248 884.595 493.336C884.595 494.424 885.299 495.064 886.547 495.064ZM907.201 492.952L905.889 494.328V499H899.424V475.256H905.889V486.808L910.689 481.592H917.985L911.617 488.312L918.017 499H910.369L907.201 492.952ZM927.951 492.952L926.639 494.328V499H920.174V475.256H926.639V486.808L931.439 481.592H938.735L932.367 488.312L938.767 499H931.119L927.951 492.952ZM948.269 481.336C953.165 481.336 956.077 483.672 956.077 487.704V499H949.741V497.08C948.685 498.488 946.957 499.288 944.653 499.288C940.941 499.288 938.765 497.08 938.765 493.816C938.765 490.456 941.101 488.6 945.485 488.536H949.741V488.472C949.741 487.032 948.717 486.168 946.733 486.168C945.357 486.168 943.405 486.584 941.485 487.416L939.885 483.128C942.733 481.976 945.549 481.336 948.269 481.336ZM946.797 495.064C948.109 495.064 949.261 494.36 949.741 493.272V491.704H946.797C945.517 491.704 944.845 492.248 944.845 493.336C944.845 494.424 945.549 495.064 946.797 495.064ZM965.979 481.592V484.344C967.195 482.424 969.083 481.336 971.451 481.336V487.16C968.123 486.744 965.979 488.152 965.979 490.68V499H959.515V481.592H965.979ZM983.141 479.992C982.053 479.992 981.317 480.6 981.317 481.656V482.488H984.933V486.616H981.317V499H974.917V486.616H972.549V482.488H974.917V480.888C974.917 477.176 977.765 474.936 981.861 474.968C983.717 474.968 985.797 475.416 987.205 476.216L984.997 480.664C984.421 480.248 983.685 479.992 983.141 479.992ZM993.291 481.592V484.344C994.507 482.424 996.395 481.336 998.763 481.336V487.16C995.435 486.744 993.291 488.152 993.291 490.68V499H986.827V481.592H993.291ZM1009.4 481.368C1015.25 481.368 1019.06 484.888 1019.06 490.296C1019.06 495.672 1015.25 499.224 1009.4 499.224C1003.54 499.224 999.702 495.672 999.702 490.296C999.702 484.888 1003.54 481.368 1009.4 481.368ZM1009.4 486.488C1007.48 486.488 1006.23 488.056 1006.23 490.36C1006.23 492.696 1007.48 494.232 1009.4 494.232C1011.29 494.232 1012.53 492.696 1012.53 490.36C1012.53 488.056 1011.29 486.488 1009.4 486.488ZM1028.36 481.304C1030.98 481.304 1033.64 482.04 1036.01 483.416L1033.86 487.48C1031.5 486.264 1029.54 485.656 1028.17 485.656C1027.37 485.656 1026.86 485.944 1026.86 486.488C1026.86 488.44 1035.94 487.576 1035.94 493.528C1035.94 497.112 1032.84 499.288 1028.3 499.288C1025.22 499.288 1022.38 498.456 1020.1 496.824L1022.09 492.76C1024.26 494.168 1026.47 494.904 1028.39 494.904C1029.26 494.904 1029.83 494.648 1029.83 494.104C1029.83 492.12 1020.94 493.08 1020.94 487.128C1020.94 483.48 1023.98 481.304 1028.36 481.304ZM1049.49 493.72L1050.64 498.168C1049.42 498.872 1047.57 499.288 1045.81 499.288C1042.09 499.32 1039.6 497.176 1039.6 493.56V486.616H1037.2V482.488H1039.6V477.656H1046.03V482.488H1050.32V486.616H1046.03V492.568C1046.03 493.688 1046.61 494.232 1047.5 494.232C1048.01 494.232 1048.72 494.008 1049.49 493.72Z" fill="black"/>
<rect width="165" height="45" transform="translate(868 575)" fill="#EBF97B"/>
<path d="M911.961 605.416H902.905L901.561 609H894.713L904.281 586.568H911.129L920.377 609H913.273L911.961 605.416ZM910.201 600.552L907.513 593.224L904.761 600.552H910.201ZM938.862 591.592V609H932.398V606.408C931.214 608.264 929.39 609.288 927.054 609.288C923.406 609.288 920.91 606.696 920.91 602.632V591.592H927.374V600.808C927.374 602.504 928.302 603.592 929.71 603.592C931.374 603.56 932.398 602.184 932.398 600.2V591.592H938.862ZM953.517 603.72L954.669 608.168C953.453 608.872 951.597 609.288 949.837 609.288C946.125 609.32 943.629 607.176 943.629 603.56V596.616H941.229V592.488H943.629V587.656H950.061V592.488H954.349V596.616H950.061V602.568C950.061 603.688 950.637 604.232 951.533 604.232C952.045 604.232 952.749 604.008 953.517 603.72ZM963.604 591.592V594.344C964.82 592.424 966.708 591.336 969.076 591.336V597.16C965.748 596.744 963.604 598.152 963.604 600.68V609H957.14V591.592H963.604ZM979.198 591.368C985.31 591.368 988.638 595.464 988.254 601.864H976.542C977.054 603.528 978.27 604.456 979.934 604.456C981.31 604.456 982.622 603.848 983.774 602.792L987.134 606.088C985.31 608.104 982.686 609.224 979.39 609.224C973.566 609.224 970.014 605.704 970.014 600.36C970.014 594.92 973.694 591.368 979.198 591.368ZM976.414 598.696H981.886C981.918 596.968 980.83 595.752 979.262 595.752C977.758 595.752 976.734 596.936 976.414 598.696ZM997.61 591.304C1000.23 591.304 1002.89 592.04 1005.26 593.416L1003.11 597.48C1000.75 596.264 998.794 595.656 997.418 595.656C996.618 595.656 996.106 595.944 996.106 596.488C996.106 598.44 1005.19 597.576 1005.19 603.528C1005.19 607.112 1002.09 609.288 997.546 609.288C994.474 609.288 991.626 608.456 989.354 606.824L991.338 602.76C993.514 604.168 995.722 604.904 997.642 604.904C998.506 604.904 999.082 604.648 999.082 604.104C999.082 602.12 990.186 603.08 990.186 597.128C990.186 593.48 993.226 591.304 997.61 591.304Z" fill="black"/>
<mask id="mask0_3277_44" style="mask-type:alpha" maskUnits="userSpaceOnUse" x="202" y="28" width="160" height="728">
<path d="M205 386L272.833 29L359 386L245.944 755L205 386Z" fill="white" stroke="#13176F" stroke-width="4"/>
</mask>
<g mask="url(#mask0_3277_44)">
<path fill-rule="evenodd" clip-rule="evenodd" d="M109.157 380L121.848 401.156C126.286 389.406 139.878 380 155.658 380H228.629C253.91 380 270.86 410.74 278.042 425.391C271.818 439.947 254.025 469.059 232.651 469.059H147.902C134.765 469.059 125.424 459.394 121.887 448.091L109.157 469.059H64L88.6821 425.364L64 380H109.157ZM235.587 415.624C238.443 415.624 240.759 413.437 240.759 410.74C240.759 408.042 238.443 405.856 235.587 405.856C232.732 405.856 230.416 408.042 230.416 410.74C230.416 413.437 232.732 415.624 235.587 415.624Z" fill="#FF3636"/>
</g>
<path d="M357.388 61.568H367.564C373.356 61.568 376.684 64.448 376.684 69.536C376.684 74.88 373.356 77.952 367.564 77.952H364.044V84H357.388V61.568ZM364.044 66.688V72.832H367.244C369.228 72.832 370.38 71.744 370.38 69.728C370.38 67.776 369.228 66.688 367.244 66.688H364.044ZM385.92 84H379.456V60.256H385.92V84ZM407.487 66.592V84H401.023V81.408C399.839 83.264 398.015 84.288 395.679 84.288C392.031 84.288 389.535 81.696 389.535 77.632V66.592H395.999V75.808C395.999 77.504 396.927 78.592 398.335 78.592C399.999 78.56 401.023 77.184 401.023 75.2V66.592H407.487ZM418.142 66.304C420.766 66.304 423.422 67.04 425.79 68.416L423.646 72.48C421.278 71.264 419.326 70.656 417.95 70.656C417.15 70.656 416.638 70.944 416.638 71.488C416.638 73.44 425.726 72.576 425.726 78.528C425.726 82.112 422.622 84.288 418.078 84.288C415.006 84.288 412.158 83.456 409.886 81.824L411.87 77.76C414.046 79.168 416.254 79.904 418.174 79.904C419.038 79.904 419.614 79.648 419.614 79.104C419.614 77.12 410.718 78.08 410.718 72.128C410.718 68.48 413.758 66.304 418.142 66.304ZM453.467 60.256V84H447.003V82.016C445.851 83.424 444.219 84.224 442.235 84.224C437.371 84.224 434.171 80.672 434.171 75.2C434.171 69.856 437.307 66.368 442.075 66.368C444.123 66.368 445.819 67.168 447.003 68.608V60.256H453.467ZM443.867 79.264C445.755 79.264 447.003 77.696 447.003 75.36C447.003 73.056 445.755 71.488 443.867 71.488C441.947 71.488 440.699 73.056 440.699 75.36C440.699 77.696 441.947 79.264 443.867 79.264ZM465.386 66.368C471.498 66.368 474.826 70.464 474.442 76.864H462.73C463.242 78.528 464.458 79.456 466.122 79.456C467.498 79.456 468.81 78.848 469.962 77.792L473.322 81.088C471.498 83.104 468.874 84.224 465.578 84.224C459.754 84.224 456.202 80.704 456.202 75.36C456.202 69.92 459.882 66.368 465.386 66.368ZM462.602 73.696H468.074C468.106 71.968 467.018 70.752 465.45 70.752C463.946 70.752 462.922 71.936 462.602 73.696ZM489.71 74.528H493.518V70.016H499.694V74.528H502.638V79.424H499.694V84H493.518V79.424H482.926V75.008L489.71 61.568H496.078L489.71 74.528ZM535.346 66.336C539.026 66.336 541.522 68.928 541.522 72.96V84H535.058V74.816C535.058 73.088 534.098 72 532.658 72C530.994 72.032 529.938 73.408 529.938 75.392V84H523.474V74.816C523.474 73.088 522.514 72 521.074 72C519.378 72.032 518.322 73.408 518.322 75.392V84H511.858V66.592H518.322V69.248C519.506 67.36 521.362 66.336 523.73 66.336C526.45 66.336 528.53 67.744 529.458 70.112C530.578 67.68 532.626 66.336 535.346 66.336ZM548.216 58.304C550.168 58.304 551.544 59.68 551.544 61.632C551.544 63.584 550.168 64.96 548.216 64.96C546.264 64.96 544.888 63.584 544.888 61.632C544.888 59.68 546.264 58.304 548.216 58.304ZM551.416 84H544.952V66.592H551.416V84ZM561.951 84H555.487V60.256H561.951V84ZM572.67 84H566.206V60.256H572.67V84ZM580.029 58.304C581.981 58.304 583.357 59.68 583.357 61.632C583.357 63.584 581.981 64.96 580.029 64.96C578.077 64.96 576.701 63.584 576.701 61.632C576.701 59.68 578.077 58.304 580.029 58.304ZM583.229 84H576.765V66.592H583.229V84ZM595.492 66.368C601.347 66.368 605.156 69.888 605.156 75.296C605.156 80.672 601.347 84.224 595.492 84.224C589.636 84.224 585.796 80.672 585.796 75.296C585.796 69.888 589.636 66.368 595.492 66.368ZM595.492 71.488C593.572 71.488 592.324 73.056 592.324 75.36C592.324 77.696 593.572 79.232 595.492 79.232C597.38 79.232 598.628 77.696 598.628 75.36C598.628 73.056 597.38 71.488 595.492 71.488ZM619.702 66.336C623.414 66.336 625.974 68.928 625.974 72.96V84H619.51V74.816C619.51 73.088 618.518 72 617.014 72C615.254 72.032 614.166 73.408 614.166 75.392V84H607.702V66.592H614.166V69.28C615.382 67.36 617.27 66.336 619.702 66.336ZM636.142 66.304C638.766 66.304 641.422 67.04 643.79 68.416L641.646 72.48C639.278 71.264 637.326 70.656 635.95 70.656C635.15 70.656 634.638 70.944 634.638 71.488C634.638 73.44 643.726 72.576 643.726 78.528C643.726 82.112 640.622 84.288 636.078 84.288C633.006 84.288 630.158 83.456 627.886 81.824L629.87 77.76C632.046 79.168 634.254 79.904 636.174 79.904C637.038 79.904 637.614 79.648 637.614 79.104C637.614 77.12 628.718 78.08 628.718 72.128C628.718 68.48 631.758 66.304 636.142 66.304ZM671.467 60.256V84H665.003V82.016C663.851 83.424 662.219 84.224 660.235 84.224C655.371 84.224 652.171 80.672 652.171 75.2C652.171 69.856 655.307 66.368 660.075 66.368C662.123 66.368 663.819 67.168 665.003 68.608V60.256H671.467ZM661.867 79.264C663.755 79.264 665.003 77.696 665.003 75.36C665.003 73.056 663.755 71.488 661.867 71.488C659.947 71.488 658.699 73.056 658.699 75.36C658.699 77.696 659.947 79.264 661.867 79.264ZM683.386 66.368C689.498 66.368 692.826 70.464 692.442 76.864H680.73C681.242 78.528 682.458 79.456 684.122 79.456C685.498 79.456 686.81 78.848 687.962 77.792L691.322 81.088C689.498 83.104 686.874 84.224 683.578 84.224C677.754 84.224 674.202 80.704 674.202 75.36C674.202 69.92 677.882 66.368 683.386 66.368ZM680.602 73.696H686.074C686.106 71.968 685.018 70.752 683.45 70.752C681.946 70.752 680.922 71.936 680.602 73.696ZM713.438 66.368C718.302 66.368 721.502 69.952 721.502 75.392C721.502 80.736 718.398 84.224 713.598 84.224C711.55 84.224 709.854 83.424 708.67 81.984V90.208H702.206V66.592H708.67V68.608C709.822 67.168 711.486 66.368 713.438 66.368ZM711.806 79.104C713.726 79.104 714.974 77.536 714.974 75.232C714.974 72.928 713.726 71.36 711.806 71.36C709.95 71.36 708.67 72.928 708.67 75.232C708.67 77.536 709.95 79.104 711.806 79.104ZM732.429 66.368C738.285 66.368 742.093 69.888 742.093 75.296C742.093 80.672 738.285 84.224 732.429 84.224C726.573 84.224 722.733 80.672 722.733 75.296C722.733 69.888 726.573 66.368 732.429 66.368ZM732.429 71.488C730.509 71.488 729.261 73.056 729.261 75.36C729.261 77.696 730.509 79.232 732.429 79.232C734.317 79.232 735.565 77.696 735.565 75.36C735.565 73.056 734.317 71.488 732.429 71.488ZM747.904 58.304C749.856 58.304 751.232 59.68 751.232 61.632C751.232 63.584 749.856 64.96 747.904 64.96C745.952 64.96 744.576 63.584 744.576 61.632C744.576 59.68 745.952 58.304 747.904 58.304ZM751.104 84H744.64V66.592H751.104V84ZM761.767 66.304C764.391 66.304 767.047 67.04 769.415 68.416L767.271 72.48C764.903 71.264 762.951 70.656 761.575 70.656C760.775 70.656 760.263 70.944 760.263 71.488C760.263 73.44 769.351 72.576 769.351 78.528C769.351 82.112 766.247 84.288 761.703 84.288C758.631 84.288 755.783 83.456 753.511 81.824L755.495 77.76C757.671 79.168 759.879 79.904 761.799 79.904C762.663 79.904 763.239 79.648 763.239 79.104C763.239 77.12 754.343 78.08 754.343 72.128C754.343 68.48 757.383 66.304 761.767 66.304ZM778.892 66.304C781.516 66.304 784.172 67.04 786.54 68.416L784.396 72.48C782.028 71.264 780.076 70.656 778.7 70.656C777.9 70.656 777.388 70.944 777.388 71.488C777.388 73.44 786.476 72.576 786.476 78.528C786.476 82.112 783.372 84.288 778.828 84.288C775.756 84.288 772.908 83.456 770.636 81.824L772.62 77.76C774.796 79.168 777.004 79.904 778.924 79.904C779.788 79.904 780.364 79.648 780.364 79.104C780.364 77.12 771.468 78.08 771.468 72.128C771.468 68.48 774.508 66.304 778.892 66.304ZM797.617 66.368C803.472 66.368 807.281 69.888 807.281 75.296C807.281 80.672 803.472 84.224 797.617 84.224C791.761 84.224 787.921 80.672 787.921 75.296C787.921 69.888 791.761 66.368 797.617 66.368ZM797.617 71.488C795.697 71.488 794.449 73.056 794.449 75.36C794.449 77.696 795.697 79.232 797.617 79.232C799.505 79.232 800.753 77.696 800.753 75.36C800.753 73.056 799.505 71.488 797.617 71.488ZM821.827 66.336C825.539 66.336 828.099 68.928 828.099 72.96V84H821.635V74.816C821.635 73.088 820.643 72 819.139 72C817.379 72.032 816.291 73.408 816.291 75.392V84H809.827V66.592H816.291V69.28C817.507 67.36 819.395 66.336 821.827 66.336ZM838.267 66.304C840.891 66.304 843.547 67.04 845.915 68.416L843.771 72.48C841.403 71.264 839.451 70.656 838.075 70.656C837.275 70.656 836.763 70.944 836.763 71.488C836.763 73.44 845.851 72.576 845.851 78.528C845.851 82.112 842.747 84.288 838.203 84.288C835.131 84.288 832.283 83.456 830.011 81.824L831.995 77.76C834.171 79.168 836.379 79.904 838.299 79.904C839.163 79.904 839.739 79.648 839.739 79.104C839.739 77.12 830.843 78.08 830.843 72.128C830.843 68.48 833.883 66.304 838.267 66.304ZM862.392 66.304C865.016 66.304 867.672 67.04 870.04 68.416L867.896 72.48C865.528 71.264 863.576 70.656 862.2 70.656C861.4 70.656 860.888 70.944 860.888 71.488C860.888 73.44 869.976 72.576 869.976 78.528C869.976 82.112 866.872 84.288 862.328 84.288C859.256 84.288 856.408 83.456 854.136 81.824L856.12 77.76C858.296 79.168 860.504 79.904 862.424 79.904C863.288 79.904 863.864 79.648 863.864 79.104C863.864 77.12 854.968 78.08 854.968 72.128C854.968 68.48 858.008 66.304 862.392 66.304ZM880.605 66.368C886.717 66.368 890.045 70.464 889.661 76.864H877.949C878.461 78.528 879.677 79.456 881.341 79.456C882.717 79.456 884.029 78.848 885.181 77.792L888.541 81.088C886.717 83.104 884.093 84.224 880.797 84.224C874.973 84.224 871.421 80.704 871.421 75.36C871.421 69.92 875.101 66.368 880.605 66.368ZM877.821 73.696H883.293C883.325 71.968 882.237 70.752 880.669 70.752C879.165 70.752 878.141 71.936 877.821 73.696ZM906.017 66.304C908.641 66.304 911.297 67.04 913.665 68.416L911.521 72.48C909.153 71.264 907.201 70.656 905.825 70.656C905.025 70.656 904.513 70.944 904.513 71.488C904.513 73.44 913.601 72.576 913.601 78.528C913.601 82.112 910.497 84.288 905.953 84.288C902.881 84.288 900.033 83.456 897.761 81.824L899.745 77.76C901.921 79.168 904.129 79.904 906.049 79.904C906.913 79.904 907.489 79.648 907.489 79.104C907.489 77.12 898.593 78.08 898.593 72.128C898.593 68.48 901.633 66.304 906.017 66.304ZM924.742 66.368C930.597 66.368 934.406 69.888 934.406 75.296C934.406 80.672 930.597 84.224 924.742 84.224C918.886 84.224 915.046 80.672 915.046 75.296C915.046 69.888 918.886 66.368 924.742 66.368ZM924.742 71.488C922.822 71.488 921.574 73.056 921.574 75.36C921.574 77.696 922.822 79.232 924.742 79.232C926.63 79.232 927.878 77.696 927.878 75.36C927.878 73.056 926.63 71.488 924.742 71.488ZM948.952 66.336C952.664 66.336 955.224 68.928 955.224 72.96V84H948.76V74.816C948.76 73.088 947.768 72 946.264 72C944.504 72.032 943.416 73.408 943.416 75.392V84H936.952V66.592H943.416V69.28C944.632 67.36 946.52 66.336 948.952 66.336ZM969.392 78.72L970.544 83.168C969.328 83.872 967.472 84.288 965.712 84.288C962 84.32 959.504 82.176 959.504 78.56V71.616H957.104V67.488H959.504V62.656H965.936V67.488H970.224V71.616H965.936V77.568C965.936 78.688 966.512 79.232 967.408 79.232C967.92 79.232 968.624 79.008 969.392 78.72ZM989.359 64.96H984.623L988.047 59.2L993.647 61.056L989.359 64.96ZM987.855 66.368C993.967 66.368 997.295 70.464 996.911 76.864H985.199C985.711 78.528 986.927 79.456 988.591 79.456C989.967 79.456 991.279 78.848 992.431 77.792L995.791 81.088C993.967 83.104 991.343 84.224 988.047 84.224C982.223 84.224 978.671 80.704 978.671 75.36C978.671 69.92 982.351 66.368 987.855 66.368ZM985.071 73.696H990.543C990.575 71.968 989.487 70.752 987.919 70.752C986.415 70.752 985.391 71.936 985.071 73.696ZM1007.29 66.368C1010.94 66.368 1013.85 68.032 1015.32 70.912L1010.36 73.344C1009.75 72.256 1008.79 71.616 1007.58 71.616C1005.85 71.616 1004.7 73.12 1004.7 75.328C1004.7 77.6 1005.85 79.104 1007.58 79.104C1008.83 79.104 1009.79 78.496 1010.33 77.184L1015.35 79.712C1014.01 82.592 1011.07 84.224 1007.23 84.224C1001.75 84.224 998.171 80.704 998.171 75.36C998.171 69.952 1001.79 66.368 1007.29 66.368ZM1029.64 66.336C1033.39 66.336 1035.92 68.928 1035.92 72.96V84H1029.45V74.816C1029.45 73.088 1028.49 72 1026.96 72C1025.2 72.032 1024.11 73.408 1024.11 75.392V84H1017.64V60.256H1024.11V69.28C1025.32 67.36 1027.21 66.336 1029.64 66.336ZM1047.52 66.336C1052.42 66.336 1055.33 68.672 1055.33 72.704V84H1048.99V82.08C1047.94 83.488 1046.21 84.288 1043.9 84.288C1040.19 84.288 1038.02 82.08 1038.02 78.816C1038.02 75.456 1040.35 73.6 1044.74 73.536H1048.99V73.472C1048.99 72.032 1047.97 71.168 1045.98 71.168C1044.61 71.168 1042.66 71.584 1040.74 72.416L1039.14 68.128C1041.98 66.976 1044.8 66.336 1047.52 66.336ZM1046.05 80.064C1047.36 80.064 1048.51 79.36 1048.99 78.272V76.704H1046.05C1044.77 76.704 1044.1 77.248 1044.1 78.336C1044.1 79.424 1044.8 80.064 1046.05 80.064ZM1070.16 66.368C1075.02 66.368 1078.22 69.952 1078.22 75.392C1078.22 80.736 1075.12 84.224 1070.32 84.224C1068.27 84.224 1066.57 83.424 1065.39 81.984V90.208H1058.92V66.592H1065.39V68.608C1066.54 67.168 1068.2 66.368 1070.16 66.368ZM1068.52 79.104C1070.44 79.104 1071.69 77.536 1071.69 75.232C1071.69 72.928 1070.44 71.36 1068.52 71.36C1066.67 71.36 1065.39 72.928 1065.39 75.232C1065.39 77.536 1066.67 79.104 1068.52 79.104ZM1092.19 66.368C1097.05 66.368 1100.25 69.952 1100.25 75.392C1100.25 80.736 1097.15 84.224 1092.35 84.224C1090.3 84.224 1088.6 83.424 1087.42 81.984V90.208H1080.96V66.592H1087.42V68.608C1088.57 67.168 1090.24 66.368 1092.19 66.368ZM1090.56 79.104C1092.48 79.104 1093.72 77.536 1093.72 75.232C1093.72 72.928 1092.48 71.36 1090.56 71.36C1088.7 71.36 1087.42 72.928 1087.42 75.232C1087.42 77.536 1088.7 79.104 1090.56 79.104ZM1112.17 64.96H1107.44L1110.86 59.2L1116.46 61.056L1112.17 64.96ZM1110.67 66.368C1116.78 66.368 1120.11 70.464 1119.72 76.864H1108.01C1108.52 78.528 1109.74 79.456 1111.4 79.456C1112.78 79.456 1114.09 78.848 1115.24 77.792L1118.6 81.088C1116.78 83.104 1114.16 84.224 1110.86 84.224C1105.04 84.224 1101.48 80.704 1101.48 75.36C1101.48 69.92 1105.16 66.368 1110.67 66.368ZM1107.88 73.696H1113.36C1113.39 71.968 1112.3 70.752 1110.73 70.752C1109.23 70.752 1108.2 71.936 1107.88 73.696ZM1129.08 66.304C1131.7 66.304 1134.36 67.04 1136.73 68.416L1134.58 72.48C1132.22 71.264 1130.26 70.656 1128.89 70.656C1128.09 70.656 1127.58 70.944 1127.58 71.488C1127.58 73.44 1136.66 72.576 1136.66 78.528C1136.66 82.112 1133.56 84.288 1129.02 84.288C1125.94 84.288 1123.1 83.456 1120.82 81.824L1122.81 77.76C1124.98 79.168 1127.19 79.904 1129.11 79.904C1129.98 79.904 1130.55 79.648 1130.55 79.104C1130.55 77.12 1121.66 78.08 1121.66 72.128C1121.66 68.48 1124.7 66.304 1129.08 66.304ZM517.06 105.256V129H510.596V127.016C509.444 128.424 507.812 129.224 505.828 129.224C500.964 129.224 497.764 125.672 497.764 120.2C497.764 114.856 500.9 111.368 505.668 111.368C507.716 111.368 509.412 112.168 510.596 113.608V105.256H517.06ZM507.46 124.264C509.348 124.264 510.596 122.696 510.596 120.36C510.596 118.056 509.348 116.488 507.46 116.488C505.54 116.488 504.292 118.056 504.292 120.36C504.292 122.696 505.54 124.264 507.46 124.264ZM528.98 111.368C535.092 111.368 538.42 115.464 538.036 121.864H526.324C526.836 123.528 528.052 124.456 529.716 124.456C531.092 124.456 532.404 123.848 533.556 122.792L536.916 126.088C535.092 128.104 532.468 129.224 529.172 129.224C523.348 129.224 519.796 125.704 519.796 120.36C519.796 114.92 523.476 111.368 528.98 111.368ZM526.196 118.696H531.668C531.7 116.968 530.612 115.752 529.044 115.752C527.54 115.752 526.516 116.936 526.196 118.696ZM547.392 111.304C550.016 111.304 552.672 112.04 555.04 113.416L552.896 117.48C550.528 116.264 548.576 115.656 547.2 115.656C546.4 115.656 545.888 115.944 545.888 116.488C545.888 118.44 554.976 117.576 554.976 123.528C554.976 127.112 551.872 129.288 547.328 129.288C544.256 129.288 541.408 128.456 539.136 126.824L541.12 122.76C543.296 124.168 545.504 124.904 547.424 124.904C548.288 124.904 548.864 124.648 548.864 124.104C548.864 122.12 539.968 123.08 539.968 117.128C539.968 113.48 543.008 111.304 547.392 111.304ZM572.541 111.368C576.189 111.368 579.101 113.032 580.573 115.912L575.613 118.344C575.005 117.256 574.045 116.616 572.829 116.616C571.101 116.616 569.949 118.12 569.949 120.328C569.949 122.6 571.101 124.104 572.829 124.104C574.077 124.104 575.037 123.496 575.581 122.184L580.605 124.712C579.26 127.592 576.317 129.224 572.477 129.224C567.005 129.224 563.421 125.704 563.421 120.36C563.421 114.952 567.036 111.368 572.541 111.368ZM590.769 111.336C595.665 111.336 598.577 113.672 598.577 117.704V129H592.241V127.08C591.185 128.488 589.457 129.288 587.153 129.288C583.441 129.288 581.265 127.08 581.265 123.816C581.265 120.456 583.601 118.6 587.985 118.536H592.241V118.472C592.241 117.032 591.217 116.168 589.233 116.168C587.857 116.168 585.905 116.584 583.985 117.416L582.385 113.128C585.233 111.976 588.049 111.336 590.769 111.336ZM589.297 125.064C590.609 125.064 591.761 124.36 592.241 123.272V121.704H589.297C588.017 121.704 587.345 122.248 587.345 123.336C587.345 124.424 588.049 125.064 589.297 125.064ZM619.039 111.592V127.496C619.039 132.392 615.167 135.496 609.47 135.496C606.239 135.496 603.327 134.472 601.439 133.224L603.583 128.872C605.119 129.896 607.135 130.472 608.927 130.472C611.263 130.472 612.639 129.384 612.639 127.688V125.928C611.519 127.272 609.951 128.008 607.967 128.008C603.743 128.008 600.671 124.68 600.671 119.592C600.671 114.632 603.647 111.368 607.839 111.368C609.887 111.368 611.519 112.136 612.639 113.48V111.592H619.039ZM609.663 123.368C611.455 123.368 612.639 121.928 612.639 119.784C612.639 117.576 611.455 116.136 609.663 116.136C607.903 116.136 606.719 117.608 606.719 119.784C606.719 121.928 607.903 123.368 609.663 123.368ZM630.698 111.368C636.81 111.368 640.138 115.464 639.754 121.864H628.042C628.554 123.528 629.77 124.456 631.434 124.456C632.81 124.456 634.122 123.848 635.274 122.792L638.634 126.088C636.81 128.104 634.186 129.224 630.89 129.224C625.066 129.224 621.514 125.704 621.514 120.36C621.514 114.92 625.194 111.368 630.698 111.368ZM627.914 118.696H633.386C633.418 116.968 632.33 115.752 630.762 115.752C629.258 115.752 628.234 116.936 627.914 118.696ZM649.11 111.304C651.734 111.304 654.39 112.04 656.758 113.416L654.614 117.48C652.246 116.264 650.294 115.656 648.918 115.656C648.118 115.656 647.606 115.944 647.606 116.488C647.606 118.44 656.694 117.576 656.694 123.528C656.694 127.112 653.59 129.288 649.046 129.288C645.974 129.288 643.126 128.456 640.854 126.824L642.838 122.76C645.014 124.168 647.222 124.904 649.142 124.904C650.006 124.904 650.582 124.648 650.582 124.104C650.582 122.12 641.686 123.08 641.686 117.128C641.686 113.48 644.726 111.304 649.11 111.304ZM689.971 111.336C693.651 111.336 696.147 113.928 696.147 117.96V129H689.683V119.816C689.683 118.088 688.723 117 687.283 117C685.619 117.032 684.563 118.408 684.563 120.392V129H678.099V119.816C678.099 118.088 677.139 117 675.699 117C674.003 117.032 672.947 118.408 672.947 120.392V129H666.483V111.592H672.947V114.248C674.131 112.36 675.987 111.336 678.355 111.336C681.075 111.336 683.155 112.744 684.083 115.112C685.203 112.68 687.251 111.336 689.971 111.336ZM707.769 111.336C712.665 111.336 715.577 113.672 715.577 117.704V129H709.241V127.08C708.185 128.488 706.457 129.288 704.153 129.288C700.441 129.288 698.265 127.08 698.265 123.816C698.265 120.456 700.601 118.6 704.985 118.536H709.241V118.472C709.241 117.032 708.217 116.168 706.233 116.168C704.857 116.168 702.905 116.584 700.985 117.416L699.385 113.128C702.233 111.976 705.049 111.336 707.769 111.336ZM706.297 125.064C707.609 125.064 708.761 124.36 709.241 123.272V121.704H706.297C705.017 121.704 704.345 122.248 704.345 123.336C704.345 124.424 705.049 125.064 706.297 125.064ZM725.479 111.592V114.344C726.695 112.424 728.583 111.336 730.951 111.336V117.16C727.623 116.744 725.479 118.152 725.479 120.68V129H719.015V111.592H725.479ZM736.497 103.304C738.449 103.304 739.825 104.68 739.825 106.632C739.825 108.584 738.449 109.96 736.497 109.96C734.545 109.96 733.169 108.584 733.169 106.632C733.169 104.68 734.545 103.304 736.497 103.304ZM739.697 129H733.233V111.592H739.697V129ZM755.608 111.336C759.32 111.336 761.88 113.928 761.88 117.96V129H755.416V119.816C755.416 118.088 754.424 117 752.92 117C751.16 117.032 750.072 118.408 750.072 120.392V129H743.608V111.592H750.072V114.28C751.288 112.36 753.176 111.336 755.608 111.336ZM773.136 111.368C779.248 111.368 782.576 115.464 782.192 121.864H770.48C770.992 123.528 772.208 124.456 773.872 124.456C775.248 124.456 776.56 123.848 777.712 122.792L781.072 126.088C779.248 128.104 776.624 129.224 773.328 129.224C767.504 129.224 763.952 125.704 763.952 120.36C763.952 114.92 767.632 111.368 773.136 111.368ZM770.352 118.696H775.824C775.856 116.968 774.768 115.752 773.2 115.752C771.696 115.752 770.672 116.936 770.352 118.696ZM791.548 111.304C794.172 111.304 796.828 112.04 799.196 113.416L797.052 117.48C794.684 116.264 792.732 115.656 791.356 115.656C790.556 115.656 790.044 115.944 790.044 116.488C790.044 118.44 799.132 117.576 799.132 123.528C799.132 127.112 796.028 129.288 791.484 129.288C788.412 129.288 785.564 128.456 783.292 126.824L785.276 122.76C787.452 124.168 789.66 124.904 791.58 124.904C792.444 124.904 793.02 124.648 793.02 124.104C793.02 122.12 784.124 123.08 784.124 117.128C784.124 113.48 787.164 111.304 791.548 111.304ZM826.873 105.256V129H820.409V127.016C819.257 128.424 817.625 129.224 815.641 129.224C810.777 129.224 807.577 125.672 807.577 120.2C807.577 114.856 810.713 111.368 815.481 111.368C817.529 111.368 819.225 112.168 820.409 113.608V105.256H826.873ZM817.273 124.264C819.161 124.264 820.409 122.696 820.409 120.36C820.409 118.056 819.161 116.488 817.273 116.488C815.353 116.488 814.105 118.056 814.105 120.36C814.105 122.696 815.353 124.264 817.273 124.264ZM838.792 111.368C844.904 111.368 848.232 115.464 847.848 121.864H836.136C836.648 123.528 837.864 124.456 839.528 124.456C840.904 124.456 842.216 123.848 843.368 122.792L846.728 126.088C844.904 128.104 842.28 129.224 838.984 129.224C833.16 129.224 829.608 125.704 829.608 120.36C829.608 114.92 833.288 111.368 838.792 111.368ZM836.008 118.696H841.48C841.512 116.968 840.424 115.752 838.856 115.752C837.352 115.752 836.328 116.936 836.008 118.696ZM861.844 111.368C866.708 111.368 869.908 114.952 869.908 120.392C869.908 125.736 866.804 129.224 862.004 129.224C859.956 129.224 858.26 128.424 857.076 126.984V135.208H850.612V111.592H857.076V113.608C858.228 112.168 859.892 111.368 861.844 111.368ZM860.212 124.104C862.132 124.104 863.38 122.536 863.38 120.232C863.38 117.928 862.132 116.36 860.212 116.36C858.356 116.36 857.076 117.928 857.076 120.232C857.076 122.536 858.356 124.104 860.212 124.104ZM889.955 111.592V129H883.491V126.408C882.307 128.264 880.483 129.288 878.147 129.288C874.499 129.288 872.003 126.696 872.003 122.632V111.592H878.467V120.808C878.467 122.504 879.395 123.592 880.803 123.592C882.467 123.56 883.491 122.184 883.491 120.2V111.592H889.955ZM897.122 103.304C899.074 103.304 900.45 104.68 900.45 106.632C900.45 108.584 899.074 109.96 897.122 109.96C895.17 109.96 893.794 108.584 893.794 106.632C893.794 104.68 895.17 103.304 897.122 103.304ZM900.322 129H893.858V111.592H900.322V129ZM910.985 111.304C913.609 111.304 916.265 112.04 918.633 113.416L916.489 117.48C914.121 116.264 912.169 115.656 910.793 115.656C909.993 115.656 909.481 115.944 909.481 116.488C909.481 118.44 918.569 117.576 918.569 123.528C918.569 127.112 915.465 129.288 910.921 129.288C907.849 129.288 905.001 128.456 902.729 126.824L904.713 122.76C906.889 124.168 909.097 124.904 911.017 124.904C911.881 124.904 912.457 124.648 912.457 124.104C912.457 122.12 903.561 123.08 903.561 117.128C903.561 113.48 906.601 111.304 910.985 111.304ZM936.518 106.28C941.03 106.28 944.39 108.68 944.39 112.264C944.39 114.792 942.566 117.288 940.102 119.816L936.198 123.816H944.87V129H927.686V124.776L935.558 116.52C936.614 115.4 937.446 114.12 937.446 113.224C937.446 112.232 936.742 111.688 935.494 111.688C933.734 111.688 931.526 112.776 929.414 114.536L926.918 109.736C929.958 107.592 933.126 106.28 936.518 106.28ZM957.141 106.376C963.605 106.376 967.253 110.44 967.253 117.768C967.253 125.128 963.605 129.192 957.141 129.192C950.581 129.192 946.997 125.128 946.997 117.768C946.997 110.44 950.581 106.376 957.141 106.376ZM957.141 111.208C954.741 111.208 953.813 112.968 953.813 117.768C953.813 122.568 954.741 124.36 957.141 124.36C959.477 124.36 960.405 122.568 960.405 117.768C960.405 112.968 959.477 111.208 957.141 111.208ZM979.254 129H972.566V111.88H968.566V106.568H979.254V129ZM992.399 106.28C997.455 106.28 1000.72 108.712 1000.72 112.456C1000.72 114.248 999.695 116.008 998.127 117C1000.43 118.056 1001.9 120.232 1001.9 122.664C1001.9 126.696 998.191 129.288 992.431 129.288C986.671 129.288 982.959 126.728 982.959 122.76C982.959 120.296 984.559 118.056 987.055 117C985.295 115.88 984.143 114.056 984.143 112.264C984.143 108.616 987.407 106.28 992.399 106.28ZM992.431 110.664C990.671 110.664 989.743 111.4 989.743 112.808C989.743 114.152 990.671 114.888 992.431 114.888C994.191 114.888 995.119 114.152 995.119 112.808C995.119 111.4 994.191 110.664 992.431 110.664ZM992.431 119.624C990.351 119.624 989.231 120.488 989.231 122.088C989.231 123.656 990.351 124.488 992.431 124.488C994.511 124.488 995.631 123.656 995.631 122.088C995.631 120.488 994.511 119.624 992.431 119.624Z" fill="black"/>
</g>
<defs>
<linearGradient id="paint0_linear_3277_44" x1="995" y1="0" x2="995" y2="729" gradientUnits="userSpaceOnUse">
<stop offset="0.13" stop-color="white"/>
<stop offset="0.455" stop-color="white" stop-opacity="0.873563"/>
<stop offset="0.515" stop-color="white" stop-opacity="0"/>
</linearGradient>
<clipPath id="clip0_3277_44">
<rect width="1500" height="760" fill="white"/>
</clipPath>
</defs>
</svg>
