<svg width="1500" height="760" viewBox="0 0 1500 760" fill="none" xmlns="http://www.w3.org/2000/svg">
<rect width="1500" height="760" fill="white"/>
<path d="M281.716 68.432H291.124V74H275.06V51.568H281.716V68.432ZM301.339 56.368C307.451 56.368 310.779 60.464 310.395 66.864H298.683C299.195 68.528 300.411 69.456 302.075 69.456C303.451 69.456 304.763 68.848 305.915 67.792L309.275 71.088C307.451 73.104 304.827 74.224 301.531 74.224C295.707 74.224 292.155 70.704 292.155 65.36C292.155 59.92 295.835 56.368 301.339 56.368ZM298.555 63.696H304.027C304.059 61.968 302.971 60.752 301.403 60.752C299.899 60.752 298.875 61.936 298.555 63.696ZM319.751 56.304C322.375 56.304 325.031 57.04 327.399 58.416L325.255 62.48C322.887 61.264 320.935 60.656 319.559 60.656C318.759 60.656 318.247 60.944 318.247 61.488C318.247 63.44 327.335 62.576 327.335 68.528C327.335 72.112 324.231 74.288 319.687 74.288C316.615 74.288 313.767 73.456 311.495 71.824L313.479 67.76C315.655 69.168 317.863 69.904 319.783 69.904C320.647 69.904 321.223 69.648 321.223 69.104C321.223 67.12 312.327 68.08 312.327 62.128C312.327 58.48 315.367 56.304 319.751 56.304ZM348.516 56.368C353.38 56.368 356.58 59.952 356.58 65.392C356.58 70.736 353.476 74.224 348.676 74.224C346.628 74.224 344.932 73.424 343.748 71.984V80.208H337.284V56.592H343.748V58.608C344.9 57.168 346.564 56.368 348.516 56.368ZM346.884 69.104C348.804 69.104 350.052 67.536 350.052 65.232C350.052 62.928 348.804 61.36 346.884 61.36C345.028 61.36 343.748 62.928 343.748 65.232C343.748 67.536 345.028 69.104 346.884 69.104ZM365.619 56.592V59.344C366.835 57.424 368.723 56.336 371.091 56.336V62.16C367.763 61.744 365.619 63.152 365.619 65.68V74H359.155V56.592H365.619ZM376.638 48.304C378.59 48.304 379.966 49.68 379.966 51.632C379.966 53.584 378.59 54.96 376.638 54.96C374.686 54.96 373.31 53.584 373.31 51.632C373.31 49.68 374.686 48.304 376.638 48.304ZM379.838 74H373.374V56.592H379.838V74ZM395.749 56.336C399.461 56.336 402.021 58.928 402.021 62.96V74H395.557V64.816C395.557 63.088 394.565 62 393.061 62C391.301 62.032 390.213 63.408 390.213 65.392V74H383.749V56.592H390.213V59.28C391.429 57.36 393.317 56.336 395.749 56.336ZM413.212 56.368C416.86 56.368 419.772 58.032 421.244 60.912L416.284 63.344C415.676 62.256 414.716 61.616 413.5 61.616C411.772 61.616 410.62 63.12 410.62 65.328C410.62 67.6 411.772 69.104 413.5 69.104C414.748 69.104 415.708 68.496 416.252 67.184L421.276 69.712C419.932 72.592 416.988 74.224 413.148 74.224C407.676 74.224 404.092 70.704 404.092 65.36C404.092 59.952 407.708 56.368 413.212 56.368ZM426.669 48.304C428.621 48.304 429.997 49.68 429.997 51.632C429.997 53.584 428.621 54.96 426.669 54.96C424.717 54.96 423.341 53.584 423.341 51.632C423.341 49.68 424.717 48.304 426.669 48.304ZM429.869 74H423.405V56.592H429.869V74ZM445.172 56.368C450.036 56.368 453.236 59.952 453.236 65.392C453.236 70.736 450.132 74.224 445.332 74.224C443.284 74.224 441.588 73.424 440.404 71.984V80.208H433.94V56.592H440.404V58.608C441.556 57.168 443.22 56.368 445.172 56.368ZM443.54 69.104C445.46 69.104 446.708 67.536 446.708 65.232C446.708 62.928 445.46 61.36 443.54 61.36C441.684 61.36 440.404 62.928 440.404 65.232C440.404 67.536 441.684 69.104 443.54 69.104ZM464.003 56.336C468.899 56.336 471.811 58.672 471.811 62.704V74H465.475V72.08C464.419 73.488 462.691 74.288 460.387 74.288C456.675 74.288 454.499 72.08 454.499 68.816C454.499 65.456 456.835 63.6 461.219 63.536H465.475V63.472C465.475 62.032 464.451 61.168 462.467 61.168C461.091 61.168 459.139 61.584 457.219 62.416L455.619 58.128C458.467 56.976 461.283 56.336 464.003 56.336ZM462.531 70.064C463.843 70.064 464.995 69.36 465.475 68.272V66.704H462.531C461.251 66.704 460.579 67.248 460.579 68.336C460.579 69.424 461.283 70.064 462.531 70.064ZM492.721 56.592V74H486.257V71.408C485.073 73.264 483.249 74.288 480.913 74.288C477.265 74.288 474.769 71.696 474.769 67.632V56.592H481.233V65.808C481.233 67.504 482.161 68.592 483.569 68.592C485.233 68.56 486.257 67.184 486.257 65.2V56.592H492.721ZM504.816 61.104L507.504 56.592H514.544L509.104 65.072L514.928 74H507.504L504.816 69.072L501.744 74H494.64L500.464 65.104L494.992 56.592H502.416L504.816 61.104ZM535.266 56.368C540.13 56.368 543.33 59.952 543.33 65.392C543.33 70.736 540.226 74.224 535.426 74.224C533.378 74.224 531.682 73.424 530.498 71.984V80.208H524.034V56.592H530.498V58.608C531.65 57.168 533.314 56.368 535.266 56.368ZM533.634 69.104C535.554 69.104 536.802 67.536 536.802 65.232C536.802 62.928 535.554 61.36 533.634 61.36C531.778 61.36 530.498 62.928 530.498 65.232C530.498 67.536 531.778 69.104 533.634 69.104ZM552.369 56.592V59.344C553.585 57.424 555.473 56.336 557.841 56.336V62.16C554.513 61.744 552.369 63.152 552.369 65.68V74H545.905V56.592H552.369ZM568.476 56.368C574.332 56.368 578.14 59.888 578.14 65.296C578.14 70.672 574.332 74.224 568.476 74.224C562.62 74.224 558.78 70.672 558.78 65.296C558.78 59.888 562.62 56.368 568.476 56.368ZM568.476 61.488C566.556 61.488 565.308 63.056 565.308 65.36C565.308 67.696 566.556 69.232 568.476 69.232C570.364 69.232 571.612 67.696 571.612 65.36C571.612 63.056 570.364 61.488 568.476 61.488ZM598.638 50.256V74H592.174V72.016C591.022 73.424 589.39 74.224 587.406 74.224C582.542 74.224 579.342 70.672 579.342 65.2C579.342 59.856 582.478 56.368 587.246 56.368C589.294 56.368 590.99 57.168 592.174 58.608V50.256H598.638ZM589.038 69.264C590.926 69.264 592.174 67.696 592.174 65.36C592.174 63.056 590.926 61.488 589.038 61.488C587.118 61.488 585.87 63.056 585.87 65.36C585.87 67.696 587.118 69.264 589.038 69.264ZM620.19 56.592V74H613.726V71.408C612.542 73.264 610.718 74.288 608.382 74.288C604.734 74.288 602.238 71.696 602.238 67.632V56.592H608.702V65.808C608.702 67.504 609.63 68.592 611.038 68.592C612.702 68.56 613.726 67.184 613.726 65.2V56.592H620.19ZM631.869 56.368C635.517 56.368 638.429 58.032 639.901 60.912L634.941 63.344C634.333 62.256 633.373 61.616 632.157 61.616C630.429 61.616 629.277 63.12 629.277 65.328C629.277 67.6 630.429 69.104 632.157 69.104C633.405 69.104 634.365 68.496 634.909 67.184L639.933 69.712C638.589 72.592 635.645 74.224 631.805 74.224C626.333 74.224 622.749 70.704 622.749 65.36C622.749 59.952 626.365 56.368 631.869 56.368ZM652.813 68.72L653.965 73.168C652.749 73.872 650.893 74.288 649.133 74.288C645.421 74.32 642.925 72.176 642.925 68.56V61.616H640.525V57.488H642.925V52.656H649.357V57.488H653.645V61.616H649.357V67.568C649.357 68.688 649.933 69.232 650.829 69.232C651.341 69.232 652.045 69.008 652.813 68.72ZM664.245 56.368C670.357 56.368 673.685 60.464 673.301 66.864H661.589C662.101 68.528 663.317 69.456 664.981 69.456C666.357 69.456 667.669 68.848 668.821 67.792L672.181 71.088C670.357 73.104 667.733 74.224 664.437 74.224C658.613 74.224 655.061 70.704 655.061 65.36C655.061 59.92 658.741 56.368 664.245 56.368ZM661.461 63.696H666.933C666.965 61.968 665.877 60.752 664.309 60.752C662.805 60.752 661.781 61.936 661.461 63.696ZM693.377 56.592V74H686.913V71.408C685.729 73.264 683.905 74.288 681.569 74.288C677.921 74.288 675.425 71.696 675.425 67.632V56.592H681.889V65.808C681.889 67.504 682.817 68.592 684.225 68.592C685.889 68.56 686.913 67.184 686.913 65.2V56.592H693.377ZM703.744 56.592V59.344C704.96 57.424 706.848 56.336 709.216 56.336V62.16C705.888 61.744 703.744 63.152 703.744 65.68V74H697.28V56.592H703.744ZM718.251 56.304C720.875 56.304 723.531 57.04 725.899 58.416L723.755 62.48C721.387 61.264 719.435 60.656 718.059 60.656C717.259 60.656 716.747 60.944 716.747 61.488C716.747 63.44 725.835 62.576 725.835 68.528C725.835 72.112 722.731 74.288 718.187 74.288C715.115 74.288 712.267 73.456 709.995 71.824L711.979 67.76C714.155 69.168 716.363 69.904 718.283 69.904C719.147 69.904 719.723 69.648 719.723 69.104C719.723 67.12 710.827 68.08 710.827 62.128C710.827 58.48 713.867 56.304 718.251 56.304ZM753.576 50.256V74H747.112V72.016C745.96 73.424 744.328 74.224 742.344 74.224C737.48 74.224 734.28 70.672 734.28 65.2C734.28 59.856 737.416 56.368 742.184 56.368C744.232 56.368 745.928 57.168 747.112 58.608V50.256H753.576ZM743.976 69.264C745.864 69.264 747.112 67.696 747.112 65.36C747.112 63.056 745.864 61.488 743.976 61.488C742.056 61.488 740.808 63.056 740.808 65.36C740.808 67.696 742.056 69.264 743.976 69.264ZM775.127 56.592V74H768.663V71.408C767.479 73.264 765.655 74.288 763.319 74.288C759.671 74.288 757.175 71.696 757.175 67.632V56.592H763.639V65.808C763.639 67.504 764.567 68.592 765.975 68.592C767.639 68.56 768.663 67.184 768.663 65.2V56.592H775.127ZM796.75 51.376C800.142 51.376 803.758 52.912 806.03 55.344L802.19 59.888C800.782 58.096 798.702 56.912 796.846 56.912C793.806 56.912 791.502 59.376 791.502 62.672C791.502 65.968 793.806 68.464 796.846 68.464C798.574 68.464 800.654 67.44 802.19 65.872L806.03 69.968C803.598 72.592 799.918 74.288 796.526 74.288C789.71 74.288 784.686 69.36 784.686 62.736C784.686 56.208 789.806 51.376 796.75 51.376ZM820.284 56.336C824.028 56.336 826.556 58.928 826.556 62.96V74H820.092V64.816C820.092 63.088 819.132 62 817.596 62C815.836 62.032 814.748 63.408 814.748 65.392V74H808.284V50.256H814.748V59.28C815.964 57.36 817.852 56.336 820.284 56.336ZM833.232 48.304C835.184 48.304 836.56 49.68 836.56 51.632C836.56 53.584 835.184 54.96 833.232 54.96C831.28 54.96 829.904 53.584 829.904 51.632C829.904 49.68 831.28 48.304 833.232 48.304ZM836.432 74H829.968V56.592H836.432V74ZM846.967 74H840.503V50.256H846.967V74ZM854.325 48.304C856.277 48.304 857.653 49.68 857.653 51.632C857.653 53.584 856.277 54.96 854.325 54.96C852.373 54.96 850.997 53.584 850.997 51.632C850.997 49.68 852.373 48.304 854.325 48.304ZM857.525 74H851.061V56.592H857.525V74ZM876.788 56.368C882.644 56.368 886.452 59.888 886.452 65.296C886.452 70.672 882.644 74.224 876.788 74.224C870.932 74.224 867.092 70.672 867.092 65.296C867.092 59.888 870.932 56.368 876.788 56.368ZM876.788 61.488C874.868 61.488 873.62 63.056 873.62 65.36C873.62 67.696 874.868 69.232 876.788 69.232C878.676 69.232 879.924 67.696 879.924 65.36C879.924 63.056 878.676 61.488 876.788 61.488ZM900.999 56.336C904.711 56.336 907.271 58.928 907.271 62.96V74H900.807V64.816C900.807 63.088 899.815 62 898.311 62C896.551 62.032 895.463 63.408 895.463 65.392V74H888.999V56.592H895.463V59.28C896.679 57.36 898.567 56.336 900.999 56.336ZM921.438 68.72L922.59 73.168C921.374 73.872 919.518 74.288 917.758 74.288C914.046 74.32 911.55 72.176 911.55 68.56V61.616H909.15V57.488H911.55V52.656H917.982V57.488H922.27V61.616H917.982V67.568C917.982 68.688 918.558 69.232 919.454 69.232C919.966 69.232 920.67 69.008 921.438 68.72ZM949.533 56.592V74H943.069V71.408C941.885 73.264 940.061 74.288 937.725 74.288C934.077 74.288 931.581 71.696 931.581 67.632V56.592H938.045V65.808C938.045 67.504 938.973 68.592 940.381 68.592C942.045 68.56 943.069 67.184 943.069 65.2V56.592H949.533ZM964.188 68.72L965.34 73.168C964.124 73.872 962.268 74.288 960.508 74.288C956.796 74.32 954.3 72.176 954.3 68.56V61.616H951.9V57.488H954.3V52.656H960.732V57.488H965.02V61.616H960.732V67.568C960.732 68.688 961.308 69.232 962.204 69.232C962.716 69.232 963.42 69.008 964.188 68.72ZM971.075 48.304C973.027 48.304 974.403 49.68 974.403 51.632C974.403 53.584 973.027 54.96 971.075 54.96C969.123 54.96 967.747 53.584 967.747 51.632C967.747 49.68 969.123 48.304 971.075 48.304ZM974.275 74H967.811V56.592H974.275V74ZM984.81 74H978.346V50.256H984.81V74ZM992.169 48.304C994.121 48.304 995.497 49.68 995.497 51.632C995.497 53.584 994.121 54.96 992.169 54.96C990.217 54.96 988.841 53.584 988.841 51.632C988.841 49.68 990.217 48.304 992.169 48.304ZM995.369 74H988.905V56.592H995.369V74ZM1006.03 56.304C1008.66 56.304 1011.31 57.04 1013.68 58.416L1011.54 62.48C1009.17 61.264 1007.22 60.656 1005.84 60.656C1005.04 60.656 1004.53 60.944 1004.53 61.488C1004.53 63.44 1013.62 62.576 1013.62 68.528C1013.62 72.112 1010.51 74.288 1005.97 74.288C1002.9 74.288 1000.05 73.456 997.776 71.824L999.76 67.76C1001.94 69.168 1004.14 69.904 1006.06 69.904C1006.93 69.904 1007.5 69.648 1007.5 69.104C1007.5 67.12 998.608 68.08 998.608 62.128C998.608 58.48 1001.65 56.304 1006.03 56.304ZM1025.75 54.96H1021.01L1024.44 49.2L1030.04 51.056L1025.75 54.96ZM1024.25 56.368C1030.36 56.368 1033.69 60.464 1033.3 66.864H1021.59C1022.1 68.528 1023.32 69.456 1024.98 69.456C1026.36 69.456 1027.67 68.848 1028.82 67.792L1032.18 71.088C1030.36 73.104 1027.73 74.224 1024.44 74.224C1018.61 74.224 1015.06 70.704 1015.06 65.36C1015.06 59.92 1018.74 56.368 1024.25 56.368ZM1021.46 63.696H1026.93C1026.97 61.968 1025.88 60.752 1024.31 60.752C1022.81 60.752 1021.78 61.936 1021.46 63.696ZM1048.57 64.528H1052.38V60.016H1058.55V64.528H1061.5V69.424H1058.55V74H1052.38V69.424H1041.79V65.008L1048.57 51.568H1054.94L1048.57 64.528ZM1073.67 51.28C1076.33 51.28 1079.27 52.048 1081.19 53.2L1078.66 57.872C1077.41 56.912 1075.81 56.4 1074.09 56.4C1070.89 56.4 1069.32 58.096 1069.35 61.136C1070.34 59.952 1071.97 59.12 1074.28 59.12C1078.69 59.12 1081.54 62.096 1081.54 66.448C1081.54 71.248 1078.09 74.288 1072.93 74.288C1066.73 74.288 1062.98 69.936 1062.98 63.056C1062.98 55.92 1067.17 51.28 1073.67 51.28ZM1072.74 63.984C1070.95 63.984 1069.96 64.944 1069.96 66.48C1069.96 67.952 1070.85 68.976 1072.68 68.976C1074.41 68.976 1075.37 68.112 1075.37 66.416C1075.37 64.848 1074.44 63.984 1072.74 63.984ZM1093.63 51.376C1100.09 51.376 1103.74 55.44 1103.74 62.768C1103.74 70.128 1100.09 74.192 1093.63 74.192C1087.07 74.192 1083.48 70.128 1083.48 62.768C1083.48 55.44 1087.07 51.376 1093.63 51.376ZM1093.63 56.208C1091.23 56.208 1090.3 57.968 1090.3 62.768C1090.3 67.568 1091.23 69.36 1093.63 69.36C1095.96 69.36 1096.89 67.568 1096.89 62.768C1096.89 57.968 1095.96 56.208 1093.63 56.208ZM1124.63 68.72L1125.78 73.168C1124.56 73.872 1122.71 74.288 1120.95 74.288C1117.23 74.32 1114.74 72.176 1114.74 68.56V61.616H1112.34V57.488H1114.74V52.656H1121.17V57.488H1125.46V61.616H1121.17V67.568C1121.17 68.688 1121.75 69.232 1122.64 69.232C1123.15 69.232 1123.86 69.008 1124.63 68.72ZM1136.57 56.368C1142.43 56.368 1146.23 59.888 1146.23 65.296C1146.23 70.672 1142.43 74.224 1136.57 74.224C1130.71 74.224 1126.87 70.672 1126.87 65.296C1126.87 59.888 1130.71 56.368 1136.57 56.368ZM1136.57 61.488C1134.65 61.488 1133.4 63.056 1133.4 65.36C1133.4 67.696 1134.65 69.232 1136.57 69.232C1138.46 69.232 1139.71 67.696 1139.71 65.36C1139.71 63.056 1138.46 61.488 1136.57 61.488ZM1160.78 56.336C1164.49 56.336 1167.05 58.928 1167.05 62.96V74H1160.59V64.816C1160.59 63.088 1159.6 62 1158.09 62C1156.33 62.032 1155.24 63.408 1155.24 65.392V74H1148.78V56.592H1155.24V59.28C1156.46 57.36 1158.35 56.336 1160.78 56.336ZM1182.47 56.336C1186.18 56.336 1188.74 58.928 1188.74 62.96V74H1182.28V64.816C1182.28 63.088 1181.28 62 1179.78 62C1178.02 62.032 1176.93 63.408 1176.93 65.392V74H1170.47V56.592H1176.93V59.28C1178.15 57.36 1180.04 56.336 1182.47 56.336ZM1200 56.368C1206.11 56.368 1209.44 60.464 1209.05 66.864H1197.34C1197.85 68.528 1199.07 69.456 1200.73 69.456C1202.11 69.456 1203.42 68.848 1204.57 67.792L1207.93 71.088C1206.11 73.104 1203.48 74.224 1200.19 74.224C1194.36 74.224 1190.81 70.704 1190.81 65.36C1190.81 59.92 1194.49 56.368 1200 56.368ZM1197.21 63.696H1202.68C1202.72 61.968 1201.63 60.752 1200.06 60.752C1198.56 60.752 1197.53 61.936 1197.21 63.696ZM1218.41 56.304C1221.03 56.304 1223.69 57.04 1226.06 58.416L1223.91 62.48C1221.54 61.264 1219.59 60.656 1218.22 60.656C1217.42 60.656 1216.9 60.944 1216.9 61.488C1216.9 63.44 1225.99 62.576 1225.99 68.528C1225.99 72.112 1222.89 74.288 1218.34 74.288C1215.27 74.288 1212.42 73.456 1210.15 71.824L1212.14 67.76C1214.31 69.168 1216.52 69.904 1218.44 69.904C1219.3 69.904 1219.88 69.648 1219.88 69.104C1219.88 67.12 1210.98 68.08 1210.98 62.128C1210.98 58.48 1214.02 56.304 1218.41 56.304ZM380.951 95.256V119H374.487V117.016C373.335 118.424 371.703 119.224 369.719 119.224C364.855 119.224 361.655 115.672 361.655 110.2C361.655 104.856 364.791 101.368 369.559 101.368C371.607 101.368 373.303 102.168 374.487 103.608V95.256H380.951ZM371.351 114.264C373.239 114.264 374.487 112.696 374.487 110.36C374.487 108.056 373.239 106.488 371.351 106.488C369.431 106.488 368.183 108.056 368.183 110.36C368.183 112.696 369.431 114.264 371.351 114.264ZM387.206 96.568C388.774 96.568 390.182 97.624 390.182 99.544C390.182 100.44 389.862 101.208 389.382 101.912L386.79 105.656H383.782L385.318 101.88C384.55 101.336 384.166 100.504 384.166 99.576C384.166 97.816 385.446 96.568 387.206 96.568ZM401.347 101.336C406.243 101.336 409.155 103.672 409.155 107.704V119H402.819V117.08C401.763 118.488 400.035 119.288 397.731 119.288C394.019 119.288 391.843 117.08 391.843 113.816C391.843 110.456 394.179 108.6 398.563 108.536H402.819V108.472C402.819 107.032 401.795 106.168 399.811 106.168C398.435 106.168 396.483 106.584 394.563 107.416L392.963 103.128C395.811 101.976 398.627 101.336 401.347 101.336ZM399.875 115.064C401.187 115.064 402.339 114.36 402.819 113.272V111.704H399.875C398.595 111.704 397.923 112.248 397.923 113.336C397.923 114.424 398.627 115.064 399.875 115.064ZM424.593 101.336C428.305 101.336 430.865 103.928 430.865 107.96V119H424.401V109.816C424.401 108.088 423.409 107 421.905 107C420.145 107.032 419.057 108.408 419.057 110.392V119H412.593V101.592H419.057V104.28C420.273 102.36 422.161 101.336 424.593 101.336ZM445.032 113.72L446.184 118.168C444.968 118.872 443.112 119.288 441.352 119.288C437.64 119.32 435.144 117.176 435.144 113.56V106.616H432.744V102.488H435.144V97.656H441.576V102.488H445.864V106.616H441.576V112.568C441.576 113.688 442.152 114.232 443.048 114.232C443.56 114.232 444.264 114.008 445.032 113.72ZM451.919 93.304C453.871 93.304 455.247 94.68 455.247 96.632C455.247 98.584 453.871 99.96 451.919 99.96C449.967 99.96 448.591 98.584 448.591 96.632C448.591 94.68 449.967 93.304 451.919 93.304ZM455.119 119H448.655V101.592H455.119V119ZM470.422 101.368C475.286 101.368 478.486 104.952 478.486 110.392C478.486 115.736 475.382 119.224 470.582 119.224C468.534 119.224 466.838 118.424 465.654 116.984V119H459.19V95.256H465.654V103.608C466.806 102.168 468.47 101.368 470.422 101.368ZM468.79 114.104C470.71 114.104 471.958 112.536 471.958 110.232C471.958 107.928 470.71 106.36 468.79 106.36C466.934 106.36 465.654 107.928 465.654 110.232C465.654 112.536 466.934 114.104 468.79 114.104ZM484.325 93.304C486.277 93.304 487.653 94.68 487.653 96.632C487.653 98.584 486.277 99.96 484.325 99.96C482.373 99.96 480.997 98.584 480.997 96.632C480.997 94.68 482.373 93.304 484.325 93.304ZM487.525 119H481.061V101.592H487.525V119ZM499.788 101.368C505.644 101.368 509.452 104.888 509.452 110.296C509.452 115.672 505.644 119.224 499.788 119.224C493.932 119.224 490.092 115.672 490.092 110.296C490.092 104.888 493.932 101.368 499.788 101.368ZM499.788 106.488C497.868 106.488 496.62 108.056 496.62 110.36C496.62 112.696 497.868 114.232 499.788 114.232C501.676 114.232 502.924 112.696 502.924 110.36C502.924 108.056 501.676 106.488 499.788 106.488ZM522.751 113.72L523.903 118.168C522.687 118.872 520.831 119.288 519.071 119.288C515.359 119.32 512.863 117.176 512.863 113.56V106.616H510.463V102.488H512.863V97.656H519.295V102.488H523.583V106.616H519.295V112.568C519.295 113.688 519.871 114.232 520.767 114.232C521.279 114.232 521.983 114.008 522.751 113.72ZM529.638 93.304C531.59 93.304 532.966 94.68 532.966 96.632C532.966 98.584 531.59 99.96 529.638 99.96C527.686 99.96 526.31 98.584 526.31 96.632C526.31 94.68 527.686 93.304 529.638 93.304ZM532.838 119H526.374V101.592H532.838V119ZM554.701 101.592V125.208H548.237V117.016C547.085 118.424 545.453 119.224 543.469 119.224C538.605 119.224 535.405 115.672 535.405 110.2C535.405 104.856 538.541 101.368 543.309 101.368C545.357 101.368 547.053 102.168 548.237 103.608V101.592H554.701ZM545.101 114.264C546.989 114.264 548.237 112.696 548.237 110.36C548.237 108.056 546.989 106.488 545.101 106.488C543.181 106.488 541.933 108.056 541.933 110.36C541.933 112.696 543.181 114.264 545.101 114.264ZM576.252 101.592V119H569.788V116.408C568.604 118.264 566.78 119.288 564.444 119.288C560.796 119.288 558.3 116.696 558.3 112.632V101.592H564.764V110.808C564.764 112.504 565.692 113.592 567.1 113.592C568.764 113.56 569.788 112.184 569.788 110.2V101.592H576.252ZM587.995 101.368C594.107 101.368 597.435 105.464 597.051 111.864H585.339C585.851 113.528 587.067 114.456 588.731 114.456C590.107 114.456 591.419 113.848 592.571 112.792L595.931 116.088C594.107 118.104 591.483 119.224 588.187 119.224C582.363 119.224 578.811 115.704 578.811 110.36C578.811 104.92 582.491 101.368 587.995 101.368ZM585.211 108.696H590.683C590.715 106.968 589.627 105.752 588.059 105.752C586.555 105.752 585.531 106.936 585.211 108.696ZM606.407 101.304C609.031 101.304 611.687 102.04 614.055 103.416L611.911 107.48C609.543 106.264 607.591 105.656 606.215 105.656C605.415 105.656 604.903 105.944 604.903 106.488C604.903 108.44 613.991 107.576 613.991 113.528C613.991 117.112 610.887 119.288 606.343 119.288C603.271 119.288 600.423 118.456 598.151 116.824L600.135 112.76C602.311 114.168 604.519 114.904 606.439 114.904C607.303 114.904 607.879 114.648 607.879 114.104C607.879 112.12 598.983 113.08 598.983 107.128C598.983 103.48 602.023 101.304 606.407 101.304ZM641.732 95.256V119H635.268V117.016C634.116 118.424 632.484 119.224 630.5 119.224C625.636 119.224 622.436 115.672 622.436 110.2C622.436 104.856 625.572 101.368 630.34 101.368C632.388 101.368 634.084 102.168 635.268 103.608V95.256H641.732ZM632.132 114.264C634.02 114.264 635.268 112.696 635.268 110.36C635.268 108.056 634.02 106.488 632.132 106.488C630.212 106.488 628.964 108.056 628.964 110.36C628.964 112.696 630.212 114.264 632.132 114.264ZM654.003 101.336C658.899 101.336 661.811 103.672 661.811 107.704V119H655.475V117.08C654.419 118.488 652.691 119.288 650.387 119.288C646.675 119.288 644.499 117.08 644.499 113.816C644.499 110.456 646.835 108.6 651.219 108.536H655.475V108.472C655.475 107.032 654.451 106.168 652.467 106.168C651.091 106.168 649.139 106.584 647.219 107.416L645.619 103.128C648.467 101.976 651.283 101.336 654.003 101.336ZM652.531 115.064C653.843 115.064 654.995 114.36 655.475 113.272V111.704H652.531C651.251 111.704 650.579 112.248 650.579 113.336C650.579 114.424 651.283 115.064 652.531 115.064ZM677.249 101.336C680.961 101.336 683.521 103.928 683.521 107.96V119H677.057V109.816C677.057 108.088 676.065 107 674.561 107C672.801 107.032 671.713 108.408 671.713 110.392V119H665.249V101.592H671.713V104.28C672.929 102.36 674.817 101.336 677.249 101.336ZM693.688 101.304C696.312 101.304 698.968 102.04 701.336 103.416L699.192 107.48C696.824 106.264 694.872 105.656 693.496 105.656C692.696 105.656 692.184 105.944 692.184 106.488C692.184 108.44 701.272 107.576 701.272 113.528C701.272 117.112 698.168 119.288 693.624 119.288C690.552 119.288 687.704 118.456 685.432 116.824L687.416 112.76C689.592 114.168 691.8 114.904 693.72 114.904C694.584 114.904 695.16 114.648 695.16 114.104C695.16 112.12 686.264 113.08 686.264 107.128C686.264 103.48 689.304 101.304 693.688 101.304ZM717.685 119H711.221V95.256H717.685V119ZM729.62 101.368C735.732 101.368 739.06 105.464 738.676 111.864H726.964C727.476 113.528 728.692 114.456 730.356 114.456C731.732 114.456 733.044 113.848 734.196 112.792L737.556 116.088C735.732 118.104 733.108 119.224 729.812 119.224C723.988 119.224 720.436 115.704 720.436 110.36C720.436 104.92 724.116 101.368 729.62 101.368ZM726.836 108.696H732.308C732.34 106.968 731.252 105.752 729.684 105.752C728.18 105.752 727.156 106.936 726.836 108.696ZM748.032 101.304C750.656 101.304 753.312 102.04 755.68 103.416L753.536 107.48C751.168 106.264 749.216 105.656 747.84 105.656C747.04 105.656 746.528 105.944 746.528 106.488C746.528 108.44 755.616 107.576 755.616 113.528C755.616 117.112 752.512 119.288 747.968 119.288C744.896 119.288 742.048 118.456 739.776 116.824L741.76 112.76C743.936 114.168 746.144 114.904 748.064 114.904C748.928 114.904 749.504 114.648 749.504 114.104C749.504 112.12 740.608 113.08 740.608 107.128C740.608 103.48 743.648 101.304 748.032 101.304ZM773.181 101.368C776.829 101.368 779.741 103.032 781.213 105.912L776.253 108.344C775.645 107.256 774.685 106.616 773.469 106.616C771.741 106.616 770.589 108.12 770.589 110.328C770.589 112.6 771.741 114.104 773.469 114.104C774.717 114.104 775.677 113.496 776.221 112.184L781.245 114.712C779.901 117.592 776.957 119.224 773.117 119.224C767.645 119.224 764.061 115.704 764.061 110.36C764.061 104.952 767.677 101.368 773.181 101.368ZM791.41 101.336C796.306 101.336 799.218 103.672 799.218 107.704V119H792.882V117.08C791.826 118.488 790.098 119.288 787.794 119.288C784.082 119.288 781.906 117.08 781.906 113.816C781.906 110.456 784.242 108.6 788.626 108.536H792.882V108.472C792.882 107.032 791.858 106.168 789.874 106.168C788.498 106.168 786.546 106.584 784.626 107.416L783.026 103.128C785.874 101.976 788.69 101.336 791.41 101.336ZM789.938 115.064C791.25 115.064 792.402 114.36 792.882 113.272V111.704H789.938C788.658 111.704 787.986 112.248 787.986 113.336C787.986 114.424 788.69 115.064 789.938 115.064ZM819.679 101.592V117.496C819.679 122.392 815.807 125.496 810.111 125.496C806.879 125.496 803.967 124.472 802.079 123.224L804.223 118.872C805.759 119.896 807.775 120.472 809.567 120.472C811.903 120.472 813.279 119.384 813.279 117.688V115.928C812.159 117.272 810.591 118.008 808.607 118.008C804.383 118.008 801.311 114.68 801.311 109.592C801.311 104.632 804.287 101.368 808.479 101.368C810.527 101.368 812.159 102.136 813.279 103.48V101.592H819.679ZM810.303 113.368C812.095 113.368 813.279 111.928 813.279 109.784C813.279 107.576 812.095 106.136 810.303 106.136C808.543 106.136 807.359 107.608 807.359 109.784C807.359 111.928 808.543 113.368 810.303 113.368ZM831.339 101.368C837.451 101.368 840.779 105.464 840.395 111.864H828.683C829.195 113.528 830.411 114.456 832.075 114.456C833.451 114.456 834.763 113.848 835.915 112.792L839.275 116.088C837.451 118.104 834.827 119.224 831.531 119.224C825.707 119.224 822.155 115.704 822.155 110.36C822.155 104.92 825.835 101.368 831.339 101.368ZM828.555 108.696H834.027C834.059 106.968 832.971 105.752 831.403 105.752C829.899 105.752 828.875 106.936 828.555 108.696ZM849.751 101.304C852.375 101.304 855.031 102.04 857.399 103.416L855.255 107.48C852.887 106.264 850.935 105.656 849.559 105.656C848.759 105.656 848.247 105.944 848.247 106.488C848.247 108.44 857.335 107.576 857.335 113.528C857.335 117.112 854.231 119.288 849.687 119.288C846.615 119.288 843.767 118.456 841.495 116.824L843.479 112.76C845.655 114.168 847.863 114.904 849.783 114.904C850.647 114.904 851.223 114.648 851.223 114.104C851.223 112.12 842.327 113.08 842.327 107.128C842.327 103.48 845.367 101.304 849.751 101.304ZM890.612 101.336C894.292 101.336 896.788 103.928 896.788 107.96V119H890.324V109.816C890.324 108.088 889.364 107 887.924 107C886.26 107.032 885.204 108.408 885.204 110.392V119H878.74V109.816C878.74 108.088 877.78 107 876.34 107C874.644 107.032 873.588 108.408 873.588 110.392V119H867.124V101.592H873.588V104.248C874.772 102.36 876.628 101.336 878.996 101.336C881.716 101.336 883.796 102.744 884.724 105.112C885.844 102.68 887.892 101.336 890.612 101.336ZM908.41 101.336C913.306 101.336 916.218 103.672 916.218 107.704V119H909.882V117.08C908.826 118.488 907.098 119.288 904.794 119.288C901.082 119.288 898.906 117.08 898.906 113.816C898.906 110.456 901.242 108.6 905.626 108.536H909.882V108.472C909.882 107.032 908.858 106.168 906.874 106.168C905.498 106.168 903.546 106.584 901.626 107.416L900.026 103.128C902.874 101.976 905.69 101.336 908.41 101.336ZM906.938 115.064C908.25 115.064 909.402 114.36 909.882 113.272V111.704H906.938C905.658 111.704 904.986 112.248 904.986 113.336C904.986 114.424 905.69 115.064 906.938 115.064ZM926.119 101.592V104.344C927.335 102.424 929.223 101.336 931.591 101.336V107.16C928.263 106.744 926.119 108.152 926.119 110.68V119H919.655V101.592H926.119ZM937.138 93.304C939.09 93.304 940.466 94.68 940.466 96.632C940.466 98.584 939.09 99.96 937.138 99.96C935.186 99.96 933.81 98.584 933.81 96.632C933.81 94.68 935.186 93.304 937.138 93.304ZM940.338 119H933.874V101.592H940.338V119ZM956.249 101.336C959.961 101.336 962.521 103.928 962.521 107.96V119H956.057V109.816C956.057 108.088 955.065 107 953.561 107C951.801 107.032 950.713 108.408 950.713 110.392V119H944.249V101.592H950.713V104.28C951.929 102.36 953.817 101.336 956.249 101.336ZM973.776 101.368C979.888 101.368 983.216 105.464 982.832 111.864H971.12C971.632 113.528 972.848 114.456 974.512 114.456C975.888 114.456 977.2 113.848 978.352 112.792L981.712 116.088C979.888 118.104 977.264 119.224 973.968 119.224C968.144 119.224 964.592 115.704 964.592 110.36C964.592 104.92 968.272 101.368 973.776 101.368ZM970.992 108.696H976.464C976.496 106.968 975.408 105.752 973.84 105.752C972.336 105.752 971.312 106.936 970.992 108.696ZM992.188 101.304C994.812 101.304 997.468 102.04 999.836 103.416L997.692 107.48C995.324 106.264 993.372 105.656 991.996 105.656C991.196 105.656 990.684 105.944 990.684 106.488C990.684 108.44 999.772 107.576 999.772 113.528C999.772 117.112 996.668 119.288 992.124 119.288C989.052 119.288 986.204 118.456 983.932 116.824L985.916 112.76C988.092 114.168 990.3 114.904 992.22 114.904C993.084 114.904 993.66 114.648 993.66 114.104C993.66 112.12 984.764 113.08 984.764 107.128C984.764 103.48 987.804 101.304 992.188 101.304ZM1017.4 101.368C1023.51 101.368 1026.84 105.464 1026.46 111.864H1014.75C1015.26 113.528 1016.47 114.456 1018.14 114.456C1019.51 114.456 1020.83 113.848 1021.98 112.792L1025.34 116.088C1023.51 118.104 1020.89 119.224 1017.59 119.224C1011.77 119.224 1008.22 115.704 1008.22 110.36C1008.22 104.92 1011.9 101.368 1017.4 101.368ZM1014.62 108.696H1020.09C1020.12 106.968 1019.03 105.752 1017.47 105.752C1015.96 105.752 1014.94 106.936 1014.62 108.696ZM1041.06 101.336C1044.77 101.336 1047.33 103.928 1047.33 107.96V119H1040.87V109.816C1040.87 108.088 1039.88 107 1038.37 107C1036.61 107.032 1035.53 108.408 1035.53 110.392V119H1029.06V101.592H1035.53V104.28C1036.74 102.36 1038.63 101.336 1041.06 101.336ZM1065.91 96.28C1070.42 96.28 1073.78 98.68 1073.78 102.264C1073.78 104.792 1071.96 107.288 1069.49 109.816L1065.59 113.816H1074.26V119H1057.08V114.776L1064.95 106.52C1066 105.4 1066.84 104.12 1066.84 103.224C1066.84 102.232 1066.13 101.688 1064.88 101.688C1063.12 101.688 1060.92 102.776 1058.8 104.536L1056.31 99.736C1059.35 97.592 1062.52 96.28 1065.91 96.28ZM1086.53 96.376C1093 96.376 1096.64 100.44 1096.64 107.768C1096.64 115.128 1093 119.192 1086.53 119.192C1079.97 119.192 1076.39 115.128 1076.39 107.768C1076.39 100.44 1079.97 96.376 1086.53 96.376ZM1086.53 101.208C1084.13 101.208 1083.2 102.968 1083.2 107.768C1083.2 112.568 1084.13 114.36 1086.53 114.36C1088.87 114.36 1089.8 112.568 1089.8 107.768C1089.8 102.968 1088.87 101.208 1086.53 101.208ZM1107.94 96.28C1112.45 96.28 1115.81 98.68 1115.81 102.264C1115.81 104.792 1113.99 107.288 1111.52 109.816L1107.62 113.816H1116.29V119H1099.11V114.776L1106.98 106.52C1108.04 105.4 1108.87 104.12 1108.87 103.224C1108.87 102.232 1108.16 101.688 1106.92 101.688C1105.16 101.688 1102.95 102.776 1100.84 104.536L1098.34 99.736C1101.38 97.592 1104.55 96.28 1107.94 96.28ZM1128.02 119H1121.33V101.88H1117.33V96.568H1128.02V119ZM1134.86 113.24C1136.65 113.24 1137.9 114.456 1137.9 116.216C1137.9 118.008 1136.65 119.256 1134.86 119.256C1133.1 119.256 1131.85 118.008 1131.85 116.216C1131.85 114.456 1133.1 113.24 1134.86 113.24Z" fill="black"/>
<path d="M533.487 374.016C533.487 374.578 533.224 375.827 531.19 377.791C529.148 379.761 525.812 381.948 520.972 384.209C511.323 388.714 496.98 392.927 478.779 396.522C442.475 403.692 392.058 408.169 336.186 408.169C280.314 408.169 229.897 403.692 193.593 396.522C175.392 392.927 161.049 388.714 151.4 384.209C146.56 381.948 143.224 379.761 141.182 377.791C139.148 375.827 138.885 374.578 138.885 374.016C138.885 373.454 139.148 372.205 141.182 370.241C143.224 368.271 146.56 366.083 151.4 363.823C161.049 359.318 175.392 355.105 193.593 351.51C229.897 344.34 280.314 339.863 336.186 339.863C392.058 339.863 442.475 344.34 478.779 351.51C496.98 355.105 511.323 359.318 520.972 363.823C525.812 366.083 529.148 368.271 531.19 370.241C533.224 372.205 533.487 373.454 533.487 374.016Z" stroke="#13176F" stroke-width="12"/>
<path d="M534.414 642.407C534.414 664.349 446.232 682.137 337.454 682.137C228.675 682.137 140.493 664.349 140.493 642.407" stroke="#13176F" stroke-width="12"/>
<path d="M140.07 379.933V647.901" stroke="#13176F" stroke-width="12"/>
<path d="M534.415 373.593L534.415 648.324" stroke="#13176F" stroke-width="12"/>
<mask id="mask0_3277_39" style="mask-type:alpha" maskUnits="userSpaceOnUse" x="94" y="425" width="470" height="210">
<path fill-rule="evenodd" clip-rule="evenodd" d="M218.096 426.241C209.812 426.077 202.578 430.874 200.127 436.997L193.684 425.758L169.978 425.29L182.465 449.361L169.054 472.044L192.76 472.512L199.661 461.636C201.4 467.607 206.204 472.777 213.101 472.914L257.592 473.792C268.813 474.014 278.455 458.916 281.874 451.339C278.255 443.573 269.676 427.259 256.404 426.997L218.096 426.241ZM259.688 445.771C261.187 445.801 262.425 444.677 262.453 443.261C262.481 441.845 261.288 440.673 259.789 440.643C258.29 440.614 257.051 441.738 257.024 443.154C256.996 444.57 258.188 445.742 259.688 445.771Z" fill="#FF3636"/>
<path fill-rule="evenodd" clip-rule="evenodd" d="M331.082 426.241C322.797 426.077 315.564 430.874 313.112 436.997L306.669 425.758L282.963 425.29L295.45 449.361L282.039 472.044L305.746 472.512L312.646 461.636C314.386 467.607 319.189 472.777 326.086 472.914L370.577 473.792C381.798 474.014 391.441 458.916 394.859 451.339C391.241 443.573 382.661 427.259 369.389 426.997L331.082 426.241ZM372.673 445.771C374.173 445.801 375.411 444.677 375.439 443.261C375.467 441.845 374.274 440.673 372.775 440.643C371.275 440.614 370.037 441.738 370.009 443.154C369.981 444.57 371.174 445.742 372.673 445.771Z" fill="#FF3636"/>
<path fill-rule="evenodd" clip-rule="evenodd" d="M277.817 478.698C269.532 478.534 262.299 483.331 259.848 489.454L253.405 478.216L229.698 477.748L242.185 501.819L228.775 524.501L252.481 524.969L259.381 514.093C261.121 520.064 265.924 525.235 272.821 525.371L317.313 526.25C328.533 526.472 338.176 511.373 341.595 503.796C337.976 496.03 329.397 479.717 316.125 479.455L277.817 478.698ZM319.409 498.229C320.908 498.258 322.146 497.134 322.174 495.718C322.202 494.302 321.009 493.13 319.51 493.101C318.011 493.071 316.773 494.195 316.745 495.611C316.717 497.027 317.91 498.199 319.409 498.229Z" fill="#FF3636"/>
<path fill-rule="evenodd" clip-rule="evenodd" d="M210.026 532.77C201.741 532.606 194.508 537.403 192.057 543.526L185.613 532.287L161.907 531.819L174.394 555.89L160.984 578.573L184.69 579.041L191.59 568.165C193.33 574.136 198.134 579.306 205.03 579.443L249.522 580.322C260.742 580.543 270.385 565.445 273.804 557.868C270.185 550.102 261.606 533.788 248.334 533.526L210.026 532.77ZM251.617 552.3C253.117 552.33 254.355 551.206 254.383 549.79C254.411 548.374 253.218 547.202 251.719 547.172C250.219 547.143 248.981 548.267 248.953 549.683C248.925 551.099 250.118 552.271 251.617 552.3Z" fill="#FF3636"/>
<path fill-rule="evenodd" clip-rule="evenodd" d="M323.818 532.77C315.534 532.606 308.301 537.402 305.849 543.525L299.406 532.287L275.7 531.819L288.187 555.89L274.777 578.573L298.483 579.041L305.383 568.166C307.123 574.136 311.926 579.306 318.822 579.443L363.313 580.322C374.534 580.543 384.177 565.445 387.595 557.868C383.977 550.102 375.397 533.788 362.125 533.526L323.818 532.77ZM365.409 552.3C366.908 552.33 368.147 551.206 368.175 549.79C368.202 548.374 367.01 547.202 365.51 547.172C364.011 547.143 362.773 548.267 362.745 549.683C362.717 551.099 363.91 552.271 365.409 552.3Z" fill="#FF3636"/>
<path fill-rule="evenodd" clip-rule="evenodd" d="M437.611 532.77C429.326 532.606 422.093 537.403 419.642 543.526L413.198 532.287L389.492 531.819L401.979 555.89L388.569 578.573L412.275 579.041L419.175 568.165C420.915 574.136 425.718 579.306 432.615 579.443L477.106 580.322C488.327 580.543 497.97 565.445 501.388 557.868C497.77 550.102 489.191 533.788 475.919 533.526L437.611 532.77ZM479.202 552.3C480.702 552.33 481.94 551.206 481.968 549.79C481.996 548.374 480.803 547.202 479.304 547.172C477.804 547.143 476.566 548.267 476.538 549.683C476.51 551.099 477.703 552.271 479.202 552.3Z" fill="#FF3636"/>
<path fill-rule="evenodd" clip-rule="evenodd" d="M255.22 586.841C246.935 586.677 239.702 591.474 237.251 597.597L230.808 586.359L207.102 585.891L219.589 609.962L206.178 632.644L229.884 633.112L236.784 622.237C238.524 628.208 243.327 633.378 250.224 633.514L294.715 634.393C305.936 634.615 315.579 619.516 318.997 611.939C315.379 604.173 306.799 587.86 293.527 587.598L255.22 586.841ZM296.811 606.372C298.31 606.401 299.548 605.277 299.576 603.861C299.604 602.445 298.412 601.274 296.912 601.244C295.413 601.214 294.175 602.338 294.147 603.754C294.119 605.17 295.312 606.342 296.811 606.372Z" fill="#FF3636"/>
<path fill-rule="evenodd" clip-rule="evenodd" d="M118.63 586.359L125.073 597.597C127.525 591.474 134.758 586.678 143.042 586.841L181.35 587.598C194.622 587.86 203.201 604.173 206.82 611.939C203.401 619.516 193.759 634.615 182.538 634.393L138.047 633.514C131.15 633.378 126.347 628.207 124.607 622.237L117.707 633.112L94.0003 632.644L107.411 609.962L94.9238 585.891L118.63 586.359ZM184.633 606.372C186.132 606.401 187.371 605.277 187.399 603.861C187.427 602.445 186.234 601.274 184.734 601.244C183.235 601.214 181.997 602.338 181.969 603.754C181.941 605.17 183.134 606.342 184.633 606.372Z" fill="#FF3636"/>
<path fill-rule="evenodd" clip-rule="evenodd" d="M367.398 586.841C359.114 586.678 351.881 591.474 349.429 597.597L342.986 586.359L319.28 585.891L331.767 609.962L318.356 632.644L342.063 633.112L348.963 622.237C350.703 628.208 355.506 633.378 362.403 633.514L406.894 634.393C418.115 634.615 427.757 619.516 431.176 611.939C427.557 604.173 418.978 587.86 405.706 587.598L367.398 586.841ZM408.99 606.372C410.489 606.401 411.727 605.277 411.755 603.861C411.783 602.445 410.59 601.274 409.091 601.244C407.592 601.214 406.353 602.338 406.325 603.754C406.298 605.17 407.49 606.342 408.99 606.372Z" fill="#FF3636"/>
<path fill-rule="evenodd" clip-rule="evenodd" d="M488.455 586.841C480.17 586.678 472.937 591.474 470.486 597.597L464.042 586.359L440.336 585.891L452.823 609.962L439.412 632.644L463.119 633.112L470.019 622.236C471.759 628.207 476.562 633.378 483.459 633.514L527.95 634.393C539.171 634.615 548.814 619.516 552.232 611.939C548.614 604.173 540.034 587.86 526.762 587.598L488.455 586.841ZM530.046 606.372C531.545 606.401 532.783 605.277 532.811 603.861C532.839 602.445 531.647 601.274 530.147 601.244C528.648 601.214 527.41 602.338 527.382 603.754C527.354 605.17 528.547 606.342 530.046 606.372Z" fill="#FF3636"/>
<path fill-rule="evenodd" clip-rule="evenodd" d="M389.995 481.119C381.711 480.956 374.478 485.752 372.026 491.875L365.583 480.637L341.877 480.169L354.364 504.24L340.953 526.922L364.66 527.391L371.56 516.515C373.3 522.486 378.103 527.656 385 527.792L429.491 528.671C440.712 528.893 450.354 513.794 453.773 506.217C450.154 498.451 441.575 482.138 428.303 481.876L389.995 481.119ZM431.587 500.65C433.086 500.679 434.324 499.555 434.352 498.139C434.38 496.723 433.188 495.552 431.688 495.522C430.189 495.492 428.951 496.616 428.923 498.032C428.895 499.448 430.088 500.62 431.587 500.65Z" fill="#FF3636"/>
<path fill-rule="evenodd" clip-rule="evenodd" d="M499.752 481.119C491.468 480.956 484.235 485.752 481.783 491.875L475.34 480.637L451.634 480.169L464.121 504.24L450.71 526.922L474.417 527.391L481.317 516.515C483.056 522.486 487.86 527.656 494.756 527.792L539.248 528.671C550.468 528.893 560.111 513.794 563.53 506.218C559.911 498.451 551.332 482.138 538.06 481.876L499.752 481.119ZM541.344 500.65C542.843 500.679 544.081 499.555 544.109 498.139C544.137 496.723 542.944 495.552 541.445 495.522C539.946 495.492 538.708 496.616 538.68 498.032C538.652 499.448 539.845 500.62 541.344 500.65Z" fill="#FF3636"/>
<path fill-rule="evenodd" clip-rule="evenodd" d="M444.066 429.469C435.782 429.305 428.549 434.101 426.097 440.224L419.655 428.987L395.948 428.518L408.435 452.589L395.025 475.272L418.731 475.74L425.631 464.865C427.371 470.836 432.174 476.006 439.07 476.142L483.561 477.021C494.782 477.242 504.425 462.144 507.844 454.567C504.225 446.801 495.646 430.488 482.374 430.225L444.066 429.469ZM485.657 448.999C487.157 449.029 488.395 447.905 488.423 446.489C488.451 445.073 487.258 443.901 485.759 443.871C484.259 443.842 483.021 444.966 482.993 446.382C482.965 447.798 484.158 448.97 485.657 448.999Z" fill="#FF3636"/>
<path fill-rule="evenodd" clip-rule="evenodd" d="M168.867 476.277C160.583 476.113 153.35 480.91 150.898 487.032L144.455 475.795L120.749 475.327L133.236 499.398L119.825 522.08L143.532 522.548L150.432 511.673C152.172 517.644 156.975 522.814 163.871 522.95L208.362 523.829C219.583 524.05 229.226 508.952 232.645 501.375C229.026 493.609 220.447 477.296 207.175 477.034L168.867 476.277ZM210.459 495.807C211.958 495.837 213.196 494.713 213.224 493.297C213.252 491.881 212.059 490.709 210.56 490.68C209.061 490.65 207.823 491.774 207.795 493.19C207.767 494.606 208.959 495.778 210.459 495.807Z" fill="#FF3636"/>
</mask>
<g mask="url(#mask0_3277_39)">
<rect x="145.65" y="380.096" width="384.15" height="255.024" fill="#FF3636"/>
</g>
<path d="M216 171H461V297.391L338.5 361L216 297.391V171Z" fill="#FF3636"/>
<path d="M323.874 221.064C324.07 221.064 324.228 221.143 324.346 221.3C324.503 221.418 324.582 221.575 324.582 221.772V227.849C324.582 228.046 324.503 228.223 324.346 228.38C324.228 228.498 324.07 228.557 323.874 228.557H322.045C321.848 228.557 321.75 228.655 321.75 228.852V238.292C321.75 238.489 321.671 238.666 321.514 238.823C321.396 238.941 321.238 239 321.042 239H314.139C313.942 239 313.765 238.941 313.608 238.823C313.49 238.666 313.431 238.489 313.431 238.292V228.852C313.431 228.655 313.332 228.557 313.136 228.557H298.386C298.189 228.557 298.012 228.498 297.855 228.38C297.737 228.223 297.678 228.046 297.678 227.849V223.011C297.678 222.657 297.717 222.362 297.796 222.126L305.643 198.29C305.761 197.897 306.016 197.7 306.41 197.7H313.903C314.139 197.7 314.316 197.779 314.434 197.936C314.552 198.054 314.571 198.251 314.493 198.526L307.413 220.71C307.373 220.946 307.452 221.064 307.649 221.064H313.136C313.332 221.064 313.431 220.966 313.431 220.769V214.633C313.431 214.436 313.49 214.279 313.608 214.161C313.765 214.004 313.942 213.925 314.139 213.925H321.042C321.238 213.925 321.396 214.004 321.514 214.161C321.671 214.279 321.75 214.436 321.75 214.633V220.769C321.75 220.966 321.848 221.064 322.045 221.064H323.874ZM349.797 222.657C349.954 223.601 350.033 224.761 350.033 226.138C350.033 227.003 349.993 228.183 349.915 229.678C349.797 232.785 348.735 235.204 346.729 236.935C344.723 238.626 342.048 239.472 338.705 239.472C335.558 239.472 333.001 238.685 331.035 237.112C329.107 235.539 327.967 233.198 327.613 230.091C327.455 229.265 327.377 228.183 327.377 226.846L327.259 207.789C327.259 204.564 328.281 202.007 330.327 200.119C332.411 198.192 335.165 197.228 338.587 197.228C341.773 197.228 344.369 198.192 346.375 200.119C348.42 202.046 349.443 204.603 349.443 207.789V209.559C349.443 209.756 349.364 209.933 349.207 210.09C349.089 210.208 348.931 210.267 348.735 210.267H341.832C341.635 210.267 341.458 210.208 341.301 210.09C341.183 209.933 341.124 209.756 341.124 209.559V208.261C341.124 207.199 340.868 206.314 340.357 205.606C339.845 204.898 339.255 204.544 338.587 204.544C337.721 204.544 337.013 204.898 336.463 205.606C335.912 206.275 335.637 207.16 335.637 208.261V214.22C335.637 214.338 335.676 214.417 335.755 214.456C335.833 214.456 335.912 214.417 335.991 214.338C337.289 213.237 338.764 212.686 340.416 212.686C343.169 212.686 345.372 213.591 347.024 215.4C348.715 217.209 349.639 219.628 349.797 222.657ZM341.478 229.029C341.556 227.141 341.596 225.981 341.596 225.548C341.596 224.486 341.517 223.267 341.36 221.89C341.242 220.985 340.947 220.277 340.475 219.766C340.003 219.255 339.393 218.999 338.646 218.999C337.859 218.999 337.21 219.274 336.699 219.825C336.227 220.336 335.932 221.064 335.814 222.008C335.696 223.542 335.637 224.722 335.637 225.548C335.637 226.492 335.696 227.711 335.814 229.206C335.932 230.229 336.227 231.015 336.699 231.566C337.21 232.117 337.859 232.392 338.646 232.392C339.432 232.392 340.062 232.097 340.534 231.507C341.045 230.917 341.36 230.091 341.478 229.029ZM364.749 239.649C361.288 239.649 358.495 238.567 356.371 236.404C354.247 234.201 353.185 231.31 353.185 227.731V208.969C353.185 205.39 354.247 202.518 356.371 200.355C358.495 198.152 361.288 197.051 364.749 197.051C367.03 197.051 369.056 197.543 370.826 198.526C372.596 199.509 373.953 200.906 374.897 202.715C375.88 204.524 376.372 206.609 376.372 208.969V227.731C376.372 230.091 375.88 232.176 374.897 233.985C373.953 235.794 372.596 237.191 370.826 238.174C369.056 239.157 367.03 239.649 364.749 239.649ZM364.749 232.51C365.732 232.51 366.519 232.117 367.109 231.33C367.738 230.543 368.053 229.501 368.053 228.203V208.497C368.053 207.199 367.738 206.157 367.109 205.37C366.519 204.583 365.732 204.19 364.749 204.19C363.766 204.19 362.979 204.583 362.389 205.37C361.799 206.157 361.504 207.199 361.504 208.497V228.203C361.504 229.501 361.799 230.543 362.389 231.33C362.979 232.117 363.766 232.51 364.749 232.51ZM279.444 256.7C279.64 256.7 279.798 256.779 279.916 256.936C280.073 257.054 280.152 257.211 280.152 257.408V263.131C280.152 263.328 280.073 263.505 279.916 263.662C279.798 263.78 279.64 263.839 279.444 263.839H272.069C271.872 263.839 271.774 263.937 271.774 264.134V297.292C271.774 297.489 271.695 297.666 271.538 297.823C271.42 297.941 271.262 298 271.066 298H264.163C263.966 298 263.789 297.941 263.632 297.823C263.514 297.666 263.455 297.489 263.455 297.292V264.134C263.455 263.937 263.356 263.839 263.16 263.839H256.08C255.883 263.839 255.706 263.78 255.549 263.662C255.431 263.505 255.372 263.328 255.372 263.131V257.408C255.372 257.211 255.431 257.054 255.549 256.936C255.706 256.779 255.883 256.7 256.08 256.7H279.444ZM294.383 298.472C290.765 298.472 287.874 297.41 285.71 295.286C283.547 293.162 282.465 290.33 282.465 286.79V267.91C282.465 264.37 283.547 261.538 285.71 259.414C287.874 257.29 290.765 256.228 294.383 256.228C298.002 256.228 300.893 257.29 303.056 259.414C305.259 261.538 306.36 264.37 306.36 267.91V286.79C306.36 290.33 305.259 293.162 303.056 295.286C300.893 297.41 298.002 298.472 294.383 298.472ZM294.383 291.333C295.485 291.333 296.37 290.959 297.038 290.212C297.707 289.425 298.041 288.403 298.041 287.144V267.556C298.041 266.297 297.707 265.294 297.038 264.547C296.37 263.76 295.485 263.367 294.383 263.367C293.282 263.367 292.397 263.76 291.728 264.547C291.099 265.294 290.784 266.297 290.784 267.556V287.144C290.784 288.403 291.099 289.425 291.728 290.212C292.397 290.959 293.282 291.333 294.383 291.333ZM327.816 257.408C327.816 257.211 327.875 257.054 327.993 256.936C328.151 256.779 328.328 256.7 328.524 256.7H335.368C335.565 256.7 335.722 256.779 335.84 256.936C335.998 257.054 336.076 257.211 336.076 257.408V297.292C336.076 297.489 335.998 297.666 335.84 297.823C335.722 297.941 335.565 298 335.368 298H327.58C327.187 298 326.931 297.803 326.813 297.41L319.497 274.577C319.458 274.459 319.379 274.42 319.261 274.459C319.183 274.459 319.143 274.518 319.143 274.636L319.202 297.292C319.202 297.489 319.124 297.666 318.966 297.823C318.848 297.941 318.691 298 318.494 298H311.65C311.454 298 311.277 297.941 311.119 297.823C311.001 297.666 310.942 297.489 310.942 297.292V257.408C310.942 257.211 311.001 257.054 311.119 256.936C311.277 256.779 311.454 256.7 311.65 256.7H319.379C319.773 256.7 320.028 256.897 320.146 257.29L327.521 280.123C327.561 280.241 327.62 280.3 327.698 280.3C327.816 280.261 327.875 280.182 327.875 280.064L327.816 257.408ZM358.123 257.408C358.123 257.211 358.182 257.054 358.3 256.936C358.457 256.779 358.634 256.7 358.831 256.7H365.675C365.872 256.7 366.029 256.779 366.147 256.936C366.304 257.054 366.383 257.211 366.383 257.408V297.292C366.383 297.489 366.304 297.666 366.147 297.823C366.029 297.941 365.872 298 365.675 298H357.887C357.493 298 357.238 297.803 357.12 297.41L349.804 274.577C349.764 274.459 349.686 274.42 349.568 274.459C349.489 274.459 349.45 274.518 349.45 274.636L349.509 297.292C349.509 297.489 349.43 297.666 349.273 297.823C349.155 297.941 348.997 298 348.801 298H341.957C341.76 298 341.583 297.941 341.426 297.823C341.308 297.666 341.249 297.489 341.249 297.292V257.408C341.249 257.211 341.308 257.054 341.426 256.936C341.583 256.779 341.76 256.7 341.957 256.7H349.686C350.079 256.7 350.335 256.897 350.453 257.29L357.828 280.123C357.867 280.241 357.926 280.3 358.005 280.3C358.123 280.261 358.182 280.182 358.182 280.064L358.123 257.408ZM393.208 263.131C393.208 263.328 393.13 263.505 392.972 263.662C392.854 263.78 392.697 263.839 392.5 263.839H380.169C379.973 263.839 379.874 263.937 379.874 264.134V273.456C379.874 273.653 379.973 273.751 380.169 273.751H387.249C387.446 273.751 387.603 273.83 387.721 273.987C387.879 274.105 387.957 274.262 387.957 274.459V280.182C387.957 280.379 387.879 280.556 387.721 280.713C387.603 280.831 387.446 280.89 387.249 280.89H380.169C379.973 280.89 379.874 280.988 379.874 281.185V290.566C379.874 290.763 379.973 290.861 380.169 290.861H392.5C392.697 290.861 392.854 290.94 392.972 291.097C393.13 291.215 393.208 291.372 393.208 291.569V297.292C393.208 297.489 393.13 297.666 392.972 297.823C392.854 297.941 392.697 298 392.5 298H372.263C372.067 298 371.89 297.941 371.732 297.823C371.614 297.666 371.555 297.489 371.555 297.292V257.408C371.555 257.211 371.614 257.054 371.732 256.936C371.89 256.779 372.067 256.7 372.263 256.7H392.5C392.697 256.7 392.854 256.779 392.972 256.936C393.13 257.054 393.208 257.211 393.208 257.408V263.131ZM408.046 298.472C405.764 298.472 403.758 298.02 402.028 297.115C400.297 296.21 398.96 294.952 398.016 293.339C397.072 291.687 396.6 289.799 396.6 287.675V285.964C396.6 285.767 396.659 285.61 396.777 285.492C396.934 285.335 397.111 285.256 397.308 285.256H404.093C404.289 285.256 404.447 285.335 404.565 285.492C404.722 285.61 404.801 285.767 404.801 285.964V287.262C404.801 288.481 405.115 289.465 405.745 290.212C406.374 290.959 407.161 291.333 408.105 291.333C409.049 291.333 409.835 290.979 410.465 290.271C411.094 289.563 411.409 288.639 411.409 287.498C411.409 286.318 411.015 285.315 410.229 284.489C409.442 283.624 407.908 282.365 405.627 280.713C403.66 279.297 402.067 278.038 400.848 276.937C399.628 275.836 398.586 274.479 397.721 272.866C396.855 271.253 396.423 269.385 396.423 267.261C396.423 263.918 397.465 261.243 399.55 259.237C401.634 257.231 404.388 256.228 407.81 256.228C411.271 256.228 414.044 257.27 416.129 259.355C418.253 261.44 419.315 264.173 419.315 267.556V268.972C419.315 269.169 419.236 269.346 419.079 269.503C418.961 269.621 418.803 269.68 418.607 269.68H411.822C411.625 269.68 411.448 269.621 411.291 269.503C411.173 269.346 411.114 269.169 411.114 268.972V267.379C411.114 266.16 410.799 265.196 410.17 264.488C409.58 263.741 408.793 263.367 407.81 263.367C406.866 263.367 406.099 263.721 405.509 264.429C404.919 265.098 404.624 266.042 404.624 267.261C404.624 268.441 404.997 269.483 405.745 270.388C406.492 271.293 407.967 272.551 410.17 274.164C412.608 275.973 414.437 277.448 415.657 278.589C416.915 279.69 417.879 280.929 418.548 282.306C419.256 283.643 419.61 285.256 419.61 287.144C419.61 290.605 418.548 293.359 416.424 295.404C414.3 297.449 411.507 298.472 408.046 298.472Z" fill="black"/>
<mask id="path-23-inside-1_3277_39" fill="white">
<path fill-rule="evenodd" clip-rule="evenodd" d="M1071.33 409.408C1077.36 412.767 1083.8 415.306 1090.55 416.899C1089.69 420.505 1089.01 424.191 1088.51 427.945C1078.03 432.563 1070.72 443.038 1070.72 455.222C1070.72 469.947 1081.41 482.178 1095.45 484.586C1105.88 510.544 1125.78 530.539 1150.12 538.846V557.992C1101.92 571.51 1066.55 615.778 1066.55 668.248V679H1178H1289.45V662.055C1289.45 609.908 1252.52 566.331 1203.39 556.048V537.858C1226.41 529.052 1245.17 509.689 1255.23 484.823C1270.09 483.127 1281.62 470.521 1281.62 455.222C1281.62 442.408 1273.53 431.483 1262.17 427.276C1261.7 423.82 1261.06 420.424 1260.28 417.096C1267.41 415.518 1274.22 412.908 1280.57 409.408H1280.6C1268.84 356.328 1226.25 317 1175.46 317L1175.36 317L1175.27 317C1125.07 317 1082.94 356.328 1071.33 409.408Z"/>
</mask>
<path d="M1090.55 416.899L1102.22 419.664L1104.99 407.981L1093.31 405.221L1090.55 416.899ZM1071.33 409.408L1059.61 406.844L1057.7 415.553L1065.49 419.891L1071.33 409.408ZM1088.51 427.945L1093.35 438.926L1099.52 436.207L1100.41 429.523L1088.51 427.945ZM1095.45 484.586L1106.59 480.111L1104.09 473.892L1097.48 472.759L1095.45 484.586ZM1150.12 538.846H1162.12V530.262L1153.99 527.489L1150.12 538.846ZM1150.12 557.992L1153.36 569.546L1162.12 567.089V557.992H1150.12ZM1066.55 679H1054.55V691H1066.55V679ZM1289.45 679V691H1301.45V679H1289.45ZM1203.39 556.048H1191.39V565.796L1200.93 567.793L1203.39 556.048ZM1203.39 537.858L1199.11 526.65L1191.39 529.6V537.858H1203.39ZM1255.23 484.823L1253.87 472.9L1246.79 473.709L1244.11 480.321L1255.23 484.823ZM1262.17 427.276L1250.29 428.925L1251.28 436.034L1258.01 438.528L1262.17 427.276ZM1260.28 417.096L1257.69 405.378L1245.82 408.003L1248.6 419.839L1260.28 417.096ZM1280.57 409.408V397.408H1277.49L1274.78 398.897L1280.57 409.408ZM1280.6 409.408V421.408H1295.55L1292.31 406.813L1280.6 409.408ZM1175.46 317L1175.46 305L1175.46 305L1175.46 317ZM1175.36 317L1175.36 329L1175.37 329L1175.36 317ZM1175.27 317L1175.27 305H1175.27V317ZM1093.31 405.221C1087.68 403.891 1082.27 401.765 1077.17 398.925L1065.49 419.891C1072.45 423.769 1079.93 426.721 1087.79 428.578L1093.31 405.221ZM1100.41 429.523C1100.86 426.168 1101.46 422.878 1102.22 419.664L1078.87 414.134C1077.92 418.131 1077.17 422.214 1076.62 426.367L1100.41 429.523ZM1082.72 455.222C1082.72 447.967 1087.06 441.697 1093.35 438.926L1083.68 416.964C1069 423.429 1058.72 438.11 1058.72 455.222H1082.72ZM1097.48 472.759C1089.09 471.321 1082.72 464 1082.72 455.222H1058.72C1058.72 475.895 1073.72 493.035 1093.42 496.414L1097.48 472.759ZM1153.99 527.489C1133.36 520.446 1115.88 503.239 1106.59 480.111L1084.32 489.061C1095.89 517.849 1118.2 540.632 1146.24 550.203L1153.99 527.489ZM1162.12 557.992V538.846H1138.12V557.992H1162.12ZM1078.55 668.248C1078.55 621.305 1110.2 581.652 1153.36 569.546L1146.88 546.438C1093.65 561.369 1054.55 610.252 1054.55 668.248H1078.55ZM1078.55 679V668.248H1054.55V679H1078.55ZM1178 667H1066.55V691H1178V667ZM1289.45 667H1178V691H1289.45V667ZM1277.45 662.055V679H1301.45V662.055H1277.45ZM1200.93 567.793C1244.62 576.938 1277.45 615.709 1277.45 662.055H1301.45C1301.45 604.107 1260.42 555.725 1205.85 544.302L1200.93 567.793ZM1191.39 537.858V556.048H1215.39V537.858H1191.39ZM1244.11 480.321C1235.15 502.467 1218.66 519.168 1199.11 526.65L1207.68 549.065C1234.16 538.935 1255.19 516.91 1266.36 489.324L1244.11 480.321ZM1269.62 455.222C1269.62 464.346 1262.74 471.888 1253.87 472.9L1256.6 496.745C1277.44 494.366 1293.62 476.696 1293.62 455.222H1269.62ZM1258.01 438.528C1264.81 441.049 1269.62 447.591 1269.62 455.222H1293.62C1293.62 437.225 1282.25 421.917 1266.34 416.023L1258.01 438.528ZM1248.6 419.839C1249.29 422.806 1249.86 425.837 1250.29 428.925L1274.06 425.627C1273.53 421.804 1272.83 418.042 1271.96 414.352L1248.6 419.839ZM1274.78 398.897C1269.4 401.865 1263.67 404.057 1257.69 405.378L1262.87 428.813C1271.16 426.979 1279.04 423.951 1286.36 419.919L1274.78 398.897ZM1280.6 397.408H1280.57V421.408H1280.6V397.408ZM1175.46 329C1219.59 329 1258.1 363.346 1268.88 412.003L1292.31 406.813C1279.58 349.31 1232.91 305 1175.46 305V329ZM1175.37 329L1175.47 329L1175.46 305L1175.36 305L1175.37 329ZM1175.26 329L1175.36 329L1175.37 305L1175.27 305L1175.26 329ZM1083.05 411.972C1093.71 363.237 1131.82 329 1175.27 329V305C1118.32 305 1072.17 349.42 1059.61 406.844L1083.05 411.972Z" fill="#13176F" mask="url(#path-23-inside-1_3277_39)"/>
<rect x="1160.17" y="451.888" width="45.031" height="18.1159" rx="9.05796" transform="rotate(-49.6293 1160.17 451.888)" fill="#FF3636"/>
<rect x="1183.62" y="491.916" width="45.031" height="18.1159" rx="9.05796" transform="rotate(-97.4594 1183.62 491.916)" fill="#FF3636"/>
<rect x="1131.3" y="490.48" width="45.031" height="18.1159" rx="9.05796" transform="rotate(-134.075 1131.3 490.48)" fill="#FF3636"/>
<rect x="1144.87" y="642.004" width="45.031" height="18.1159" rx="9.05796" transform="rotate(-96.9762 1144.87 642.004)" fill="#FF3636"/>
<rect x="1177.47" y="625.445" width="45.031" height="18.1159" rx="9.05796" transform="rotate(-71.218 1177.47 625.445)" fill="#FF3636"/>
<rect x="1146.79" y="497.835" width="45.031" height="18.1159" rx="9.05796" transform="rotate(-71.218 1146.79 497.835)" fill="#FF3636"/>
<rect x="1131.64" y="441.663" width="45.031" height="18.1159" rx="9.05796" transform="rotate(-71.218 1131.64 441.663)" fill="#FF3636"/>
<rect x="1184.24" y="418.48" width="45.031" height="18.1159" rx="9.05796" transform="rotate(-71.218 1184.24 418.48)" fill="#FF3636"/>
<rect x="1193.16" y="387.274" width="45.031" height="18.1159" rx="9.05796" transform="rotate(-71.218 1193.16 387.274)" fill="#FF3636"/>
<rect x="1148.58" y="381.924" width="45.031" height="18.1159" rx="9.05796" transform="rotate(-71.218 1148.58 381.924)" fill="#FF3636"/>
<rect x="1209.21" y="438.096" width="45.031" height="18.1159" rx="9.05796" transform="rotate(-71.218 1209.21 438.096)" fill="#FF3636"/>
<rect x="1194.94" y="480.003" width="45.031" height="18.1159" rx="9.05796" transform="rotate(-71.218 1194.94 480.003)" fill="#FF3636"/>
<rect x="1162.84" y="557.574" width="45.031" height="18.1159" rx="9.05796" transform="rotate(-71.218 1162.84 557.574)" fill="#FF3636"/>
<rect x="1136.99" y="654.761" width="45.031" height="18.1159" rx="9.05796" transform="rotate(-71.218 1136.99 654.761)" fill="#FF3636"/>
<rect x="1100.43" y="661.003" width="45.031" height="18.1159" rx="9.05796" transform="rotate(-71.218 1100.43 661.003)" fill="#FF3636"/>
<rect x="1224.16" y="655.304" width="45.031" height="18.1159" rx="9.05796" transform="rotate(-110.604 1224.16 655.304)" fill="#FF3636"/>
<rect x="1177.8" y="673.137" width="45.031" height="18.1159" rx="9.05796" transform="rotate(-110.604 1177.8 673.137)" fill="#FF3636"/>
<rect x="1172.45" y="601.807" width="45.031" height="18.1159" rx="9.05796" transform="rotate(-110.604 1172.45 601.807)" fill="#FF3636"/>
<rect x="1129.84" y="641.23" width="45.031" height="18.1159" rx="9.05796" transform="rotate(-110.604 1129.84 641.23)" fill="#FF3636"/>
<rect x="1241.99" y="649.954" width="45.031" height="18.1159" rx="9.05796" transform="rotate(-110.604 1241.99 649.954)" fill="#FF3636"/>
<rect x="1126.98" y="423.481" width="45.031" height="18.1159" rx="9.05796" transform="rotate(-110.604 1126.98 423.481)" fill="#FF3636"/>
<path d="M703.206 446.394C702.409 446.394 701.692 446.155 701.055 445.677C700.577 445.04 700.338 444.323 700.338 443.526V423.928C700.338 423.131 700.577 422.494 701.055 422.016C701.692 421.379 702.409 421.06 703.206 421.06H790.919C791.716 421.06 792.353 421.379 792.831 422.016C793.468 422.494 793.787 423.131 793.787 423.928V443.526C793.787 444.323 793.468 445.04 792.831 445.677C792.353 446.155 791.716 446.394 790.919 446.394H703.206ZM703.206 490.37C702.409 490.37 701.692 490.131 701.055 489.653C700.577 489.016 700.338 488.299 700.338 487.502V467.904C700.338 467.107 700.577 466.47 701.055 465.992C701.692 465.355 702.409 465.036 703.206 465.036H790.919C791.716 465.036 792.353 465.355 792.831 465.992C793.468 466.47 793.787 467.107 793.787 467.904V487.502C793.787 488.299 793.468 489.016 792.831 489.653C792.353 490.131 791.716 490.37 790.919 490.37H703.206Z" fill="#13176F"/>
<path d="M681.712 528.951C681.712 529.081 681.66 529.198 681.556 529.302C681.478 529.38 681.374 529.419 681.244 529.419H673.093C672.963 529.419 672.898 529.484 672.898 529.614V535.776C672.898 535.906 672.963 535.971 673.093 535.971H677.773C677.903 535.971 678.007 536.023 678.085 536.127C678.189 536.205 678.241 536.309 678.241 536.439V540.222C678.241 540.352 678.189 540.469 678.085 540.573C678.007 540.651 677.903 540.69 677.773 540.69H673.093C672.963 540.69 672.898 540.755 672.898 540.885V547.086C672.898 547.216 672.963 547.281 673.093 547.281H681.244C681.374 547.281 681.478 547.333 681.556 547.437C681.66 547.515 681.712 547.619 681.712 547.749V551.532C681.712 551.662 681.66 551.779 681.556 551.883C681.478 551.961 681.374 552 681.244 552H667.867C667.737 552 667.62 551.961 667.516 551.883C667.438 551.779 667.399 551.662 667.399 551.532V525.168C667.399 525.038 667.438 524.934 667.516 524.856C667.62 524.752 667.737 524.7 667.867 524.7H681.244C681.374 524.7 681.478 524.752 681.556 524.856C681.66 524.934 681.712 525.038 681.712 525.168V528.951ZM672.469 522.282C672.287 522.282 672.157 522.23 672.079 522.126C672.001 522.022 672.014 521.892 672.118 521.736L674.419 517.758C674.523 517.55 674.718 517.446 675.004 517.446H678.631C678.891 517.446 679.021 517.537 679.021 517.719C679.021 517.797 678.982 517.901 678.904 518.031L675.901 522.009C675.745 522.191 675.563 522.282 675.355 522.282H672.469ZM691.753 524.388C694.067 524.388 695.926 525.129 697.33 526.611C698.734 528.067 699.436 529.991 699.436 532.383V544.317C699.436 546.137 699.007 547.71 698.149 549.036C697.317 550.362 696.16 551.298 694.678 551.844C694.574 551.87 694.522 551.935 694.522 552.039V555.354C694.522 555.484 694.47 555.588 694.366 555.666C694.288 555.77 694.184 555.822 694.054 555.822H689.491C689.361 555.822 689.244 555.77 689.14 555.666C689.062 555.588 689.023 555.484 689.023 555.354V552.039C689.023 551.935 688.971 551.87 688.867 551.844C687.385 551.298 686.215 550.362 685.357 549.036C684.525 547.71 684.109 546.137 684.109 544.317V532.383C684.109 530.797 684.421 529.406 685.045 528.21C685.695 526.988 686.592 526.052 687.736 525.402C688.906 524.726 690.245 524.388 691.753 524.388ZM689.608 544.902C689.608 545.708 689.803 546.358 690.193 546.852C690.583 547.346 691.103 547.593 691.753 547.593C692.403 547.593 692.923 547.346 693.313 546.852C693.729 546.358 693.937 545.708 693.937 544.902V531.798C693.937 530.992 693.729 530.342 693.313 529.848C692.923 529.354 692.403 529.107 691.753 529.107C691.103 529.107 690.583 529.354 690.193 529.848C689.803 530.342 689.608 530.992 689.608 531.798V544.902ZM710.12 552.312C707.78 552.312 705.895 551.584 704.465 550.128C703.061 548.646 702.359 546.683 702.359 544.239V525.168C702.359 525.038 702.398 524.934 702.476 524.856C702.58 524.752 702.697 524.7 702.827 524.7H707.39C707.52 524.7 707.624 524.752 707.702 524.856C707.806 524.934 707.858 525.038 707.858 525.168V544.785C707.858 545.617 708.066 546.293 708.482 546.813C708.898 547.333 709.444 547.593 710.12 547.593C710.796 547.593 711.329 547.333 711.719 546.813C712.135 546.293 712.343 545.617 712.343 544.785V525.168C712.343 525.038 712.382 524.934 712.46 524.856C712.564 524.752 712.681 524.7 712.811 524.7H717.374C717.504 524.7 717.608 524.752 717.686 524.856C717.79 524.934 717.842 525.038 717.842 525.168V544.239C717.842 546.683 717.127 548.646 715.697 550.128C714.293 551.584 712.434 552.312 710.12 552.312ZM721.606 552C721.476 552 721.359 551.961 721.255 551.883C721.177 551.779 721.138 551.662 721.138 551.532V525.168C721.138 525.038 721.177 524.934 721.255 524.856C721.359 524.752 721.476 524.7 721.606 524.7H726.169C726.299 524.7 726.403 524.752 726.481 524.856C726.585 524.934 726.637 525.038 726.637 525.168V551.532C726.637 551.662 726.585 551.779 726.481 551.883C726.403 551.961 726.299 552 726.169 552H721.606ZM735.391 552C735.105 552 734.936 551.857 734.884 551.571L729.307 525.207L729.268 525.051C729.268 524.817 729.411 524.7 729.697 524.7H734.728C735.04 524.7 735.209 524.843 735.235 525.129L737.926 542.289C737.952 542.393 737.991 542.445 738.043 542.445C738.095 542.445 738.134 542.393 738.16 542.289L740.773 525.129C740.799 524.843 740.968 524.7 741.28 524.7H746.155C746.493 524.7 746.623 524.869 746.545 525.207L740.929 551.571C740.877 551.857 740.708 552 740.422 552H735.391ZM757.703 552C757.391 552 757.222 551.857 757.196 551.571L756.572 547.827C756.572 547.697 756.494 547.632 756.338 547.632H751.385C751.229 547.632 751.151 547.697 751.151 547.827L750.527 551.571C750.501 551.857 750.332 552 750.02 552H745.457C745.119 552 744.989 551.831 745.067 551.493L750.8 525.129C750.852 524.843 751.021 524.7 751.307 524.7H756.572C756.858 524.7 757.027 524.843 757.079 525.129L762.773 551.493L762.812 551.649C762.812 551.883 762.669 552 762.383 552H757.703ZM751.931 543.186C751.931 543.316 751.983 543.381 752.087 543.381H755.597C755.727 543.381 755.779 543.316 755.753 543.186L753.92 532.539C753.894 532.461 753.855 532.422 753.803 532.422C753.751 532.422 753.712 532.461 753.686 532.539L751.931 543.186ZM765.519 552C765.389 552 765.272 551.961 765.168 551.883C765.09 551.779 765.051 551.662 765.051 551.532V525.168C765.051 525.038 765.09 524.934 765.168 524.856C765.272 524.752 765.389 524.7 765.519 524.7H770.082C770.212 524.7 770.316 524.752 770.394 524.856C770.498 524.934 770.55 525.038 770.55 525.168V547.086C770.55 547.216 770.615 547.281 770.745 547.281H778.935C779.065 547.281 779.169 547.333 779.247 547.437C779.351 547.515 779.403 547.619 779.403 547.749V551.532C779.403 551.662 779.351 551.779 779.247 551.883C779.169 551.961 779.065 552 778.935 552H765.519ZM795.969 528.951C795.969 529.081 795.917 529.198 795.813 529.302C795.735 529.38 795.631 529.419 795.501 529.419H787.35C787.22 529.419 787.155 529.484 787.155 529.614V535.776C787.155 535.906 787.22 535.971 787.35 535.971H792.03C792.16 535.971 792.264 536.023 792.342 536.127C792.446 536.205 792.498 536.309 792.498 536.439V540.222C792.498 540.352 792.446 540.469 792.342 540.573C792.264 540.651 792.16 540.69 792.03 540.69H787.35C787.22 540.69 787.155 540.755 787.155 540.885V547.086C787.155 547.216 787.22 547.281 787.35 547.281H795.501C795.631 547.281 795.735 547.333 795.813 547.437C795.917 547.515 795.969 547.619 795.969 547.749V551.532C795.969 551.662 795.917 551.779 795.813 551.883C795.735 551.961 795.631 552 795.501 552H782.124C781.994 552 781.877 551.961 781.773 551.883C781.695 551.779 781.656 551.662 781.656 551.532V525.168C781.656 525.038 781.695 524.934 781.773 524.856C781.877 524.752 781.994 524.7 782.124 524.7H795.501C795.631 524.7 795.735 524.752 795.813 524.856C795.917 524.934 795.969 525.038 795.969 525.168V528.951ZM809.911 525.168C809.911 525.038 809.95 524.934 810.028 524.856C810.132 524.752 810.249 524.7 810.379 524.7H814.903C815.033 524.7 815.137 524.752 815.215 524.856C815.319 524.934 815.371 525.038 815.371 525.168V551.532C815.371 551.662 815.319 551.779 815.215 551.883C815.137 551.961 815.033 552 814.903 552H809.755C809.495 552 809.326 551.87 809.248 551.61L804.412 536.517C804.386 536.439 804.334 536.413 804.256 536.439C804.204 536.439 804.178 536.478 804.178 536.556L804.217 551.532C804.217 551.662 804.165 551.779 804.061 551.883C803.983 551.961 803.879 552 803.749 552H799.225C799.095 552 798.978 551.961 798.874 551.883C798.796 551.779 798.757 551.662 798.757 551.532V525.168C798.757 525.038 798.796 524.934 798.874 524.856C798.978 524.752 799.095 524.7 799.225 524.7H804.334C804.594 524.7 804.763 524.83 804.841 525.09L809.716 540.183C809.742 540.261 809.781 540.3 809.833 540.3C809.911 540.274 809.95 540.222 809.95 540.144L809.911 525.168ZM833.922 524.7C834.052 524.7 834.156 524.752 834.234 524.856C834.338 524.934 834.39 525.038 834.39 525.168V528.951C834.39 529.081 834.338 529.198 834.234 529.302C834.156 529.38 834.052 529.419 833.922 529.419H829.047C828.917 529.419 828.852 529.484 828.852 529.614V551.532C828.852 551.662 828.8 551.779 828.696 551.883C828.618 551.961 828.514 552 828.384 552H823.821C823.691 552 823.574 551.961 823.47 551.883C823.392 551.779 823.353 551.662 823.353 551.532V529.614C823.353 529.484 823.288 529.419 823.158 529.419H818.478C818.348 529.419 818.231 529.38 818.127 529.302C818.049 529.198 818.01 529.081 818.01 528.951V525.168C818.01 525.038 818.049 524.934 818.127 524.856C818.231 524.752 818.348 524.7 818.478 524.7H833.922Z" fill="black"/>
<path d="M1040 171H1315V297.391L1177.5 361L1040 297.391V171Z" fill="#FF3636"/>
<path d="M1145.36 197.877C1145.68 197.759 1145.97 197.7 1146.25 197.7H1153.38C1153.58 197.7 1153.74 197.779 1153.86 197.936C1154.01 198.054 1154.09 198.211 1154.09 198.408V238.292C1154.09 238.489 1154.01 238.666 1153.86 238.823C1153.74 238.941 1153.58 239 1153.38 239H1146.48C1146.28 239 1146.11 238.941 1145.95 238.823C1145.83 238.666 1145.77 238.489 1145.77 238.292V206.078C1145.77 205.921 1145.68 205.842 1145.48 205.842L1140.94 206.373H1140.82C1140.38 206.373 1140.17 206.157 1140.17 205.724L1139.99 200.65C1139.99 200.257 1140.17 199.981 1140.52 199.824L1145.36 197.877ZM1183.25 221.064C1183.45 221.064 1183.6 221.143 1183.72 221.3C1183.88 221.418 1183.96 221.575 1183.96 221.772V227.849C1183.96 228.046 1183.88 228.223 1183.72 228.38C1183.6 228.498 1183.45 228.557 1183.25 228.557H1181.42C1181.22 228.557 1181.13 228.655 1181.13 228.852V238.292C1181.13 238.489 1181.05 238.666 1180.89 238.823C1180.77 238.941 1180.61 239 1180.42 239H1173.51C1173.32 239 1173.14 238.941 1172.98 238.823C1172.87 238.666 1172.81 238.489 1172.81 238.292V228.852C1172.81 228.655 1172.71 228.557 1172.51 228.557H1157.76C1157.56 228.557 1157.39 228.498 1157.23 228.38C1157.11 228.223 1157.05 228.046 1157.05 227.849V223.011C1157.05 222.657 1157.09 222.362 1157.17 222.126L1165.02 198.29C1165.14 197.897 1165.39 197.7 1165.79 197.7H1173.28C1173.51 197.7 1173.69 197.779 1173.81 197.936C1173.93 198.054 1173.95 198.251 1173.87 198.526L1166.79 220.71C1166.75 220.946 1166.83 221.064 1167.02 221.064H1172.51C1172.71 221.064 1172.81 220.966 1172.81 220.769V214.633C1172.81 214.436 1172.87 214.279 1172.98 214.161C1173.14 214.004 1173.32 213.925 1173.51 213.925H1180.42C1180.61 213.925 1180.77 214.004 1180.89 214.161C1181.05 214.279 1181.13 214.436 1181.13 214.633V220.769C1181.13 220.966 1181.22 221.064 1181.42 221.064H1183.25ZM1198.14 239.649C1194.68 239.649 1191.89 238.567 1189.76 236.404C1187.64 234.201 1186.58 231.31 1186.58 227.731V208.969C1186.58 205.39 1187.64 202.518 1189.76 200.355C1191.89 198.152 1194.68 197.051 1198.14 197.051C1200.42 197.051 1202.45 197.543 1204.22 198.526C1205.99 199.509 1207.34 200.906 1208.29 202.715C1209.27 204.524 1209.76 206.609 1209.76 208.969V227.731C1209.76 230.091 1209.27 232.176 1208.29 233.985C1207.34 235.794 1205.99 237.191 1204.22 238.174C1202.45 239.157 1200.42 239.649 1198.14 239.649ZM1198.14 232.51C1199.12 232.51 1199.91 232.117 1200.5 231.33C1201.13 230.543 1201.44 229.501 1201.44 228.203V208.497C1201.44 207.199 1201.13 206.157 1200.5 205.37C1199.91 204.583 1199.12 204.19 1198.14 204.19C1197.16 204.19 1196.37 204.583 1195.78 205.37C1195.19 206.157 1194.89 207.199 1194.89 208.497V228.203C1194.89 229.501 1195.19 230.543 1195.78 231.33C1196.37 232.117 1197.16 232.51 1198.14 232.51ZM1104.87 256.641C1107.03 256.641 1108.96 257.172 1110.65 258.234C1112.34 259.296 1113.64 260.791 1114.55 262.718C1115.49 264.606 1115.96 266.769 1115.96 269.208C1115.96 272.866 1114.98 275.796 1113.01 277.999C1111.05 280.202 1108.47 281.303 1105.28 281.303H1100.86C1100.66 281.303 1100.56 281.401 1100.56 281.598V297.292C1100.56 297.489 1100.49 297.666 1100.33 297.823C1100.21 297.941 1100.05 298 1099.86 298H1092.95C1092.76 298 1092.58 297.941 1092.42 297.823C1092.3 297.666 1092.25 297.489 1092.25 297.292V257.349C1092.25 257.152 1092.3 256.995 1092.42 256.877C1092.58 256.72 1092.76 256.641 1092.95 256.641H1104.87ZM1103.46 274.813C1104.71 274.813 1105.72 274.341 1106.46 273.397C1107.25 272.414 1107.64 271.076 1107.64 269.385C1107.64 267.654 1107.25 266.297 1106.46 265.314C1105.72 264.331 1104.71 263.839 1103.46 263.839H1100.86C1100.66 263.839 1100.56 263.937 1100.56 264.134V274.518C1100.56 274.715 1100.66 274.813 1100.86 274.813H1103.46ZM1120.44 298C1120.24 298 1120.06 297.941 1119.91 297.823C1119.79 297.666 1119.73 297.489 1119.73 297.292V257.408C1119.73 257.211 1119.79 257.054 1119.91 256.936C1120.06 256.779 1120.24 256.7 1120.44 256.7H1127.34C1127.54 256.7 1127.69 256.779 1127.81 256.936C1127.97 257.054 1128.05 257.211 1128.05 257.408V297.292C1128.05 297.489 1127.97 297.666 1127.81 297.823C1127.69 297.941 1127.54 298 1127.34 298H1120.44ZM1134.04 298C1133.84 298 1133.66 297.941 1133.5 297.823C1133.39 297.666 1133.33 297.489 1133.33 297.292V257.408C1133.33 257.211 1133.39 257.054 1133.5 256.936C1133.66 256.779 1133.84 256.7 1134.04 256.7H1140.94C1141.14 256.7 1141.29 256.779 1141.41 256.936C1141.57 257.054 1141.65 257.211 1141.65 257.408V290.566C1141.65 290.763 1141.74 290.861 1141.94 290.861H1154.33C1154.53 290.861 1154.69 290.94 1154.8 291.097C1154.96 291.215 1155.04 291.372 1155.04 291.569V297.292C1155.04 297.489 1154.96 297.666 1154.8 297.823C1154.69 297.941 1154.53 298 1154.33 298H1134.04ZM1170.01 298.472C1166.47 298.472 1163.62 297.371 1161.46 295.168C1159.33 292.926 1158.27 289.956 1158.27 286.259V257.408C1158.27 257.211 1158.33 257.054 1158.45 256.936C1158.61 256.779 1158.78 256.7 1158.98 256.7H1165.88C1166.08 256.7 1166.24 256.779 1166.35 256.936C1166.51 257.054 1166.59 257.211 1166.59 257.408V287.085C1166.59 288.344 1166.91 289.366 1167.53 290.153C1168.16 290.94 1168.99 291.333 1170.01 291.333C1171.04 291.333 1171.84 290.94 1172.43 290.153C1173.06 289.366 1173.38 288.344 1173.38 287.085V257.408C1173.38 257.211 1173.43 257.054 1173.55 256.936C1173.71 256.779 1173.89 256.7 1174.08 256.7H1180.99C1181.18 256.7 1181.34 256.779 1181.46 256.936C1181.62 257.054 1181.69 257.211 1181.69 257.408V286.259C1181.69 289.956 1180.61 292.926 1178.45 295.168C1176.33 297.371 1173.51 298.472 1170.01 298.472ZM1187.39 298C1187.19 298 1187.02 297.941 1186.86 297.823C1186.74 297.666 1186.68 297.489 1186.68 297.292V257.408C1186.68 257.211 1186.74 257.054 1186.86 256.936C1187.02 256.779 1187.19 256.7 1187.39 256.7H1194.29C1194.49 256.7 1194.65 256.779 1194.76 256.936C1194.92 257.054 1195 257.211 1195 257.408V290.566C1195 290.763 1195.1 290.861 1195.29 290.861H1207.68C1207.88 290.861 1208.04 290.94 1208.16 291.097C1208.31 291.215 1208.39 291.372 1208.39 291.569V297.292C1208.39 297.489 1208.31 297.666 1208.16 297.823C1208.04 297.941 1207.88 298 1207.68 298H1187.39ZM1233.46 263.131C1233.46 263.328 1233.38 263.505 1233.22 263.662C1233.1 263.78 1232.94 263.839 1232.75 263.839H1220.42C1220.22 263.839 1220.12 263.937 1220.12 264.134V273.456C1220.12 273.653 1220.22 273.751 1220.42 273.751H1227.5C1227.69 273.751 1227.85 273.83 1227.97 273.987C1228.13 274.105 1228.2 274.262 1228.2 274.459V280.182C1228.2 280.379 1228.13 280.556 1227.97 280.713C1227.85 280.831 1227.69 280.89 1227.5 280.89H1220.42C1220.22 280.89 1220.12 280.988 1220.12 281.185V290.566C1220.12 290.763 1220.22 290.861 1220.42 290.861H1232.75C1232.94 290.861 1233.1 290.94 1233.22 291.097C1233.38 291.215 1233.46 291.372 1233.46 291.569V297.292C1233.46 297.489 1233.38 297.666 1233.22 297.823C1233.1 297.941 1232.94 298 1232.75 298H1212.51C1212.31 298 1212.14 297.941 1211.98 297.823C1211.86 297.666 1211.8 297.489 1211.8 297.292V257.408C1211.8 257.211 1211.86 257.054 1211.98 256.936C1212.14 256.779 1212.31 256.7 1212.51 256.7H1232.75C1232.94 256.7 1233.1 256.779 1233.22 256.936C1233.38 257.054 1233.46 257.211 1233.46 257.408V263.131ZM1248.29 298.472C1246.01 298.472 1244 298.02 1242.27 297.115C1240.54 296.21 1239.21 294.952 1238.26 293.339C1237.32 291.687 1236.85 289.799 1236.85 287.675V285.964C1236.85 285.767 1236.91 285.61 1237.02 285.492C1237.18 285.335 1237.36 285.256 1237.55 285.256H1244.34C1244.54 285.256 1244.69 285.335 1244.81 285.492C1244.97 285.61 1245.05 285.767 1245.05 285.964V287.262C1245.05 288.481 1245.36 289.465 1245.99 290.212C1246.62 290.959 1247.41 291.333 1248.35 291.333C1249.3 291.333 1250.08 290.979 1250.71 290.271C1251.34 289.563 1251.66 288.639 1251.66 287.498C1251.66 286.318 1251.26 285.315 1250.48 284.489C1249.69 283.624 1248.15 282.365 1245.87 280.713C1243.91 279.297 1242.31 278.038 1241.09 276.937C1239.87 275.836 1238.83 274.479 1237.97 272.866C1237.1 271.253 1236.67 269.385 1236.67 267.261C1236.67 263.918 1237.71 261.243 1239.8 259.237C1241.88 257.231 1244.63 256.228 1248.06 256.228C1251.52 256.228 1254.29 257.27 1256.38 259.355C1258.5 261.44 1259.56 264.173 1259.56 267.556V268.972C1259.56 269.169 1259.48 269.346 1259.33 269.503C1259.21 269.621 1259.05 269.68 1258.85 269.68H1252.07C1251.87 269.68 1251.69 269.621 1251.54 269.503C1251.42 269.346 1251.36 269.169 1251.36 268.972V267.379C1251.36 266.16 1251.05 265.196 1250.42 264.488C1249.83 263.741 1249.04 263.367 1248.06 263.367C1247.11 263.367 1246.35 263.721 1245.76 264.429C1245.17 265.098 1244.87 266.042 1244.87 267.261C1244.87 268.441 1245.24 269.483 1245.99 270.388C1246.74 271.293 1248.21 272.551 1250.42 274.164C1252.85 275.973 1254.68 277.448 1255.9 278.589C1257.16 279.69 1258.13 280.929 1258.79 282.306C1259.5 283.643 1259.86 285.256 1259.86 287.144C1259.86 290.605 1258.79 293.359 1256.67 295.404C1254.55 297.449 1251.75 298.472 1248.29 298.472Z" fill="black"/>
<path d="M1023.07 698.68V696.02H1031.63V698.18L1028.77 701.44C1029.89 701.627 1030.76 702.1 1031.37 702.86C1031.98 703.607 1032.29 704.473 1032.29 705.46C1032.29 706.927 1031.79 708.08 1030.79 708.92C1029.8 709.747 1028.54 710.16 1026.99 710.16C1025.44 710.16 1023.88 709.613 1022.29 708.52L1023.57 706.04C1024.89 706.973 1026.07 707.44 1027.11 707.44C1027.74 707.44 1028.25 707.287 1028.65 706.98C1029.06 706.673 1029.27 706.233 1029.27 705.66C1029.27 705.073 1029.04 704.613 1028.57 704.28C1028.1 703.933 1027.46 703.76 1026.63 703.76C1026.19 703.76 1025.57 703.887 1024.77 704.14V701.84L1027.45 698.68H1023.07ZM1043.5 696.02V698.72H1037.98V701.06C1038.4 700.94 1038.87 700.88 1039.4 700.88C1040.75 700.88 1041.91 701.287 1042.88 702.1C1043.86 702.913 1044.34 704.013 1044.34 705.4C1044.34 706.773 1043.84 707.913 1042.82 708.82C1041.82 709.713 1040.58 710.16 1039.1 710.16C1037.21 710.16 1035.63 709.46 1034.36 708.06L1036 705.78C1036.12 705.9 1036.28 706.047 1036.48 706.22C1036.68 706.393 1037.05 706.627 1037.58 706.92C1038.12 707.2 1038.65 707.34 1039.18 707.34C1039.72 707.34 1040.19 707.18 1040.6 706.86C1041.02 706.54 1041.22 706.067 1041.22 705.44C1041.22 704.813 1041 704.333 1040.54 704C1040.1 703.653 1039.53 703.48 1038.82 703.48C1038.12 703.48 1037.3 703.733 1036.36 704.24L1035.06 702.84V696.02H1043.5ZM1054.26 704.4C1054.26 703.533 1054.02 702.853 1053.54 702.36C1053.06 701.867 1052.47 701.62 1051.76 701.62C1051.05 701.62 1050.44 701.867 1049.92 702.36C1049.41 702.853 1049.16 703.527 1049.16 704.38C1049.16 705.233 1049.41 705.927 1049.9 706.46C1050.41 706.98 1051.02 707.24 1051.74 707.24C1052.46 707.24 1053.06 706.98 1053.54 706.46C1054.02 705.94 1054.26 705.253 1054.26 704.4ZM1054.68 708.18C1053.73 709.233 1052.55 709.76 1051.14 709.76C1049.74 709.76 1048.55 709.287 1047.58 708.34C1046.62 707.38 1046.14 706.107 1046.14 704.52C1046.14 702.92 1046.63 701.613 1047.62 700.6C1048.62 699.573 1049.76 699.06 1051.04 699.06C1052.32 699.06 1053.38 699.587 1054.22 700.64V699.22H1057.22V708.6C1057.22 709.56 1057.05 710.413 1056.72 711.16C1056.39 711.907 1055.94 712.493 1055.38 712.92C1054.27 713.8 1052.97 714.24 1051.46 714.24C1050.66 714.24 1049.84 714.107 1049 713.84C1048.17 713.587 1047.45 713.22 1046.82 712.74L1047.98 710.48C1048.97 711.227 1050.01 711.6 1051.1 711.6C1052.21 711.6 1053.08 711.327 1053.72 710.78C1054.36 710.233 1054.68 709.367 1054.68 708.18ZM1065.25 705.32V702.66H1072.37V705.32H1065.25ZM1084.71 710.16C1083.44 710.16 1082.31 709.62 1081.31 708.54C1080.31 707.46 1079.81 706.12 1079.81 704.52C1079.81 702.92 1080.3 701.613 1081.27 700.6C1082.24 699.573 1083.38 699.06 1084.69 699.06C1086 699.06 1087.06 699.52 1087.89 700.44V695.16H1090.89V710H1087.89V708.58C1087.05 709.633 1085.99 710.16 1084.71 710.16ZM1082.83 704.64C1082.83 705.507 1083.09 706.22 1083.61 706.78C1084.13 707.327 1084.74 707.6 1085.43 707.6C1086.12 707.6 1086.71 707.327 1087.19 706.78C1087.68 706.22 1087.93 705.507 1087.93 704.64C1087.93 703.76 1087.68 703.033 1087.19 702.46C1086.71 701.873 1086.12 701.58 1085.41 701.58C1084.7 701.58 1084.1 701.873 1083.59 702.46C1083.08 703.047 1082.83 703.773 1082.83 704.64ZM1096.13 704.62C1096.13 705.5 1096.38 706.22 1096.87 706.78C1097.38 707.327 1098.02 707.6 1098.79 707.6C1099.58 707.6 1100.22 707.327 1100.71 706.78C1101.22 706.22 1101.47 705.5 1101.47 704.62C1101.47 703.74 1101.22 703.02 1100.71 702.46C1100.22 701.9 1099.58 701.62 1098.79 701.62C1098.02 701.62 1097.38 701.9 1096.87 702.46C1096.38 703.02 1096.13 703.74 1096.13 704.62ZM1104.49 704.62C1104.49 706.18 1103.95 707.493 1102.87 708.56C1101.79 709.627 1100.43 710.16 1098.79 710.16C1097.16 710.16 1095.81 709.627 1094.73 708.56C1093.65 707.493 1093.11 706.18 1093.11 704.62C1093.11 703.06 1093.65 701.747 1094.73 700.68C1095.81 699.6 1097.16 699.06 1098.79 699.06C1100.43 699.06 1101.79 699.6 1102.87 700.68C1103.95 701.747 1104.49 703.06 1104.49 704.62ZM1114.72 706.66C1114.72 707.713 1114.33 708.56 1113.54 709.2C1112.77 709.84 1111.78 710.16 1110.58 710.16C1109.78 710.16 1108.95 710.02 1108.08 709.74C1107.21 709.447 1106.43 709.02 1105.74 708.46L1107.06 706.58C1108.18 707.447 1109.37 707.88 1110.64 707.88C1111.03 707.88 1111.33 707.807 1111.56 707.66C1111.79 707.5 1111.9 707.293 1111.9 707.04C1111.9 706.787 1111.74 706.553 1111.42 706.34C1111.11 706.127 1110.66 705.927 1110.06 705.74C1109.47 705.553 1109.02 705.393 1108.7 705.26C1108.39 705.127 1108.04 704.933 1107.64 704.68C1106.83 704.173 1106.42 703.427 1106.42 702.44C1106.42 701.44 1106.82 700.627 1107.62 700C1108.42 699.373 1109.45 699.06 1110.72 699.06C1111.99 699.06 1113.25 699.487 1114.52 700.34L1113.4 702.34C1112.47 701.7 1111.53 701.38 1110.6 701.38C1109.68 701.38 1109.22 701.633 1109.22 702.14C1109.22 702.42 1109.37 702.64 1109.66 702.8C1109.95 702.96 1110.44 703.147 1111.12 703.36C1111.8 703.573 1112.28 703.74 1112.56 703.86C1112.85 703.967 1113.2 704.14 1113.6 704.38C1114.35 704.833 1114.72 705.593 1114.72 706.66ZM1126.33 708.44C1125.12 709.587 1123.69 710.16 1122.05 710.16C1120.43 710.16 1119.08 709.66 1118.01 708.66C1116.95 707.647 1116.41 706.293 1116.41 704.6C1116.41 702.907 1116.95 701.56 1118.03 700.56C1119.13 699.56 1120.41 699.06 1121.89 699.06C1123.37 699.06 1124.63 699.507 1125.65 700.4C1126.69 701.293 1127.21 702.52 1127.21 704.08V705.68H1119.37C1119.47 706.267 1119.77 706.747 1120.29 707.12C1120.81 707.493 1121.4 707.68 1122.05 707.68C1123.11 707.68 1123.97 707.327 1124.65 706.62L1126.33 708.44ZM1124.17 703.54C1124.11 702.9 1123.87 702.407 1123.45 702.06C1123.04 701.713 1122.53 701.54 1121.93 701.54C1121.35 701.54 1120.81 701.72 1120.31 702.08C1119.82 702.44 1119.53 702.927 1119.45 703.54H1124.17ZM1143.97 708.44C1142.76 709.587 1141.33 710.16 1139.69 710.16C1138.06 710.16 1136.72 709.66 1135.65 708.66C1134.58 707.647 1134.05 706.293 1134.05 704.6C1134.05 702.907 1134.59 701.56 1135.67 700.56C1136.76 699.56 1138.05 699.06 1139.53 699.06C1141.01 699.06 1142.26 699.507 1143.29 700.4C1144.33 701.293 1144.85 702.52 1144.85 704.08V705.68H1137.01C1137.1 706.267 1137.41 706.747 1137.93 707.12C1138.45 707.493 1139.04 707.68 1139.69 707.68C1140.74 707.68 1141.61 707.327 1142.29 706.62L1143.97 708.44ZM1141.81 703.54C1141.74 702.9 1141.5 702.407 1141.09 702.06C1140.68 701.713 1140.17 701.54 1139.57 701.54C1138.98 701.54 1138.44 701.72 1137.95 702.08C1137.46 702.44 1137.17 702.927 1137.09 703.54H1141.81ZM1140.45 697.78H1137.59L1140.13 694.24L1143.23 695.54L1140.45 697.78ZM1151.55 710.16C1150.18 710.16 1148.98 709.647 1147.95 708.62C1146.93 707.58 1146.41 706.253 1146.41 704.64C1146.41 703.013 1146.91 701.68 1147.91 700.64C1148.91 699.587 1150.03 699.06 1151.25 699.06C1152.48 699.06 1153.55 699.52 1154.47 700.44V699.24H1157.49V713.88H1154.47V709.14C1153.62 709.82 1152.65 710.16 1151.55 710.16ZM1149.43 704.64C1149.43 705.507 1149.69 706.22 1150.21 706.78C1150.73 707.327 1151.34 707.6 1152.03 707.6C1152.73 707.6 1153.31 707.327 1153.79 706.78C1154.27 706.22 1154.51 705.507 1154.51 704.64C1154.51 703.76 1154.27 703.033 1153.79 702.46C1153.31 701.873 1152.72 701.58 1152.01 701.58C1151.31 701.58 1150.7 701.873 1150.19 702.46C1149.69 703.033 1149.43 703.76 1149.43 704.64ZM1167.27 705.04V699.24H1170.29V710H1167.27V708.58C1166.53 709.633 1165.56 710.16 1164.37 710.16C1163.2 710.16 1162.21 709.793 1161.41 709.06C1160.61 708.313 1160.21 707.213 1160.21 705.76V699.24H1163.23V705.1C1163.23 706.753 1163.84 707.58 1165.05 707.58C1165.65 707.58 1166.17 707.367 1166.61 706.94C1167.05 706.5 1167.27 705.867 1167.27 705.04ZM1176.13 710H1173.13V699.24H1176.13V710ZM1173.37 697.88C1173.03 697.533 1172.87 697.113 1172.87 696.62C1172.87 696.127 1173.03 695.713 1173.37 695.38C1173.71 695.033 1174.13 694.86 1174.63 694.86C1175.12 694.86 1175.53 695.033 1175.87 695.38C1176.21 695.713 1176.39 696.127 1176.39 696.62C1176.39 697.113 1176.21 697.533 1175.87 697.88C1175.53 698.213 1175.12 698.38 1174.63 698.38C1174.13 698.38 1173.71 698.213 1173.37 697.88ZM1181.86 710L1177.6 699.22H1180.72L1183.4 706L1186.08 699.22H1189.2L1184.94 710H1181.86ZM1199.69 710H1196.87V708.7C1196.09 709.673 1195.13 710.16 1193.99 710.16C1192.85 710.16 1191.9 709.833 1191.13 709.18C1190.35 708.513 1189.97 707.633 1189.97 706.54C1189.97 705.433 1190.37 704.607 1191.17 704.06C1191.97 703.513 1193.06 703.24 1194.45 703.24H1196.69V703.18C1196.69 702.033 1196.08 701.46 1194.87 701.46C1194.35 701.46 1193.79 701.567 1193.21 701.78C1192.63 701.98 1192.15 702.233 1191.75 702.54L1190.41 700.6C1191.82 699.573 1193.43 699.06 1195.25 699.06C1196.55 699.06 1197.62 699.387 1198.45 700.04C1199.27 700.693 1199.69 701.727 1199.69 703.14V710ZM1196.67 705.9V705.38H1194.79C1193.59 705.38 1192.99 705.753 1192.99 706.5C1192.99 706.887 1193.13 707.187 1193.41 707.4C1193.7 707.6 1194.11 707.7 1194.65 707.7C1195.18 707.7 1195.65 707.54 1196.05 707.22C1196.46 706.887 1196.67 706.447 1196.67 705.9ZM1205.42 710H1202.42V695.16H1205.42V710ZM1217.58 708.44C1216.37 709.587 1214.94 710.16 1213.3 710.16C1211.68 710.16 1210.33 709.66 1209.26 708.66C1208.2 707.647 1207.66 706.293 1207.66 704.6C1207.66 702.907 1208.2 701.56 1209.28 700.56C1210.38 699.56 1211.66 699.06 1213.14 699.06C1214.62 699.06 1215.88 699.507 1216.9 700.4C1217.94 701.293 1218.46 702.52 1218.46 704.08V705.68H1210.62C1210.72 706.267 1211.02 706.747 1211.54 707.12C1212.06 707.493 1212.65 707.68 1213.3 707.68C1214.36 707.68 1215.22 707.327 1215.9 706.62L1217.58 708.44ZM1215.42 703.54C1215.36 702.9 1215.12 702.407 1214.7 702.06C1214.29 701.713 1213.78 701.54 1213.18 701.54C1212.6 701.54 1212.06 701.72 1211.56 702.08C1211.07 702.44 1210.78 702.927 1210.7 703.54H1215.42ZM1223.63 704V710H1220.63V699.24H1223.63V700.44C1224.53 699.52 1225.55 699.06 1226.69 699.06C1227.82 699.06 1228.77 699.46 1229.53 700.26C1230.3 701.06 1230.69 702.127 1230.69 703.46V710H1227.69V703.92C1227.69 702.267 1227.08 701.44 1225.87 701.44C1225.27 701.44 1224.74 701.66 1224.29 702.1C1223.85 702.527 1223.63 703.16 1223.63 704ZM1236.82 701.4V706.22C1236.82 706.633 1236.93 706.96 1237.14 707.2C1237.36 707.427 1237.61 707.54 1237.9 707.54C1238.46 707.54 1238.94 707.287 1239.32 706.78L1240.44 708.88C1239.51 709.733 1238.52 710.16 1237.48 710.16C1236.46 710.16 1235.58 709.82 1234.86 709.14C1234.16 708.46 1233.8 707.533 1233.8 706.36V701.4H1232.54V699.24H1233.8V696.02H1236.82V699.24H1239.42V701.4H1236.82ZM1251.37 708.44C1250.16 709.587 1248.73 710.16 1247.09 710.16C1245.46 710.16 1244.12 709.66 1243.05 708.66C1241.98 707.647 1241.45 706.293 1241.45 704.6C1241.45 702.907 1241.99 701.56 1243.07 700.56C1244.16 699.56 1245.45 699.06 1246.93 699.06C1248.41 699.06 1249.66 699.507 1250.69 700.4C1251.73 701.293 1252.25 702.52 1252.25 704.08V705.68H1244.41C1244.5 706.267 1244.81 706.747 1245.33 707.12C1245.85 707.493 1246.44 707.68 1247.09 707.68C1248.14 707.68 1249.01 707.327 1249.69 706.62L1251.37 708.44ZM1249.21 703.54C1249.14 702.9 1248.9 702.407 1248.49 702.06C1248.08 701.713 1247.57 701.54 1246.97 701.54C1246.38 701.54 1245.84 701.72 1245.35 702.08C1244.86 702.44 1244.57 702.927 1244.49 703.54H1249.21ZM1265.95 699.06C1267.2 699.06 1268.31 699.587 1269.29 700.64C1270.27 701.68 1270.77 702.993 1270.77 704.58C1270.77 706.167 1270.27 707.493 1269.29 708.56C1268.31 709.627 1267.17 710.16 1265.85 710.16C1264.54 710.16 1263.49 709.633 1262.69 708.58V713.88H1259.69V699.24H1262.69V700.44C1263.61 699.52 1264.69 699.06 1265.95 699.06ZM1262.65 704.64C1262.65 705.507 1262.89 706.22 1263.37 706.78C1263.86 707.327 1264.45 707.6 1265.15 707.6C1265.84 707.6 1266.45 707.327 1266.97 706.78C1267.49 706.22 1267.75 705.507 1267.75 704.64C1267.75 703.773 1267.49 703.047 1266.99 702.46C1266.48 701.873 1265.87 701.58 1265.17 701.58C1264.46 701.58 1263.86 701.873 1263.37 702.46C1262.89 703.033 1262.65 703.76 1262.65 704.64ZM1275.41 704.62C1275.41 705.5 1275.65 706.22 1276.15 706.78C1276.65 707.327 1277.29 707.6 1278.07 707.6C1278.85 707.6 1279.49 707.327 1279.99 706.78C1280.49 706.22 1280.75 705.5 1280.75 704.62C1280.75 703.74 1280.49 703.02 1279.99 702.46C1279.49 701.9 1278.85 701.62 1278.07 701.62C1277.29 701.62 1276.65 701.9 1276.15 702.46C1275.65 703.02 1275.41 703.74 1275.41 704.62ZM1283.77 704.62C1283.77 706.18 1283.23 707.493 1282.15 708.56C1281.07 709.627 1279.71 710.16 1278.07 710.16C1276.44 710.16 1275.09 709.627 1274.01 708.56C1272.93 707.493 1272.39 706.18 1272.39 704.62C1272.39 703.06 1272.93 701.747 1274.01 700.68C1275.09 699.6 1276.44 699.06 1278.07 699.06C1279.71 699.06 1281.07 699.6 1282.15 700.68C1283.23 701.747 1283.77 703.06 1283.77 704.62ZM1292.94 705.04V699.24H1295.96V710H1292.94V708.58C1292.19 709.633 1291.22 710.16 1290.04 710.16C1288.86 710.16 1287.88 709.793 1287.08 709.06C1286.28 708.313 1285.88 707.213 1285.88 705.76V699.24H1288.9V705.1C1288.9 706.753 1289.5 707.58 1290.72 707.58C1291.32 707.58 1291.84 707.367 1292.28 706.94C1292.72 706.5 1292.94 705.867 1292.94 705.04ZM1304.45 701.88C1303.56 701.88 1302.89 702.2 1302.45 702.84C1302.01 703.467 1301.79 704.3 1301.79 705.34V710H1298.79V699.24H1301.79V700.66C1302.18 700.22 1302.66 699.847 1303.23 699.54C1303.82 699.233 1304.41 699.073 1305.01 699.06L1305.03 701.88H1304.45ZM1319.23 705.04V699.24H1322.25V710H1319.23V708.58C1318.48 709.633 1317.51 710.16 1316.33 710.16C1315.15 710.16 1314.17 709.793 1313.37 709.06C1312.57 708.313 1312.17 707.213 1312.17 705.76V699.24H1315.19V705.1C1315.19 706.753 1315.79 707.58 1317.01 707.58C1317.61 707.58 1318.13 707.367 1318.57 706.94C1319.01 706.5 1319.23 705.867 1319.23 705.04ZM1328.08 704V710H1325.08V699.24H1328.08V700.44C1328.98 699.52 1330 699.06 1331.14 699.06C1332.27 699.06 1333.22 699.46 1333.98 700.26C1334.75 701.06 1335.14 702.127 1335.14 703.46V710H1332.14V703.92C1332.14 702.267 1331.53 701.44 1330.32 701.44C1329.72 701.44 1329.19 701.66 1328.74 702.1C1328.3 702.527 1328.08 703.16 1328.08 704ZM1103.16 733.2V739H1100.16V724.16H1103.16V729.44C1104.06 728.52 1105.08 728.06 1106.2 728.06C1107.33 728.06 1108.28 728.46 1109.06 729.26C1109.83 730.06 1110.22 731.127 1110.22 732.46V739H1107.22V733.12C1107.22 731.467 1106.61 730.64 1105.4 730.64C1104.8 730.64 1104.27 730.86 1103.82 731.3C1103.38 731.727 1103.16 732.36 1103.16 733.2ZM1119.87 734.04V728.24H1122.89V739H1119.87V737.58C1119.12 738.633 1118.16 739.16 1116.97 739.16C1115.8 739.16 1114.81 738.793 1114.01 738.06C1113.21 737.313 1112.81 736.213 1112.81 734.76V728.24H1115.83V734.1C1115.83 735.753 1116.44 736.58 1117.65 736.58C1118.25 736.58 1118.77 736.367 1119.21 735.94C1119.65 735.5 1119.87 734.867 1119.87 734.04ZM1135.6 733.2V739H1132.58V733.12C1132.58 732.267 1132.45 731.64 1132.18 731.24C1131.93 730.84 1131.51 730.64 1130.92 730.64C1130.35 730.64 1129.84 730.86 1129.38 731.3C1128.94 731.727 1128.72 732.36 1128.72 733.2V739H1125.72V728.24H1128.72V729.46C1129.55 728.527 1130.5 728.06 1131.56 728.06C1132.24 728.06 1132.86 728.26 1133.4 728.66C1133.96 729.06 1134.38 729.547 1134.66 730.12C1135.08 729.467 1135.63 728.96 1136.32 728.6C1137.03 728.24 1137.74 728.06 1138.44 728.06C1139.71 728.06 1140.73 728.44 1141.5 729.2C1142.28 729.947 1142.66 731.033 1142.66 732.46V739H1139.64V733.12C1139.64 731.467 1139.04 730.64 1137.82 730.64C1137.22 730.64 1136.7 730.86 1136.26 731.3C1135.82 731.727 1135.6 732.36 1135.6 733.2ZM1154.53 739H1151.71V737.7C1150.94 738.673 1149.98 739.16 1148.83 739.16C1147.7 739.16 1146.74 738.833 1145.97 738.18C1145.2 737.513 1144.81 736.633 1144.81 735.54C1144.81 734.433 1145.21 733.607 1146.01 733.06C1146.81 732.513 1147.9 732.24 1149.29 732.24H1151.53V732.18C1151.53 731.033 1150.92 730.46 1149.71 730.46C1149.19 730.46 1148.64 730.567 1148.05 730.78C1147.48 730.98 1146.99 731.233 1146.59 731.54L1145.25 729.6C1146.66 728.573 1148.28 728.06 1150.09 728.06C1151.4 728.06 1152.46 728.387 1153.29 729.04C1154.12 729.693 1154.53 730.727 1154.53 732.14V739ZM1151.51 734.9V734.38H1149.63C1148.43 734.38 1147.83 734.753 1147.83 735.5C1147.83 735.887 1147.97 736.187 1148.25 736.4C1148.54 736.6 1148.96 736.7 1149.49 736.7C1150.02 736.7 1150.49 736.54 1150.89 736.22C1151.3 735.887 1151.51 735.447 1151.51 734.9ZM1160.27 739H1157.27V728.24H1160.27V739ZM1157.51 726.88C1157.17 726.533 1157.01 726.113 1157.01 725.62C1157.01 725.127 1157.17 724.713 1157.51 724.38C1157.85 724.033 1158.27 723.86 1158.77 723.86C1159.26 723.86 1159.67 724.033 1160.01 724.38C1160.35 724.713 1160.53 725.127 1160.53 725.62C1160.53 726.113 1160.35 726.533 1160.01 726.88C1159.67 727.213 1159.26 727.38 1158.77 727.38C1158.27 727.38 1157.85 727.213 1157.51 726.88ZM1166.11 733V739H1163.11V728.24H1166.11V729.44C1167.01 728.52 1168.03 728.06 1169.17 728.06C1170.3 728.06 1171.25 728.46 1172.01 729.26C1172.78 730.06 1173.17 731.127 1173.17 732.46V739H1170.17V732.92C1170.17 731.267 1169.56 730.44 1168.35 730.44C1167.75 730.44 1167.22 730.66 1166.77 731.1C1166.33 731.527 1166.11 732.16 1166.11 733ZM1185.45 739.16C1184.19 739.16 1183.05 738.62 1182.05 737.54C1181.05 736.46 1180.55 735.12 1180.55 733.52C1180.55 731.92 1181.04 730.613 1182.01 729.6C1182.99 728.573 1184.13 728.06 1185.43 728.06C1186.74 728.06 1187.81 728.52 1188.63 729.44V724.16H1191.63V739H1188.63V737.58C1187.79 738.633 1186.73 739.16 1185.45 739.16ZM1183.57 733.64C1183.57 734.507 1183.83 735.22 1184.35 735.78C1184.87 736.327 1185.48 736.6 1186.17 736.6C1186.87 736.6 1187.45 736.327 1187.93 735.78C1188.43 735.22 1188.67 734.507 1188.67 733.64C1188.67 732.76 1188.43 732.033 1187.93 731.46C1187.45 730.873 1186.86 730.58 1186.15 730.58C1185.45 730.58 1184.84 730.873 1184.33 731.46C1183.83 732.047 1183.57 732.773 1183.57 733.64ZM1203.79 737.44C1202.58 738.587 1201.15 739.16 1199.51 739.16C1197.89 739.16 1196.54 738.66 1195.47 737.66C1194.41 736.647 1193.87 735.293 1193.87 733.6C1193.87 731.907 1194.41 730.56 1195.49 729.56C1196.59 728.56 1197.87 728.06 1199.35 728.06C1200.83 728.06 1202.09 728.507 1203.11 729.4C1204.15 730.293 1204.67 731.52 1204.67 733.08V734.68H1196.83C1196.93 735.267 1197.23 735.747 1197.75 736.12C1198.27 736.493 1198.86 736.68 1199.51 736.68C1200.57 736.68 1201.43 736.327 1202.11 735.62L1203.79 737.44ZM1201.63 732.54C1201.57 731.9 1201.33 731.407 1200.91 731.06C1200.5 730.713 1199.99 730.54 1199.39 730.54C1198.81 730.54 1198.27 730.72 1197.77 731.08C1197.28 731.44 1196.99 731.927 1196.91 732.54H1201.63ZM1211.63 729.5V725.02H1221.73V727.38L1216.07 739H1212.67L1218.07 727.7H1214.55V729.5H1211.63ZM1228.61 732.96V730.52H1231.61V732.96H1233.19V735.66H1231.61V739H1228.61V735.66H1222.99V733.28L1227.97 725.02H1231.37L1226.63 732.96H1228.61ZM1238.45 739H1235.45V724.16H1238.45V731.78L1241.79 728.22H1245.57L1241.47 732.58L1245.73 739H1242.17L1239.43 734.88L1238.45 735.9V739ZM1254.88 733.4C1254.88 732.533 1254.64 731.853 1254.16 731.36C1253.68 730.867 1253.09 730.62 1252.38 730.62C1251.68 730.62 1251.06 730.867 1250.54 731.36C1250.04 731.853 1249.78 732.527 1249.78 733.38C1249.78 734.233 1250.03 734.927 1250.52 735.46C1251.03 735.98 1251.64 736.24 1252.36 736.24C1253.08 736.24 1253.68 735.98 1254.16 735.46C1254.64 734.94 1254.88 734.253 1254.88 733.4ZM1255.3 737.18C1254.36 738.233 1253.18 738.76 1251.76 738.76C1250.36 738.76 1249.18 738.287 1248.2 737.34C1247.24 736.38 1246.76 735.107 1246.76 733.52C1246.76 731.92 1247.26 730.613 1248.24 729.6C1249.24 728.573 1250.38 728.06 1251.66 728.06C1252.94 728.06 1254 728.587 1254.84 729.64V728.22H1257.84V737.6C1257.84 738.56 1257.68 739.413 1257.34 740.16C1257.01 740.907 1256.56 741.493 1256 741.92C1254.9 742.8 1253.59 743.24 1252.08 743.24C1251.28 743.24 1250.46 743.107 1249.62 742.84C1248.8 742.587 1248.07 742.22 1247.44 741.74L1248.6 739.48C1249.59 740.227 1250.63 740.6 1251.72 740.6C1252.83 740.6 1253.7 740.327 1254.34 739.78C1254.98 739.233 1255.3 738.367 1255.3 737.18Z" fill="black"/>
<path d="M979.395 538.796L975.537 540.27V544.4V561.637V561.66V566.537L980.311 567.533C1024.12 576.679 1057 615.486 1057 661.963V672H858V667.824C858 620.889 889.617 581.361 932.726 569.283L937.108 568.056V563.506V545.346V541.055L933.046 539.668C911.854 532.432 894.243 514.906 884.929 491.745L883.679 488.637L880.378 488.07C869.888 486.268 861.925 477.17 861.925 466.225C861.925 457.163 867.381 449.361 875.199 445.92L878.279 444.563L878.728 441.227C879.318 436.839 880.168 432.593 881.278 428.463L882.636 423.404L877.807 421.375C877.36 421.187 876.918 420.996 876.48 420.8C883.316 395.137 899.384 374.296 919.936 363.116L925.599 360.035L922.12 354.608C918.185 348.469 915.888 341.21 915.888 333.41C915.888 311.646 933.54 294 955.33 294C977.119 294 994.771 311.646 994.771 333.41C994.771 341.237 992.471 348.514 988.523 354.642L985.012 360.093L990.718 363.172C1011.5 374.385 1027.7 395.193 1034.59 420.81C1033.87 421.134 1033.15 421.441 1032.43 421.731L1027.5 423.713L1028.87 428.848C1029.89 432.652 1030.67 436.612 1031.24 440.664L1031.74 444.203L1035.09 445.451C1043.55 448.603 1049.56 456.716 1049.56 466.225C1049.56 477.598 1040.98 486.981 1029.92 488.253L1026.38 488.66L1025.04 491.961C1016.06 514.141 999.458 531.129 979.395 538.796Z" stroke="#13176F" stroke-width="12"/>
</svg>
