<svg width="1500" height="760" viewBox="0 0 1500 760" fill="none" xmlns="http://www.w3.org/2000/svg">
<g clip-path="url(#clip0_3277_38)">
<rect width="1500" height="760" fill="white"/>
<path d="M146.44 328.752H137.32V331.664H138.76C144.04 331.664 147.464 334.352 147.464 338.416C147.464 343.184 143.848 346.288 138.216 346.288C135.176 346.288 131.656 345.136 129.256 343.376L131.88 338.352C133.544 340.304 135.432 341.296 137.448 341.296C139.304 341.296 140.328 340.432 140.296 338.864C140.296 337.392 139.304 336.624 137.448 336.624C136.392 336.624 132.552 336.656 131.208 336.688V323.568H146.44V328.752ZM167.353 328.08L159.385 346H152.345L160.025 328.752H155.161V331.888H149.305V323.568H167.353V328.08ZM185.19 328.752H176.07V331.664H177.51C182.79 331.664 186.214 334.352 186.214 338.416C186.214 343.184 182.598 346.288 176.966 346.288C173.926 346.288 170.406 345.136 168.006 343.376L170.63 338.352C172.294 340.304 174.182 341.296 176.198 341.296C178.054 341.296 179.078 340.432 179.046 338.864C179.046 337.392 178.054 336.624 176.198 336.624C175.142 336.624 171.302 336.656 169.958 336.688V323.568H185.19V328.752ZM219.503 328.336C223.183 328.336 225.679 330.928 225.679 334.96V346H219.215V336.816C219.215 335.088 218.255 334 216.815 334C215.151 334.032 214.095 335.408 214.095 337.392V346H207.631V336.816C207.631 335.088 206.671 334 205.231 334C203.535 334.032 202.479 335.408 202.479 337.392V346H196.015V328.592H202.479V331.248C203.663 329.36 205.519 328.336 207.887 328.336C210.607 328.336 212.687 329.744 213.615 332.112C214.735 329.68 216.783 328.336 219.503 328.336ZM232.372 320.304C234.324 320.304 235.7 321.68 235.7 323.632C235.7 325.584 234.324 326.96 232.372 326.96C230.42 326.96 229.044 325.584 229.044 323.632C229.044 321.68 230.42 320.304 232.372 320.304ZM235.572 346H229.108V328.592H235.572V346ZM247.259 328.368C250.907 328.368 253.819 330.032 255.291 332.912L250.331 335.344C249.723 334.256 248.763 333.616 247.547 333.616C245.819 333.616 244.667 335.12 244.667 337.328C244.667 339.6 245.819 341.104 247.547 341.104C248.795 341.104 249.755 340.496 250.299 339.184L255.323 341.712C253.979 344.592 251.035 346.224 247.195 346.224C241.723 346.224 238.139 342.704 238.139 337.36C238.139 331.952 241.755 328.368 247.259 328.368ZM263.916 328.592V331.344C265.132 329.424 267.02 328.336 269.388 328.336V334.16C266.06 333.744 263.916 335.152 263.916 337.68V346H257.452V328.592H263.916ZM280.023 328.368C285.879 328.368 289.687 331.888 289.687 337.296C289.687 342.672 285.879 346.224 280.023 346.224C274.167 346.224 270.327 342.672 270.327 337.296C270.327 331.888 274.167 328.368 280.023 328.368ZM280.023 333.488C278.103 333.488 276.855 335.056 276.855 337.36C276.855 339.696 278.103 341.232 280.023 341.232C281.911 341.232 283.159 339.696 283.159 337.36C283.159 335.056 281.911 333.488 280.023 333.488ZM303.625 328.368C308.489 328.368 311.689 331.952 311.689 337.392C311.689 342.736 308.585 346.224 303.785 346.224C301.737 346.224 300.041 345.424 298.857 343.984V352.208H292.393V328.592H298.857V330.608C300.009 329.168 301.673 328.368 303.625 328.368ZM301.993 341.104C303.913 341.104 305.161 339.536 305.161 337.232C305.161 334.928 303.913 333.36 301.993 333.36C300.137 333.36 298.857 334.928 298.857 337.232C298.857 339.536 300.137 341.104 301.993 341.104ZM320.889 346H314.424V322.256H320.889V346ZM333.175 328.336C338.071 328.336 340.983 330.672 340.983 334.704V346H334.647V344.08C333.591 345.488 331.863 346.288 329.559 346.288C325.847 346.288 323.671 344.08 323.671 340.816C323.671 337.456 326.007 335.6 330.391 335.536H334.647V335.472C334.647 334.032 333.623 333.168 331.639 333.168C330.263 333.168 328.311 333.584 326.391 334.416L324.791 330.128C327.639 328.976 330.455 328.336 333.175 328.336ZM331.703 342.064C333.015 342.064 334.167 341.36 334.647 340.272V338.704H331.703C330.423 338.704 329.751 339.248 329.751 340.336C329.751 341.424 330.455 342.064 331.703 342.064ZM351.173 328.304C353.797 328.304 356.453 329.04 358.821 330.416L356.677 334.48C354.309 333.264 352.357 332.656 350.981 332.656C350.181 332.656 349.669 332.944 349.669 333.488C349.669 335.44 358.757 334.576 358.757 340.528C358.757 344.112 355.653 346.288 351.109 346.288C348.037 346.288 345.189 345.456 342.917 343.824L344.901 339.76C347.077 341.168 349.285 341.904 351.205 341.904C352.069 341.904 352.645 341.648 352.645 341.104C352.645 339.12 343.749 340.08 343.749 334.128C343.749 330.48 346.789 328.304 351.173 328.304ZM372.298 340.72L373.45 345.168C372.234 345.872 370.378 346.288 368.618 346.288C364.906 346.32 362.41 344.176 362.41 340.56V333.616H360.01V329.488H362.41V324.656H368.842V329.488H373.13V333.616H368.842V339.568C368.842 340.688 369.418 341.232 370.314 341.232C370.826 341.232 371.53 341.008 372.298 340.72ZM379.185 320.304C381.137 320.304 382.513 321.68 382.513 323.632C382.513 325.584 381.137 326.96 379.185 326.96C377.233 326.96 375.857 325.584 375.857 323.632C375.857 321.68 377.233 320.304 379.185 320.304ZM382.385 346H375.921V328.592H382.385V346ZM404.248 328.592V352.208H397.784V344.016C396.632 345.424 395 346.224 393.016 346.224C388.152 346.224 384.952 342.672 384.952 337.2C384.952 331.856 388.088 328.368 392.856 328.368C394.904 328.368 396.6 329.168 397.784 330.608V328.592H404.248ZM394.648 341.264C396.536 341.264 397.784 339.696 397.784 337.36C397.784 335.056 396.536 333.488 394.648 333.488C392.728 333.488 391.48 335.056 391.48 337.36C391.48 339.696 392.728 341.264 394.648 341.264ZM425.799 328.592V346H419.335V343.408C418.151 345.264 416.327 346.288 413.991 346.288C410.343 346.288 407.847 343.696 407.847 339.632V328.592H414.311V337.808C414.311 339.504 415.239 340.592 416.647 340.592C418.311 340.56 419.335 339.184 419.335 337.2V328.592H425.799ZM437.542 328.368C443.654 328.368 446.982 332.464 446.598 338.864H434.886C435.398 340.528 436.614 341.456 438.278 341.456C439.654 341.456 440.966 340.848 442.118 339.792L445.478 343.088C443.654 345.104 441.03 346.224 437.734 346.224C431.91 346.224 428.358 342.704 428.358 337.36C428.358 331.92 432.038 328.368 437.542 328.368ZM434.758 335.696H440.23C440.262 333.968 439.174 332.752 437.606 332.752C436.102 332.752 435.078 333.936 434.758 335.696ZM455.954 328.304C458.578 328.304 461.234 329.04 463.602 330.416L461.458 334.48C459.09 333.264 457.138 332.656 455.762 332.656C454.962 332.656 454.45 332.944 454.45 333.488C454.45 335.44 463.538 334.576 463.538 340.528C463.538 344.112 460.434 346.288 455.89 346.288C452.818 346.288 449.97 345.456 447.698 343.824L449.682 339.76C451.858 341.168 454.066 341.904 455.986 341.904C456.85 341.904 457.426 341.648 457.426 341.104C457.426 339.12 448.53 340.08 448.53 334.128C448.53 330.48 451.57 328.304 455.954 328.304ZM484.719 328.368C489.583 328.368 492.783 331.952 492.783 337.392C492.783 342.736 489.679 346.224 484.879 346.224C482.831 346.224 481.135 345.424 479.951 343.984V352.208H473.487V328.592H479.951V330.608C481.103 329.168 482.767 328.368 484.719 328.368ZM483.087 341.104C485.007 341.104 486.255 339.536 486.255 337.232C486.255 334.928 485.007 333.36 483.087 333.36C481.231 333.36 479.951 334.928 479.951 337.232C479.951 339.536 481.231 341.104 483.087 341.104ZM503.55 328.336C508.446 328.336 511.358 330.672 511.358 334.704V346H505.022V344.08C503.966 345.488 502.238 346.288 499.934 346.288C496.222 346.288 494.046 344.08 494.046 340.816C494.046 337.456 496.382 335.6 500.766 335.536H505.022V335.472C505.022 334.032 503.998 333.168 502.014 333.168C500.638 333.168 498.686 333.584 496.766 334.416L495.166 330.128C498.014 328.976 500.83 328.336 503.55 328.336ZM502.078 342.064C503.39 342.064 504.542 341.36 505.022 340.272V338.704H502.078C500.798 338.704 500.126 339.248 500.126 340.336C500.126 341.424 500.83 342.064 502.078 342.064ZM521.26 328.592V331.344C522.476 329.424 524.364 328.336 526.732 328.336V334.16C523.404 333.744 521.26 335.152 521.26 337.68V346H514.796V328.592H521.26ZM542.767 328.304C545.391 328.304 548.047 329.04 550.415 330.416L548.271 334.48C545.903 333.264 543.951 332.656 542.575 332.656C541.775 332.656 541.263 332.944 541.263 333.488C541.263 335.44 550.351 334.576 550.351 340.528C550.351 344.112 547.247 346.288 542.703 346.288C539.631 346.288 536.783 345.456 534.511 343.824L536.495 339.76C538.671 341.168 540.879 341.904 542.799 341.904C543.663 341.904 544.239 341.648 544.239 341.104C544.239 339.12 535.343 340.08 535.343 334.128C535.343 330.48 538.383 328.304 542.767 328.304ZM561.332 328.336C566.228 328.336 569.14 330.672 569.14 334.704V346H562.804V344.08C561.748 345.488 560.02 346.288 557.716 346.288C554.004 346.288 551.828 344.08 551.828 340.816C551.828 337.456 554.164 335.6 558.548 335.536H562.804V335.472C562.804 334.032 561.78 333.168 559.796 333.168C558.42 333.168 556.468 333.584 554.548 334.416L552.948 330.128C555.796 328.976 558.612 328.336 561.332 328.336ZM559.86 342.064C561.172 342.064 562.324 341.36 562.804 340.272V338.704H559.86C558.58 338.704 557.908 339.248 557.908 340.336C557.908 341.424 558.612 342.064 559.86 342.064ZM590.049 328.592V346H583.585V343.408C582.401 345.264 580.577 346.288 578.241 346.288C574.593 346.288 572.097 343.696 572.097 339.632V328.592H578.561V337.808C578.561 339.504 579.489 340.592 580.897 340.592C582.561 340.56 583.585 339.184 583.585 337.2V328.592H590.049ZM617.44 328.336C621.12 328.336 623.616 330.928 623.616 334.96V346H617.152V336.816C617.152 335.088 616.192 334 614.752 334C613.088 334.032 612.032 335.408 612.032 337.392V346H605.568V336.816C605.568 335.088 604.608 334 603.168 334C601.472 334.032 600.416 335.408 600.416 337.392V346H593.952V328.592H600.416V331.248C601.6 329.36 603.456 328.336 605.824 328.336C608.544 328.336 610.624 329.744 611.552 332.112C612.672 329.68 614.72 328.336 617.44 328.336ZM635.398 328.368C641.254 328.368 645.062 331.888 645.062 337.296C645.062 342.672 641.254 346.224 635.398 346.224C629.542 346.224 625.702 342.672 625.702 337.296C625.702 331.888 629.542 328.368 635.398 328.368ZM635.398 333.488C633.478 333.488 632.23 335.056 632.23 337.36C632.23 339.696 633.478 341.232 635.398 341.232C637.286 341.232 638.534 339.696 638.534 337.36C638.534 335.056 637.286 333.488 635.398 333.488ZM659.608 328.336C663.32 328.336 665.88 330.928 665.88 334.96V346H659.416V336.816C659.416 335.088 658.424 334 656.92 334C655.16 334.032 654.072 335.408 654.072 337.392V346H647.608V328.592H654.072V331.28C655.288 329.36 657.176 328.336 659.608 328.336ZM671.408 340.24C673.2 340.24 674.448 341.456 674.448 343.216C674.448 345.008 673.2 346.256 671.408 346.256C669.648 346.256 668.4 345.008 668.4 343.216C668.4 341.456 669.648 340.24 671.408 340.24ZM135.432 383.368C134.579 386.013 134.152 388.563 134.152 391.016C134.152 393.469 134.579 396.029 135.432 398.696C136.285 401.341 137.331 403.528 138.568 405.256H134.76C133.715 403.805 132.755 401.736 131.88 399.048C131.027 396.36 130.6 393.683 130.6 391.016C130.6 388.349 131.027 385.672 131.88 382.984C132.755 380.296 133.715 378.227 134.76 376.776H138.568C137.331 378.504 136.285 380.701 135.432 383.368ZM149.137 381.576C148.049 381.576 147.153 381.8 146.449 382.248C145.745 382.696 145.393 383.379 145.393 384.296C145.393 385.192 145.745 385.885 146.449 386.376C147.153 386.845 148.647 387.357 150.929 387.912C153.233 388.467 154.961 389.245 156.113 390.248C157.287 391.251 157.873 392.733 157.873 394.696C157.873 396.637 157.137 398.216 155.665 399.432C154.193 400.648 152.263 401.256 149.873 401.256C146.375 401.256 143.271 400.051 140.561 397.64L142.929 394.792C145.191 396.755 147.537 397.736 149.969 397.736C151.185 397.736 152.145 397.48 152.849 396.968C153.575 396.435 153.937 395.741 153.937 394.888C153.937 394.013 153.596 393.341 152.913 392.872C152.252 392.381 151.1 391.944 149.457 391.56C147.815 391.155 146.567 390.792 145.713 390.472C144.86 390.131 144.103 389.693 143.441 389.16C142.119 388.157 141.457 386.621 141.457 384.552C141.457 382.483 142.204 380.893 143.697 379.784C145.212 378.653 147.079 378.088 149.297 378.088C150.727 378.088 152.145 378.323 153.553 378.792C154.961 379.261 156.177 379.923 157.201 380.776L155.185 383.624C154.524 383.027 153.628 382.536 152.497 382.152C151.367 381.768 150.247 381.576 149.137 381.576ZM165.998 396.52C167.022 397.544 168.312 398.056 169.87 398.056C171.427 398.056 172.707 397.544 173.71 396.52C174.734 395.475 175.246 394.131 175.246 392.488C175.246 390.845 174.734 389.512 173.71 388.488C172.707 387.443 171.427 386.92 169.87 386.92C168.312 386.92 167.022 387.443 165.998 388.488C164.995 389.512 164.494 390.845 164.494 392.488C164.494 394.131 164.995 395.475 165.998 396.52ZM176.27 398.728C174.563 400.413 172.43 401.256 169.87 401.256C167.31 401.256 165.176 400.413 163.47 398.728C161.763 397.021 160.91 394.941 160.91 392.488C160.91 390.035 161.763 387.965 163.47 386.28C165.176 384.573 167.31 383.72 169.87 383.72C172.43 383.72 174.563 384.573 176.27 386.28C177.976 387.965 178.83 390.035 178.83 392.488C178.83 394.941 177.976 397.021 176.27 398.728ZM191.833 387.336C190.062 387.336 188.729 387.912 187.833 389.064C186.937 390.216 186.489 391.763 186.489 393.704V401H182.905V383.976H186.489V387.4C187.065 386.333 187.843 385.459 188.825 384.776C189.827 384.093 190.883 383.741 191.993 383.72L192.025 387.336C191.961 387.336 191.897 387.336 191.833 387.336ZM204.551 387.336C202.781 387.336 201.447 387.912 200.551 389.064C199.655 390.216 199.207 391.763 199.207 393.704V401H195.623V383.976H199.207V387.4C199.783 386.333 200.562 385.459 201.543 384.776C202.546 384.093 203.602 383.741 204.711 383.72L204.743 387.336C204.679 387.336 204.615 387.336 204.551 387.336ZM210.486 407.784C208.929 407.784 207.521 407.219 206.262 406.088L207.894 403.176C208.641 403.88 209.409 404.232 210.198 404.232C211.009 404.232 211.659 403.944 212.15 403.368C212.662 402.792 212.918 402.163 212.918 401.48C212.918 401.181 210.625 395.347 206.038 383.976H209.878L214.966 396.52L220.054 383.976H223.894L215.638 404.2C215.147 405.309 214.443 406.184 213.526 406.824C212.609 407.464 211.595 407.784 210.486 407.784ZM226.237 398.92C226.237 398.237 226.472 397.672 226.941 397.224C227.41 396.755 227.965 396.52 228.605 396.52C229.245 396.52 229.8 396.755 230.269 397.224C230.76 397.672 231.005 398.216 231.005 398.856C231.005 399.496 230.717 400.275 230.141 401.192L228.221 404.36H226.365L227.549 401.032C226.674 400.627 226.237 399.923 226.237 398.92ZM248.466 396.52C249.49 397.544 250.781 398.056 252.338 398.056C253.896 398.056 255.176 397.544 256.178 396.52C257.202 395.475 257.714 394.131 257.714 392.488C257.714 390.845 257.202 389.512 256.178 388.488C255.176 387.443 253.896 386.92 252.338 386.92C250.781 386.92 249.49 387.443 248.466 388.488C247.464 389.512 246.962 390.845 246.962 392.488C246.962 394.131 247.464 395.475 248.466 396.52ZM258.738 398.728C257.032 400.413 254.898 401.256 252.338 401.256C249.778 401.256 247.645 400.413 245.938 398.728C244.232 397.021 243.378 394.941 243.378 392.488C243.378 390.035 244.232 387.965 245.938 386.28C247.645 384.573 249.778 383.72 252.338 383.72C254.898 383.72 257.032 384.573 258.738 386.28C260.445 387.965 261.298 390.035 261.298 392.488C261.298 394.941 260.445 397.021 258.738 398.728ZM268.957 391.784V401H265.373V383.976H268.957V387.08C269.533 386.035 270.323 385.213 271.325 384.616C272.349 384.019 273.448 383.72 274.621 383.72C276.541 383.72 278.088 384.307 279.261 385.48C280.456 386.653 281.053 388.349 281.053 390.568V401H277.469V391.656C277.469 388.52 276.168 386.952 273.565 386.952C272.328 386.952 271.251 387.368 270.333 388.2C269.416 389.011 268.957 390.205 268.957 391.784ZM310.682 394.056H297.338C297.423 395.293 297.989 396.296 299.034 397.064C300.079 397.811 301.274 398.184 302.618 398.184C304.751 398.184 306.373 397.512 307.482 396.168L309.53 398.408C307.695 400.307 305.306 401.256 302.362 401.256C299.973 401.256 297.935 400.467 296.25 398.888C294.586 397.288 293.754 395.155 293.754 392.488C293.754 389.8 294.607 387.667 296.314 386.088C298.021 384.509 300.026 383.72 302.33 383.72C304.655 383.72 306.629 384.424 308.25 385.832C309.871 387.219 310.682 389.139 310.682 391.592V394.056ZM297.338 391.24H307.098C307.098 389.811 306.65 388.712 305.754 387.944C304.858 387.176 303.749 386.792 302.426 386.792C301.125 386.792 299.951 387.197 298.906 388.008C297.861 388.797 297.338 389.875 297.338 391.24ZM318.207 391.784V401H314.623V383.976H318.207V387.08C318.783 386.035 319.573 385.213 320.575 384.616C321.599 384.019 322.698 383.72 323.871 383.72C325.791 383.72 327.338 384.307 328.511 385.48C329.706 386.653 330.303 388.349 330.303 390.568V401H326.719V391.656C326.719 388.52 325.418 386.952 322.815 386.952C321.578 386.952 320.501 387.368 319.583 388.2C318.666 389.011 318.207 390.205 318.207 391.784ZM357.884 401H354.62V398.728C353.212 400.413 351.324 401.256 348.956 401.256C347.185 401.256 345.713 400.755 344.54 399.752C343.388 398.749 342.812 397.416 342.812 395.752C342.812 394.067 343.431 392.808 344.668 391.976C345.905 391.144 347.58 390.728 349.692 390.728H354.332V390.088C354.332 387.827 353.073 386.696 350.556 386.696C348.977 386.696 347.335 387.272 345.628 388.424L344.028 386.184C346.097 384.541 348.444 383.72 351.068 383.72C353.073 383.72 354.705 384.232 355.964 385.256C357.244 386.259 357.884 387.848 357.884 390.024V401ZM354.3 394.664V393.224H350.268C347.687 393.224 346.396 394.035 346.396 395.656C346.396 396.488 346.716 397.128 347.356 397.576C347.996 398.003 348.881 398.216 350.012 398.216C351.164 398.216 352.167 397.896 353.02 397.256C353.873 396.616 354.3 395.752 354.3 394.664ZM375.239 391.784V401H371.655V383.976H375.239V387.08C375.751 386.035 376.519 385.213 377.543 384.616C378.588 384.019 379.708 383.72 380.903 383.72C383.591 383.72 385.415 384.829 386.375 387.048C388.06 384.829 390.161 383.72 392.679 383.72C394.599 383.72 396.145 384.307 397.319 385.48C398.513 386.653 399.111 388.349 399.111 390.568V401H395.527V391.656C395.527 388.52 394.225 386.952 391.623 386.952C390.407 386.952 389.34 387.347 388.423 388.136C387.527 388.904 387.057 390.035 387.015 391.528V401H383.431V391.656C383.431 390.035 383.143 388.851 382.567 388.104C381.991 387.336 381.084 386.952 379.847 386.952C378.609 386.952 377.532 387.368 376.615 388.2C375.697 389.011 375.239 390.205 375.239 391.784ZM407.676 401H404.092V383.976H407.676V401ZM404.316 380.584C403.868 380.136 403.644 379.603 403.644 378.984C403.644 378.365 403.868 377.832 404.316 377.384C404.764 376.936 405.297 376.712 405.916 376.712C406.535 376.712 407.068 376.936 407.516 377.384C407.964 377.832 408.188 378.365 408.188 378.984C408.188 379.603 407.964 380.136 407.516 380.584C407.068 381.032 406.535 381.256 405.916 381.256C405.297 381.256 404.764 381.032 404.316 380.584ZM425.001 395.912C425.001 397.533 424.415 398.835 423.241 399.816C422.068 400.776 420.564 401.256 418.729 401.256C417.492 401.256 416.201 401.032 414.857 400.584C413.535 400.136 412.361 399.507 411.337 398.696L413.065 395.912C415.049 397.405 416.969 398.152 418.825 398.152C419.636 398.152 420.276 397.971 420.745 397.608C421.215 397.224 421.449 396.744 421.449 396.168C421.449 395.315 420.319 394.547 418.057 393.864C417.887 393.8 417.759 393.757 417.673 393.736C414.132 392.776 412.361 391.176 412.361 388.936C412.361 387.357 412.969 386.099 414.185 385.16C415.423 384.2 417.023 383.72 418.985 383.72C420.948 383.72 422.804 384.296 424.553 385.448L423.209 388.104C421.823 387.187 420.319 386.728 418.697 386.728C417.844 386.728 417.151 386.888 416.617 387.208C416.084 387.507 415.817 387.965 415.817 388.584C415.817 389.139 416.095 389.544 416.649 389.8C417.033 389.992 417.567 390.173 418.249 390.344C418.953 390.515 419.572 390.685 420.105 390.856C420.639 391.027 421.151 391.219 421.641 391.432C422.153 391.645 422.697 391.944 423.273 392.328C424.425 393.096 425.001 394.291 425.001 395.912ZM444.786 401.256C442.653 401.256 440.775 400.435 439.154 398.792C437.554 397.149 436.754 395.016 436.754 392.392C436.754 389.768 437.565 387.667 439.186 386.088C440.807 384.509 442.759 383.72 445.042 383.72C447.325 383.72 449.17 384.797 450.578 386.952V383.976H454.162V407.208H450.578V398.44C448.871 400.317 446.941 401.256 444.786 401.256ZM440.338 392.552C440.338 394.173 440.861 395.496 441.906 396.52C442.951 397.544 444.178 398.056 445.586 398.056C446.994 398.056 448.189 397.544 449.17 396.52C450.151 395.475 450.642 394.141 450.642 392.52C450.642 390.899 450.151 389.555 449.17 388.488C448.189 387.4 446.983 386.856 445.554 386.856C444.125 386.856 442.898 387.4 441.874 388.488C440.85 389.555 440.338 390.909 440.338 392.552ZM471.246 393.192V383.976H474.83V401H471.246V397.896C470.67 398.941 469.87 399.763 468.846 400.36C467.843 400.957 466.755 401.256 465.582 401.256C463.662 401.256 462.105 400.669 460.91 399.496C459.737 398.323 459.15 396.627 459.15 394.408V383.976H462.734V393.32C462.734 396.456 464.035 398.024 466.638 398.024C467.875 398.024 468.953 397.619 469.87 396.808C470.787 395.976 471.246 394.771 471.246 393.192ZM495.87 394.056H482.526C482.611 395.293 483.176 396.296 484.222 397.064C485.267 397.811 486.462 398.184 487.806 398.184C489.939 398.184 491.56 397.512 492.67 396.168L494.718 398.408C492.883 400.307 490.494 401.256 487.55 401.256C485.16 401.256 483.123 400.467 481.438 398.888C479.774 397.288 478.942 395.155 478.942 392.488C478.942 389.8 479.795 387.667 481.502 386.088C483.208 384.509 485.214 383.72 487.518 383.72C489.843 383.72 491.816 384.424 493.438 385.832C495.059 387.219 495.87 389.139 495.87 391.592V394.056ZM482.526 391.24H492.286C492.286 389.811 491.838 388.712 490.942 387.944C490.046 387.176 488.936 386.792 487.614 386.792C486.312 386.792 485.139 387.197 484.094 388.008C483.048 388.797 482.526 389.875 482.526 391.24ZM508.464 381.992V378.632H521.552V381.576L516.144 387.624C518.192 387.688 519.792 388.339 520.944 389.576C522.096 390.792 522.672 392.253 522.672 393.96C522.672 396.243 521.893 398.035 520.336 399.336C518.8 400.637 516.816 401.288 514.384 401.288C511.952 401.288 509.573 400.509 507.248 398.952L508.848 395.912C510.683 397.192 512.603 397.832 514.608 397.832C515.909 397.832 516.976 397.533 517.808 396.936C518.661 396.317 519.088 395.443 519.088 394.312C519.088 393.16 518.619 392.243 517.68 391.56C516.741 390.877 515.44 390.536 513.776 390.536C512.944 390.536 512.144 390.653 511.376 390.888V388.008L516.56 381.992H508.464ZM531.348 383.624C530.473 385.16 530.036 387.176 530.036 389.672C530.036 392.168 530.473 394.184 531.348 395.72C532.244 397.256 533.631 398.024 535.508 398.024C537.385 398.024 538.751 397.267 539.604 395.752C540.479 394.216 540.916 392.189 540.916 389.672C540.916 387.155 540.479 385.139 539.604 383.624C538.751 382.088 537.385 381.32 535.508 381.32C533.631 381.32 532.244 382.088 531.348 383.624ZM528.66 398.12C527.145 396.008 526.388 393.192 526.388 389.672C526.388 386.152 527.145 383.347 528.66 381.256C530.175 379.144 532.457 378.088 535.508 378.088C538.559 378.088 540.841 379.144 542.356 381.256C543.871 383.347 544.628 386.152 544.628 389.672C544.628 393.192 543.871 396.008 542.356 398.12C540.841 400.211 538.559 401.256 535.508 401.256C532.457 401.256 530.175 400.211 528.66 398.12ZM550.13 398.696C550.983 396.029 551.41 393.469 551.41 391.016C551.41 388.563 550.983 386.013 550.13 383.368C549.276 380.701 548.231 378.504 546.993 376.776H550.802C551.847 378.227 552.796 380.296 553.65 382.984C554.524 385.672 554.962 388.349 554.962 391.016C554.962 393.683 554.524 396.36 553.65 399.048C552.796 401.736 551.847 403.805 550.802 405.256H546.993C548.231 403.528 549.276 401.341 550.13 398.696Z" fill="black"/>
<g clip-path="url(#clip1_3277_38)">
<path opacity="0.2" d="M1117.76 365.618C1118.1 375.53 1117.43 385.426 1116.35 395.254C1112.73 428.212 1104.35 459.97 1091.28 490.437C1080.86 514.714 1066.97 536.904 1050.06 557.173C1019.94 593.292 983.94 621.906 941.323 641.94C908.788 657.236 874.714 665.438 838.59 663.509C809.294 661.941 780.759 657.052 754.626 642.653C740.911 635.097 728.945 625.562 720.745 611.868C718.243 607.691 716.578 603.247 715.85 598.408C714.712 590.852 717.69 586.827 725.222 585.669C739.347 583.506 753.145 580.034 766.517 574.927C814.281 556.687 845.226 522.279 862.238 474.62C870.564 451.29 875.233 427.239 876.471 402.424C877.091 390.156 876.513 377.945 876.396 365.71C879.066 367.186 881.718 368.578 884.731 369.408C897.232 372.889 910.119 374.088 922.913 375.161C940.98 376.687 959.13 377.492 977.255 377.836C1001.96 378.306 1026.67 377.836 1051.38 376.478C1065.14 375.723 1078.82 374.499 1092.45 372.629C1101.12 371.438 1110.15 370.968 1117.75 365.626L1117.76 365.618Z" fill="#EBF97B"/>
<path d="M480.042 693.817C480.134 678.923 479.54 658.612 480.971 638.334C482.594 615.239 486.084 592.504 497.991 572.151C515.865 541.6 543.245 525.348 577.762 520.593C598.021 517.801 617.786 521.952 637.543 525.7C650.655 528.191 663.768 530.623 677.198 530.715C736.627 531.126 779.42 501.523 799.487 445.487C809.327 418.014 813.411 389.543 811.419 360.377C810.214 342.707 803.629 326.513 796.123 310.714C784.826 286.956 771.111 264.481 758.902 241.21C740.669 206.458 725.966 170.448 719.079 131.561C715.975 114.051 714.477 96.3985 714.41 78.6283C714.327 55.013 714.536 -60.8495 714.276 -84.4564C714.226 -89.3036 716.142 -91.6517 720.351 -93.0102C728.552 -95.6519 737.029 -96.7253 745.564 -97.2704C765.078 -98.5199 784.55 -98.587 803.771 -94.243C805.085 -93.9495 806.373 -93.5302 807.67 -93.1696C812.248 -91.9033 814.34 -89.5132 814.214 -84.1461C813.796 -65.6547 813.905 45.0923 814.072 63.592C814.189 76.1293 815.938 88.482 820.155 100.348C831.335 131.763 857.183 144.912 889.182 135.604C898.42 132.92 907.332 129.339 916.102 125.482C954.251 108.684 992.994 109.07 1032.11 121.339C1085.63 138.136 1123.93 173.24 1150.76 221.687C1169.94 256.305 1180.65 293.673 1185.23 332.878C1192.19 392.512 1186.28 450.879 1163.25 506.345C1119.97 610.593 1045.9 683.25 938.26 719.554C899.508 732.619 859.451 735.814 818.75 732.116C786.926 729.223 756.375 721.986 727.765 707.377C708.929 697.758 692.185 685.12 676.027 671.594C666.362 663.501 656.923 655.098 645.969 648.691C639.844 645.11 633.35 642.594 626.305 641.32C612.062 638.745 600.958 643.701 592.465 655.023C583.963 666.361 580.54 679.468 579.871 693.397C578.792 715.646 579.185 821.764 579.829 844.012C579.98 849.304 577.879 851.643 573.277 853.061C563.428 856.088 553.295 856.994 543.111 857.556C525.982 858.503 508.928 858.017 492.05 854.553C491.757 854.495 491.456 854.461 491.163 854.394C480.41 851.861 480.025 851.383 480.025 840.372C480.025 821.269 480.025 718.313 480.025 693.8L480.042 693.817ZM983.422 164.091C978.392 163.823 971.129 164.443 963.899 165.928C929.139 173.064 901.985 191.505 882.572 221.167C869.643 240.916 864.731 263.24 863.794 286.461C863.351 297.38 863.476 308.332 864.338 319.31C865.434 333.331 866.547 347.386 867.041 361.433C867.719 380.923 868.187 400.496 865.292 419.868C861.434 445.638 854.397 470.436 842.113 493.64C832.121 512.526 818.842 528.619 802.19 541.735C778.692 560.251 751.447 570.583 722.092 574.449C709.105 576.16 698.879 588.739 701.967 603.498C705.833 622.015 717.498 635.324 731.698 646.611C750.384 661.463 772.224 669.623 795.186 674.856C815.645 679.51 836.448 680.76 857.434 680.55C878.906 680.34 899.6 676.332 919.892 669.799C943.657 662.151 965.916 651.324 987.07 638.032C1004.12 627.323 1020.18 615.323 1035 601.779C1046.95 590.86 1058.25 579.221 1068.57 566.675C1083.48 548.561 1096.71 529.357 1107 508.249C1116.4 488.944 1123.89 468.876 1129.53 448.12C1136.65 421.88 1140.89 395.204 1141.85 368.025C1142.47 350.464 1140.71 333.029 1138.29 315.67C1135.08 292.608 1128.09 270.637 1117.48 249.982C1104 223.742 1085.22 202.173 1059.86 186.6C1037.08 172.603 1012.83 163.739 983.422 164.083V164.091ZM529.906 836.565C517.329 836.884 504.736 837.06 492.359 839.693C489.966 840.205 486.05 840.347 486.042 842.88C486.025 845.924 490.025 845.924 492.502 846.335C517.371 850.478 542.274 850.478 567.152 846.36C569.662 845.941 573.729 845.823 573.679 842.972C573.637 840.188 569.545 840.121 567.018 839.601C554.776 837.093 542.341 836.842 529.906 836.557V836.565ZM764.291 -88.5656C751.706 -88.1463 739.079 -88.1211 726.694 -85.3789C724.301 -84.8506 720.494 -84.8002 720.544 -82.0412C720.594 -79.4499 724.385 -79.2989 726.795 -78.7706C739.79 -75.9529 753.003 -75.8271 766.208 -75.8523C778.517 -75.8774 790.826 -76.238 802.892 -79.0054C804.951 -79.4751 808.298 -79.6344 808.231 -82.1335C808.173 -84.49 804.892 -84.6828 802.767 -85.1776C790.106 -88.1128 777.178 -88.1547 764.283 -88.5656H764.291Z" fill="#13176F"/>
<path fill-rule="evenodd" clip-rule="evenodd" d="M1053.44 364.066L1092.63 362.54L1127.14 299.451L1045.04 299.191L1002.99 231.247L968.485 294.336L987.991 328.182C969.531 324.467 948.921 330.119 938.879 348.468L874.112 466.872C857.778 496.735 884.764 543.881 900.303 563.731C926.219 564.922 982.024 564.78 1001.34 529.457L1057.1 427.516C1069.16 405.469 1066.44 379.279 1053.44 364.075V364.066Z" stroke="#13176F" stroke-width="10" stroke-miterlimit="10"/>
<path d="M1037.33 400.647C1041.85 400.647 1045.51 396.975 1045.51 392.445C1045.51 387.915 1041.85 384.243 1037.33 384.243C1032.81 384.243 1029.14 387.915 1029.14 392.445C1029.14 396.975 1032.81 400.647 1037.33 400.647Z" fill="#FF3636"/>
<path d="M1035.55 427.063C1040.06 427.063 1043.73 423.391 1043.73 418.861C1043.73 414.332 1040.06 410.66 1035.55 410.66C1031.03 410.66 1027.36 414.332 1027.36 418.861C1027.36 423.391 1031.03 427.063 1035.55 427.063Z" fill="#FF3636"/>
<path d="M1011.2 420.371C1015.72 420.371 1019.39 416.699 1019.39 412.169C1019.39 407.639 1015.72 403.967 1011.2 403.967C1006.68 403.967 1003.02 407.639 1003.02 412.169C1003.02 416.699 1006.68 420.371 1011.2 420.371Z" fill="#FF3636"/>
<path d="M1021.33 464.02C1025.85 464.02 1029.51 460.348 1029.51 455.819C1029.51 451.289 1025.85 447.617 1021.33 447.617C1016.81 447.617 1013.14 451.289 1013.14 455.819C1013.14 460.348 1016.81 464.02 1021.33 464.02Z" fill="#FF3636"/>
<path d="M973.171 422.861C977.691 422.861 981.355 419.189 981.355 414.66C981.355 410.13 977.691 406.458 973.171 406.458C968.651 406.458 964.987 410.13 964.987 414.66C964.987 419.189 968.651 422.861 973.171 422.861Z" fill="#FF3636"/>
<path d="M972.979 490.244C977.499 490.244 981.163 486.572 981.163 482.042C981.163 477.513 977.499 473.841 972.979 473.841C968.459 473.841 964.795 477.513 964.795 482.042C964.795 486.572 968.459 490.244 972.979 490.244Z" fill="#FF3636"/>
<path d="M902.295 456.758C906.814 456.758 910.478 453.086 910.478 448.556C910.478 444.027 906.814 440.355 902.295 440.355C897.775 440.355 894.111 444.027 894.111 448.556C894.111 453.086 897.775 456.758 902.295 456.758Z" fill="#FF3636"/>
<path d="M947.184 450.403C951.704 450.403 955.368 446.731 955.368 442.202C955.368 437.672 951.704 434 947.184 434C942.664 434 939 437.672 939 442.202C939 446.731 942.664 450.403 947.184 450.403Z" fill="#FF3636"/>
<path d="M902.184 493.403C906.704 493.403 910.368 489.731 910.368 485.202C910.368 480.672 906.704 477 902.184 477C897.664 477 894 480.672 894 485.202C894 489.731 897.664 493.403 902.184 493.403Z" fill="#FF3636"/>
<path d="M909.184 518.403C913.704 518.403 917.368 514.731 917.368 510.202C917.368 505.672 913.704 502 909.184 502C904.664 502 901 505.672 901 510.202C901 514.731 904.664 518.403 909.184 518.403Z" fill="#FF3636"/>
<path d="M930.184 436.403C934.704 436.403 938.368 432.731 938.368 428.202C938.368 423.672 934.704 420 930.184 420C925.664 420 922 423.672 922 428.202C922 432.731 925.664 436.403 930.184 436.403Z" fill="#FF3636"/>
<path d="M947.184 417.403C951.704 417.403 955.368 413.731 955.368 409.202C955.368 404.672 951.704 401 947.184 401C942.664 401 939 404.672 939 409.202C939 413.731 942.664 417.403 947.184 417.403Z" fill="#FF3636"/>
<path d="M993.184 461.403C997.704 461.403 1001.37 457.731 1001.37 453.202C1001.37 448.672 997.704 445 993.184 445C988.664 445 985 448.672 985 453.202C985 457.731 988.664 461.403 993.184 461.403Z" fill="#FF3636"/>
<path d="M940.184 473.403C944.704 473.403 948.368 469.731 948.368 465.202C948.368 460.672 944.704 457 940.184 457C935.664 457 932 460.672 932 465.202C932 469.731 935.664 473.403 940.184 473.403Z" fill="#FF3636"/>
<path d="M955.184 523.403C959.704 523.403 963.368 519.731 963.368 515.202C963.368 510.672 959.704 507 955.184 507C950.664 507 947 510.672 947 515.202C947 519.731 950.664 523.403 955.184 523.403Z" fill="#FF3636"/>
<path d="M989.184 509.403C993.704 509.403 997.368 505.731 997.368 501.202C997.368 496.672 993.704 493 989.184 493C984.664 493 981 496.672 981 501.202C981 505.731 984.664 509.403 989.184 509.403Z" fill="#FF3636"/>
<path d="M971.184 453.403C975.704 453.403 979.368 449.731 979.368 445.202C979.368 440.672 975.704 437 971.184 437C966.664 437 963 440.672 963 445.202C963 449.731 966.664 453.403 971.184 453.403Z" fill="#FF3636"/>
<path d="M993.184 392.403C997.704 392.403 1001.37 388.731 1001.37 384.202C1001.37 379.672 997.704 376 993.184 376C988.664 376 985 379.672 985 384.202C985 388.731 988.664 392.403 993.184 392.403Z" fill="#FF3636"/>
<path d="M943.184 393.403C947.704 393.403 951.368 389.731 951.368 385.202C951.368 380.672 947.704 377 943.184 377C938.664 377 935 380.672 935 385.202C935 389.731 938.664 393.403 943.184 393.403Z" fill="#FF3636"/>
<path d="M1013.18 343.403C1017.7 343.403 1021.37 339.731 1021.37 335.202C1021.37 330.672 1017.7 327 1013.18 327C1008.66 327 1005 330.672 1005 335.202C1005 339.731 1008.66 343.403 1013.18 343.403Z" fill="#FF3636"/>
<path d="M1001.18 287.403C1005.7 287.403 1009.37 283.731 1009.37 279.202C1009.37 274.672 1005.7 271 1001.18 271C996.664 271 993 274.672 993 279.202C993 283.731 996.664 287.403 1001.18 287.403Z" fill="#FF3636"/>
<path d="M1037.18 348.403C1041.7 348.403 1045.37 344.731 1045.37 340.202C1045.37 335.672 1041.7 332 1037.18 332C1032.66 332 1029 335.672 1029 340.202C1029 344.731 1032.66 348.403 1037.18 348.403Z" fill="#FF3636"/>
<path d="M1021.18 382.403C1025.7 382.403 1029.37 378.731 1029.37 374.202C1029.37 369.672 1025.7 366 1021.18 366C1016.66 366 1013 369.672 1013 374.202C1013 378.731 1016.66 382.403 1021.18 382.403Z" fill="#FF3636"/>
<path d="M1003.18 311.403C1007.7 311.403 1011.37 307.731 1011.37 303.202C1011.37 298.672 1007.7 295 1003.18 295C998.664 295 995 298.672 995 303.202C995 307.731 998.664 311.403 1003.18 311.403Z" fill="#FF3636"/>
<path d="M966.385 377.375C970.904 377.375 974.568 373.703 974.568 369.174C974.568 364.644 970.904 360.972 966.385 360.972C961.865 360.972 958.201 364.644 958.201 369.174C958.201 373.703 961.865 377.375 966.385 377.375Z" fill="#FF3636"/>
<path d="M1071.99 343.177C1076.51 343.177 1080.17 339.505 1080.17 334.975C1080.17 330.445 1076.51 326.773 1071.99 326.773C1067.47 326.773 1063.8 330.445 1063.8 334.975C1063.8 339.505 1067.47 343.177 1071.99 343.177Z" fill="#FF3636"/>
<path d="M993.103 364.318C997.623 364.318 1001.29 360.646 1001.29 356.116C1001.29 351.587 997.623 347.915 993.103 347.915C988.583 347.915 984.919 351.587 984.919 356.116C984.919 360.646 988.583 364.318 993.103 364.318Z" fill="#FF3636"/>
<path d="M931.633 498.605C936.152 498.605 939.816 494.933 939.816 490.403C939.816 485.873 936.152 482.201 931.633 482.201C927.113 482.201 923.449 485.873 923.449 490.403C923.449 494.933 927.113 498.605 931.633 498.605Z" fill="#FF3636"/>
<path d="M938.57 546.875C943.089 546.875 946.753 543.203 946.753 538.674C946.753 534.144 943.089 530.472 938.57 530.472C934.05 530.472 930.386 534.144 930.386 538.674C930.386 543.203 934.05 546.875 938.57 546.875Z" fill="#FF3636"/>
</g>
</g>
<defs>
<clipPath id="clip0_3277_38">
<rect width="1500" height="760" fill="white"/>
</clipPath>
<clipPath id="clip1_3277_38">
<rect width="708" height="956" fill="white" transform="translate(480 -98)"/>
</clipPath>
</defs>
</svg>
