<svg width="1500" height="760" viewBox="0 0 1500 760" fill="none" xmlns="http://www.w3.org/2000/svg">
<rect width="1500" height="760" fill="white"/>
<path fill-rule="evenodd" clip-rule="evenodd" d="M266.174 366.071L315.744 381.116C306.092 356.571 313.994 322.776 338.558 300.536L342.218 297.222H286.054L341.199 243.567H401.481L452.143 197.699C491.495 162.07 561.2 186.031 593.029 198.716C596.26 208.1 599.716 220.958 602.088 235.179C585.59 244.819 566.478 263.787 566.478 297.967H573.478C573.478 268.712 588.837 251.814 603.214 242.671C607.475 274.511 605.532 311.085 583.914 330.658L451.994 450.095C431.545 468.609 403.386 466.729 381.95 454.12L391.685 504.698L321.394 568.338L298.235 465.539L195.884 429.71L266.174 366.071ZM513.179 243.344C517.625 239.319 518.147 232.652 514.346 228.454C510.544 224.255 503.859 224.115 499.414 228.139C494.968 232.164 494.446 238.831 498.247 243.029C502.048 247.228 508.734 247.369 513.179 243.344Z" fill="#FF3636"/>
<path fill-rule="evenodd" clip-rule="evenodd" d="M623.227 345.248C598.663 367.488 590.761 401.284 600.413 425.829L550.843 410.783L480.553 474.423L582.904 510.252L606.063 613.05L676.354 549.41L666.619 498.832C688.055 511.442 716.214 513.322 736.663 494.807L868.583 375.37C890.201 355.797 892.144 319.223 887.883 287.384C873.506 296.526 858.146 313.424 858.146 342.68H851.146C851.146 308.499 870.258 289.531 886.757 279.892C884.385 265.67 880.929 252.812 877.697 243.428C845.869 230.743 776.164 206.782 736.812 242.411L686.149 288.28H625.868L570.723 341.934H626.887L623.227 345.248ZM797.847 288.056C802.293 284.031 802.815 277.365 799.014 273.166C795.213 268.968 788.527 268.827 784.082 272.852C779.636 276.877 779.114 283.543 782.915 287.742C786.717 291.94 793.402 292.081 797.847 288.056Z" fill="#FF3636"/>
<path fill-rule="evenodd" clip-rule="evenodd" d="M970.685 318.421C946.122 340.66 938.219 374.456 947.872 399.001L898.302 383.956L828.012 447.595L930.363 483.424L953.522 586.223L1023.81 522.583L1014.08 472.005C1035.51 484.614 1063.67 486.494 1084.12 467.98L1216.04 348.543C1237.66 328.97 1239.6 292.396 1235.34 260.556C1220.96 269.698 1205.6 286.597 1205.6 315.852H1198.6C1198.6 281.671 1217.72 262.703 1234.22 253.064C1231.84 238.842 1228.39 225.985 1225.16 216.601C1193.33 203.916 1123.62 179.955 1084.27 215.583L1033.61 261.452H973.327L918.181 315.107H974.346L970.685 318.421ZM1145.31 261.228C1149.75 257.204 1150.27 250.537 1146.47 246.339C1142.67 242.14 1135.99 241.999 1131.54 246.024C1127.09 250.049 1126.57 256.715 1130.37 260.914C1134.18 265.113 1140.86 265.253 1145.31 261.228Z" fill="#FF3636"/>
<path d="M186 312H1314V439C1314 560.503 1215.5 659 1094 659H406C284.497 659 186 560.503 186 439V312Z" fill="#13176F"/>
<path d="M386.427 666.961V590H424V723H336V699.09L386.427 666.961Z" fill="#EBF97B"/>
<path d="M1120.57 666.961V590H1083V723H1171V699.09L1120.57 666.961Z" fill="#EBF97B"/>
<path d="M359.388 70.528L360.38 70.752C363.388 71.328 365.564 73.504 365.564 76.896C365.564 81.248 362.14 84.288 356.796 84.288C353.532 84.288 350.172 83.136 348.027 81.44L350.684 76.384C352.38 78.336 354.268 79.328 356.252 79.328C358.076 79.328 359.068 78.496 359.036 76.96C359.036 75.392 358.076 74.624 356.22 74.624H352.38V71.104L356.956 66.56H349.18V61.632H364.54V65.376L359.388 70.528ZM382.048 66.304C384.672 66.304 387.328 67.04 389.696 68.416L387.552 72.48C385.184 71.264 383.232 70.656 381.856 70.656C381.056 70.656 380.544 70.944 380.544 71.488C380.544 73.44 389.632 72.576 389.632 78.528C389.632 82.112 386.528 84.288 381.984 84.288C378.912 84.288 376.064 83.456 373.792 81.824L375.776 77.76C377.952 79.168 380.16 79.904 382.08 79.904C382.944 79.904 383.52 79.648 383.52 79.104C383.52 77.12 374.624 78.08 374.624 72.128C374.624 68.48 377.664 66.304 382.048 66.304ZM400.613 66.336C405.509 66.336 408.421 68.672 408.421 72.704V84H402.085V82.08C401.029 83.488 399.301 84.288 396.997 84.288C393.285 84.288 391.109 82.08 391.109 78.816C391.109 75.456 393.445 73.6 397.829 73.536H402.085V73.472C402.085 72.032 401.061 71.168 399.077 71.168C397.701 71.168 395.749 71.584 393.829 72.416L392.229 68.128C395.077 66.976 397.893 66.336 400.613 66.336ZM399.141 80.064C400.453 80.064 401.605 79.36 402.085 78.272V76.704H399.141C397.861 76.704 397.189 77.248 397.189 78.336C397.189 79.424 397.893 80.064 399.141 80.064ZM418.482 84H412.018V60.256H418.482V84ZM446.065 66.336C449.745 66.336 452.241 68.928 452.241 72.96V84H445.777V74.816C445.777 73.088 444.817 72 443.377 72C441.713 72.032 440.657 73.408 440.657 75.392V84H434.193V74.816C434.193 73.088 433.233 72 431.793 72C430.097 72.032 429.041 73.408 429.041 75.392V84H422.577V66.592H429.041V69.248C430.225 67.36 432.081 66.336 434.449 66.336C437.169 66.336 439.249 67.744 440.177 70.112C441.297 67.68 443.345 66.336 446.065 66.336ZM464.023 66.368C469.879 66.368 473.687 69.888 473.687 75.296C473.687 80.672 469.879 84.224 464.023 84.224C458.167 84.224 454.327 80.672 454.327 75.296C454.327 69.888 458.167 66.368 464.023 66.368ZM464.023 71.488C462.103 71.488 460.855 73.056 460.855 75.36C460.855 77.696 462.103 79.232 464.023 79.232C465.911 79.232 467.159 77.696 467.159 75.36C467.159 73.056 465.911 71.488 464.023 71.488ZM488.233 66.336C491.945 66.336 494.505 68.928 494.505 72.96V84H488.041V74.816C488.041 73.088 487.049 72 485.545 72C483.785 72.032 482.697 73.408 482.697 75.392V84H476.233V66.592H482.697V69.28C483.913 67.36 485.801 66.336 488.233 66.336ZM508.185 58.304C510.137 58.304 511.513 59.68 511.513 61.632C511.513 63.584 510.137 64.96 508.185 64.96C506.233 64.96 504.857 63.584 504.857 61.632C504.857 59.68 506.233 58.304 508.185 58.304ZM511.385 84H504.921V66.592H511.385V84ZM527.296 66.336C531.008 66.336 533.568 68.928 533.568 72.96V84H527.104V74.816C527.104 73.088 526.112 72 524.608 72C522.848 72.032 521.76 73.408 521.76 75.392V84H515.296V66.592H521.76V69.28C522.976 67.36 524.864 66.336 527.296 66.336ZM554.735 78.72L555.887 83.168C554.671 83.872 552.815 84.288 551.055 84.288C547.343 84.32 544.847 82.176 544.847 78.56V71.616H542.447V67.488H544.847V62.656H551.279V67.488H555.567V71.616H551.279V77.568C551.279 78.688 551.855 79.232 552.751 79.232C553.263 79.232 553.967 79.008 554.735 78.72ZM570.518 66.336C574.262 66.336 576.79 68.928 576.79 72.96V84H570.326V74.816C570.326 73.088 569.366 72 567.83 72C566.07 72.032 564.982 73.408 564.982 75.392V84H558.518V60.256H564.982V69.28C566.198 67.36 568.086 66.336 570.518 66.336ZM588.042 66.368C594.154 66.368 597.482 70.464 597.098 76.864H585.386C585.898 78.528 587.114 79.456 588.778 79.456C590.154 79.456 591.466 78.848 592.618 77.792L595.978 81.088C594.154 83.104 591.53 84.224 588.234 84.224C582.41 84.224 578.858 80.704 578.858 75.36C578.858 69.92 582.538 66.368 588.042 66.368ZM585.258 73.696H590.73C590.762 71.968 589.674 70.752 588.106 70.752C586.602 70.752 585.578 71.936 585.258 73.696ZM614.542 66.368C620.654 66.368 623.982 70.464 623.598 76.864H611.886C612.398 78.528 613.614 79.456 615.278 79.456C616.654 79.456 617.966 78.848 619.118 77.792L622.478 81.088C620.654 83.104 618.03 84.224 614.734 84.224C608.91 84.224 605.358 80.704 605.358 75.36C605.358 69.92 609.038 66.368 614.542 66.368ZM611.758 73.696H617.23C617.262 71.968 616.174 70.752 614.606 70.752C613.102 70.752 612.078 71.936 611.758 73.696ZM644.154 66.592V90.208H637.69V82.016C636.538 83.424 634.906 84.224 632.922 84.224C628.058 84.224 624.858 80.672 624.858 75.2C624.858 69.856 627.994 66.368 632.762 66.368C634.81 66.368 636.506 67.168 637.69 68.608V66.592H644.154ZM634.554 79.264C636.442 79.264 637.69 77.696 637.69 75.36C637.69 73.056 636.442 71.488 634.554 71.488C632.634 71.488 631.386 73.056 631.386 75.36C631.386 77.696 632.634 79.264 634.554 79.264ZM665.705 66.592V84H659.241V81.408C658.057 83.264 656.233 84.288 653.897 84.288C650.249 84.288 647.753 81.696 647.753 77.632V66.592H654.217V75.808C654.217 77.504 655.145 78.592 656.553 78.592C658.217 78.56 659.241 77.184 659.241 75.2V66.592H665.705ZM672.872 58.304C674.824 58.304 676.2 59.68 676.2 61.632C676.2 63.584 674.824 64.96 672.872 64.96C670.92 64.96 669.544 63.584 669.544 61.632C669.544 59.68 670.92 58.304 672.872 58.304ZM676.072 84H669.608V66.592H676.072V84ZM690.831 84H684.239L677.775 66.592H684.431L687.631 78.112L690.863 66.592H697.327L690.831 84ZM706.707 66.336C711.603 66.336 714.515 68.672 714.515 72.704V84H708.179V82.08C707.123 83.488 705.395 84.288 703.091 84.288C699.379 84.288 697.203 82.08 697.203 78.816C697.203 75.456 699.539 73.6 703.923 73.536H708.179V73.472C708.179 72.032 707.155 71.168 705.171 71.168C703.795 71.168 701.843 71.584 699.923 72.416L698.323 68.128C701.171 66.976 703.987 66.336 706.707 66.336ZM705.235 80.064C706.547 80.064 707.699 79.36 708.179 78.272V76.704H705.235C703.955 76.704 703.283 77.248 703.283 78.336C703.283 79.424 703.987 80.064 705.235 80.064ZM724.576 84H718.112V60.256H724.576V84ZM736.511 66.368C742.623 66.368 745.951 70.464 745.567 76.864H733.855C734.367 78.528 735.583 79.456 737.247 79.456C738.623 79.456 739.935 78.848 741.087 77.792L744.447 81.088C742.623 83.104 739.999 84.224 736.703 84.224C730.879 84.224 727.327 80.704 727.327 75.36C727.327 69.92 731.007 66.368 736.511 66.368ZM733.727 73.696H739.199C739.231 71.968 738.143 70.752 736.575 70.752C735.071 70.752 734.047 71.936 733.727 73.696ZM760.171 66.336C763.883 66.336 766.443 68.928 766.443 72.96V84H759.979V74.816C759.979 73.088 758.987 72 757.483 72C755.723 72.032 754.635 73.408 754.635 75.392V84H748.171V66.592H754.635V69.28C755.851 67.36 757.739 66.336 760.171 66.336ZM780.61 78.72L781.762 83.168C780.546 83.872 778.69 84.288 776.93 84.288C773.218 84.32 770.722 82.176 770.722 78.56V71.616H768.322V67.488H770.722V62.656H777.154V67.488H781.442V71.616H777.154V77.568C777.154 78.688 777.73 79.232 778.626 79.232C779.138 79.232 779.842 79.008 780.61 78.72ZM799.585 66.368C805.441 66.368 809.249 69.888 809.249 75.296C809.249 80.672 805.441 84.224 799.585 84.224C793.729 84.224 789.889 80.672 789.889 75.296C789.889 69.888 793.729 66.368 799.585 66.368ZM799.585 71.488C797.665 71.488 796.417 73.056 796.417 75.36C796.417 77.696 797.665 79.232 799.585 79.232C801.473 79.232 802.721 77.696 802.721 75.36C802.721 73.056 801.473 71.488 799.585 71.488ZM820.923 64.992C819.835 64.992 819.099 65.6 819.099 66.656V67.488H822.715V71.616H819.099V84H812.699V71.616H810.331V67.488H812.699V65.888C812.699 62.176 815.547 59.936 819.643 59.968C821.499 59.968 823.579 60.416 824.987 61.216L822.779 65.664C822.203 65.248 821.467 64.992 820.923 64.992ZM839.8 66.336C844.696 66.336 847.608 68.672 847.608 72.704V84H841.272V82.08C840.216 83.488 838.488 84.288 836.184 84.288C832.472 84.288 830.296 82.08 830.296 78.816C830.296 75.456 832.632 73.6 837.016 73.536H841.272V73.472C841.272 72.032 840.248 71.168 838.264 71.168C836.888 71.168 834.936 71.584 833.016 72.416L831.416 68.128C834.264 66.976 837.08 66.336 839.8 66.336ZM838.328 80.064C839.64 80.064 840.792 79.36 841.272 78.272V76.704H838.328C837.048 76.704 836.376 77.248 836.376 78.336C836.376 79.424 837.08 80.064 838.328 80.064ZM869.438 66.368C874.302 66.368 877.502 69.952 877.502 75.392C877.502 80.736 874.398 84.224 869.598 84.224C867.55 84.224 865.854 83.424 864.67 81.984V84H858.206V60.256H864.67V68.608C865.822 67.168 867.486 66.368 869.438 66.368ZM867.806 79.104C869.726 79.104 870.974 77.536 870.974 75.232C870.974 72.928 869.726 71.36 867.806 71.36C865.95 71.36 864.67 72.928 864.67 75.232C864.67 77.536 865.95 79.104 867.806 79.104ZM888.269 66.336C893.165 66.336 896.077 68.672 896.077 72.704V84H889.741V82.08C888.685 83.488 886.957 84.288 884.653 84.288C880.941 84.288 878.765 82.08 878.765 78.816C878.765 75.456 881.101 73.6 885.485 73.536H889.741V73.472C889.741 72.032 888.717 71.168 886.733 71.168C885.357 71.168 883.405 71.584 881.485 72.416L879.885 68.128C882.733 66.976 885.549 66.336 888.269 66.336ZM886.797 80.064C888.109 80.064 889.261 79.36 889.741 78.272V76.704H886.797C885.517 76.704 884.845 77.248 884.845 78.336C884.845 79.424 885.549 80.064 886.797 80.064ZM910.267 78.72L911.419 83.168C910.203 83.872 908.347 84.288 906.587 84.288C902.875 84.32 900.379 82.176 900.379 78.56V71.616H897.979V67.488H900.379V62.656H906.811V67.488H911.099V71.616H906.811V77.568C906.811 78.688 907.387 79.232 908.283 79.232C908.795 79.232 909.499 79.008 910.267 78.72ZM926.05 66.336C929.794 66.336 932.322 68.928 932.322 72.96V84H925.858V74.816C925.858 73.088 924.898 72 923.362 72C921.602 72.032 920.514 73.408 920.514 75.392V84H914.049V60.256H920.514V69.28C921.73 67.36 923.618 66.336 926.05 66.336ZM946.485 78.72L947.637 83.168C946.421 83.872 944.565 84.288 942.805 84.288C939.093 84.32 936.597 82.176 936.597 78.56V71.616H934.197V67.488H936.597V62.656H943.029V67.488H947.317V71.616H943.029V77.568C943.029 78.688 943.605 79.232 944.501 79.232C945.013 79.232 945.717 79.008 946.485 78.72ZM967.58 66.592V84H961.116V81.408C959.932 83.264 958.108 84.288 955.772 84.288C952.124 84.288 949.628 81.696 949.628 77.632V66.592H956.092V75.808C956.092 77.504 957.02 78.592 958.428 78.592C960.092 78.56 961.116 77.184 961.116 75.2V66.592H967.58ZM982.875 66.368C987.739 66.368 990.939 69.952 990.939 75.392C990.939 80.736 987.835 84.224 983.035 84.224C980.987 84.224 979.291 83.424 978.107 81.984V84H971.643V60.256H978.107V68.608C979.259 67.168 980.923 66.368 982.875 66.368ZM981.243 79.104C983.163 79.104 984.411 77.536 984.411 75.232C984.411 72.928 983.163 71.36 981.243 71.36C979.387 71.36 978.107 72.928 978.107 75.232C978.107 77.536 979.387 79.104 981.243 79.104ZM1008.87 66.368C1014.72 66.368 1018.53 69.888 1018.53 75.296C1018.53 80.672 1014.72 84.224 1008.87 84.224C1003.01 84.224 999.171 80.672 999.171 75.296C999.171 69.888 1003.01 66.368 1008.87 66.368ZM1008.87 71.488C1006.95 71.488 1005.7 73.056 1005.7 75.36C1005.7 77.696 1006.95 79.232 1008.87 79.232C1010.75 79.232 1012 77.696 1012 75.36C1012 73.056 1010.75 71.488 1008.87 71.488ZM1030.2 64.992C1029.12 64.992 1028.38 65.6 1028.38 66.656V67.488H1032V71.616H1028.38V84H1021.98V71.616H1019.61V67.488H1021.98V65.888C1021.98 62.176 1024.83 59.936 1028.92 59.968C1030.78 59.968 1032.86 60.416 1034.27 61.216L1032.06 65.664C1031.48 65.248 1030.75 64.992 1030.2 64.992ZM1063.58 84H1057.21L1054.33 74.016L1051.39 84H1045.02L1038.68 66.592H1045.24L1048.38 77.696L1051.39 66.592H1057.47L1060.57 77.696L1063.64 66.592H1069.91L1063.58 84ZM1079.3 66.336C1084.2 66.336 1087.11 68.672 1087.11 72.704V84H1080.77V82.08C1079.72 83.488 1077.99 84.288 1075.68 84.288C1071.97 84.288 1069.8 82.08 1069.8 78.816C1069.8 75.456 1072.13 73.6 1076.52 73.536H1080.77V73.472C1080.77 72.032 1079.75 71.168 1077.76 71.168C1076.39 71.168 1074.44 71.584 1072.52 72.416L1070.92 68.128C1073.76 66.976 1076.58 66.336 1079.3 66.336ZM1077.83 80.064C1079.14 80.064 1080.29 79.36 1080.77 78.272V76.704H1077.83C1076.55 76.704 1075.88 77.248 1075.88 78.336C1075.88 79.424 1076.58 80.064 1077.83 80.064ZM1101.3 78.72L1102.45 83.168C1101.23 83.872 1099.38 84.288 1097.62 84.288C1093.91 84.32 1091.41 82.176 1091.41 78.56V71.616H1089.01V67.488H1091.41V62.656H1097.84V67.488H1102.13V71.616H1097.84V77.568C1097.84 78.688 1098.42 79.232 1099.31 79.232C1099.83 79.232 1100.53 79.008 1101.3 78.72ZM1112.73 66.368C1118.84 66.368 1122.17 70.464 1121.79 76.864H1110.07C1110.59 78.528 1111.8 79.456 1113.47 79.456C1114.84 79.456 1116.15 78.848 1117.31 77.792L1120.67 81.088C1118.84 83.104 1116.22 84.224 1112.92 84.224C1107.1 84.224 1103.55 80.704 1103.55 75.36C1103.55 69.92 1107.23 66.368 1112.73 66.368ZM1109.95 73.696H1115.42C1115.45 71.968 1114.36 70.752 1112.79 70.752C1111.29 70.752 1110.27 71.936 1109.95 73.696ZM1130.85 66.592V69.344C1132.07 67.424 1133.96 66.336 1136.33 66.336V72.16C1133 71.744 1130.85 73.152 1130.85 75.68V84H1124.39V66.592H1130.85ZM1140.72 78.24C1142.51 78.24 1143.76 79.456 1143.76 81.216C1143.76 83.008 1142.51 84.256 1140.72 84.256C1138.96 84.256 1137.71 83.008 1137.71 81.216C1137.71 79.456 1138.96 78.24 1140.72 78.24ZM212.005 110.088V129H208.229V110.088H201.445V106.632H218.789V110.088H212.005ZM225.785 119.784V129H222.201V105.288H225.785V115.08C226.297 114.035 227.065 113.213 228.089 112.616C229.135 112.019 230.255 111.72 231.449 111.72C233.369 111.72 234.916 112.307 236.089 113.48C237.284 114.653 237.881 116.349 237.881 118.568V129H234.297V119.656C234.297 116.52 232.996 114.952 230.393 114.952C229.156 114.952 228.079 115.368 227.161 116.2C226.244 117.011 225.785 118.205 225.785 119.784ZM246.473 129H242.889V111.976H246.473V129ZM243.113 108.584C242.665 108.136 242.441 107.603 242.441 106.984C242.441 106.365 242.665 105.832 243.113 105.384C243.561 104.936 244.094 104.712 244.713 104.712C245.332 104.712 245.865 104.936 246.313 105.384C246.761 105.832 246.985 106.365 246.985 106.984C246.985 107.603 246.761 108.136 246.313 108.584C245.865 109.032 245.332 109.256 244.713 109.256C244.094 109.256 243.561 109.032 243.113 108.584ZM263.798 123.912C263.798 125.533 263.211 126.835 262.038 127.816C260.865 128.776 259.361 129.256 257.526 129.256C256.289 129.256 254.998 129.032 253.654 128.584C252.331 128.136 251.158 127.507 250.134 126.696L251.862 123.912C253.846 125.405 255.766 126.152 257.622 126.152C258.433 126.152 259.073 125.971 259.542 125.608C260.011 125.224 260.246 124.744 260.246 124.168C260.246 123.315 259.115 122.547 256.854 121.864C256.683 121.8 256.555 121.757 256.47 121.736C252.929 120.776 251.158 119.176 251.158 116.936C251.158 115.357 251.766 114.099 252.982 113.16C254.219 112.2 255.819 111.72 257.782 111.72C259.745 111.72 261.601 112.296 263.35 113.448L262.006 116.104C260.619 115.187 259.115 114.728 257.494 114.728C256.641 114.728 255.947 114.888 255.414 115.208C254.881 115.507 254.614 115.965 254.614 116.584C254.614 117.139 254.891 117.544 255.446 117.8C255.83 117.992 256.363 118.173 257.046 118.344C257.75 118.515 258.369 118.685 258.902 118.856C259.435 119.027 259.947 119.219 260.438 119.432C260.95 119.645 261.494 119.944 262.07 120.328C263.222 121.096 263.798 122.291 263.798 123.912ZM280.223 129H276.639V111.976H280.223V129ZM276.863 108.584C276.415 108.136 276.191 107.603 276.191 106.984C276.191 106.365 276.415 105.832 276.863 105.384C277.311 104.936 277.844 104.712 278.463 104.712C279.082 104.712 279.615 104.936 280.063 105.384C280.511 105.832 280.735 106.365 280.735 106.984C280.735 107.603 280.511 108.136 280.063 108.584C279.615 109.032 279.082 109.256 278.463 109.256C277.844 109.256 277.311 109.032 276.863 108.584ZM297.548 123.912C297.548 125.533 296.961 126.835 295.788 127.816C294.615 128.776 293.111 129.256 291.276 129.256C290.039 129.256 288.748 129.032 287.404 128.584C286.081 128.136 284.908 127.507 283.884 126.696L285.612 123.912C287.596 125.405 289.516 126.152 291.372 126.152C292.183 126.152 292.823 125.971 293.292 125.608C293.761 125.224 293.996 124.744 293.996 124.168C293.996 123.315 292.865 122.547 290.604 121.864C290.433 121.8 290.305 121.757 290.22 121.736C286.679 120.776 284.908 119.176 284.908 116.936C284.908 115.357 285.516 114.099 286.732 113.16C287.969 112.2 289.569 111.72 291.532 111.72C293.495 111.72 295.351 112.296 297.1 113.448L295.756 116.104C294.369 115.187 292.865 114.728 291.244 114.728C290.391 114.728 289.697 114.888 289.164 115.208C288.631 115.507 288.364 115.965 288.364 116.584C288.364 117.139 288.641 117.544 289.196 117.8C289.58 117.992 290.113 118.173 290.796 118.344C291.5 118.515 292.119 118.685 292.652 118.856C293.185 119.027 293.697 119.219 294.188 119.432C294.7 119.645 295.244 119.944 295.82 120.328C296.972 121.096 297.548 122.291 297.548 123.912ZM314.805 114.856V123.496C314.805 124.307 315.018 124.957 315.445 125.448C315.872 125.917 316.469 126.152 317.237 126.152C318.005 126.152 318.741 125.779 319.445 125.032L320.917 127.56C319.658 128.691 318.261 129.256 316.725 129.256C315.21 129.256 313.909 128.733 312.821 127.688C311.754 126.621 311.221 125.192 311.221 123.4V114.856H309.077V111.976H311.221V106.632H314.805V111.976H319.285V114.856H314.805ZM327.348 119.784V129H323.764V105.288H327.348V115.08C327.86 114.035 328.628 113.213 329.652 112.616C330.697 112.019 331.817 111.72 333.012 111.72C334.932 111.72 336.479 112.307 337.652 113.48C338.847 114.653 339.444 116.349 339.444 118.568V129H335.86V119.656C335.86 116.52 334.559 114.952 331.956 114.952C330.719 114.952 329.641 115.368 328.724 116.2C327.807 117.011 327.348 118.205 327.348 119.784ZM360.291 122.056H346.947C347.033 123.293 347.598 124.296 348.643 125.064C349.689 125.811 350.883 126.184 352.227 126.184C354.361 126.184 355.982 125.512 357.091 124.168L359.139 126.408C357.305 128.307 354.915 129.256 351.971 129.256C349.582 129.256 347.545 128.467 345.859 126.888C344.195 125.288 343.363 123.155 343.363 120.488C343.363 117.8 344.217 115.667 345.923 114.088C347.63 112.509 349.635 111.72 351.939 111.72C354.265 111.72 356.238 112.424 357.859 113.832C359.481 115.219 360.291 117.139 360.291 119.592V122.056ZM346.947 119.24H356.707C356.707 117.811 356.259 116.712 355.363 115.944C354.467 115.176 353.358 114.792 352.035 114.792C350.734 114.792 349.561 115.197 348.515 116.008C347.47 116.797 346.947 117.875 346.947 119.24ZM381.942 115.336C380.171 115.336 378.838 115.912 377.942 117.064C377.046 118.216 376.598 119.763 376.598 121.704V129H373.014V111.976H376.598V115.4C377.174 114.333 377.953 113.459 378.934 112.776C379.937 112.093 380.993 111.741 382.102 111.72L382.134 115.336C382.07 115.336 382.006 115.336 381.942 115.336ZM401.573 122.056H388.229C388.314 123.293 388.879 124.296 389.925 125.064C390.97 125.811 392.165 126.184 393.509 126.184C395.642 126.184 397.263 125.512 398.373 124.168L400.421 126.408C398.586 128.307 396.197 129.256 393.253 129.256C390.863 129.256 388.826 128.467 387.141 126.888C385.477 125.288 384.645 123.155 384.645 120.488C384.645 117.8 385.498 115.667 387.205 114.088C388.911 112.509 390.917 111.72 393.221 111.72C395.546 111.72 397.519 112.424 399.141 113.832C400.762 115.219 401.573 117.139 401.573 119.592V122.056ZM388.229 119.24H397.989C397.989 117.811 397.541 116.712 396.645 115.944C395.749 115.176 394.639 114.792 393.317 114.792C392.015 114.792 390.842 115.197 389.797 116.008C388.751 116.797 388.229 117.875 388.229 119.24ZM412.458 129.256C410.325 129.256 408.447 128.435 406.826 126.792C405.226 125.149 404.426 123.016 404.426 120.392C404.426 117.768 405.237 115.667 406.858 114.088C408.479 112.509 410.431 111.72 412.714 111.72C414.997 111.72 416.842 112.797 418.25 114.952V111.976H421.834V135.208H418.25V126.44C416.543 128.317 414.613 129.256 412.458 129.256ZM408.01 120.552C408.01 122.173 408.533 123.496 409.578 124.52C410.623 125.544 411.85 126.056 413.258 126.056C414.666 126.056 415.861 125.544 416.842 124.52C417.823 123.475 418.314 122.141 418.314 120.52C418.314 118.899 417.823 117.555 416.842 116.488C415.861 115.4 414.655 114.856 413.226 114.856C411.797 114.856 410.57 115.4 409.546 116.488C408.522 117.555 408.01 118.909 408.01 120.552ZM438.918 121.192V111.976H442.502V129H438.918V125.896C438.342 126.941 437.542 127.763 436.518 128.36C435.515 128.957 434.427 129.256 433.254 129.256C431.334 129.256 429.777 128.669 428.582 127.496C427.409 126.323 426.822 124.627 426.822 122.408V111.976H430.406V121.32C430.406 124.456 431.707 126.024 434.31 126.024C435.547 126.024 436.625 125.619 437.542 124.808C438.459 123.976 438.918 122.771 438.918 121.192ZM451.285 129H447.701V111.976H451.285V129ZM447.925 108.584C447.477 108.136 447.253 107.603 447.253 106.984C447.253 106.365 447.477 105.832 447.925 105.384C448.373 104.936 448.907 104.712 449.525 104.712C450.144 104.712 450.677 104.936 451.125 105.384C451.573 105.832 451.797 106.365 451.797 106.984C451.797 107.603 451.573 108.136 451.125 108.584C450.677 109.032 450.144 109.256 449.525 109.256C448.907 109.256 448.373 109.032 447.925 108.584ZM465.411 115.336C463.64 115.336 462.307 115.912 461.411 117.064C460.515 118.216 460.067 119.763 460.067 121.704V129H456.483V111.976H460.067V115.4C460.643 114.333 461.421 113.459 462.403 112.776C463.405 112.093 464.461 111.741 465.571 111.72L465.603 115.336C465.539 115.336 465.475 115.336 465.411 115.336ZM485.041 122.056H471.697C471.783 123.293 472.348 124.296 473.393 125.064C474.439 125.811 475.633 126.184 476.977 126.184C479.111 126.184 480.732 125.512 481.841 124.168L483.889 126.408C482.055 128.307 479.665 129.256 476.721 129.256C474.332 129.256 472.295 128.467 470.609 126.888C468.945 125.288 468.113 123.155 468.113 120.488C468.113 117.8 468.967 115.667 470.673 114.088C472.38 112.509 474.385 111.72 476.689 111.72C479.015 111.72 480.988 112.424 482.609 113.832C484.231 115.219 485.041 117.139 485.041 119.592V122.056ZM471.697 119.24H481.457C481.457 117.811 481.009 116.712 480.113 115.944C479.217 115.176 478.108 114.792 476.785 114.792C475.484 114.792 474.311 115.197 473.265 116.008C472.22 116.797 471.697 117.875 471.697 119.24ZM495.927 129.256C493.772 129.256 491.895 128.445 490.295 126.824C488.695 125.203 487.895 123.069 487.895 120.424C487.895 117.779 488.716 115.667 490.359 114.088C492.001 112.509 493.953 111.72 496.215 111.72C498.497 111.72 500.332 112.68 501.719 114.6V105.256H505.303V129H501.719V126.44C500.396 128.317 498.465 129.256 495.927 129.256ZM491.479 120.584C491.479 122.205 492.001 123.528 493.047 124.552C494.092 125.576 495.319 126.088 496.727 126.088C498.135 126.088 499.329 125.576 500.311 124.552C501.292 123.507 501.783 122.173 501.783 120.552C501.783 118.931 501.292 117.576 500.311 116.488C499.329 115.4 498.124 114.856 496.695 114.856C495.265 114.856 494.039 115.4 493.015 116.488C491.991 117.576 491.479 118.941 491.479 120.584ZM526.208 129.256C524.053 129.256 522.176 128.445 520.576 126.824C518.976 125.203 518.176 123.069 518.176 120.424C518.176 117.779 518.997 115.667 520.64 114.088C522.283 112.509 524.235 111.72 526.496 111.72C528.779 111.72 530.613 112.68 532 114.6V105.256H535.584V129H532V126.44C530.677 128.317 528.747 129.256 526.208 129.256ZM521.76 120.584C521.76 122.205 522.283 123.528 523.328 124.552C524.373 125.576 525.6 126.088 527.008 126.088C528.416 126.088 529.611 125.576 530.592 124.552C531.573 123.507 532.064 122.173 532.064 120.552C532.064 118.931 531.573 117.576 530.592 116.488C529.611 115.4 528.405 114.856 526.976 114.856C525.547 114.856 524.32 115.4 523.296 116.488C522.272 117.576 521.76 118.941 521.76 120.584ZM556.604 122.056H543.26C543.345 123.293 543.911 124.296 544.956 125.064C546.001 125.811 547.196 126.184 548.54 126.184C550.673 126.184 552.295 125.512 553.404 124.168L555.452 126.408C553.617 128.307 551.228 129.256 548.284 129.256C545.895 129.256 543.857 128.467 542.172 126.888C540.508 125.288 539.676 123.155 539.676 120.488C539.676 117.8 540.529 115.667 542.236 114.088C543.943 112.509 545.948 111.72 548.252 111.72C550.577 111.72 552.551 112.424 554.172 113.832C555.793 115.219 556.604 117.139 556.604 119.592V122.056ZM543.26 119.24H553.02C553.02 117.811 552.572 116.712 551.676 115.944C550.78 115.176 549.671 114.792 548.348 114.792C547.047 114.792 545.873 115.197 544.828 116.008C543.783 116.797 543.26 117.875 543.26 119.24ZM564.129 119.784V129H560.545V111.976H564.129V115.08C564.705 114.035 565.494 113.213 566.497 112.616C567.521 112.019 568.62 111.72 569.793 111.72C571.713 111.72 573.26 112.307 574.433 113.48C575.628 114.653 576.225 116.349 576.225 118.568V129H572.641V119.656C572.641 116.52 571.34 114.952 568.737 114.952C567.5 114.952 566.422 115.368 565.505 116.2C564.588 117.011 564.129 118.205 564.129 119.784ZM593.361 123.912C593.361 125.533 592.774 126.835 591.601 127.816C590.427 128.776 588.923 129.256 587.089 129.256C585.851 129.256 584.561 129.032 583.217 128.584C581.894 128.136 580.721 127.507 579.697 126.696L581.425 123.912C583.409 125.405 585.329 126.152 587.185 126.152C587.995 126.152 588.635 125.971 589.105 125.608C589.574 125.224 589.809 124.744 589.809 124.168C589.809 123.315 588.678 122.547 586.417 121.864C586.246 121.8 586.118 121.757 586.033 121.736C582.491 120.776 580.721 119.176 580.721 116.936C580.721 115.357 581.329 114.099 582.545 113.16C583.782 112.2 585.382 111.72 587.345 111.72C589.307 111.72 591.163 112.296 592.913 113.448L591.569 116.104C590.182 115.187 588.678 114.728 587.057 114.728C586.203 114.728 585.51 114.888 584.977 115.208C584.443 115.507 584.177 115.965 584.177 116.584C584.177 117.139 584.454 117.544 585.009 117.8C585.393 117.992 585.926 118.173 586.609 118.344C587.313 118.515 587.931 118.685 588.465 118.856C588.998 119.027 589.51 119.219 590.001 119.432C590.513 119.645 591.057 119.944 591.633 120.328C592.785 121.096 593.361 122.291 593.361 123.912ZM601.004 129H597.42V111.976H601.004V129ZM597.644 108.584C597.196 108.136 596.972 107.603 596.972 106.984C596.972 106.365 597.196 105.832 597.644 105.384C598.092 104.936 598.625 104.712 599.244 104.712C599.863 104.712 600.396 104.936 600.844 105.384C601.292 105.832 601.516 106.365 601.516 106.984C601.516 107.603 601.292 108.136 600.844 108.584C600.396 109.032 599.863 109.256 599.244 109.256C598.625 109.256 598.092 109.032 597.644 108.584ZM610.617 114.856V123.496C610.617 124.307 610.831 124.957 611.257 125.448C611.684 125.917 612.281 126.152 613.049 126.152C613.817 126.152 614.553 125.779 615.257 125.032L616.729 127.56C615.471 128.691 614.073 129.256 612.537 129.256C611.023 129.256 609.721 128.733 608.633 127.688C607.567 126.621 607.033 125.192 607.033 123.4V114.856H604.889V111.976H607.033V106.632H610.617V111.976H615.097V114.856H610.617ZM621.72 135.784C620.163 135.784 618.755 135.219 617.496 134.088L619.128 131.176C619.875 131.88 620.643 132.232 621.432 132.232C622.243 132.232 622.894 131.944 623.384 131.368C623.896 130.792 624.152 130.163 624.152 129.48C624.152 129.181 621.859 123.347 617.272 111.976H621.112L626.2 124.52L631.288 111.976H635.128L626.872 132.2C626.382 133.309 625.678 134.184 624.76 134.824C623.843 135.464 622.83 135.784 621.72 135.784ZM651.149 110.568V111.976H655.629V114.856H651.149V129H647.565V114.856H645.421V111.976H647.565V110.664C647.565 108.872 648.098 107.453 649.165 106.408C650.253 105.341 651.554 104.808 653.069 104.808C654.605 104.808 656.002 105.373 657.261 106.504L655.789 109.032C655.085 108.285 654.349 107.912 653.581 107.912C652.813 107.912 652.215 108.157 651.789 108.648C651.362 109.117 651.149 109.757 651.149 110.568ZM662.638 124.52C663.662 125.544 664.953 126.056 666.51 126.056C668.067 126.056 669.347 125.544 670.35 124.52C671.374 123.475 671.886 122.131 671.886 120.488C671.886 118.845 671.374 117.512 670.35 116.488C669.347 115.443 668.067 114.92 666.51 114.92C664.953 114.92 663.662 115.443 662.638 116.488C661.635 117.512 661.134 118.845 661.134 120.488C661.134 122.131 661.635 123.475 662.638 124.52ZM672.91 126.728C671.203 128.413 669.07 129.256 666.51 129.256C663.95 129.256 661.817 128.413 660.11 126.728C658.403 125.021 657.55 122.941 657.55 120.488C657.55 118.035 658.403 115.965 660.11 114.28C661.817 112.573 663.95 111.72 666.51 111.72C669.07 111.72 671.203 112.573 672.91 114.28C674.617 115.965 675.47 118.035 675.47 120.488C675.47 122.941 674.617 125.021 672.91 126.728ZM688.473 115.336C686.702 115.336 685.369 115.912 684.473 117.064C683.577 118.216 683.129 119.763 683.129 121.704V129H679.545V111.976H683.129V115.4C683.705 114.333 684.484 113.459 685.465 112.776C686.468 112.093 687.524 111.741 688.633 111.72L688.665 115.336C688.601 115.336 688.537 115.336 688.473 115.336ZM704.629 129H701.045V105.256H704.629V129ZM723.618 129H720.354V126.728C718.946 128.413 717.058 129.256 714.69 129.256C712.92 129.256 711.448 128.755 710.274 127.752C709.122 126.749 708.546 125.416 708.546 123.752C708.546 122.067 709.165 120.808 710.402 119.976C711.64 119.144 713.314 118.728 715.426 118.728H720.066V118.088C720.066 115.827 718.808 114.696 716.29 114.696C714.712 114.696 713.069 115.272 711.362 116.424L709.762 114.184C711.832 112.541 714.178 111.72 716.802 111.72C718.808 111.72 720.44 112.232 721.698 113.256C722.978 114.259 723.618 115.848 723.618 118.024V129ZM720.034 122.664V121.224H716.002C713.421 121.224 712.13 122.035 712.13 123.656C712.13 124.488 712.45 125.128 713.09 125.576C713.73 126.003 714.616 126.216 715.746 126.216C716.898 126.216 717.901 125.896 718.754 125.256C719.608 124.616 720.034 123.752 720.034 122.664ZM732.192 119.784V129H728.608V111.976H732.192V115.08C732.768 114.035 733.557 113.213 734.56 112.616C735.584 112.019 736.682 111.72 737.856 111.72C739.776 111.72 741.322 112.307 742.496 113.48C743.69 114.653 744.288 116.349 744.288 118.568V129H740.704V119.656C740.704 116.52 739.402 114.952 736.8 114.952C735.562 114.952 734.485 115.368 733.568 116.2C732.65 117.011 732.192 118.205 732.192 119.784ZM756.239 129.256C754.084 129.256 752.207 128.445 750.607 126.824C749.007 125.203 748.207 123.069 748.207 120.424C748.207 117.779 749.028 115.667 750.671 114.088C752.314 112.509 754.266 111.72 756.527 111.72C758.81 111.72 760.644 112.68 762.031 114.6V105.256H765.615V129H762.031V126.44C760.708 128.317 758.778 129.256 756.239 129.256ZM751.791 120.584C751.791 122.205 752.314 123.528 753.359 124.552C754.404 125.576 755.631 126.088 757.039 126.088C758.447 126.088 759.642 125.576 760.623 124.552C761.604 123.507 762.095 122.173 762.095 120.552C762.095 118.931 761.604 117.576 760.623 116.488C759.642 115.4 758.436 114.856 757.007 114.856C755.578 114.856 754.351 115.4 753.327 116.488C752.303 117.576 751.791 118.941 751.791 120.584ZM770.507 121.128V117.768H781.131V121.128H770.507ZM795.134 111.72C797.417 111.72 799.369 112.509 800.99 114.088C802.611 115.667 803.422 117.768 803.422 120.392C803.422 123.016 802.611 125.149 800.99 126.792C799.39 128.435 797.513 129.256 795.358 129.256C793.225 129.256 791.305 128.317 789.598 126.44V129H786.014V105.256H789.598V114.952C791.006 112.797 792.851 111.72 795.134 111.72ZM789.534 120.52C789.534 122.141 790.025 123.475 791.006 124.52C791.987 125.544 793.182 126.056 794.59 126.056C795.998 126.056 797.225 125.544 798.27 124.52C799.315 123.496 799.838 122.173 799.838 120.552C799.838 118.909 799.326 117.555 798.302 116.488C797.278 115.4 796.051 114.856 794.622 114.856C793.193 114.856 791.987 115.4 791.006 116.488C790.025 117.555 789.534 118.899 789.534 120.52ZM821.306 129H818.042V126.728C816.634 128.413 814.746 129.256 812.378 129.256C810.607 129.256 809.135 128.755 807.962 127.752C806.81 126.749 806.234 125.416 806.234 123.752C806.234 122.067 806.853 120.808 808.09 119.976C809.327 119.144 811.002 118.728 813.114 118.728H817.754V118.088C817.754 115.827 816.495 114.696 813.978 114.696C812.399 114.696 810.757 115.272 809.05 116.424L807.45 114.184C809.519 112.541 811.866 111.72 814.49 111.72C816.495 111.72 818.127 112.232 819.386 113.256C820.666 114.259 821.306 115.848 821.306 118.024V129ZM817.722 122.664V121.224H813.69C811.109 121.224 809.818 122.035 809.818 123.656C809.818 124.488 810.138 125.128 810.778 125.576C811.418 126.003 812.303 126.216 813.434 126.216C814.586 126.216 815.589 125.896 816.442 125.256C817.295 124.616 817.722 123.752 817.722 122.664ZM838.423 123.912C838.423 125.533 837.836 126.835 836.663 127.816C835.49 128.776 833.986 129.256 832.151 129.256C830.914 129.256 829.623 129.032 828.279 128.584C826.956 128.136 825.783 127.507 824.759 126.696L826.487 123.912C828.471 125.405 830.391 126.152 832.247 126.152C833.058 126.152 833.698 125.971 834.167 125.608C834.636 125.224 834.871 124.744 834.871 124.168C834.871 123.315 833.74 122.547 831.479 121.864C831.308 121.8 831.18 121.757 831.095 121.736C827.554 120.776 825.783 119.176 825.783 116.936C825.783 115.357 826.391 114.099 827.607 113.16C828.844 112.2 830.444 111.72 832.407 111.72C834.37 111.72 836.226 112.296 837.975 113.448L836.631 116.104C835.244 115.187 833.74 114.728 832.119 114.728C831.266 114.728 830.572 114.888 830.039 115.208C829.506 115.507 829.239 115.965 829.239 116.584C829.239 117.139 829.516 117.544 830.071 117.8C830.455 117.992 830.988 118.173 831.671 118.344C832.375 118.515 832.994 118.685 833.527 118.856C834.06 119.027 834.572 119.219 835.063 119.432C835.575 119.645 836.119 119.944 836.695 120.328C837.847 121.096 838.423 122.291 838.423 123.912ZM858.323 122.056H844.979C845.064 123.293 845.629 124.296 846.675 125.064C847.72 125.811 848.915 126.184 850.259 126.184C852.392 126.184 854.013 125.512 855.123 124.168L857.171 126.408C855.336 128.307 852.947 129.256 850.003 129.256C847.613 129.256 845.576 128.467 843.891 126.888C842.227 125.288 841.395 123.155 841.395 120.488C841.395 117.8 842.248 115.667 843.955 114.088C845.661 112.509 847.667 111.72 849.971 111.72C852.296 111.72 854.269 112.424 855.891 113.832C857.512 115.219 858.323 117.139 858.323 119.592V122.056ZM844.979 119.24H854.739C854.739 117.811 854.291 116.712 853.395 115.944C852.499 115.176 851.389 114.792 850.067 114.792C848.765 114.792 847.592 115.197 846.547 116.008C845.501 116.797 844.979 117.875 844.979 119.24ZM869.208 129.256C867.053 129.256 865.176 128.445 863.576 126.824C861.976 125.203 861.176 123.069 861.176 120.424C861.176 117.779 861.997 115.667 863.64 114.088C865.283 112.509 867.235 111.72 869.496 111.72C871.779 111.72 873.613 112.68 875 114.6V105.256H878.584V129H875V126.44C873.677 128.317 871.747 129.256 869.208 129.256ZM864.76 120.584C864.76 122.205 865.283 123.528 866.328 124.552C867.373 125.576 868.6 126.088 870.008 126.088C871.416 126.088 872.611 125.576 873.592 124.552C874.573 123.507 875.064 122.173 875.064 120.552C875.064 118.931 874.573 117.576 873.592 116.488C872.611 115.4 871.405 114.856 869.976 114.856C868.547 114.856 867.32 115.4 866.296 116.488C865.272 117.576 864.76 118.941 864.76 120.584ZM896.961 110.568V111.976H901.441V114.856H896.961V129H893.377V114.856H891.233V111.976H893.377V110.664C893.377 108.872 893.91 107.453 894.977 106.408C896.065 105.341 897.366 104.808 898.881 104.808C900.417 104.808 901.814 105.373 903.073 106.504L901.601 109.032C900.897 108.285 900.161 107.912 899.393 107.912C898.625 107.912 898.028 108.157 897.601 108.648C897.174 109.117 896.961 109.757 896.961 110.568ZM918.525 129H915.261V126.728C913.853 128.413 911.965 129.256 909.597 129.256C907.826 129.256 906.354 128.755 905.181 127.752C904.029 126.749 903.453 125.416 903.453 123.752C903.453 122.067 904.071 120.808 905.309 119.976C906.546 119.144 908.221 118.728 910.333 118.728H914.973V118.088C914.973 115.827 913.714 114.696 911.197 114.696C909.618 114.696 907.975 115.272 906.269 116.424L904.669 114.184C906.738 112.541 909.085 111.72 911.709 111.72C913.714 111.72 915.346 112.232 916.605 113.256C917.885 114.259 918.525 115.848 918.525 118.024V129ZM914.941 122.664V121.224H910.909C908.327 121.224 907.037 122.035 907.037 123.656C907.037 124.488 907.357 125.128 907.997 125.576C908.637 126.003 909.522 126.216 910.653 126.216C911.805 126.216 912.807 125.896 913.661 125.256C914.514 124.616 914.941 123.752 914.941 122.664ZM931.066 129.256C928.698 129.256 926.661 128.456 924.954 126.856C923.247 125.235 922.394 123.123 922.394 120.52C922.394 117.917 923.279 115.805 925.05 114.184C926.842 112.541 929.018 111.72 931.578 111.72C934.138 111.72 936.303 112.605 938.074 114.376L935.962 116.968C934.49 115.688 933.007 115.048 931.514 115.048C930.021 115.048 928.719 115.549 927.61 116.552C926.522 117.533 925.978 118.813 925.978 120.392C925.978 121.949 926.522 123.272 927.61 124.36C928.698 125.448 930.031 125.992 931.61 125.992C933.21 125.992 934.714 125.267 936.122 123.816L938.234 126.12C936.165 128.211 933.775 129.256 931.066 129.256ZM946.367 114.856V123.496C946.367 124.307 946.581 124.957 947.007 125.448C947.434 125.917 948.031 126.152 948.799 126.152C949.567 126.152 950.303 125.779 951.007 125.032L952.479 127.56C951.221 128.691 949.823 129.256 948.287 129.256C946.773 129.256 945.471 128.733 944.383 127.688C943.317 126.621 942.783 125.192 942.783 123.4V114.856H940.639V111.976H942.783V106.632H946.367V111.976H950.847V114.856H946.367ZM959.169 124.52C960.193 125.544 961.484 126.056 963.041 126.056C964.599 126.056 965.879 125.544 966.881 124.52C967.905 123.475 968.417 122.131 968.417 120.488C968.417 118.845 967.905 117.512 966.881 116.488C965.879 115.443 964.599 114.92 963.041 114.92C961.484 114.92 960.193 115.443 959.169 116.488C958.167 117.512 957.665 118.845 957.665 120.488C957.665 122.131 958.167 123.475 959.169 124.52ZM969.441 126.728C967.735 128.413 965.601 129.256 963.041 129.256C960.481 129.256 958.348 128.413 956.641 126.728C954.935 125.021 954.081 122.941 954.081 120.488C954.081 118.035 954.935 115.965 956.641 114.28C958.348 112.573 960.481 111.72 963.041 111.72C965.601 111.72 967.735 112.573 969.441 114.28C971.148 115.965 972.001 118.035 972.001 120.488C972.001 122.941 971.148 125.021 969.441 126.728ZM985.004 115.336C983.234 115.336 981.9 115.912 981.004 117.064C980.108 118.216 979.66 119.763 979.66 121.704V129H976.076V111.976H979.66V115.4C980.236 114.333 981.015 113.459 981.996 112.776C982.999 112.093 984.055 111.741 985.164 111.72L985.196 115.336C985.132 115.336 985.068 115.336 985.004 115.336ZM992.379 129H988.795V111.976H992.379V129ZM989.019 108.584C988.571 108.136 988.347 107.603 988.347 106.984C988.347 106.365 988.571 105.832 989.019 105.384C989.467 104.936 990 104.712 990.619 104.712C991.238 104.712 991.771 104.936 992.219 105.384C992.667 105.832 992.891 106.365 992.891 106.984C992.891 107.603 992.667 108.136 992.219 108.584C991.771 109.032 991.238 109.256 990.619 109.256C990 109.256 989.467 109.032 989.019 108.584ZM1013.42 122.056H1000.07C1000.16 123.293 1000.72 124.296 1001.77 125.064C1002.81 125.811 1004.01 126.184 1005.35 126.184C1007.49 126.184 1009.11 125.512 1010.22 124.168L1012.26 126.408C1010.43 128.307 1008.04 129.256 1005.1 129.256C1002.71 129.256 1000.67 128.467 998.984 126.888C997.32 125.288 996.488 123.155 996.488 120.488C996.488 117.8 997.342 115.667 999.048 114.088C1000.76 112.509 1002.76 111.72 1005.06 111.72C1007.39 111.72 1009.36 112.424 1010.98 113.832C1012.61 115.219 1013.42 117.139 1013.42 119.592V122.056ZM1000.07 119.24H1009.83C1009.83 117.811 1009.38 116.712 1008.49 115.944C1007.59 115.176 1006.48 114.792 1005.16 114.792C1003.86 114.792 1002.69 115.197 1001.64 116.008C1000.6 116.797 1000.07 117.875 1000.07 119.24ZM1029.49 123.912C1029.49 125.533 1028.9 126.835 1027.73 127.816C1026.55 128.776 1025.05 129.256 1023.21 129.256C1021.98 129.256 1020.69 129.032 1019.34 128.584C1018.02 128.136 1016.85 127.507 1015.82 126.696L1017.55 123.912C1019.53 125.405 1021.45 126.152 1023.31 126.152C1024.12 126.152 1024.76 125.971 1025.23 125.608C1025.7 125.224 1025.93 124.744 1025.93 124.168C1025.93 123.315 1024.8 122.547 1022.54 121.864C1022.37 121.8 1022.24 121.757 1022.16 121.736C1018.62 120.776 1016.85 119.176 1016.85 116.936C1016.85 115.357 1017.45 114.099 1018.67 113.16C1019.91 112.2 1021.51 111.72 1023.47 111.72C1025.43 111.72 1027.29 112.296 1029.04 113.448L1027.69 116.104C1026.31 115.187 1024.8 114.728 1023.18 114.728C1022.33 114.728 1021.63 114.888 1021.1 115.208C1020.57 115.507 1020.3 115.965 1020.3 116.584C1020.3 117.139 1020.58 117.544 1021.13 117.8C1021.52 117.992 1022.05 118.173 1022.73 118.344C1023.44 118.515 1024.06 118.685 1024.59 118.856C1025.12 119.027 1025.63 119.219 1026.13 119.432C1026.64 119.645 1027.18 119.944 1027.76 120.328C1028.91 121.096 1029.49 122.291 1029.49 123.912ZM1046.74 114.856V123.496C1046.74 124.307 1046.96 124.957 1047.38 125.448C1047.81 125.917 1048.41 126.152 1049.17 126.152C1049.94 126.152 1050.68 125.779 1051.38 125.032L1052.85 127.56C1051.6 128.691 1050.2 129.256 1048.66 129.256C1047.15 129.256 1045.85 128.733 1044.76 127.688C1043.69 126.621 1043.16 125.192 1043.16 123.4V114.856H1041.01V111.976H1043.16V106.632H1046.74V111.976H1051.22V114.856H1046.74ZM1059.54 124.52C1060.57 125.544 1061.86 126.056 1063.42 126.056C1064.97 126.056 1066.25 125.544 1067.26 124.52C1068.28 123.475 1068.79 122.131 1068.79 120.488C1068.79 118.845 1068.28 117.512 1067.26 116.488C1066.25 115.443 1064.97 114.92 1063.42 114.92C1061.86 114.92 1060.57 115.443 1059.54 116.488C1058.54 117.512 1058.04 118.845 1058.04 120.488C1058.04 122.131 1058.54 123.475 1059.54 124.52ZM1069.82 126.728C1068.11 128.413 1065.98 129.256 1063.42 129.256C1060.86 129.256 1058.72 128.413 1057.02 126.728C1055.31 125.021 1054.46 122.941 1054.46 120.488C1054.46 118.035 1055.31 115.965 1057.02 114.28C1058.72 112.573 1060.86 111.72 1063.42 111.72C1065.98 111.72 1068.11 112.573 1069.82 114.28C1071.52 115.965 1072.38 118.035 1072.38 120.488C1072.38 122.941 1071.52 125.021 1069.82 126.728ZM1094.35 111.72C1096.64 111.72 1098.59 112.509 1100.21 114.088C1101.83 115.667 1102.64 117.768 1102.64 120.392C1102.64 123.016 1101.83 125.149 1100.21 126.792C1098.61 128.435 1096.73 129.256 1094.58 129.256C1092.44 129.256 1090.52 128.317 1088.82 126.44V129H1085.23V105.256H1088.82V114.952C1090.22 112.797 1092.07 111.72 1094.35 111.72ZM1088.75 120.52C1088.75 122.141 1089.24 123.475 1090.22 124.52C1091.21 125.544 1092.4 126.056 1093.81 126.056C1095.22 126.056 1096.44 125.544 1097.49 124.52C1098.53 123.496 1099.06 122.173 1099.06 120.552C1099.06 118.909 1098.54 117.555 1097.52 116.488C1096.5 115.4 1095.27 114.856 1093.84 114.856C1092.41 114.856 1091.21 115.4 1090.22 116.488C1089.24 117.555 1088.75 118.899 1088.75 120.52ZM1122.57 122.056H1109.23C1109.31 123.293 1109.88 124.296 1110.92 125.064C1111.97 125.811 1113.16 126.184 1114.51 126.184C1116.64 126.184 1118.26 125.512 1119.37 124.168L1121.42 126.408C1119.59 128.307 1117.2 129.256 1114.25 129.256C1111.86 129.256 1109.83 128.467 1108.14 126.888C1106.48 125.288 1105.64 123.155 1105.64 120.488C1105.64 117.8 1106.5 115.667 1108.2 114.088C1109.91 112.509 1111.92 111.72 1114.22 111.72C1116.55 111.72 1118.52 112.424 1120.14 113.832C1121.76 115.219 1122.57 117.139 1122.57 119.592V122.056ZM1109.23 119.24H1118.99C1118.99 117.811 1118.54 116.712 1117.64 115.944C1116.75 115.176 1115.64 114.792 1114.32 114.792C1113.02 114.792 1111.84 115.197 1110.8 116.008C1109.75 116.797 1109.23 117.875 1109.23 119.24ZM1144.42 111.72C1146.7 111.72 1148.65 112.509 1150.27 114.088C1151.89 115.667 1152.7 117.768 1152.7 120.392C1152.7 123.016 1151.89 125.149 1150.27 126.792C1148.67 128.435 1146.79 129.256 1144.64 129.256C1142.51 129.256 1140.59 128.317 1138.88 126.44V135.208H1135.3V111.976H1138.88V114.952C1140.29 112.797 1142.13 111.72 1144.42 111.72ZM1138.82 120.52C1138.82 122.141 1139.31 123.475 1140.29 124.52C1141.27 125.544 1142.46 126.056 1143.87 126.056C1145.28 126.056 1146.51 125.544 1147.55 124.52C1148.6 123.496 1149.12 122.173 1149.12 120.552C1149.12 118.909 1148.61 117.555 1147.58 116.488C1146.56 115.4 1145.33 114.856 1143.9 114.856C1142.47 114.856 1141.27 115.4 1140.29 116.488C1139.31 117.555 1138.82 118.899 1138.82 120.52ZM1165.72 115.336C1163.95 115.336 1162.62 115.912 1161.72 117.064C1160.83 118.216 1160.38 119.763 1160.38 121.704V129H1156.8V111.976H1160.38V115.4C1160.96 114.333 1161.73 113.459 1162.72 112.776C1163.72 112.093 1164.77 111.741 1165.88 111.72L1165.92 115.336C1165.85 115.336 1165.79 115.336 1165.72 115.336ZM1173.17 124.52C1174.19 125.544 1175.48 126.056 1177.04 126.056C1178.6 126.056 1179.88 125.544 1180.88 124.52C1181.91 123.475 1182.42 122.131 1182.42 120.488C1182.42 118.845 1181.91 117.512 1180.88 116.488C1179.88 115.443 1178.6 114.92 1177.04 114.92C1175.48 114.92 1174.19 115.443 1173.17 116.488C1172.17 117.512 1171.67 118.845 1171.67 120.488C1171.67 122.131 1172.17 123.475 1173.17 124.52ZM1183.44 126.728C1181.73 128.413 1179.6 129.256 1177.04 129.256C1174.48 129.256 1172.35 128.413 1170.64 126.728C1168.93 125.021 1168.08 122.941 1168.08 120.488C1168.08 118.035 1168.93 115.965 1170.64 114.28C1172.35 112.573 1174.48 111.72 1177.04 111.72C1179.6 111.72 1181.73 112.573 1183.44 114.28C1185.15 115.965 1186 118.035 1186 120.488C1186 122.941 1185.15 125.021 1183.44 126.728ZM1194.24 110.568V111.976H1198.72V114.856H1194.24V129H1190.66V114.856H1188.51V111.976H1190.66V110.664C1190.66 108.872 1191.19 107.453 1192.26 106.408C1193.35 105.341 1194.65 104.808 1196.16 104.808C1197.7 104.808 1199.1 105.373 1200.35 106.504L1198.88 109.032C1198.18 108.285 1197.44 107.912 1196.67 107.912C1195.91 107.912 1195.31 108.157 1194.88 108.648C1194.46 109.117 1194.24 109.757 1194.24 110.568ZM1205.75 129H1202.17V111.976H1205.75V129ZM1202.39 108.584C1201.95 108.136 1201.72 107.603 1201.72 106.984C1201.72 106.365 1201.95 105.832 1202.39 105.384C1202.84 104.936 1203.38 104.712 1203.99 104.712C1204.61 104.712 1205.15 104.936 1205.59 105.384C1206.04 105.832 1206.27 106.365 1206.27 106.984C1206.27 107.603 1206.04 108.136 1205.59 108.584C1205.15 109.032 1204.61 109.256 1203.99 109.256C1203.38 109.256 1202.84 109.032 1202.39 108.584ZM1215.37 114.856V123.496C1215.37 124.307 1215.58 124.957 1216.01 125.448C1216.43 125.917 1217.03 126.152 1217.8 126.152C1218.57 126.152 1219.3 125.779 1220.01 125.032L1221.48 127.56C1220.22 128.691 1218.82 129.256 1217.29 129.256C1215.77 129.256 1214.47 128.733 1213.38 127.688C1212.32 126.621 1211.78 125.192 1211.78 123.4V114.856H1209.64V111.976H1211.78V106.632H1215.37V111.976H1219.85V114.856H1215.37ZM1238.12 129H1234.85V126.728C1233.45 128.413 1231.56 129.256 1229.19 129.256C1227.42 129.256 1225.95 128.755 1224.77 127.752C1223.62 126.749 1223.05 125.416 1223.05 123.752C1223.05 122.067 1223.67 120.808 1224.9 119.976C1226.14 119.144 1227.81 118.728 1229.93 118.728H1234.57V118.088C1234.57 115.827 1233.31 114.696 1230.79 114.696C1229.21 114.696 1227.57 115.272 1225.86 116.424L1224.26 114.184C1226.33 112.541 1228.68 111.72 1231.3 111.72C1233.31 111.72 1234.94 112.232 1236.2 113.256C1237.48 114.259 1238.12 115.848 1238.12 118.024V129ZM1234.53 122.664V121.224H1230.5C1227.92 121.224 1226.63 122.035 1226.63 123.656C1226.63 124.488 1226.95 125.128 1227.59 125.576C1228.23 126.003 1229.12 126.216 1230.25 126.216C1231.4 126.216 1232.4 125.896 1233.25 125.256C1234.11 124.616 1234.53 123.752 1234.53 122.664ZM1252.23 111.72C1254.51 111.72 1256.46 112.509 1258.08 114.088C1259.7 115.667 1260.52 117.768 1260.52 120.392C1260.52 123.016 1259.7 125.149 1258.08 126.792C1256.48 128.435 1254.61 129.256 1252.45 129.256C1250.32 129.256 1248.4 128.317 1246.69 126.44V129H1243.11V105.256H1246.69V114.952C1248.1 112.797 1249.94 111.72 1252.23 111.72ZM1246.63 120.52C1246.63 122.141 1247.12 123.475 1248.1 124.52C1249.08 125.544 1250.28 126.056 1251.68 126.056C1253.09 126.056 1254.32 125.544 1255.36 124.52C1256.41 123.496 1256.93 122.173 1256.93 120.552C1256.93 118.909 1256.42 117.555 1255.4 116.488C1254.37 115.4 1253.14 114.856 1251.72 114.856C1250.29 114.856 1249.08 115.4 1248.1 116.488C1247.12 117.555 1246.63 118.899 1246.63 120.52ZM1268.19 129H1264.61V105.256H1268.19V129ZM1289.23 122.056H1275.88C1275.97 123.293 1276.54 124.296 1277.58 125.064C1278.63 125.811 1279.82 126.184 1281.16 126.184C1283.3 126.184 1284.92 125.512 1286.03 124.168L1288.08 126.408C1286.24 128.307 1283.85 129.256 1280.91 129.256C1278.52 129.256 1276.48 128.467 1274.8 126.888C1273.13 125.288 1272.3 123.155 1272.3 120.488C1272.3 117.8 1273.15 115.667 1274.86 114.088C1276.57 112.509 1278.57 111.72 1280.88 111.72C1283.2 111.72 1285.18 112.424 1286.8 113.832C1288.42 115.219 1289.23 117.139 1289.23 119.592V122.056ZM1275.88 119.24H1285.64C1285.64 117.811 1285.2 116.712 1284.3 115.944C1283.4 115.176 1282.3 114.792 1280.97 114.792C1279.67 114.792 1278.5 115.197 1277.45 116.008C1276.41 116.797 1275.88 117.875 1275.88 119.24ZM1293.36 128.552C1292.91 128.083 1292.69 127.517 1292.69 126.856C1292.69 126.195 1292.91 125.64 1293.36 125.192C1293.83 124.723 1294.4 124.488 1295.06 124.488C1295.72 124.488 1296.28 124.723 1296.75 125.192C1297.22 125.64 1297.46 126.195 1297.46 126.856C1297.46 127.517 1297.22 128.083 1296.75 128.552C1296.28 129.021 1295.72 129.256 1295.06 129.256C1294.4 129.256 1293.83 129.021 1293.36 128.552Z" fill="black"/>
</svg>
