<svg width="1500" height="760" viewBox="0 0 1500 760" fill="none" xmlns="http://www.w3.org/2000/svg">
<g clip-path="url(#clip0_3281_912)">
<rect width="1500" height="760" fill="white"/>
<path d="M146.44 328.752H137.32V331.664H138.76C144.04 331.664 147.464 334.352 147.464 338.416C147.464 343.184 143.848 346.288 138.216 346.288C135.176 346.288 131.656 345.136 129.256 343.376L131.88 338.352C133.544 340.304 135.432 341.296 137.448 341.296C139.304 341.296 140.328 340.432 140.296 338.864C140.296 337.392 139.304 336.624 137.448 336.624C136.392 336.624 132.552 336.656 131.208 336.688V323.568H146.44V328.752ZM167.353 328.08L159.385 346H152.345L160.025 328.752H155.161V331.888H149.305V323.568H167.353V328.08ZM185.19 328.752H176.07V331.664H177.51C182.79 331.664 186.214 334.352 186.214 338.416C186.214 343.184 182.598 346.288 176.966 346.288C173.926 346.288 170.406 345.136 168.006 343.376L170.63 338.352C172.294 340.304 174.182 341.296 176.198 341.296C178.054 341.296 179.078 340.432 179.046 338.864C179.046 337.392 178.054 336.624 176.198 336.624C175.142 336.624 171.302 336.656 169.958 336.688V323.568H185.19V328.752ZM219.503 328.336C223.183 328.336 225.679 330.928 225.679 334.96V346H219.215V336.816C219.215 335.088 218.255 334 216.815 334C215.151 334.032 214.095 335.408 214.095 337.392V346H207.631V336.816C207.631 335.088 206.671 334 205.231 334C203.535 334.032 202.479 335.408 202.479 337.392V346H196.015V328.592H202.479V331.248C203.663 329.36 205.519 328.336 207.887 328.336C210.607 328.336 212.687 329.744 213.615 332.112C214.735 329.68 216.783 328.336 219.503 328.336ZM232.372 320.304C234.324 320.304 235.7 321.68 235.7 323.632C235.7 325.584 234.324 326.96 232.372 326.96C230.42 326.96 229.044 325.584 229.044 323.632C229.044 321.68 230.42 320.304 232.372 320.304ZM235.572 346H229.108V328.592H235.572V346ZM247.259 328.368C250.907 328.368 253.819 330.032 255.291 332.912L250.331 335.344C249.723 334.256 248.763 333.616 247.547 333.616C245.819 333.616 244.667 335.12 244.667 337.328C244.667 339.6 245.819 341.104 247.547 341.104C248.795 341.104 249.755 340.496 250.299 339.184L255.323 341.712C253.979 344.592 251.035 346.224 247.195 346.224C241.723 346.224 238.139 342.704 238.139 337.36C238.139 331.952 241.755 328.368 247.259 328.368ZM263.916 328.592V331.344C265.132 329.424 267.02 328.336 269.388 328.336V334.16C266.06 333.744 263.916 335.152 263.916 337.68V346H257.452V328.592H263.916ZM280.023 328.368C285.879 328.368 289.687 331.888 289.687 337.296C289.687 342.672 285.879 346.224 280.023 346.224C274.167 346.224 270.327 342.672 270.327 337.296C270.327 331.888 274.167 328.368 280.023 328.368ZM280.023 333.488C278.103 333.488 276.855 335.056 276.855 337.36C276.855 339.696 278.103 341.232 280.023 341.232C281.911 341.232 283.159 339.696 283.159 337.36C283.159 335.056 281.911 333.488 280.023 333.488ZM303.625 328.368C308.489 328.368 311.689 331.952 311.689 337.392C311.689 342.736 308.585 346.224 303.785 346.224C301.737 346.224 300.041 345.424 298.857 343.984V352.208H292.393V328.592H298.857V330.608C300.009 329.168 301.673 328.368 303.625 328.368ZM301.993 341.104C303.913 341.104 305.161 339.536 305.161 337.232C305.161 334.928 303.913 333.36 301.993 333.36C300.137 333.36 298.857 334.928 298.857 337.232C298.857 339.536 300.137 341.104 301.993 341.104ZM320.889 346H314.424V322.256H320.889V346ZM333.175 328.336C338.071 328.336 340.983 330.672 340.983 334.704V346H334.647V344.08C333.591 345.488 331.863 346.288 329.559 346.288C325.847 346.288 323.671 344.08 323.671 340.816C323.671 337.456 326.007 335.6 330.391 335.536H334.647V335.472C334.647 334.032 333.623 333.168 331.639 333.168C330.263 333.168 328.311 333.584 326.391 334.416L324.791 330.128C327.639 328.976 330.455 328.336 333.175 328.336ZM331.703 342.064C333.015 342.064 334.167 341.36 334.647 340.272V338.704H331.703C330.423 338.704 329.751 339.248 329.751 340.336C329.751 341.424 330.455 342.064 331.703 342.064ZM351.173 328.304C353.797 328.304 356.453 329.04 358.821 330.416L356.677 334.48C354.309 333.264 352.357 332.656 350.981 332.656C350.181 332.656 349.669 332.944 349.669 333.488C349.669 335.44 358.757 334.576 358.757 340.528C358.757 344.112 355.653 346.288 351.109 346.288C348.037 346.288 345.189 345.456 342.917 343.824L344.901 339.76C347.077 341.168 349.285 341.904 351.205 341.904C352.069 341.904 352.645 341.648 352.645 341.104C352.645 339.12 343.749 340.08 343.749 334.128C343.749 330.48 346.789 328.304 351.173 328.304ZM372.298 340.72L373.45 345.168C372.234 345.872 370.378 346.288 368.618 346.288C364.906 346.32 362.41 344.176 362.41 340.56V333.616H360.01V329.488H362.41V324.656H368.842V329.488H373.13V333.616H368.842V339.568C368.842 340.688 369.418 341.232 370.314 341.232C370.826 341.232 371.53 341.008 372.298 340.72ZM379.185 320.304C381.137 320.304 382.513 321.68 382.513 323.632C382.513 325.584 381.137 326.96 379.185 326.96C377.233 326.96 375.857 325.584 375.857 323.632C375.857 321.68 377.233 320.304 379.185 320.304ZM382.385 346H375.921V328.592H382.385V346ZM394.072 328.368C397.72 328.368 400.632 330.032 402.104 332.912L397.144 335.344C396.536 334.256 395.576 333.616 394.36 333.616C392.632 333.616 391.48 335.12 391.48 337.328C391.48 339.6 392.632 341.104 394.36 341.104C395.608 341.104 396.568 340.496 397.112 339.184L402.136 341.712C400.792 344.592 397.848 346.224 394.008 346.224C388.536 346.224 384.952 342.704 384.952 337.36C384.952 331.952 388.568 328.368 394.072 328.368ZM411.017 328.304C413.641 328.304 416.297 329.04 418.665 330.416L416.521 334.48C414.153 333.264 412.201 332.656 410.825 332.656C410.025 332.656 409.513 332.944 409.513 333.488C409.513 335.44 418.601 334.576 418.601 340.528C418.601 344.112 415.497 346.288 410.953 346.288C407.881 346.288 405.033 345.456 402.761 343.824L404.745 339.76C406.921 341.168 409.129 341.904 411.049 341.904C411.913 341.904 412.489 341.648 412.489 341.104C412.489 339.12 403.593 340.08 403.593 334.128C403.593 330.48 406.633 328.304 411.017 328.304ZM439.782 328.368C444.646 328.368 447.846 331.952 447.846 337.392C447.846 342.736 444.742 346.224 439.942 346.224C437.894 346.224 436.198 345.424 435.014 343.984V352.208H428.549V328.592H435.014V330.608C436.166 329.168 437.83 328.368 439.782 328.368ZM438.15 341.104C440.07 341.104 441.318 339.536 441.318 337.232C441.318 334.928 440.07 333.36 438.15 333.36C436.294 333.36 435.014 334.928 435.014 337.232C435.014 339.536 436.294 341.104 438.15 341.104ZM458.261 328.368C464.373 328.368 467.701 332.464 467.317 338.864H455.605C456.117 340.528 457.333 341.456 458.997 341.456C460.373 341.456 461.685 340.848 462.837 339.792L466.197 343.088C464.373 345.104 461.749 346.224 458.453 346.224C452.629 346.224 449.077 342.704 449.077 337.36C449.077 331.92 452.757 328.368 458.261 328.368ZM455.477 335.696H460.949C460.981 333.968 459.893 332.752 458.325 332.752C456.821 332.752 455.797 333.936 455.477 335.696ZM476.385 328.592V331.344C477.601 329.424 479.489 328.336 481.857 328.336V334.16C478.529 333.744 476.385 335.152 476.385 337.68V346H469.921V328.592H476.385ZM497.892 328.304C500.516 328.304 503.172 329.04 505.54 330.416L503.396 334.48C501.028 333.264 499.076 332.656 497.7 332.656C496.9 332.656 496.388 332.944 496.388 333.488C496.388 335.44 505.476 334.576 505.476 340.528C505.476 344.112 502.372 346.288 497.828 346.288C494.756 346.288 491.908 345.456 489.636 343.824L491.62 339.76C493.796 341.168 496.004 341.904 497.924 341.904C498.788 341.904 499.364 341.648 499.364 341.104C499.364 339.12 490.468 340.08 490.468 334.128C490.468 330.48 493.508 328.304 497.892 328.304ZM516.457 328.336C521.353 328.336 524.265 330.672 524.265 334.704V346H517.929V344.08C516.873 345.488 515.145 346.288 512.841 346.288C509.129 346.288 506.953 344.08 506.953 340.816C506.953 337.456 509.289 335.6 513.673 335.536H517.929V335.472C517.929 334.032 516.905 333.168 514.921 333.168C513.545 333.168 511.593 333.584 509.673 334.416L508.073 330.128C510.921 328.976 513.737 328.336 516.457 328.336ZM514.985 342.064C516.297 342.064 517.449 341.36 517.929 340.272V338.704H514.985C513.705 338.704 513.033 339.248 513.033 340.336C513.033 341.424 513.737 342.064 514.985 342.064ZM534.326 346H527.862V322.256H534.326V346ZM561.909 328.336C565.589 328.336 568.085 330.928 568.085 334.96V346H561.621V336.816C561.621 335.088 560.661 334 559.221 334C557.557 334.032 556.501 335.408 556.501 337.392V346H550.037V336.816C550.037 335.088 549.077 334 547.637 334C545.941 334.032 544.885 335.408 544.885 337.392V346H538.421V328.592H544.885V331.248C546.069 329.36 547.925 328.336 550.293 328.336C553.013 328.336 555.093 329.744 556.021 332.112C557.141 329.68 559.189 328.336 561.909 328.336ZM579.867 328.368C585.722 328.368 589.531 331.888 589.531 337.296C589.531 342.672 585.722 346.224 579.867 346.224C574.011 346.224 570.171 342.672 570.171 337.296C570.171 331.888 574.011 328.368 579.867 328.368ZM579.867 333.488C577.947 333.488 576.699 335.056 576.699 337.36C576.699 339.696 577.947 341.232 579.867 341.232C581.755 341.232 583.003 339.696 583.003 337.36C583.003 335.056 581.755 333.488 579.867 333.488ZM604.077 328.336C607.789 328.336 610.349 330.928 610.349 334.96V346H603.885V336.816C603.885 335.088 602.893 334 601.389 334C599.629 334.032 598.541 335.408 598.541 337.392V346H592.077V328.592H598.541V331.28C599.757 329.36 601.645 328.336 604.077 328.336ZM615.877 340.24C617.669 340.24 618.917 341.456 618.917 343.216C618.917 345.008 617.669 346.256 615.877 346.256C614.117 346.256 612.868 345.008 612.868 343.216C612.868 341.456 614.117 340.24 615.877 340.24ZM135.432 373.368C134.579 376.013 134.152 378.563 134.152 381.016C134.152 383.469 134.579 386.029 135.432 388.696C136.285 391.341 137.331 393.528 138.568 395.256H134.76C133.715 393.805 132.755 391.736 131.88 389.048C131.027 386.36 130.6 383.683 130.6 381.016C130.6 378.349 131.027 375.672 131.88 372.984C132.755 370.296 133.715 368.227 134.76 366.776H138.568C137.331 368.504 136.285 370.701 135.432 373.368ZM149.137 371.576C148.049 371.576 147.153 371.8 146.449 372.248C145.745 372.696 145.393 373.379 145.393 374.296C145.393 375.192 145.745 375.885 146.449 376.376C147.153 376.845 148.647 377.357 150.929 377.912C153.233 378.467 154.961 379.245 156.113 380.248C157.287 381.251 157.873 382.733 157.873 384.696C157.873 386.637 157.137 388.216 155.665 389.432C154.193 390.648 152.263 391.256 149.873 391.256C146.375 391.256 143.271 390.051 140.561 387.64L142.929 384.792C145.191 386.755 147.537 387.736 149.969 387.736C151.185 387.736 152.145 387.48 152.849 386.968C153.575 386.435 153.937 385.741 153.937 384.888C153.937 384.013 153.596 383.341 152.913 382.872C152.252 382.381 151.1 381.944 149.457 381.56C147.815 381.155 146.567 380.792 145.713 380.472C144.86 380.131 144.103 379.693 143.441 379.16C142.119 378.157 141.457 376.621 141.457 374.552C141.457 372.483 142.204 370.893 143.697 369.784C145.212 368.653 147.079 368.088 149.297 368.088C150.727 368.088 152.145 368.323 153.553 368.792C154.961 369.261 156.177 369.923 157.201 370.776L155.185 373.624C154.524 373.027 153.628 372.536 152.497 372.152C151.367 371.768 150.247 371.576 149.137 371.576ZM165.998 386.52C167.022 387.544 168.312 388.056 169.87 388.056C171.427 388.056 172.707 387.544 173.71 386.52C174.734 385.475 175.246 384.131 175.246 382.488C175.246 380.845 174.734 379.512 173.71 378.488C172.707 377.443 171.427 376.92 169.87 376.92C168.312 376.92 167.022 377.443 165.998 378.488C164.995 379.512 164.494 380.845 164.494 382.488C164.494 384.131 164.995 385.475 165.998 386.52ZM176.27 388.728C174.563 390.413 172.43 391.256 169.87 391.256C167.31 391.256 165.176 390.413 163.47 388.728C161.763 387.021 160.91 384.941 160.91 382.488C160.91 380.035 161.763 377.965 163.47 376.28C165.176 374.573 167.31 373.72 169.87 373.72C172.43 373.72 174.563 374.573 176.27 376.28C177.976 377.965 178.83 380.035 178.83 382.488C178.83 384.941 177.976 387.021 176.27 388.728ZM191.833 377.336C190.062 377.336 188.729 377.912 187.833 379.064C186.937 380.216 186.489 381.763 186.489 383.704V391H182.905V373.976H186.489V377.4C187.065 376.333 187.843 375.459 188.825 374.776C189.827 374.093 190.883 373.741 191.993 373.72L192.025 377.336C191.961 377.336 191.897 377.336 191.833 377.336ZM204.551 377.336C202.781 377.336 201.447 377.912 200.551 379.064C199.655 380.216 199.207 381.763 199.207 383.704V391H195.623V373.976H199.207V377.4C199.783 376.333 200.562 375.459 201.543 374.776C202.546 374.093 203.602 373.741 204.711 373.72L204.743 377.336C204.679 377.336 204.615 377.336 204.551 377.336ZM210.486 397.784C208.929 397.784 207.521 397.219 206.262 396.088L207.894 393.176C208.641 393.88 209.409 394.232 210.198 394.232C211.009 394.232 211.659 393.944 212.15 393.368C212.662 392.792 212.918 392.163 212.918 391.48C212.918 391.181 210.625 385.347 206.038 373.976H209.878L214.966 386.52L220.054 373.976H223.894L215.638 394.2C215.147 395.309 214.443 396.184 213.526 396.824C212.609 397.464 211.595 397.784 210.486 397.784ZM226.237 388.92C226.237 388.237 226.472 387.672 226.941 387.224C227.41 386.755 227.965 386.52 228.605 386.52C229.245 386.52 229.8 386.755 230.269 387.224C230.76 387.672 231.005 388.216 231.005 388.856C231.005 389.496 230.717 390.275 230.141 391.192L228.221 394.36H226.365L227.549 391.032C226.674 390.627 226.237 389.923 226.237 388.92ZM252.466 391H248.37L242.482 373.976H246.194L250.418 386.84L254.642 373.976H258.354L262.578 386.84L266.802 373.976H270.514L264.626 391H260.53L256.498 379.352L252.466 391ZM289.526 384.056H276.182C276.267 385.293 276.832 386.296 277.878 387.064C278.923 387.811 280.118 388.184 281.462 388.184C283.595 388.184 285.216 387.512 286.326 386.168L288.374 388.408C286.539 390.307 284.15 391.256 281.206 391.256C278.816 391.256 276.779 390.467 275.094 388.888C273.43 387.288 272.598 385.155 272.598 382.488C272.598 379.8 273.451 377.667 275.158 376.088C276.864 374.509 278.87 373.72 281.174 373.72C283.499 373.72 285.472 374.424 287.094 375.832C288.715 377.219 289.526 379.139 289.526 381.592V384.056ZM276.182 381.24H285.942C285.942 379.811 285.494 378.712 284.598 377.944C283.702 377.176 282.592 376.792 281.27 376.792C279.968 376.792 278.795 377.197 277.75 378.008C276.704 378.797 276.182 379.875 276.182 381.24ZM306.216 386.52C307.24 387.544 308.531 388.056 310.088 388.056C311.646 388.056 312.926 387.544 313.928 386.52C314.952 385.475 315.464 384.131 315.464 382.488C315.464 380.845 314.952 379.512 313.928 378.488C312.926 377.443 311.646 376.92 310.088 376.92C308.531 376.92 307.24 377.443 306.216 378.488C305.214 379.512 304.712 380.845 304.712 382.488C304.712 384.131 305.214 385.475 306.216 386.52ZM316.488 388.728C314.782 390.413 312.648 391.256 310.088 391.256C307.528 391.256 305.395 390.413 303.688 388.728C301.982 387.021 301.128 384.941 301.128 382.488C301.128 380.035 301.982 377.965 303.688 376.28C305.395 374.573 307.528 373.72 310.088 373.72C312.648 373.72 314.782 374.573 316.488 376.28C318.195 377.965 319.048 380.035 319.048 382.488C319.048 384.941 318.195 387.021 316.488 388.728ZM326.707 381.784V391H323.123V373.976H326.707V377.08C327.283 376.035 328.073 375.213 329.075 374.616C330.099 374.019 331.198 373.72 332.371 373.72C334.291 373.72 335.838 374.307 337.011 375.48C338.206 376.653 338.803 378.349 338.803 380.568V391H335.219V381.656C335.219 378.52 333.918 376.952 331.315 376.952C330.078 376.952 329.001 377.368 328.083 378.2C327.166 379.011 326.707 380.205 326.707 381.784ZM347.395 391H343.811V367.256H347.395V391ZM354.736 397.784C353.179 397.784 351.771 397.219 350.512 396.088L352.144 393.176C352.891 393.88 353.659 394.232 354.448 394.232C355.259 394.232 355.909 393.944 356.4 393.368C356.912 392.792 357.168 392.163 357.168 391.48C357.168 391.181 354.875 385.347 350.288 373.976H354.128L359.216 386.52L364.304 373.976H368.144L359.888 394.2C359.397 395.309 358.693 396.184 357.776 396.824C356.859 397.464 355.845 397.784 354.736 397.784ZM388.868 373.72C391.151 373.72 393.103 374.509 394.724 376.088C396.346 377.667 397.156 379.768 397.156 382.392C397.156 385.016 396.346 387.149 394.724 388.792C393.124 390.435 391.247 391.256 389.092 391.256C386.959 391.256 385.039 390.317 383.332 388.44V397.208H379.748V373.976H383.332V376.952C384.74 374.797 386.586 373.72 388.868 373.72ZM383.268 382.52C383.268 384.141 383.759 385.475 384.74 386.52C385.722 387.544 386.916 388.056 388.324 388.056C389.732 388.056 390.959 387.544 392.004 386.52C393.05 385.496 393.572 384.173 393.572 382.552C393.572 380.909 393.06 379.555 392.036 378.488C391.012 377.4 389.786 376.856 388.356 376.856C386.927 376.856 385.722 377.4 384.74 378.488C383.759 379.555 383.268 380.899 383.268 382.52ZM413.152 383.192V373.976H416.736V391H413.152V387.896C412.576 388.941 411.776 389.763 410.752 390.36C409.75 390.957 408.662 391.256 407.488 391.256C405.568 391.256 404.011 390.669 402.816 389.496C401.643 388.323 401.056 386.627 401.056 384.408V373.976H404.64V383.32C404.64 386.456 405.942 388.024 408.544 388.024C409.782 388.024 410.859 387.619 411.776 386.808C412.694 385.976 413.152 384.771 413.152 383.192ZM426.352 376.856V385.496C426.352 386.307 426.565 386.957 426.992 387.448C427.418 387.917 428.016 388.152 428.784 388.152C429.552 388.152 430.288 387.779 430.992 387.032L432.464 389.56C431.205 390.691 429.808 391.256 428.272 391.256C426.757 391.256 425.456 390.733 424.368 389.688C423.301 388.621 422.768 387.192 422.768 385.4V376.856H420.624V373.976H422.768V368.632H426.352V373.976H430.832V376.856H426.352ZM447.676 391H444.092V373.976H447.676V391ZM444.316 370.584C443.868 370.136 443.644 369.603 443.644 368.984C443.644 368.365 443.868 367.832 444.316 367.384C444.764 366.936 445.297 366.712 445.916 366.712C446.535 366.712 447.068 366.936 447.516 367.384C447.964 367.832 448.188 368.365 448.188 368.984C448.188 369.603 447.964 370.136 447.516 370.584C447.068 371.032 446.535 371.256 445.916 371.256C445.297 371.256 444.764 371.032 444.316 370.584ZM456.457 381.784V391H452.873V373.976H456.457V377.08C457.033 376.035 457.823 375.213 458.825 374.616C459.849 374.019 460.948 373.72 462.121 373.72C464.041 373.72 465.588 374.307 466.761 375.48C467.956 376.653 468.553 378.349 468.553 380.568V391H464.969V381.656C464.969 378.52 463.668 376.952 461.065 376.952C459.828 376.952 458.751 377.368 457.833 378.2C456.916 379.011 456.457 380.205 456.457 381.784ZM482.214 371.992V368.632H495.302V371.576L489.894 377.624C491.942 377.688 493.542 378.339 494.694 379.576C495.846 380.792 496.422 382.253 496.422 383.96C496.422 386.243 495.643 388.035 494.086 389.336C492.55 390.637 490.566 391.288 488.134 391.288C485.702 391.288 483.323 390.509 480.998 388.952L482.598 385.912C484.433 387.192 486.353 387.832 488.358 387.832C489.659 387.832 490.726 387.533 491.558 386.936C492.411 386.317 492.838 385.443 492.838 384.312C492.838 383.16 492.369 382.243 491.43 381.56C490.491 380.877 489.19 380.536 487.526 380.536C486.694 380.536 485.894 380.653 485.126 380.888V378.008L490.31 371.992H482.214ZM505.098 373.624C504.223 375.16 503.786 377.176 503.786 379.672C503.786 382.168 504.223 384.184 505.098 385.72C505.994 387.256 507.381 388.024 509.258 388.024C511.135 388.024 512.501 387.267 513.354 385.752C514.229 384.216 514.666 382.189 514.666 379.672C514.666 377.155 514.229 375.139 513.354 373.624C512.501 372.088 511.135 371.32 509.258 371.32C507.381 371.32 505.994 372.088 505.098 373.624ZM502.41 388.12C500.895 386.008 500.138 383.192 500.138 379.672C500.138 376.152 500.895 373.347 502.41 371.256C503.925 369.144 506.207 368.088 509.258 368.088C512.309 368.088 514.591 369.144 516.106 371.256C517.621 373.347 518.378 376.152 518.378 379.672C518.378 383.192 517.621 386.008 516.106 388.12C514.591 390.211 512.309 391.256 509.258 391.256C506.207 391.256 503.925 390.211 502.41 388.12ZM523.88 388.696C524.733 386.029 525.16 383.469 525.16 381.016C525.16 378.563 524.733 376.013 523.88 373.368C523.026 370.701 521.981 368.504 520.743 366.776H524.552C525.597 368.227 526.546 370.296 527.4 372.984C528.274 375.672 528.712 378.349 528.712 381.016C528.712 383.683 528.274 386.36 527.4 389.048C526.546 391.736 525.597 393.805 524.552 395.256H520.743C521.981 393.528 523.026 391.341 523.88 388.696Z" fill="black"/>
<g clip-path="url(#clip1_3281_912)">
<path opacity="0.2" d="M1117.76 365.618C1118.1 375.53 1117.43 385.426 1116.35 395.254C1112.73 428.212 1104.35 459.97 1091.28 490.437C1080.86 514.714 1066.97 536.904 1050.06 557.173C1019.94 593.292 983.94 621.906 941.322 641.94C908.788 657.236 874.714 665.438 838.589 663.509C809.293 661.941 780.759 657.052 754.626 642.653C740.911 635.097 728.945 625.562 720.744 611.868C718.242 607.691 716.577 603.247 715.849 598.408C714.711 590.852 717.69 586.827 725.221 585.669C739.346 583.506 753.145 580.034 766.517 574.927C814.281 556.687 845.225 522.279 862.237 474.62C870.563 451.29 875.233 427.239 876.471 402.424C877.09 390.156 876.513 377.945 876.396 365.71C879.065 367.186 881.718 368.578 884.73 369.408C897.232 372.889 910.118 374.088 922.913 375.161C940.979 376.687 959.129 377.492 977.254 377.836C1001.96 378.306 1026.67 377.836 1051.38 376.478C1065.14 375.723 1078.82 374.499 1092.45 372.629C1101.12 371.438 1110.15 370.968 1117.75 365.626L1117.76 365.618Z" fill="#EBF97B"/>
<path d="M480.041 693.817C480.133 678.923 479.539 658.612 480.97 638.334C482.594 615.239 486.083 592.504 497.991 572.151C515.864 541.6 543.244 525.348 577.762 520.593C598.021 517.801 617.786 521.952 637.542 525.7C650.655 528.191 663.767 530.623 677.198 530.715C736.626 531.126 779.42 501.523 799.486 445.487C809.327 418.014 813.41 389.543 811.419 360.377C810.214 342.707 803.628 326.513 796.122 310.714C784.826 286.956 771.111 264.481 758.902 241.21C740.668 206.458 725.966 170.448 719.079 131.561C715.974 114.051 714.477 96.3985 714.41 78.6283C714.326 55.013 714.535 -60.8495 714.276 -84.4564C714.226 -89.3036 716.142 -91.6517 720.351 -93.0102C728.551 -95.6519 737.028 -96.7253 745.563 -97.2704C765.077 -98.5199 784.549 -98.587 803.771 -94.243C805.084 -93.9495 806.373 -93.5302 807.67 -93.1696C812.247 -91.9033 814.339 -89.5132 814.214 -84.1461C813.795 -65.6547 813.904 45.0923 814.071 63.592C814.189 76.1293 815.937 88.482 820.155 100.348C831.334 131.763 857.183 144.912 889.182 135.604C898.42 132.92 907.332 129.339 916.101 125.482C954.251 108.684 992.994 109.07 1032.11 121.339C1085.63 138.136 1123.93 173.24 1150.76 221.687C1169.94 256.305 1180.65 293.673 1185.23 332.878C1192.19 392.512 1186.28 450.879 1163.25 506.345C1119.97 610.593 1045.9 683.25 938.26 719.554C899.508 732.619 859.451 735.814 818.749 732.116C786.926 729.223 756.375 721.986 727.765 707.377C708.929 697.758 692.185 685.12 676.026 671.594C666.361 663.501 656.922 655.098 645.969 648.691C639.843 645.11 633.35 642.594 626.304 641.32C612.062 638.745 600.958 643.701 592.464 655.023C583.962 666.361 580.54 679.468 579.871 693.397C578.791 715.646 579.184 821.764 579.829 844.012C579.979 849.304 577.879 851.643 573.277 853.061C563.428 856.088 553.294 856.994 543.11 857.556C525.981 858.503 508.927 858.017 492.049 854.553C491.757 854.495 491.455 854.461 491.162 854.394C480.41 851.861 480.025 851.383 480.025 840.372C480.025 821.269 480.025 718.313 480.025 693.8L480.041 693.817ZM983.421 164.091C978.392 163.823 971.129 164.443 963.899 165.928C929.139 173.064 901.985 191.505 882.571 221.167C869.643 240.916 864.731 263.24 863.794 286.461C863.35 297.38 863.476 308.332 864.337 319.31C865.434 333.331 866.547 347.386 867.04 361.433C867.718 380.923 868.187 400.496 865.291 419.868C861.434 445.638 854.396 470.436 842.112 493.64C832.121 512.526 818.841 528.619 802.189 541.735C778.692 560.251 751.446 570.583 722.091 574.449C709.104 576.16 698.879 588.739 701.967 603.498C705.833 622.015 717.497 635.324 731.698 646.611C750.383 661.463 772.224 669.623 795.185 674.856C815.645 679.51 836.447 680.76 857.434 680.55C878.906 680.34 899.6 676.332 919.892 669.799C943.657 662.151 965.915 651.324 987.069 638.032C1004.11 627.323 1020.18 615.323 1035 601.779C1046.95 590.86 1058.25 579.221 1068.57 566.675C1083.48 548.561 1096.71 529.357 1107 508.249C1116.4 488.944 1123.89 468.876 1129.53 448.12C1136.65 421.88 1140.89 395.204 1141.85 368.025C1142.47 350.464 1140.71 333.029 1138.29 315.67C1135.08 292.608 1128.09 270.637 1117.47 249.982C1104 223.742 1085.22 202.173 1059.86 186.6C1037.08 172.603 1012.83 163.739 983.421 164.083V164.091ZM529.906 836.565C517.329 836.884 504.735 837.06 492.359 839.693C489.966 840.205 486.05 840.347 486.041 842.88C486.025 845.924 490.024 845.924 492.501 846.335C517.371 850.478 542.274 850.478 567.151 846.36C569.662 845.941 573.728 845.823 573.678 842.972C573.636 840.188 569.545 840.121 567.017 839.601C554.775 837.093 542.34 836.842 529.906 836.557V836.565ZM764.291 -88.5656C751.705 -88.1463 739.078 -88.1211 726.694 -85.3789C724.301 -84.8506 720.493 -84.8002 720.543 -82.0412C720.594 -79.4499 724.384 -79.2989 726.794 -78.7706C739.79 -75.9529 753.002 -75.8271 766.207 -75.8523C778.516 -75.8774 790.825 -76.238 802.892 -79.0054C804.95 -79.4751 808.298 -79.6344 808.231 -82.1335C808.172 -84.49 804.892 -84.6828 802.766 -85.1776C790.106 -88.1128 777.177 -88.1547 764.282 -88.5656H764.291Z" fill="#13176F"/>
<path fill-rule="evenodd" clip-rule="evenodd" d="M1053.44 364.066L1092.63 362.54L1127.14 299.451L1045.04 299.191L1002.99 231.247L968.485 294.336L987.991 328.182C969.531 324.467 948.921 330.119 938.879 348.468L874.112 466.872C857.778 496.735 884.764 543.881 900.303 563.731C926.219 564.922 982.024 564.78 1001.34 529.457L1057.1 427.516C1069.16 405.469 1066.44 379.279 1053.44 364.075V364.066Z" stroke="#13176F" stroke-width="10" stroke-miterlimit="10"/>
<path d="M1037.33 400.647C1041.85 400.647 1045.51 396.975 1045.51 392.445C1045.51 387.915 1041.85 384.243 1037.33 384.243C1032.81 384.243 1029.14 387.915 1029.14 392.445C1029.14 396.975 1032.81 400.647 1037.33 400.647Z" fill="#FF3636"/>
<path d="M1035.55 427.063C1040.06 427.063 1043.73 423.391 1043.73 418.861C1043.73 414.332 1040.06 410.66 1035.55 410.66C1031.03 410.66 1027.36 414.332 1027.36 418.861C1027.36 423.391 1031.03 427.063 1035.55 427.063Z" fill="#FF3636"/>
<path d="M1011.2 420.371C1015.72 420.371 1019.39 416.699 1019.39 412.169C1019.39 407.639 1015.72 403.967 1011.2 403.967C1006.68 403.967 1003.02 407.639 1003.02 412.169C1003.02 416.699 1006.68 420.371 1011.2 420.371Z" fill="#FF3636"/>
<path d="M1021.33 464.02C1025.85 464.02 1029.51 460.348 1029.51 455.819C1029.51 451.289 1025.85 447.617 1021.33 447.617C1016.81 447.617 1013.14 451.289 1013.14 455.819C1013.14 460.348 1016.81 464.02 1021.33 464.02Z" fill="#FF3636"/>
<path d="M973.171 422.861C977.691 422.861 981.355 419.189 981.355 414.66C981.355 410.13 977.691 406.458 973.171 406.458C968.651 406.458 964.987 410.13 964.987 414.66C964.987 419.189 968.651 422.861 973.171 422.861Z" fill="#FF3636"/>
<path d="M972.979 490.244C977.499 490.244 981.163 486.572 981.163 482.042C981.163 477.513 977.499 473.841 972.979 473.841C968.459 473.841 964.795 477.513 964.795 482.042C964.795 486.572 968.459 490.244 972.979 490.244Z" fill="#FF3636"/>
<path d="M902.295 456.758C906.815 456.758 910.479 453.086 910.479 448.556C910.479 444.027 906.815 440.355 902.295 440.355C897.775 440.355 894.111 444.027 894.111 448.556C894.111 453.086 897.775 456.758 902.295 456.758Z" fill="#FF3636"/>
<path d="M947.184 450.403C951.704 450.403 955.368 446.731 955.368 442.202C955.368 437.672 951.704 434 947.184 434C942.664 434 939 437.672 939 442.202C939 446.731 942.664 450.403 947.184 450.403Z" fill="#FF3636"/>
<path d="M902.184 493.403C906.704 493.403 910.368 489.731 910.368 485.202C910.368 480.672 906.704 477 902.184 477C897.664 477 894 480.672 894 485.202C894 489.731 897.664 493.403 902.184 493.403Z" fill="#FF3636"/>
<path d="M909.184 518.403C913.704 518.403 917.368 514.731 917.368 510.202C917.368 505.672 913.704 502 909.184 502C904.664 502 901 505.672 901 510.202C901 514.731 904.664 518.403 909.184 518.403Z" fill="#FF3636"/>
<path d="M930.184 436.403C934.704 436.403 938.368 432.731 938.368 428.202C938.368 423.672 934.704 420 930.184 420C925.664 420 922 423.672 922 428.202C922 432.731 925.664 436.403 930.184 436.403Z" fill="#FF3636"/>
<path d="M947.184 417.403C951.704 417.403 955.368 413.731 955.368 409.202C955.368 404.672 951.704 401 947.184 401C942.664 401 939 404.672 939 409.202C939 413.731 942.664 417.403 947.184 417.403Z" fill="#FF3636"/>
<path d="M993.184 461.403C997.704 461.403 1001.37 457.731 1001.37 453.202C1001.37 448.672 997.704 445 993.184 445C988.664 445 985 448.672 985 453.202C985 457.731 988.664 461.403 993.184 461.403Z" fill="#FF3636"/>
<path d="M940.184 473.403C944.704 473.403 948.368 469.731 948.368 465.202C948.368 460.672 944.704 457 940.184 457C935.664 457 932 460.672 932 465.202C932 469.731 935.664 473.403 940.184 473.403Z" fill="#FF3636"/>
<path d="M955.184 523.403C959.704 523.403 963.368 519.731 963.368 515.202C963.368 510.672 959.704 507 955.184 507C950.664 507 947 510.672 947 515.202C947 519.731 950.664 523.403 955.184 523.403Z" fill="#FF3636"/>
<path d="M989.184 509.403C993.704 509.403 997.368 505.731 997.368 501.202C997.368 496.672 993.704 493 989.184 493C984.664 493 981 496.672 981 501.202C981 505.731 984.664 509.403 989.184 509.403Z" fill="#FF3636"/>
<path d="M971.184 453.403C975.704 453.403 979.368 449.731 979.368 445.202C979.368 440.672 975.704 437 971.184 437C966.664 437 963 440.672 963 445.202C963 449.731 966.664 453.403 971.184 453.403Z" fill="#FF3636"/>
<path d="M993.184 392.403C997.704 392.403 1001.37 388.731 1001.37 384.202C1001.37 379.672 997.704 376 993.184 376C988.664 376 985 379.672 985 384.202C985 388.731 988.664 392.403 993.184 392.403Z" fill="#FF3636"/>
<path d="M943.184 393.403C947.704 393.403 951.368 389.731 951.368 385.202C951.368 380.672 947.704 377 943.184 377C938.664 377 935 380.672 935 385.202C935 389.731 938.664 393.403 943.184 393.403Z" fill="#FF3636"/>
<path d="M1013.18 343.403C1017.7 343.403 1021.37 339.731 1021.37 335.202C1021.37 330.672 1017.7 327 1013.18 327C1008.66 327 1005 330.672 1005 335.202C1005 339.731 1008.66 343.403 1013.18 343.403Z" fill="#FF3636"/>
<path d="M1001.18 287.403C1005.7 287.403 1009.37 283.731 1009.37 279.202C1009.37 274.672 1005.7 271 1001.18 271C996.664 271 993 274.672 993 279.202C993 283.731 996.664 287.403 1001.18 287.403Z" fill="#FF3636"/>
<path d="M1037.18 348.403C1041.7 348.403 1045.37 344.731 1045.37 340.202C1045.37 335.672 1041.7 332 1037.18 332C1032.66 332 1029 335.672 1029 340.202C1029 344.731 1032.66 348.403 1037.18 348.403Z" fill="#FF3636"/>
<path d="M1021.18 382.403C1025.7 382.403 1029.37 378.731 1029.37 374.202C1029.37 369.672 1025.7 366 1021.18 366C1016.66 366 1013 369.672 1013 374.202C1013 378.731 1016.66 382.403 1021.18 382.403Z" fill="#FF3636"/>
<path d="M1003.18 311.403C1007.7 311.403 1011.37 307.731 1011.37 303.202C1011.37 298.672 1007.7 295 1003.18 295C998.664 295 995 298.672 995 303.202C995 307.731 998.664 311.403 1003.18 311.403Z" fill="#FF3636"/>
<path d="M966.385 377.375C970.905 377.375 974.569 373.703 974.569 369.174C974.569 364.644 970.905 360.972 966.385 360.972C961.865 360.972 958.201 364.644 958.201 369.174C958.201 373.703 961.865 377.375 966.385 377.375Z" fill="#FF3636"/>
<path d="M1071.99 343.177C1076.51 343.177 1080.17 339.505 1080.17 334.975C1080.17 330.445 1076.51 326.773 1071.99 326.773C1067.47 326.773 1063.8 330.445 1063.8 334.975C1063.8 339.505 1067.47 343.177 1071.99 343.177Z" fill="#FF3636"/>
<path d="M993.104 364.318C997.623 364.318 1001.29 360.646 1001.29 356.116C1001.29 351.587 997.623 347.915 993.104 347.915C988.584 347.915 984.92 351.587 984.92 356.116C984.92 360.646 988.584 364.318 993.104 364.318Z" fill="#FF3636"/>
<path d="M931.633 498.605C936.153 498.605 939.817 494.933 939.817 490.403C939.817 485.873 936.153 482.201 931.633 482.201C927.113 482.201 923.449 485.873 923.449 490.403C923.449 494.933 927.113 498.605 931.633 498.605Z" fill="#FF3636"/>
<path d="M938.57 546.875C943.089 546.875 946.753 543.203 946.753 538.674C946.753 534.144 943.089 530.472 938.57 530.472C934.05 530.472 930.386 534.144 930.386 538.674C930.386 543.203 934.05 546.875 938.57 546.875Z" fill="#FF3636"/>
</g>
</g>
<defs>
<clipPath id="clip0_3281_912">
<rect width="1500" height="760" fill="white"/>
</clipPath>
<clipPath id="clip1_3281_912">
<rect width="708" height="956" fill="white" transform="translate(480 -98)"/>
</clipPath>
</defs>
</svg>
