<?xml version="1.0" encoding="utf-8"?>
<!-- Generator: $$$/GeneralStr/196=Adobe Illustrator 27.6.0, SVG Export Plug-In . SVG Version: 6.00 Build 0)  -->
<svg version="1.1" id="Calque_1" xmlns="http://www.w3.org/2000/svg" xmlns:xlink="http://www.w3.org/1999/xlink" x="0px" y="0px"
	 viewBox="0 0 969 829.9" style="enable-background:new 0 0 969 829.9;" xml:space="preserve">
<style type="text/css">
	.st0{fill:none;stroke:#FF3636;stroke-dasharray:22,22;}
	.st1{fill:none;stroke:#FF3636;stroke-width:11;stroke-miterlimit:16;}
	.st2{fill:#FF7E36;}
</style>
<g>
	<path class="st0" d="M466.5,490.8c17.3-115.2,103.4-335.1,309-292.6"/>
	<path class="st0" d="M421.5,508.8c-0.8-115.5-39-351.6-184.8-371.7C90.9,117,18.5,233.6,0.5,294.3"/>
	<path class="st0" d="M451.5,483.8C456.7,319.1,533,32.3,678.8,4.1c166.7-32.2,195.6,160.7,208.7,160.7"/>
	<path class="st0" d="M473.5,542C512.9,430.1,618,298,794.4,341.2C916.5,371.2,977.3,568,967.4,613.8"/>
	<path class="st0" d="M393.5,513.7c-12.2-47.3-57-141.9-138.4-141.9c-117.7,0-135,305.3-151.6,458"/>
	<path class="st1" d="M282.1,699.8l73.4-24.9l-94-76.8L371,627.2l-48.7-131.2l97.2,94L451,439.8l32.4,147l95-85.9l-44.2,121.3
		l97.2-18.7l-77.6,71.5l64.5,24.9"/>
	<path class="st2" d="M509.4,685.1l47.4,14.7H350.9l46-14.7l-46-38l58.4,12.6l-21.7-61.6l48.5,45.2l17.4-65.3l15,65.3l48.5-45.2
		l-20.3,61.6l57.3-12.6L509.4,685.1z"/>
</g>
</svg>
