<svg width="491" height="204" viewBox="0 0 491 204" fill="none" xmlns="http://www.w3.org/2000/svg">
<path fill-rule="evenodd" clip-rule="evenodd" d="M392.224 81.5007L401.394 103.544L366.041 203.826H276.221L311.414 103.999L311.606 103.456L311.385 102.924L268.568 0H358.319L384.422 62.7458C382.459 64.7409 381.258 67.4145 381.258 70.3528C381.258 76.2498 386.093 81.0803 392.224 81.5007ZM395.397 81.3187L404.385 102.924L404.606 103.456L404.415 103.999L369.222 203.826H386.341C435.259 203.826 475.98 137.199 490.226 103.885C473.788 70.3527 434.996 0 377.136 0H361.569L386.878 60.839C388.684 59.7841 390.813 59.1753 393.093 59.1753C399.629 59.1753 404.928 64.1796 404.928 70.3528C404.928 75.7814 400.831 80.3061 395.397 81.3187ZM308.394 103.544L265.319 0H210.13C198.765 0 187.896 2.13163 178.019 5.89133L218.385 102.924L218.606 103.456L218.414 103.999L183.458 203.155C186.337 203.596 189.312 203.826 192.378 203.826H273.04L308.394 103.544ZM175.234 7.00573L215.394 103.544L180.467 202.616C156.69 197.667 139.837 178.166 132.849 155.873L103.736 203.826H0.387024L56.8761 103.824L0.387024 0H103.736L132.762 48.3858C139.426 30.773 155.077 15.4658 175.234 7.00573Z" fill="#FF650E"/>
</svg>
