<svg width="769" height="128" viewBox="0 0 769 128" fill="none" xmlns="http://www.w3.org/2000/svg">
<path d="M135.558 0C63.4797 0 9.45949 50.4386 -1.04682e-05 65.3617C10.3899 84.4386 60.5023 128 135.558 128C193.742 128 247.676 99.8592 267.371 84.9362L308 120.154V7.14894L267.371 47.0769C251.553 31.6923 207.636 0 135.558 0Z" fill="white"/>
<circle cx="148" cy="64" r="50" fill="#0066FF"/>
<circle cx="148" cy="64" r="32" fill="#001E3A"/>
<path d="M595.998 0C523.686 0 469.49 50.4386 460 65.3617C470.424 84.4386 520.699 128 595.998 128C654.371 128 708.48 99.8592 728.239 84.9362L769 120.154V7.14894L728.239 47.0769C712.37 31.6923 668.31 0 595.998 0Z" fill="white"/>
<circle cx="600" cy="64" r="50" fill="#0066FF"/>
<circle cx="600" cy="64" r="34" fill="#001E3A"/>
</svg>
