<svg width="1512" height="1408" viewBox="0 0 1512 1408" fill="none" xmlns="http://www.w3.org/2000/svg">
<g clip-path="url(#clip0_830_269)">
<path d="M62.4062 466.703C63.2917 466.755 64.125 466.797 64.9062 466.828C65.6979 466.849 66.401 466.859 67.0156 466.859C67.651 466.859 68.3594 466.849 69.1406 466.828C69.9323 466.797 70.8438 466.755 71.875 466.703V468.109C71.8125 468.109 71.724 468.104 71.6094 468.094C71.4948 468.083 71.4167 468.078 71.375 468.078C70.5 468.078 69.9062 468.339 69.5938 468.859C69.2812 469.38 69.125 470.557 69.125 472.391C69.125 472.661 69.1302 473.151 69.1406 473.859C69.151 474.568 69.1562 475.146 69.1562 475.594L69.1875 486.562L69.2812 486.578C70.625 486.661 71.6406 486.703 72.3281 486.703C74.9427 486.703 76.6562 486.432 77.4688 485.891C78.2812 485.349 78.9479 484.318 79.4688 482.797L80.9062 483.234C80.5833 484.182 80.2917 485.135 80.0312 486.094C79.7812 487.052 79.5625 488.021 79.375 489C77.5312 488.938 75.8177 488.891 74.2344 488.859C72.651 488.828 71.2031 488.812 69.8906 488.812C68.5885 488.812 67.276 488.828 65.9531 488.859C64.6406 488.891 63.3333 488.938 62.0312 489V487.625H62.4688C63.0312 487.625 63.4635 487.568 63.7656 487.453C64.0677 487.339 64.2865 487.151 64.4219 486.891C64.7135 486.318 64.8698 484.177 64.8906 480.469C64.901 479.99 64.9062 479.625 64.9062 479.375L64.9375 475.969C64.9375 475.51 64.9427 474.911 64.9531 474.172C64.9635 473.422 64.9688 472.901 64.9688 472.609C64.9688 470.734 64.8125 469.51 64.5 468.938C64.1979 468.365 63.6198 468.078 62.7656 468.078H62.4062V466.703ZM96.5156 480.672L90 480.688C88.8854 480.688 88.0521 480.698 87.5 480.719C86.9479 480.729 86.4375 480.76 85.9688 480.812C85.9688 482.677 86.4271 484.141 87.3438 485.203C88.2708 486.266 89.5469 486.797 91.1719 486.797C91.9531 486.797 92.724 486.677 93.4844 486.438C94.2552 486.188 95.0312 485.812 95.8125 485.312L96.5156 486.656C95.3073 487.615 94.1198 488.333 92.9531 488.812C91.7865 489.281 90.6302 489.516 89.4844 489.516C87.3073 489.516 85.5208 488.792 84.125 487.344C82.7292 485.885 82.0312 484.016 82.0312 481.734C82.0312 479.255 82.7865 477.188 84.2969 475.531C85.8073 473.865 87.6615 473.031 89.8594 473.031C91.8281 473.031 93.4219 473.729 94.6406 475.125C95.8594 476.51 96.4844 478.359 96.5156 480.672ZM92.8125 478.766C92.5938 477.547 92.1927 476.599 91.6094 475.922C91.0365 475.234 90.349 474.891 89.5469 474.891C88.5885 474.891 87.7969 475.26 87.1719 476C86.5469 476.74 86.1562 477.776 86 479.109H86.9844C88.2656 479.109 89.3802 479.083 90.3281 479.031C91.276 478.969 92.1042 478.88 92.8125 478.766ZM110.703 473.797C110.703 474.453 110.734 475.12 110.797 475.797C110.859 476.464 110.958 477.141 111.094 477.828L109.547 478.125C109.422 476.969 109.078 476.125 108.516 475.594C107.953 475.062 107.135 474.797 106.062 474.797C105.219 474.797 104.531 475.01 104 475.438C103.479 475.854 103.219 476.396 103.219 477.062C103.219 477.99 104.432 478.823 106.859 479.562L106.969 479.594C108.781 480.146 110.016 480.755 110.672 481.422C111.339 482.089 111.672 482.995 111.672 484.141C111.672 485.682 111.021 486.958 109.719 487.969C108.417 488.979 106.74 489.484 104.688 489.484C103.854 489.484 103.031 489.401 102.219 489.234C101.417 489.078 100.641 488.839 99.8906 488.516C99.901 488.401 99.9062 488.271 99.9062 488.125C99.9167 487.979 99.9219 487.76 99.9219 487.469C99.9219 486.885 99.8958 486.307 99.8438 485.734C99.7917 485.161 99.7135 484.599 99.6094 484.047L101.047 483.688C101.286 485.115 101.729 486.151 102.375 486.797C103.021 487.432 103.932 487.75 105.109 487.75C106.109 487.75 106.901 487.526 107.484 487.078C108.078 486.63 108.375 486.021 108.375 485.25C108.375 484.333 107.089 483.443 104.516 482.578C104.089 482.432 103.76 482.323 103.531 482.25C102.292 481.823 101.401 481.297 100.859 480.672C100.318 480.036 100.047 479.219 100.047 478.219C100.047 476.667 100.63 475.417 101.797 474.469C102.964 473.51 104.526 473.031 106.484 473.031C107.068 473.031 107.703 473.094 108.391 473.219C109.089 473.344 109.859 473.536 110.703 473.797ZM129.688 472.906C129.615 473.885 129.557 474.724 129.516 475.422C129.474 476.12 129.448 476.729 129.438 477.25C130.365 475.698 131.161 474.635 131.828 474.062C132.495 473.479 133.224 473.188 134.016 473.188C134.568 473.188 135.047 473.391 135.453 473.797C135.859 474.203 136.062 474.693 136.062 475.266C136.062 475.797 135.932 476.219 135.672 476.531C135.422 476.844 135.083 477 134.656 477C134.417 477 134.083 476.917 133.656 476.75C133.229 476.573 132.891 476.484 132.641 476.484C132.172 476.484 131.703 476.661 131.234 477.016C130.766 477.37 130.219 477.964 129.594 478.797C129.594 479.13 129.589 479.641 129.578 480.328C129.568 481.016 129.562 481.536 129.562 481.891V483.625C129.562 485.427 129.724 486.562 130.047 487.031C130.37 487.49 131 487.719 131.938 487.719C132 487.719 132.099 487.714 132.234 487.703C132.38 487.693 132.495 487.688 132.578 487.688V489H132.531C130.208 488.854 128.698 488.781 128 488.781C127.448 488.781 126.047 488.849 123.797 488.984H123.484V487.656H123.906C124.688 487.656 125.219 487.464 125.5 487.078C125.781 486.693 125.922 485.776 125.922 484.328V482.438V479.047C125.922 477.484 125.823 476.521 125.625 476.156C125.438 475.781 125.078 475.594 124.547 475.594C124.484 475.594 124.37 475.609 124.203 475.641C124.036 475.661 123.901 475.677 123.797 475.688L123.672 474.438C124.661 474.281 125.651 474.078 126.641 473.828C127.63 473.578 128.646 473.271 129.688 472.906ZM151.984 480.672L145.469 480.688C144.354 480.688 143.521 480.698 142.969 480.719C142.417 480.729 141.906 480.76 141.438 480.812C141.438 482.677 141.896 484.141 142.812 485.203C143.74 486.266 145.016 486.797 146.641 486.797C147.422 486.797 148.193 486.677 148.953 486.438C149.724 486.188 150.5 485.812 151.281 485.312L151.984 486.656C150.776 487.615 149.589 488.333 148.422 488.812C147.255 489.281 146.099 489.516 144.953 489.516C142.776 489.516 140.99 488.792 139.594 487.344C138.198 485.885 137.5 484.016 137.5 481.734C137.5 479.255 138.255 477.188 139.766 475.531C141.276 473.865 143.13 473.031 145.328 473.031C147.297 473.031 148.891 473.729 150.109 475.125C151.328 476.51 151.953 478.359 151.984 480.672ZM148.281 478.766C148.062 477.547 147.661 476.599 147.078 475.922C146.505 475.234 145.818 474.891 145.016 474.891C144.057 474.891 143.266 475.26 142.641 476C142.016 476.74 141.625 477.776 141.469 479.109H142.453C143.734 479.109 144.849 479.083 145.797 479.031C146.745 478.969 147.573 478.88 148.281 478.766ZM166.172 473.797C166.172 474.453 166.203 475.12 166.266 475.797C166.328 476.464 166.427 477.141 166.562 477.828L165.016 478.125C164.891 476.969 164.547 476.125 163.984 475.594C163.422 475.062 162.604 474.797 161.531 474.797C160.688 474.797 160 475.01 159.469 475.438C158.948 475.854 158.688 476.396 158.688 477.062C158.688 477.99 159.901 478.823 162.328 479.562L162.438 479.594C164.25 480.146 165.484 480.755 166.141 481.422C166.807 482.089 167.141 482.995 167.141 484.141C167.141 485.682 166.49 486.958 165.188 487.969C163.885 488.979 162.208 489.484 160.156 489.484C159.323 489.484 158.5 489.401 157.688 489.234C156.885 489.078 156.109 488.839 155.359 488.516C155.37 488.401 155.375 488.271 155.375 488.125C155.385 487.979 155.391 487.76 155.391 487.469C155.391 486.885 155.365 486.307 155.312 485.734C155.26 485.161 155.182 484.599 155.078 484.047L156.516 483.688C156.755 485.115 157.198 486.151 157.844 486.797C158.49 487.432 159.401 487.75 160.578 487.75C161.578 487.75 162.37 487.526 162.953 487.078C163.547 486.63 163.844 486.021 163.844 485.25C163.844 484.333 162.557 483.443 159.984 482.578C159.557 482.432 159.229 482.323 159 482.25C157.76 481.823 156.87 481.297 156.328 480.672C155.786 480.036 155.516 479.219 155.516 478.219C155.516 476.667 156.099 475.417 157.266 474.469C158.432 473.51 159.995 473.031 161.953 473.031C162.536 473.031 163.172 473.094 163.859 473.219C164.557 473.344 165.328 473.536 166.172 473.797ZM175.281 486.344C175.781 486.646 176.312 486.88 176.875 487.047C177.448 487.214 178.016 487.297 178.578 487.297C179.943 487.297 181.016 486.823 181.797 485.875C182.589 484.917 182.984 483.599 182.984 481.922C182.984 480.036 182.583 478.547 181.781 477.453C180.99 476.359 179.922 475.812 178.578 475.812C177.995 475.812 177.427 475.896 176.875 476.062C176.333 476.219 175.833 476.448 175.375 476.75C175.344 478.104 175.318 479.385 175.297 480.594C175.286 481.802 175.281 482.906 175.281 483.906V486.344ZM175.531 472.609L175.375 475.141C176.323 474.474 177.193 473.99 177.984 473.688C178.776 473.375 179.568 473.219 180.359 473.219C182.214 473.219 183.755 473.922 184.984 475.328C186.214 476.734 186.828 478.484 186.828 480.578C186.828 483.161 186.062 485.24 184.531 486.812C183.01 488.375 181.016 489.156 178.547 489.156C177.953 489.156 177.38 489.109 176.828 489.016C176.286 488.922 175.771 488.776 175.281 488.578L175.25 491.719V492.969C175.25 494.177 175.385 494.932 175.656 495.234C175.938 495.536 176.526 495.688 177.422 495.688H178.031L178.016 497.062C176.922 497.01 176 496.969 175.25 496.938C174.51 496.917 173.849 496.906 173.266 496.906C172.922 496.906 172.453 496.917 171.859 496.938C171.276 496.958 170.38 497 169.172 497.062V495.688H169.422C169.964 495.688 170.375 495.635 170.656 495.531C170.948 495.427 171.146 495.266 171.25 495.047C171.417 494.703 171.531 494.052 171.594 493.094C171.656 492.146 171.688 490.323 171.688 487.625V485.891V479.688C171.688 477.99 171.589 476.901 171.391 476.422C171.193 475.932 170.823 475.688 170.281 475.688C170.219 475.688 170.062 475.698 169.812 475.719C169.677 475.74 169.578 475.75 169.516 475.75L169.359 474.562C170.443 474.354 171.495 474.089 172.516 473.766C173.547 473.443 174.552 473.057 175.531 472.609ZM197.219 475.078C195.938 475.078 194.943 475.557 194.234 476.516C193.536 477.464 193.188 478.807 193.188 480.547C193.188 482.661 193.589 484.339 194.391 485.578C195.193 486.818 196.271 487.438 197.625 487.438C198.917 487.438 199.932 486.938 200.672 485.938C201.422 484.938 201.797 483.568 201.797 481.828C201.797 479.755 201.38 478.115 200.547 476.906C199.724 475.688 198.615 475.078 197.219 475.078ZM197.531 473.031C199.979 473.031 201.984 473.786 203.547 475.297C205.109 476.797 205.891 478.698 205.891 481C205.891 483.417 205.073 485.438 203.438 487.062C201.812 488.677 199.781 489.484 197.344 489.484C194.906 489.484 192.917 488.724 191.375 487.203C189.833 485.682 189.062 483.734 189.062 481.359C189.062 479.026 189.885 477.057 191.531 475.453C193.188 473.839 195.188 473.031 197.531 473.031ZM213.75 473L213.5 475.562C214.75 474.667 215.818 474.016 216.703 473.609C217.589 473.203 218.375 473 219.062 473C220.698 473 221.927 473.479 222.75 474.438C223.583 475.385 224 476.792 224 478.656C224 479.01 223.99 479.833 223.969 481.125C223.948 482.406 223.938 483.516 223.938 484.453C223.938 485.984 224.047 486.906 224.266 487.219C224.495 487.531 224.948 487.688 225.625 487.688H225.953L225.922 489C224.995 488.938 224.203 488.891 223.547 488.859C222.891 488.828 222.359 488.812 221.953 488.812C221.516 488.812 220.974 488.828 220.328 488.859C219.693 488.891 218.953 488.938 218.109 489V487.688H218.297C219.589 487.688 220.25 486.385 220.281 483.781C220.281 483.698 220.281 483.635 220.281 483.594V480.297C220.281 478.495 220.073 477.281 219.656 476.656C219.24 476.031 218.531 475.719 217.531 475.719C216.99 475.719 216.406 475.833 215.781 476.062C215.156 476.281 214.469 476.625 213.719 477.094C213.677 478.031 213.646 479.005 213.625 480.016C213.604 481.026 213.594 482.109 213.594 483.266V484.547C213.594 485.953 213.703 486.828 213.922 487.172C214.151 487.516 214.599 487.688 215.266 487.688H215.516V489C214.641 488.938 213.875 488.891 213.219 488.859C212.562 488.828 212.005 488.812 211.547 488.812C211.099 488.812 210.547 488.828 209.891 488.859C209.234 488.891 208.474 488.938 207.609 489V487.688H207.969C209.26 487.688 209.917 486.38 209.938 483.766C209.938 483.453 209.943 483.214 209.953 483.047L209.984 479.812V478.438C209.984 477.26 209.891 476.5 209.703 476.156C209.526 475.802 209.193 475.625 208.703 475.625C208.609 475.625 208.401 475.641 208.078 475.672C208.016 475.682 207.969 475.688 207.938 475.688L207.844 474.469C208.708 474.333 209.62 474.146 210.578 473.906C211.536 473.667 212.594 473.365 213.75 473ZM239.547 473.797C239.547 474.453 239.578 475.12 239.641 475.797C239.703 476.464 239.802 477.141 239.938 477.828L238.391 478.125C238.266 476.969 237.922 476.125 237.359 475.594C236.797 475.062 235.979 474.797 234.906 474.797C234.062 474.797 233.375 475.01 232.844 475.438C232.323 475.854 232.062 476.396 232.062 477.062C232.062 477.99 233.276 478.823 235.703 479.562L235.812 479.594C237.625 480.146 238.859 480.755 239.516 481.422C240.182 482.089 240.516 482.995 240.516 484.141C240.516 485.682 239.865 486.958 238.562 487.969C237.26 488.979 235.583 489.484 233.531 489.484C232.698 489.484 231.875 489.401 231.062 489.234C230.26 489.078 229.484 488.839 228.734 488.516C228.745 488.401 228.75 488.271 228.75 488.125C228.76 487.979 228.766 487.76 228.766 487.469C228.766 486.885 228.74 486.307 228.688 485.734C228.635 485.161 228.557 484.599 228.453 484.047L229.891 483.688C230.13 485.115 230.573 486.151 231.219 486.797C231.865 487.432 232.776 487.75 233.953 487.75C234.953 487.75 235.745 487.526 236.328 487.078C236.922 486.63 237.219 486.021 237.219 485.25C237.219 484.333 235.932 483.443 233.359 482.578C232.932 482.432 232.604 482.323 232.375 482.25C231.135 481.823 230.245 481.297 229.703 480.672C229.161 480.036 228.891 479.219 228.891 478.219C228.891 476.667 229.474 475.417 230.641 474.469C231.807 473.51 233.37 473.031 235.328 473.031C235.911 473.031 236.547 473.094 237.234 473.219C237.932 473.344 238.703 473.536 239.547 473.797ZM252.203 481.547C251.974 481.609 251.641 481.703 251.203 481.828C248.224 482.651 246.734 483.625 246.734 484.75C246.734 485.375 246.938 485.901 247.344 486.328C247.75 486.745 248.26 486.953 248.875 486.953C249.271 486.953 249.719 486.854 250.219 486.656C250.729 486.458 251.391 486.12 252.203 485.641V481.547ZM258.438 486.344L259.016 487.531C258.068 488.156 257.214 488.625 256.453 488.938C255.703 489.24 255.031 489.391 254.438 489.391C253.719 489.391 253.167 489.208 252.781 488.844C252.406 488.469 252.188 487.906 252.125 487.156C250.99 487.948 250.031 488.521 249.25 488.875C248.469 489.219 247.766 489.391 247.141 489.391C246.047 489.391 245.115 488.969 244.344 488.125C243.573 487.271 243.188 486.25 243.188 485.062C243.188 483.062 245.422 481.547 249.891 480.516C250.859 480.286 251.62 480.104 252.172 479.969C252.182 479.708 252.188 479.458 252.188 479.219C252.198 478.969 252.203 478.729 252.203 478.5C252.203 477.385 251.984 476.573 251.547 476.062C251.12 475.552 250.432 475.297 249.484 475.297C248.87 475.297 248.339 475.422 247.891 475.672C247.453 475.922 247.219 476.214 247.188 476.547C247.177 476.599 247.172 476.667 247.172 476.75C247.109 477.792 246.453 478.312 245.203 478.312C244.734 478.312 244.375 478.234 244.125 478.078C243.875 477.922 243.75 477.693 243.75 477.391C243.75 476.557 244.516 475.625 246.047 474.594C247.589 473.552 249.203 473.031 250.891 473.031C252.536 473.031 253.786 473.464 254.641 474.328C255.495 475.182 255.922 476.438 255.922 478.094C255.922 478.594 255.88 479.63 255.797 481.203C255.724 482.766 255.688 484.083 255.688 485.156C255.688 485.792 255.771 486.25 255.938 486.531C256.104 486.812 256.365 486.953 256.719 486.953C256.917 486.953 257.161 486.901 257.453 486.797C257.745 486.693 258.073 486.542 258.438 486.344ZM265.594 486.594C266.031 486.844 266.469 487.031 266.906 487.156C267.344 487.281 267.792 487.344 268.25 487.344C269.74 487.344 270.911 486.844 271.766 485.844C272.62 484.844 273.047 483.474 273.047 481.734C273.047 479.891 272.635 478.422 271.812 477.328C271 476.234 269.906 475.688 268.531 475.688C268.031 475.688 267.521 475.771 267 475.938C266.49 476.104 265.958 476.359 265.406 476.703C265.396 477.276 265.385 477.859 265.375 478.453C265.375 479.047 265.375 479.812 265.375 480.75C265.375 482.677 265.391 484.057 265.422 484.891C265.453 485.714 265.51 486.281 265.594 486.594ZM265.594 464.781C265.51 466.708 265.448 468.521 265.406 470.219C265.365 471.917 265.344 473.526 265.344 475.047C266.25 474.391 267.104 473.906 267.906 473.594C268.708 473.281 269.505 473.125 270.297 473.125C272.172 473.125 273.755 473.844 275.047 475.281C276.339 476.719 276.984 478.495 276.984 480.609C276.984 483.172 276.089 485.271 274.297 486.906C272.516 488.542 270.177 489.359 267.281 489.359C266.292 489.359 265.318 489.286 264.359 489.141C263.401 488.995 262.469 488.776 261.562 488.484C261.625 484.964 261.672 482.068 261.703 479.797C261.734 477.526 261.75 475.88 261.75 474.859V472.875C261.75 470.51 261.646 469 261.438 468.344C261.229 467.677 260.833 467.344 260.25 467.344C260.208 467.344 260.13 467.354 260.016 467.375C259.911 467.385 259.766 467.401 259.578 467.422L259.453 466.125C260.464 465.979 261.474 465.797 262.484 465.578C263.505 465.359 264.542 465.094 265.594 464.781ZM285.047 464.812C284.974 466.75 284.922 468.599 284.891 470.359C284.859 472.12 284.844 473.802 284.844 475.406V482.344C284.844 483.938 284.87 485.052 284.922 485.688C284.974 486.312 285.052 486.74 285.156 486.969C285.26 487.198 285.453 487.37 285.734 487.484C286.016 487.599 286.38 487.656 286.828 487.656H287.188V489C286.188 488.938 285.318 488.891 284.578 488.859C283.849 488.828 283.245 488.812 282.766 488.812C282.328 488.812 281.776 488.828 281.109 488.859C280.443 488.891 279.661 488.938 278.766 489V487.656C278.818 487.656 278.896 487.661 279 487.672C279.115 487.682 279.198 487.688 279.25 487.688C280.542 487.688 281.188 486.073 281.188 482.844C281.198 482.323 281.203 481.922 281.203 481.641L281.234 474.5V470.281C281.234 469.115 281.141 468.339 280.953 467.953C280.776 467.568 280.443 467.375 279.953 467.375C279.818 467.375 279.672 467.385 279.516 467.406C279.359 467.417 279.208 467.438 279.062 467.469L278.891 466.219C280.005 466.042 281.068 465.839 282.078 465.609C283.099 465.38 284.089 465.115 285.047 464.812ZM303.828 480.672L297.312 480.688C296.198 480.688 295.365 480.698 294.812 480.719C294.26 480.729 293.75 480.76 293.281 480.812C293.281 482.677 293.74 484.141 294.656 485.203C295.583 486.266 296.859 486.797 298.484 486.797C299.266 486.797 300.036 486.677 300.797 486.438C301.568 486.188 302.344 485.812 303.125 485.312L303.828 486.656C302.62 487.615 301.432 488.333 300.266 488.812C299.099 489.281 297.943 489.516 296.797 489.516C294.62 489.516 292.833 488.792 291.438 487.344C290.042 485.885 289.344 484.016 289.344 481.734C289.344 479.255 290.099 477.188 291.609 475.531C293.12 473.865 294.974 473.031 297.172 473.031C299.141 473.031 300.734 473.729 301.953 475.125C303.172 476.51 303.797 478.359 303.828 480.672ZM300.125 478.766C299.906 477.547 299.505 476.599 298.922 475.922C298.349 475.234 297.661 474.891 296.859 474.891C295.901 474.891 295.109 475.26 294.484 476C293.859 476.74 293.469 477.776 293.312 479.109H294.297C295.578 479.109 296.693 479.083 297.641 479.031C298.589 478.969 299.417 478.88 300.125 478.766ZM318.016 473.797C318.016 474.453 318.047 475.12 318.109 475.797C318.172 476.464 318.271 477.141 318.406 477.828L316.859 478.125C316.734 476.969 316.391 476.125 315.828 475.594C315.266 475.062 314.448 474.797 313.375 474.797C312.531 474.797 311.844 475.01 311.312 475.438C310.792 475.854 310.531 476.396 310.531 477.062C310.531 477.99 311.745 478.823 314.172 479.562L314.281 479.594C316.094 480.146 317.328 480.755 317.984 481.422C318.651 482.089 318.984 482.995 318.984 484.141C318.984 485.682 318.333 486.958 317.031 487.969C315.729 488.979 314.052 489.484 312 489.484C311.167 489.484 310.344 489.401 309.531 489.234C308.729 489.078 307.953 488.839 307.203 488.516C307.214 488.401 307.219 488.271 307.219 488.125C307.229 487.979 307.234 487.76 307.234 487.469C307.234 486.885 307.208 486.307 307.156 485.734C307.104 485.161 307.026 484.599 306.922 484.047L308.359 483.688C308.599 485.115 309.042 486.151 309.688 486.797C310.333 487.432 311.245 487.75 312.422 487.75C313.422 487.75 314.214 487.526 314.797 487.078C315.391 486.63 315.688 486.021 315.688 485.25C315.688 484.333 314.401 483.443 311.828 482.578C311.401 482.432 311.073 482.323 310.844 482.25C309.604 481.823 308.714 481.297 308.172 480.672C307.63 480.036 307.359 479.219 307.359 478.219C307.359 476.667 307.943 475.417 309.109 474.469C310.276 473.51 311.839 473.031 313.797 473.031C314.38 473.031 315.016 473.094 315.703 473.219C316.401 473.344 317.172 473.536 318.016 473.797ZM73.6094 520.328C73.0365 519.995 72.4844 519.75 71.9531 519.594C71.4219 519.427 70.8958 519.344 70.375 519.344C68.9583 519.344 67.8542 519.812 67.0625 520.75C66.2812 521.677 65.8906 523 65.8906 524.719C65.8906 526.542 66.2865 528 67.0781 529.094C67.8698 530.188 68.9167 530.734 70.2188 530.734C70.6771 530.734 71.1771 530.641 71.7188 530.453C72.2708 530.266 72.8906 529.974 73.5781 529.578L73.6094 520.328ZM77.5312 508.781C77.4688 511.083 77.4115 513.469 77.3594 515.938C77.3073 518.396 77.2604 521.016 77.2188 523.797V527.75V528.422C77.2188 529.724 77.3021 530.552 77.4688 530.906C77.6458 531.26 77.9583 531.438 78.4062 531.438C78.5625 531.438 78.724 531.422 78.8906 531.391C79.0677 531.349 79.2604 531.292 79.4688 531.219L79.75 532.453C78.8229 532.818 77.875 533.089 76.9062 533.266C75.9375 533.453 74.9115 533.552 73.8281 533.562C73.7656 533.25 73.7135 532.906 73.6719 532.531C73.6302 532.156 73.5938 531.729 73.5625 531.25C72.6146 531.948 71.7344 532.464 70.9219 532.797C70.1198 533.12 69.3385 533.281 68.5781 533.281C66.6615 533.281 65.0833 532.578 63.8438 531.172C62.6042 529.755 61.9844 527.932 61.9844 525.703C61.9844 523.214 62.7604 521.193 64.3125 519.641C65.8646 518.089 67.8854 517.312 70.375 517.312C70.9062 517.312 71.4427 517.359 71.9844 517.453C72.526 517.547 73.099 517.693 73.7031 517.891C73.7031 517.828 73.7083 517.729 73.7188 517.594C73.75 516.146 73.7656 515.104 73.7656 514.469C73.7656 513 73.6615 512.094 73.4531 511.75C73.2448 511.406 72.8594 511.234 72.2969 511.234C72.2031 511.234 72.0781 511.245 71.9219 511.266C71.7656 511.276 71.5729 511.297 71.3438 511.328L71.2031 510.062C72.1823 509.938 73.1927 509.771 74.2344 509.562C75.2865 509.344 76.3854 509.083 77.5312 508.781ZM95.8594 524.672L89.3438 524.688C88.2292 524.688 87.3958 524.698 86.8438 524.719C86.2917 524.729 85.7812 524.76 85.3125 524.812C85.3125 526.677 85.7708 528.141 86.6875 529.203C87.6146 530.266 88.8906 530.797 90.5156 530.797C91.2969 530.797 92.0677 530.677 92.8281 530.438C93.599 530.188 94.375 529.812 95.1562 529.312L95.8594 530.656C94.651 531.615 93.4635 532.333 92.2969 532.812C91.1302 533.281 89.974 533.516 88.8281 533.516C86.651 533.516 84.8646 532.792 83.4688 531.344C82.0729 529.885 81.375 528.016 81.375 525.734C81.375 523.255 82.1302 521.188 83.6406 519.531C85.151 517.865 87.0052 517.031 89.2031 517.031C91.1719 517.031 92.7656 517.729 93.9844 519.125C95.2031 520.51 95.8281 522.359 95.8594 524.672ZM92.1562 522.766C91.9375 521.547 91.5365 520.599 90.9531 519.922C90.3802 519.234 89.6927 518.891 88.8906 518.891C87.9323 518.891 87.1406 519.26 86.5156 520C85.8906 520.74 85.5 521.776 85.3438 523.109H86.3281C87.6094 523.109 88.724 523.083 89.6719 523.031C90.6198 522.969 91.4479 522.88 92.1562 522.766ZM120.578 529.391L121.438 530.922C120.271 531.786 119.156 532.438 118.094 532.875C117.031 533.302 116.021 533.516 115.062 533.516C112.917 533.516 111.156 532.781 109.781 531.312C108.417 529.844 107.734 527.953 107.734 525.641C107.734 523.214 108.589 521.172 110.297 519.516C112.005 517.859 114.13 517.031 116.672 517.031C118.099 517.031 119.177 517.245 119.906 517.672C120.646 518.089 121.016 518.708 121.016 519.531C121.016 520 120.844 520.422 120.5 520.797C120.156 521.172 119.766 521.359 119.328 521.359C118.953 521.359 118.359 521.036 117.547 520.391C116.734 519.734 115.974 519.406 115.266 519.406C114.172 519.406 113.297 519.859 112.641 520.766C111.995 521.672 111.672 522.891 111.672 524.422C111.672 526.38 112.12 527.917 113.016 529.031C113.922 530.146 115.161 530.703 116.734 530.703C117.328 530.703 117.938 530.594 118.562 530.375C119.198 530.156 119.87 529.828 120.578 529.391ZM137.766 524.672L131.25 524.688C130.135 524.688 129.302 524.698 128.75 524.719C128.198 524.729 127.688 524.76 127.219 524.812C127.219 526.677 127.677 528.141 128.594 529.203C129.521 530.266 130.797 530.797 132.422 530.797C133.203 530.797 133.974 530.677 134.734 530.438C135.505 530.188 136.281 529.812 137.062 529.312L137.766 530.656C136.557 531.615 135.37 532.333 134.203 532.812C133.036 533.281 131.88 533.516 130.734 533.516C128.557 533.516 126.771 532.792 125.375 531.344C123.979 529.885 123.281 528.016 123.281 525.734C123.281 523.255 124.036 521.188 125.547 519.531C127.057 517.865 128.911 517.031 131.109 517.031C133.078 517.031 134.672 517.729 135.891 519.125C137.109 520.51 137.734 522.359 137.766 524.672ZM134.062 522.766C133.844 521.547 133.443 520.599 132.859 519.922C132.286 519.234 131.599 518.891 130.797 518.891C129.839 518.891 129.047 519.26 128.422 520C127.797 520.74 127.406 521.776 127.25 523.109H128.234C129.516 523.109 130.63 523.083 131.578 523.031C132.526 522.969 133.354 522.88 134.062 522.766ZM144.719 514.312L146.094 514.703C146.031 515.286 145.974 515.844 145.922 516.375C145.88 516.896 145.854 517.391 145.844 517.859C147.208 517.859 148.224 517.849 148.891 517.828C149.557 517.807 150.172 517.776 150.734 517.734L150.328 519.875C149.672 519.823 148.964 519.786 148.203 519.766C147.453 519.734 146.667 519.724 145.844 519.734C145.812 521.109 145.786 522.286 145.766 523.266C145.755 524.234 145.75 524.995 145.75 525.547C145.75 527.828 145.911 529.318 146.234 530.016C146.568 530.703 147.151 531.047 147.984 531.047C148.318 531.047 148.698 530.979 149.125 530.844C149.552 530.708 150.036 530.5 150.578 530.219L151.188 531.531C150.042 532.177 149.021 532.667 148.125 533C147.229 533.344 146.49 533.516 145.906 533.516C144.573 533.516 143.589 533.099 142.953 532.266C142.318 531.422 142 530.12 142 528.359C142 528.016 142.026 526.885 142.078 524.969C142.141 523.052 142.172 521.302 142.172 519.719C142.151 519.719 141.901 519.729 141.422 519.75C140.953 519.771 140.401 519.792 139.766 519.812V518.312C140.974 518.135 141.984 517.719 142.797 517.062C143.62 516.396 144.26 515.479 144.719 514.312ZM166.266 509.156L167.688 510.125C168.042 510.365 168.302 510.615 168.469 510.875C168.646 511.135 168.734 511.417 168.734 511.719C168.734 512.031 168.667 512.302 168.531 512.531C168.396 512.75 168.156 512.979 167.812 513.219L166.297 514.25L164.891 513.312C164.516 513.073 164.234 512.823 164.047 512.562C163.87 512.302 163.781 512.031 163.781 511.75C163.781 511.438 163.854 511.161 164 510.922C164.146 510.682 164.411 510.427 164.797 510.156L166.266 509.156ZM168.453 517C168.391 519.25 168.339 521.214 168.297 522.891C168.266 524.568 168.25 525.943 168.25 527.016V528.844C168.25 530.062 168.37 530.844 168.609 531.188C168.859 531.521 169.328 531.688 170.016 531.688C170.068 531.688 170.146 531.682 170.25 531.672C170.365 531.661 170.458 531.656 170.531 531.656V533C169.573 532.938 168.734 532.891 168.016 532.859C167.297 532.828 166.703 532.812 166.234 532.812C165.839 532.812 165.302 532.828 164.625 532.859C163.958 532.891 163.161 532.938 162.234 533V531.656H162.562C163.896 531.656 164.568 530.427 164.578 527.969C164.578 527.573 164.578 527.266 164.578 527.047L164.609 523.719V522.344C164.609 521.177 164.516 520.427 164.328 520.094C164.141 519.76 163.776 519.594 163.234 519.594C163.161 519.594 162.995 519.604 162.734 519.625C162.62 519.635 162.531 519.646 162.469 519.656L162.234 518.406C163.339 518.26 164.401 518.073 165.422 517.844C166.443 517.615 167.453 517.333 168.453 517ZM178.5 517L178.25 519.562C179.5 518.667 180.568 518.016 181.453 517.609C182.339 517.203 183.125 517 183.812 517C185.448 517 186.677 517.479 187.5 518.438C188.333 519.385 188.75 520.792 188.75 522.656C188.75 523.01 188.74 523.833 188.719 525.125C188.698 526.406 188.688 527.516 188.688 528.453C188.688 529.984 188.797 530.906 189.016 531.219C189.245 531.531 189.698 531.688 190.375 531.688H190.703L190.672 533C189.745 532.938 188.953 532.891 188.297 532.859C187.641 532.828 187.109 532.812 186.703 532.812C186.266 532.812 185.724 532.828 185.078 532.859C184.443 532.891 183.703 532.938 182.859 533V531.688H183.047C184.339 531.688 185 530.385 185.031 527.781C185.031 527.698 185.031 527.635 185.031 527.594V524.297C185.031 522.495 184.823 521.281 184.406 520.656C183.99 520.031 183.281 519.719 182.281 519.719C181.74 519.719 181.156 519.833 180.531 520.062C179.906 520.281 179.219 520.625 178.469 521.094C178.427 522.031 178.396 523.005 178.375 524.016C178.354 525.026 178.344 526.109 178.344 527.266V528.547C178.344 529.953 178.453 530.828 178.672 531.172C178.901 531.516 179.349 531.688 180.016 531.688H180.266V533C179.391 532.938 178.625 532.891 177.969 532.859C177.312 532.828 176.755 532.812 176.297 532.812C175.849 532.812 175.297 532.828 174.641 532.859C173.984 532.891 173.224 532.938 172.359 533V531.688H172.719C174.01 531.688 174.667 530.38 174.688 527.766C174.688 527.453 174.693 527.214 174.703 527.047L174.734 523.812V522.438C174.734 521.26 174.641 520.5 174.453 520.156C174.276 519.802 173.943 519.625 173.453 519.625C173.359 519.625 173.151 519.641 172.828 519.672C172.766 519.682 172.719 519.688 172.688 519.688L172.594 518.469C173.458 518.333 174.37 518.146 175.328 517.906C176.286 517.667 177.344 517.365 178.5 517ZM204.109 520.328C203.536 519.995 202.984 519.75 202.453 519.594C201.922 519.427 201.396 519.344 200.875 519.344C199.458 519.344 198.354 519.812 197.562 520.75C196.781 521.677 196.391 523 196.391 524.719C196.391 526.542 196.786 528 197.578 529.094C198.37 530.188 199.417 530.734 200.719 530.734C201.177 530.734 201.677 530.641 202.219 530.453C202.771 530.266 203.391 529.974 204.078 529.578L204.109 520.328ZM208.031 508.781C207.969 511.083 207.911 513.469 207.859 515.938C207.807 518.396 207.76 521.016 207.719 523.797V527.75V528.422C207.719 529.724 207.802 530.552 207.969 530.906C208.146 531.26 208.458 531.438 208.906 531.438C209.062 531.438 209.224 531.422 209.391 531.391C209.568 531.349 209.76 531.292 209.969 531.219L210.25 532.453C209.323 532.818 208.375 533.089 207.406 533.266C206.438 533.453 205.411 533.552 204.328 533.562C204.266 533.25 204.214 532.906 204.172 532.531C204.13 532.156 204.094 531.729 204.062 531.25C203.115 531.948 202.234 532.464 201.422 532.797C200.62 533.12 199.839 533.281 199.078 533.281C197.161 533.281 195.583 532.578 194.344 531.172C193.104 529.755 192.484 527.932 192.484 525.703C192.484 523.214 193.26 521.193 194.812 519.641C196.365 518.089 198.385 517.312 200.875 517.312C201.406 517.312 201.943 517.359 202.484 517.453C203.026 517.547 203.599 517.693 204.203 517.891C204.203 517.828 204.208 517.729 204.219 517.594C204.25 516.146 204.266 515.104 204.266 514.469C204.266 513 204.161 512.094 203.953 511.75C203.745 511.406 203.359 511.234 202.797 511.234C202.703 511.234 202.578 511.245 202.422 511.266C202.266 511.276 202.073 511.297 201.844 511.328L201.703 510.062C202.682 509.938 203.693 509.771 204.734 509.562C205.786 509.344 206.885 509.083 208.031 508.781ZM217.406 517.109C217.333 518.964 217.276 520.641 217.234 522.141C217.203 523.641 217.188 524.891 217.188 525.891C217.188 527.703 217.401 528.969 217.828 529.688C218.255 530.406 218.969 530.766 219.969 530.766C220.469 530.766 221.031 530.651 221.656 530.422C222.281 530.193 222.953 529.859 223.672 529.422C223.703 527.932 223.724 526.667 223.734 525.625C223.755 524.583 223.766 523.755 223.766 523.141V522.438C223.766 521.146 223.651 520.339 223.422 520.016C223.193 519.693 222.755 519.531 222.109 519.531C221.995 519.531 221.88 519.536 221.766 519.547C221.651 519.547 221.531 519.552 221.406 519.562L221.312 518.312C222.406 518.208 223.474 518.083 224.516 517.938C225.557 517.792 226.578 517.62 227.578 517.422C227.505 519.839 227.453 521.677 227.422 522.938C227.401 524.188 227.391 525.354 227.391 526.438V527.875C227.391 529.229 227.474 530.083 227.641 530.438C227.807 530.781 228.141 530.953 228.641 530.953C228.766 530.953 228.901 530.943 229.047 530.922C229.203 530.901 229.365 530.87 229.531 530.828L229.688 532.109L223.703 533.453V531.047C222.505 531.922 221.479 532.542 220.625 532.906C219.771 533.271 218.943 533.453 218.141 533.453C216.578 533.453 215.411 532.969 214.641 532C213.88 531.021 213.5 529.542 213.5 527.562C213.5 527.146 213.5 526.802 213.5 526.531C213.51 526.26 213.521 525.99 213.531 525.719L213.594 523.594C213.594 523.385 213.599 523.12 213.609 522.797C213.62 522.464 213.625 522.229 213.625 522.094C213.625 521.062 213.536 520.37 213.359 520.016C213.182 519.651 212.865 519.469 212.406 519.469C212.208 519.469 211.932 519.484 211.578 519.516C211.536 519.526 211.505 519.531 211.484 519.531L211.391 518.25C212.38 518.125 213.375 517.969 214.375 517.781C215.375 517.583 216.385 517.359 217.406 517.109ZM243.484 517.797C243.484 518.453 243.516 519.12 243.578 519.797C243.641 520.464 243.74 521.141 243.875 521.828L242.328 522.125C242.203 520.969 241.859 520.125 241.297 519.594C240.734 519.062 239.917 518.797 238.844 518.797C238 518.797 237.312 519.01 236.781 519.438C236.26 519.854 236 520.396 236 521.062C236 521.99 237.214 522.823 239.641 523.562L239.75 523.594C241.562 524.146 242.797 524.755 243.453 525.422C244.12 526.089 244.453 526.995 244.453 528.141C244.453 529.682 243.802 530.958 242.5 531.969C241.198 532.979 239.521 533.484 237.469 533.484C236.635 533.484 235.812 533.401 235 533.234C234.198 533.078 233.422 532.839 232.672 532.516C232.682 532.401 232.688 532.271 232.688 532.125C232.698 531.979 232.703 531.76 232.703 531.469C232.703 530.885 232.677 530.307 232.625 529.734C232.573 529.161 232.495 528.599 232.391 528.047L233.828 527.688C234.068 529.115 234.51 530.151 235.156 530.797C235.802 531.432 236.714 531.75 237.891 531.75C238.891 531.75 239.682 531.526 240.266 531.078C240.859 530.63 241.156 530.021 241.156 529.25C241.156 528.333 239.87 527.443 237.297 526.578C236.87 526.432 236.542 526.323 236.312 526.25C235.073 525.823 234.182 525.297 233.641 524.672C233.099 524.036 232.828 523.219 232.828 522.219C232.828 520.667 233.411 519.417 234.578 518.469C235.745 517.51 237.307 517.031 239.266 517.031C239.849 517.031 240.484 517.094 241.172 517.219C241.87 517.344 242.641 517.536 243.484 517.797ZM251.656 514.312L253.031 514.703C252.969 515.286 252.911 515.844 252.859 516.375C252.818 516.896 252.792 517.391 252.781 517.859C254.146 517.859 255.161 517.849 255.828 517.828C256.495 517.807 257.109 517.776 257.672 517.734L257.266 519.875C256.609 519.823 255.901 519.786 255.141 519.766C254.391 519.734 253.604 519.724 252.781 519.734C252.75 521.109 252.724 522.286 252.703 523.266C252.693 524.234 252.688 524.995 252.688 525.547C252.688 527.828 252.849 529.318 253.172 530.016C253.505 530.703 254.089 531.047 254.922 531.047C255.255 531.047 255.635 530.979 256.062 530.844C256.49 530.708 256.974 530.5 257.516 530.219L258.125 531.531C256.979 532.177 255.958 532.667 255.062 533C254.167 533.344 253.427 533.516 252.844 533.516C251.51 533.516 250.526 533.099 249.891 532.266C249.255 531.422 248.938 530.12 248.938 528.359C248.938 528.016 248.964 526.885 249.016 524.969C249.078 523.052 249.109 521.302 249.109 519.719C249.089 519.719 248.839 519.729 248.359 519.75C247.891 519.771 247.339 519.792 246.703 519.812V518.312C247.911 518.135 248.922 517.719 249.734 517.062C250.557 516.396 251.198 515.479 251.656 514.312ZM265.625 516.906C265.552 517.885 265.495 518.724 265.453 519.422C265.411 520.12 265.385 520.729 265.375 521.25C266.302 519.698 267.099 518.635 267.766 518.062C268.432 517.479 269.161 517.188 269.953 517.188C270.505 517.188 270.984 517.391 271.391 517.797C271.797 518.203 272 518.693 272 519.266C272 519.797 271.87 520.219 271.609 520.531C271.359 520.844 271.021 521 270.594 521C270.354 521 270.021 520.917 269.594 520.75C269.167 520.573 268.828 520.484 268.578 520.484C268.109 520.484 267.641 520.661 267.172 521.016C266.703 521.37 266.156 521.964 265.531 522.797C265.531 523.13 265.526 523.641 265.516 524.328C265.505 525.016 265.5 525.536 265.5 525.891V527.625C265.5 529.427 265.661 530.562 265.984 531.031C266.307 531.49 266.938 531.719 267.875 531.719C267.938 531.719 268.036 531.714 268.172 531.703C268.318 531.693 268.432 531.688 268.516 531.688V533H268.469C266.146 532.854 264.635 532.781 263.938 532.781C263.385 532.781 261.984 532.849 259.734 532.984H259.422V531.656H259.844C260.625 531.656 261.156 531.464 261.438 531.078C261.719 530.693 261.859 529.776 261.859 528.328V526.438V523.047C261.859 521.484 261.76 520.521 261.562 520.156C261.375 519.781 261.016 519.594 260.484 519.594C260.422 519.594 260.307 519.609 260.141 519.641C259.974 519.661 259.839 519.677 259.734 519.688L259.609 518.438C260.599 518.281 261.589 518.078 262.578 517.828C263.568 517.578 264.583 517.271 265.625 516.906ZM277.297 509.156L278.719 510.125C279.073 510.365 279.333 510.615 279.5 510.875C279.677 511.135 279.766 511.417 279.766 511.719C279.766 512.031 279.698 512.302 279.562 512.531C279.427 512.75 279.188 512.979 278.844 513.219L277.328 514.25L275.922 513.312C275.547 513.073 275.266 512.823 275.078 512.562C274.901 512.302 274.812 512.031 274.812 511.75C274.812 511.438 274.885 511.161 275.031 510.922C275.177 510.682 275.443 510.427 275.828 510.156L277.297 509.156ZM279.484 517C279.422 519.25 279.37 521.214 279.328 522.891C279.297 524.568 279.281 525.943 279.281 527.016V528.844C279.281 530.062 279.401 530.844 279.641 531.188C279.891 531.521 280.359 531.688 281.047 531.688C281.099 531.688 281.177 531.682 281.281 531.672C281.396 531.661 281.49 531.656 281.562 531.656V533C280.604 532.938 279.766 532.891 279.047 532.859C278.328 532.828 277.734 532.812 277.266 532.812C276.87 532.812 276.333 532.828 275.656 532.859C274.99 532.891 274.193 532.938 273.266 533V531.656H273.594C274.927 531.656 275.599 530.427 275.609 527.969C275.609 527.573 275.609 527.266 275.609 527.047L275.641 523.719V522.344C275.641 521.177 275.547 520.427 275.359 520.094C275.172 519.76 274.807 519.594 274.266 519.594C274.193 519.594 274.026 519.604 273.766 519.625C273.651 519.635 273.562 519.646 273.5 519.656L273.266 518.406C274.37 518.26 275.432 518.073 276.453 517.844C277.474 517.615 278.484 517.333 279.484 517ZM298.234 524.672L291.719 524.688C290.604 524.688 289.771 524.698 289.219 524.719C288.667 524.729 288.156 524.76 287.688 524.812C287.688 526.677 288.146 528.141 289.062 529.203C289.99 530.266 291.266 530.797 292.891 530.797C293.672 530.797 294.443 530.677 295.203 530.438C295.974 530.188 296.75 529.812 297.531 529.312L298.234 530.656C297.026 531.615 295.839 532.333 294.672 532.812C293.505 533.281 292.349 533.516 291.203 533.516C289.026 533.516 287.24 532.792 285.844 531.344C284.448 529.885 283.75 528.016 283.75 525.734C283.75 523.255 284.505 521.188 286.016 519.531C287.526 517.865 289.38 517.031 291.578 517.031C293.547 517.031 295.141 517.729 296.359 519.125C297.578 520.51 298.203 522.359 298.234 524.672ZM294.531 522.766C294.312 521.547 293.911 520.599 293.328 519.922C292.755 519.234 292.068 518.891 291.266 518.891C290.307 518.891 289.516 519.26 288.891 520C288.266 520.74 287.875 521.776 287.719 523.109H288.703C289.984 523.109 291.099 523.083 292.047 523.031C292.995 522.969 293.823 522.88 294.531 522.766Z" fill="white"/>
<rect width="1512" height="1408" fill="#001E3A"/>
<path d="M-423.634 167.214C-520.26 142.171 -690.869 221.997 -764.095 265.041L-940 1422H2296V236.345C2230.88 225.91 2048.27 211.301 1838.81 236.345C1576.98 267.649 1370.27 167.214 1119.79 75.9095C869.307 -15.3953 592.074 189.388 228.916 283.954C-134.242 378.519 -302.852 198.519 -423.634 167.214Z" fill="#A7F6F6" stroke="#FF3636"/>
<path d="M97.56 227.73V229.2C104.28 229.55 108.62 233.82 108.62 239.91C108.62 248.03 102.53 253 92.52 253H74.88V204H92.52C102.6 204 108.62 208.9 108.62 217.02C108.62 223.11 104.35 227.38 97.56 227.73ZM91.19 213.1H85.17V224.09H91.19C95.32 224.09 97.7 222.34 97.7 218.63C97.7 214.85 95.32 213.1 91.19 213.1ZM85.17 243.9H91.19C95.32 243.9 97.7 242.15 97.7 238.44C97.7 234.59 95.32 232.84 91.19 232.84H85.17V243.9ZM150.068 253H119.338V204H150.068V213.87H129.978V223.74H149.368V233.26H129.978V243.13H150.068V253ZM201.535 204H240.315V213.87H226.245V253H215.605V213.87H201.535V204ZM270.843 223.53V204H281.553V253H270.843V233.4H257.823V253H247.113V204H257.823V223.53H270.843ZM323.701 253H292.971V204H323.701V213.87H303.611V223.74H323.001V233.26H303.611V243.13H323.701V253ZM395.117 254.19C382.657 254.19 376.427 245.65 376.427 228.5C376.427 211.28 382.797 202.81 395.607 202.81C406.387 202.81 413.457 210.3 413.387 221.78H402.327C402.327 215.9 399.877 212.68 395.607 212.68C389.937 212.68 387.627 217.3 387.627 228.5C387.627 239.63 389.797 244.32 395.117 244.32C399.177 244.32 401.557 240.96 401.557 235.22H412.687C412.687 246.84 405.897 254.19 395.117 254.19ZM444.476 223.53V204H455.186V253H444.476V233.4H431.456V253H420.746V204H431.456V223.53H444.476ZM501.814 253H490.404L487.254 238.37H475.424L472.344 253H460.934L472.904 204H489.844L501.814 253ZM480.394 214.92L477.384 229.2H485.364L482.284 214.92L482.074 209.04H480.674L480.394 214.92ZM532.202 243.55V204H542.002V253H526.882L519.182 222.69L518.692 213.8H517.362V253H507.562V204H522.682L530.382 234.59L530.872 243.55H532.202ZM565.46 254.19C555.31 254.19 549.29 245.16 549.29 228.5C549.29 211.28 556.01 202.81 569.38 202.81C580.02 202.81 586.88 210.44 586.88 221.22H575.75C575.75 215.83 573.23 212.68 569.03 212.68C562.94 212.68 560.42 217.3 560.42 228.5C560.42 240.05 562.8 245.02 568.33 245.02C572.39 245.02 574.91 241.73 575.54 235.43H567.07V226.54H585.48V253H576.31L578.62 242.36H577.29C575.26 250.41 571.9 254.19 565.46 254.19ZM627.558 253H596.828V204H627.558V213.87H607.468V223.74H626.858V233.26H607.468V243.13H627.558V253Z" fill="#A7F6F6"/>
<mask id="mask0_830_269" style="mask-type:alpha" maskUnits="userSpaceOnUse" x="-941" y="52" width="3238" height="1371">
<path d="M-423.634 167.214C-520.26 142.171 -690.869 221.997 -764.095 265.041L-940 1422H2296V236.345C2230.88 225.91 2048.27 211.301 1838.81 236.345C1576.98 267.649 1370.27 167.214 1119.79 75.9095C869.307 -15.3952 592.074 189.388 228.916 283.954C-134.242 378.519 -302.852 198.519 -423.634 167.214Z" fill="#A7F6F6" stroke="#FF0000"/>
</mask>
<g mask="url(#mask0_830_269)">
<path d="M689.685 334.115V359H685.905V334.115H689.685ZM699.045 359H695.3V332.61H699.045V359ZM730.392 351.79H717.617L717.967 352.63L719.437 354.695L721.257 355.57H723.042L725.142 355.01L727.277 353.715L729.237 356.725L726.542 358.51L723.462 359.28H720.522L716.952 357.53L714.607 354.38L713.872 351.825V347.8L714.607 345.175L716.952 342.025L720.522 340.275H723.672L727.242 342.025L729.552 345.175L730.392 347.59V351.79ZM717.897 346.925L717.652 348.08H726.612L726.227 346.96L724.792 344.965L723.007 343.985H721.117L719.402 344.895L717.897 346.925ZM741.845 352.805L737.26 359H732.535L739.5 349.76L732.605 340.555H737.295L741.845 346.68L746.36 340.555H751.05L744.155 349.76C746.29 352.63 749.02 356.2 751.12 359H746.395L741.845 352.805ZM754.226 359V340.555H757.971V359H754.226ZM753.631 337.685V332.61H758.566V337.685H753.631ZM766.745 346.365L767.235 346.995L767.97 347.38L773.08 348.395L775.145 349.76L776.58 352.07V355.22L775.215 357.285L773.43 358.58L770.98 359.28H767.9L764.995 358.545L763.315 357.18L762.195 355.92L764.82 353.4L765.73 354.45L766.5 355.045L768.53 355.605H770.56L771.715 355.255L772.415 354.765L772.87 354.135V353.12L772.415 352.385L771.645 351.86L766.92 350.88L764.575 349.62L763.035 347.52V344.23L764.225 342.165L765.94 340.87L768.04 340.275H771.12L773.885 341.01L776.37 342.69L774.305 345.77L772.415 344.475L770.735 343.95H768.67L767.41 344.3L767.06 344.615L766.745 345.175V346.365ZM785.717 334.57V341.01H790.302V344.72H785.717V354.31L786.347 355.15L787.292 355.57H788.027L790.862 354.835L791.807 358.475L788.237 359.28H786.557L783.967 358.3L781.972 355.465V344.72H778.822V341.01H781.972V334.57H785.717ZM810.919 351.79H798.144L798.494 352.63L799.964 354.695L801.784 355.57H803.569L805.669 355.01L807.804 353.715L809.764 356.725L807.069 358.51L803.989 359.28H801.049L797.479 357.53L795.134 354.38L794.399 351.825V347.8L795.134 345.175L797.479 342.025L801.049 340.275H804.199L807.769 342.025L810.079 345.175L810.919 347.59V351.79ZM798.424 346.925L798.179 348.08H807.139L806.754 346.96L805.319 344.965L803.534 343.985H801.644L799.929 344.895L798.424 346.925ZM840.674 359H836.964V357.985L834.829 359.28H831.539L827.899 357.565L825.554 354.38L824.784 351.825V347.8L825.554 345.175L827.899 342.025L831.469 340.275H834.549L836.649 341.045L836.929 341.255V332.61H840.674V359ZM836.929 345.77L836.369 345.07L835.249 344.37L834.094 343.95H832.099L830.349 344.93L828.879 346.925L828.529 348.255V351.405L828.879 352.63L830.314 354.66L832.239 355.57H834.129L836.054 354.24L836.929 352.98V345.77ZM862.12 351.79H849.345L849.695 352.63L851.165 354.695L852.985 355.57H854.77L856.87 355.01L859.005 353.715L860.965 356.725L858.27 358.51L855.19 359.28H852.25L848.68 357.53L846.335 354.38L845.6 351.825V347.8L846.335 345.175L848.68 342.025L852.25 340.275H855.4L858.97 342.025L861.28 345.175L862.12 347.59V351.79ZM849.625 346.925L849.38 348.08H858.34L857.955 346.96L856.52 344.965L854.735 343.985H852.845L851.13 344.895L849.625 346.925ZM869.968 346.365L870.458 346.995L871.193 347.38L876.303 348.395L878.368 349.76L879.803 352.07V355.22L878.438 357.285L876.653 358.58L874.203 359.28H871.123L868.218 358.545L866.538 357.18L865.418 355.92L868.043 353.4L868.953 354.45L869.723 355.045L871.753 355.605H873.783L874.938 355.255L875.638 354.765L876.093 354.135V353.12L875.638 352.385L874.868 351.86L870.143 350.88L867.798 349.62L866.258 347.52V344.23L867.448 342.165L869.163 340.87L871.263 340.275H874.343L877.108 341.01L879.593 342.69L877.528 345.77L875.638 344.475L873.958 343.95H871.893L870.633 344.3L870.283 344.615L869.968 345.175V346.365ZM903.357 354.695L904.547 353.435L904.827 352.665V351.685L904.267 351.09L903.462 350.705L901.852 350.215H900.487L898.597 350.74L897.477 351.895L897.232 352.805V353.505L898.107 354.765L898.737 355.115L900.102 355.57H901.082L903.357 354.695ZM896.497 345.98L893.907 343.285L895.307 341.99L896.882 340.975L899.227 340.275H902.482L904.827 340.87L907.592 342.725L908.572 345.175V355.15L910.042 357.285L907.032 359.455L905.492 357.18L905.072 357.635L901.852 359.28H899.612L897.232 358.545L895.517 357.53L893.487 354.59V352.455L894.012 350.04L896.637 347.38L900.067 346.505H902.377L904.687 347.275L904.827 347.38V345.875L904.547 345.175L903.357 344.37L901.817 343.985H899.577L898.422 344.405L897.477 345.035L896.497 345.98ZM917.932 359H914.187V332.61H917.932V359ZM928.246 334.57V341.01H932.831V344.72H928.246V354.31L928.876 355.15L929.821 355.57H930.556L933.391 354.835L934.336 358.475L930.766 359.28H929.086L926.496 358.3L924.501 355.465V344.72H921.351V341.01H924.501V334.57H928.246ZM953.449 351.79H940.674L941.024 352.63L942.494 354.695L944.314 355.57H946.099L948.199 355.01L950.334 353.715L952.294 356.725L949.599 358.51L946.519 359.28H943.579L940.009 357.53L937.664 354.38L936.929 351.825V347.8L937.664 345.175L940.009 342.025L943.579 340.275H946.729L950.299 342.025L952.609 345.175L953.449 347.59V351.79ZM940.954 346.925L940.709 348.08H949.669L949.284 346.96L947.849 344.965L946.064 343.985H944.174L942.459 344.895L940.954 346.925ZM967.946 344.475L966.161 343.985H964.971L963.361 344.755L962.136 346.12L961.436 347.625V359H957.691V340.555H961.436V341.885L961.856 341.465L964.306 340.275H966.721L968.856 340.87L967.946 344.475ZM976.252 340.555V341.675L978.667 340.275H981.817L985.072 341.15L987.277 344.125V359H983.532V345.49L982.867 344.545L981.117 343.985H979.262L977.092 345.42L976.252 346.61V359H972.507V340.555H976.252ZM1001.59 354.695L1002.78 353.435L1003.06 352.665V351.685L1002.5 351.09L1001.69 350.705L1000.08 350.215H998.719L996.829 350.74L995.709 351.895L995.464 352.805V353.505L996.339 354.765L996.969 355.115L998.334 355.57H999.314L1001.59 354.695ZM994.729 345.98L992.139 343.285L993.539 341.99L995.114 340.975L997.459 340.275H1000.71L1003.06 340.87L1005.82 342.725L1006.8 345.175V355.15L1008.27 357.285L1005.26 359.455L1003.72 357.18L1003.3 357.635L1000.08 359.28H997.844L995.464 358.545L993.749 357.53L991.719 354.59V352.455L992.244 350.04L994.869 347.38L998.299 346.505H1000.61L1002.92 347.275L1003.06 347.38V345.875L1002.78 345.175L1001.59 344.37L1000.05 343.985H997.809L996.654 344.405L995.709 345.035L994.729 345.98ZM1017.28 334.57V341.01H1021.87V344.72H1017.28V354.31L1017.91 355.15L1018.86 355.57H1019.59L1022.43 354.835L1023.37 358.475L1019.8 359.28H1018.12L1015.53 358.3L1013.54 355.465V344.72H1010.39V341.01H1013.54V334.57H1017.28ZM1026.91 359V340.555H1030.66V359H1026.91ZM1026.32 337.685V332.61H1031.25V337.685H1026.32ZM1041.11 359L1033.8 340.555H1037.79L1042.69 353.19L1047.62 340.555H1051.61L1044.3 359H1041.11ZM1070.38 351.79H1057.6L1057.95 352.63L1059.42 354.695L1061.24 355.57H1063.03L1065.13 355.01L1067.26 353.715L1069.22 356.725L1066.53 358.51L1063.45 359.28H1060.51L1056.94 357.53L1054.59 354.38L1053.86 351.825V347.8L1054.59 345.175L1056.94 342.025L1060.51 340.275H1063.66L1067.23 342.025L1069.54 345.175L1070.38 347.59V351.79ZM1057.88 346.925L1057.64 348.08H1066.6L1066.21 346.96L1064.78 344.965L1062.99 343.985H1061.1L1059.39 344.895L1057.88 346.925ZM1078.22 346.365L1078.71 346.995L1079.45 347.38L1084.56 348.395L1086.62 349.76L1088.06 352.07V355.22L1086.69 357.285L1084.91 358.58L1082.46 359.28H1079.38L1076.47 358.545L1074.79 357.18L1073.67 355.92L1076.3 353.4L1077.21 354.45L1077.98 355.045L1080.01 355.605H1082.04L1083.19 355.255L1083.89 354.765L1084.35 354.135V353.12L1083.89 352.385L1083.12 351.86L1078.4 350.88L1076.05 349.62L1074.51 347.52V344.23L1075.7 342.165L1077.42 340.87L1079.52 340.275H1082.6L1085.36 341.01L1087.85 342.69L1085.78 345.77L1083.89 344.475L1082.21 343.95H1080.15L1078.89 344.3L1078.54 344.615L1078.22 345.175V346.365ZM1111.61 354.695L1112.8 353.435L1113.08 352.665V351.685L1112.52 351.09L1111.72 350.705L1110.11 350.215H1108.74L1106.85 350.74L1105.73 351.895L1105.49 352.805V353.505L1106.36 354.765L1106.99 355.115L1108.36 355.57H1109.34L1111.61 354.695ZM1104.75 345.98L1102.16 343.285L1103.56 341.99L1105.14 340.975L1107.48 340.275H1110.74L1113.08 340.87L1115.85 342.725L1116.83 345.175V355.15L1118.3 357.285L1115.29 359.455L1113.75 357.18L1113.33 357.635L1110.11 359.28H1107.87L1105.49 358.545L1103.77 357.53L1101.74 354.59V352.455L1102.27 350.04L1104.89 347.38L1108.32 346.505H1110.63L1112.94 347.275L1113.08 347.38V345.875L1112.8 345.175L1111.61 344.37L1110.07 343.985H1107.83L1106.68 344.405L1105.73 345.035L1104.75 345.98ZM1128.53 355.605H1130.14L1132.31 354.135L1133.19 352.98V340.555H1136.93V359H1133.22V357.88L1130.77 359.28H1127.97L1124.65 358.405L1122.3 355.36V340.555H1126.05V354.065L1126.85 355.15L1128.53 355.605ZM1156.43 346.365L1156.92 346.995L1157.65 347.38L1162.76 348.395L1164.83 349.76L1166.26 352.07V355.22L1164.9 357.285L1163.11 358.58L1160.66 359.28H1157.58L1154.68 358.545L1153 357.18L1151.88 355.92L1154.5 353.4L1155.41 354.45L1156.18 355.045L1158.21 355.605H1160.24L1161.4 355.255L1162.1 354.765L1162.55 354.135V353.12L1162.1 352.385L1161.33 351.86L1156.6 350.88L1154.26 349.62L1152.72 347.52V344.23L1153.91 342.165L1155.62 340.87L1157.72 340.275H1160.8L1163.57 341.01L1166.05 342.69L1163.99 345.77L1162.1 344.475L1160.42 343.95H1158.35L1157.09 344.3L1156.74 344.615L1156.43 345.175V346.365ZM1179.49 354.695L1180.68 353.435L1180.96 352.665V351.685L1180.4 351.09L1179.6 350.705L1177.99 350.215H1176.62L1174.73 350.74L1173.61 351.895L1173.37 352.805V353.505L1174.24 354.765L1174.87 355.115L1176.24 355.57H1177.22L1179.49 354.695ZM1172.63 345.98L1170.04 343.285L1171.44 341.99L1173.02 340.975L1175.36 340.275H1178.62L1180.96 340.87L1183.73 342.725L1184.71 345.175V355.15L1186.18 357.285L1183.17 359.455L1181.63 357.18L1181.21 357.635L1177.99 359.28H1175.75L1173.37 358.545L1171.65 357.53L1169.62 354.59V352.455L1170.15 350.04L1172.77 347.38L1176.2 346.505H1178.51L1180.82 347.275L1180.96 347.38V345.875L1180.68 345.175L1179.49 344.37L1177.95 343.985H1175.71L1174.56 344.405L1173.61 345.035L1172.63 345.98ZM1196.41 355.605H1198.02L1200.19 354.135L1201.07 352.98V340.555H1204.81V359H1201.1V357.88L1198.65 359.28H1195.85L1192.53 358.405L1190.18 355.36V340.555H1193.93V354.065L1194.73 355.15L1196.41 355.605ZM1214.79 340.555V341.675L1217.21 340.275H1220.39L1223.65 341.15L1224.7 342.62L1225.89 341.64L1228.27 340.275H1231.45L1234.71 341.15L1236.91 344.125V359H1233.17V345.49L1232.5 344.545L1230.75 343.985H1228.86L1226.69 345.42L1225.85 346.61V359H1222.11V345.49L1221.44 344.545L1219.69 343.985H1217.8L1215.63 345.42L1214.79 346.61V359H1211.05V340.555H1214.79ZM1248.16 355.605H1250.47L1252.29 354.695L1253.06 353.505L1253.51 351.37V348.15L1253.06 346.12L1252.22 344.86L1250.5 343.985H1248.09L1246.44 344.86L1245.57 346.085L1245.15 348.15V351.37L1245.57 353.54L1246.37 354.695L1248.16 355.605ZM1251.17 359.28H1247.46L1243.92 357.565L1242.07 354.87L1241.4 351.86V347.73L1242.07 344.72L1243.92 342.025L1247.46 340.275H1251.17L1254.74 342.025L1256.59 344.72L1257.22 347.73V351.86L1256.59 354.87L1254.74 357.565L1251.17 359.28ZM1265.92 340.555V341.675L1268.34 340.275H1271.49L1274.74 341.15L1276.95 344.125V359H1273.2V345.49L1272.54 344.545L1270.79 343.985H1268.93L1266.76 345.42L1265.92 346.61V359H1262.18V340.555H1265.92ZM700.64 401H696.93V399.985L694.795 401.28H691.505L687.865 399.565L685.52 396.38L684.75 393.825V389.8L685.52 387.175L687.865 384.025L691.435 382.275H694.515L696.615 383.045L696.895 383.255V374.61H700.64V401ZM696.895 387.77L696.335 387.07L695.215 386.37L694.06 385.95H692.065L690.315 386.93L688.845 388.925L688.495 390.255V393.405L688.845 394.63L690.28 396.66L692.205 397.57H694.095L696.02 396.24L696.895 394.98V387.77ZM715.471 396.695L716.661 395.435L716.941 394.665V393.685L716.381 393.09L715.576 392.705L713.966 392.215H712.601L710.711 392.74L709.591 393.895L709.346 394.805V395.505L710.221 396.765L710.851 397.115L712.216 397.57H713.196L715.471 396.695ZM708.611 387.98L706.021 385.285L707.421 383.99L708.996 382.975L711.341 382.275H714.596L716.941 382.87L719.706 384.725L720.686 387.175V397.15L722.156 399.285L719.146 401.455L717.606 399.18L717.186 399.635L713.966 401.28H711.726L709.346 400.545L707.631 399.53L705.601 396.59V394.455L706.126 392.04L708.751 389.38L712.181 388.505H714.491L716.801 389.275L716.941 389.38V387.875L716.661 387.175L715.471 386.37L713.931 385.985H711.691L710.536 386.405L709.591 387.035L708.611 387.98ZM730.431 382.555V383.675L732.846 382.275H735.996L739.251 383.15L741.456 386.125V401H737.711V387.49L737.046 386.545L735.296 385.985H733.441L731.271 387.42L730.431 388.61V401H726.686V382.555H730.431ZM750.134 388.365L750.624 388.995L751.359 389.38L756.469 390.395L758.534 391.76L759.969 394.07V397.22L758.604 399.285L756.819 400.58L754.369 401.28H751.289L748.384 400.545L746.704 399.18L745.584 397.92L748.209 395.4L749.119 396.45L749.889 397.045L751.919 397.605H753.949L755.104 397.255L755.804 396.765L756.259 396.135V395.12L755.804 394.385L755.034 393.86L750.309 392.88L747.964 391.62L746.424 389.52V386.23L747.614 384.165L749.329 382.87L751.429 382.275H754.509L757.274 383.01L759.759 384.69L757.694 387.77L755.804 386.475L754.124 385.95H752.059L750.799 386.3L750.449 386.615L750.134 387.175V388.365ZM778.693 382.555V383.675L781.108 382.275H784.258L787.513 383.15L789.718 386.125V401H785.973V387.49L785.308 386.545L783.558 385.985H781.703L779.533 387.42L778.693 388.61V401H774.948V382.555H778.693ZM800.951 397.605H803.261L805.081 396.695L805.851 395.505L806.306 393.37V390.15L805.851 388.12L805.011 386.86L803.296 385.985H800.881L799.236 386.86L798.361 388.085L797.941 390.15V393.37L798.361 395.54L799.166 396.695L800.951 397.605ZM803.961 401.28H800.251L796.716 399.565L794.861 396.87L794.196 393.86V389.73L794.861 386.72L796.716 384.025L800.251 382.275H803.961L807.531 384.025L809.386 386.72L810.016 389.73V393.86L809.386 396.87L807.531 399.565L803.961 401.28ZM819.452 376.57V383.01H824.037V386.72H819.452V396.31L820.082 397.15L821.027 397.57H821.762L824.597 396.835L825.542 400.475L821.972 401.28H820.292L817.702 400.3L815.707 397.465V386.72H812.557V383.01H815.707V376.57H819.452ZM839.055 386.475L837.27 385.985H836.08L834.47 386.755L833.245 388.12L832.545 389.625V401H828.8V382.555H832.545V383.885L832.965 383.465L835.415 382.275H837.83L839.965 382.87L839.055 386.475ZM858.805 393.79H846.03L846.38 394.63L847.85 396.695L849.67 397.57H851.455L853.555 397.01L855.69 395.715L857.65 398.725L854.955 400.51L851.875 401.28H848.935L845.365 399.53L843.02 396.38L842.285 393.825V389.8L843.02 387.175L845.365 384.025L848.935 382.275H852.085L855.655 384.025L857.965 387.175L858.805 389.59V393.79ZM846.31 388.925L846.065 390.08H855.025L854.64 388.96L853.205 386.965L851.42 385.985H849.53L847.815 386.895L846.31 388.925ZM877.78 382.555V383.675L880.195 382.275H883.38L886.635 383.15L887.685 384.62L888.875 383.64L891.255 382.275H894.44L897.695 383.15L899.9 386.125V401H896.155V387.49L895.49 386.545L893.74 385.985H891.85L889.68 387.42L888.84 388.61V401H885.095V387.49L884.43 386.545L882.68 385.985H880.79L878.62 387.42L877.78 388.61V401H874.035V382.555H877.78ZM914.226 396.695L915.416 395.435L915.696 394.665V393.685L915.136 393.09L914.331 392.705L912.721 392.215H911.356L909.466 392.74L908.346 393.895L908.101 394.805V395.505L908.976 396.765L909.606 397.115L910.971 397.57H911.951L914.226 396.695ZM907.366 387.98L904.776 385.285L906.176 383.99L907.751 382.975L910.096 382.275H913.351L915.696 382.87L918.461 384.725L919.441 387.175V397.15L920.911 399.285L917.901 401.455L916.361 399.18L915.941 399.635L912.721 401.28H910.481L908.101 400.545L906.386 399.53L904.356 396.59V394.455L904.881 392.04L907.506 389.38L910.936 388.505H913.246L915.556 389.275L915.696 389.38V387.875L915.416 387.175L914.226 386.37L912.686 385.985H910.446L909.291 386.405L908.346 387.035L907.366 387.98ZM929.186 382.555V383.675L931.601 382.275H934.751L938.006 383.15L940.211 386.125V401H936.466V387.49L935.801 386.545L934.051 385.985H932.196L930.026 387.42L929.186 388.61V401H925.441V382.555H929.186ZM945.564 401V382.555H949.309V401H945.564ZM944.969 379.685V374.61H949.904V379.685H944.969ZM970.333 393.79H957.558L957.908 394.63L959.378 396.695L961.198 397.57H962.983L965.083 397.01L967.218 395.715L969.178 398.725L966.483 400.51L963.403 401.28H960.463L956.893 399.53L954.548 396.38L953.813 393.825V389.8L954.548 387.175L956.893 384.025L960.463 382.275H963.613L967.183 384.025L969.493 387.175L970.333 389.59V393.79ZM957.838 388.925L957.593 390.08H966.553L966.168 388.96L964.733 386.965L962.948 385.985H961.058L959.343 386.895L957.838 388.925ZM984.831 386.475L983.046 385.985H981.856L980.246 386.755L979.021 388.12L978.321 389.625V401H974.576V382.555H978.321V383.885L978.741 383.465L981.191 382.275H983.606L985.741 382.87L984.831 386.475ZM1004.58 393.79H991.806L992.156 394.63L993.626 396.695L995.446 397.57H997.231L999.331 397.01L1001.47 395.715L1003.43 398.725L1000.73 400.51L997.651 401.28H994.711L991.141 399.53L988.796 396.38L988.061 393.825V389.8L988.796 387.175L991.141 384.025L994.711 382.275H997.861L1001.43 384.025L1003.74 387.175L1004.58 389.59V393.79ZM992.086 388.925L991.841 390.08H1000.8L1000.42 388.96L998.981 386.965L997.196 385.985H995.306L993.591 386.895L992.086 388.925ZM1034.34 401H1030.63V399.985L1028.49 401.28H1025.2L1021.56 399.565L1019.22 396.38L1018.45 393.825V389.8L1019.22 387.175L1021.56 384.025L1025.13 382.275H1028.21L1030.31 383.045L1030.59 383.255V374.61H1034.34V401ZM1030.59 387.77L1030.03 387.07L1028.91 386.37L1027.76 385.95H1025.76L1024.01 386.93L1022.54 388.925L1022.19 390.255V393.405L1022.54 394.63L1023.98 396.66L1025.9 397.57H1027.79L1029.72 396.24L1030.59 394.98V387.77ZM1055.78 393.79H1043.01L1043.36 394.63L1044.83 396.695L1046.65 397.57H1048.43L1050.53 397.01L1052.67 395.715L1054.63 398.725L1051.93 400.51L1048.85 401.28H1045.91L1042.34 399.53L1040 396.38L1039.26 393.825V389.8L1040 387.175L1042.34 384.025L1045.91 382.275H1049.06L1052.63 384.025L1054.94 387.175L1055.78 389.59V393.79ZM1043.29 388.925L1043.04 390.08H1052L1051.62 388.96L1050.18 386.965L1048.4 385.985H1046.51L1044.79 386.895L1043.29 388.925ZM1074.76 382.555V383.675L1077.17 382.275H1080.36L1083.61 383.15L1084.66 384.62L1085.85 383.64L1088.23 382.275H1091.42L1094.67 383.15L1096.88 386.125V401H1093.13V387.49L1092.47 386.545L1090.72 385.985H1088.83L1086.66 387.42L1085.82 388.61V401H1082.07V387.49L1081.41 386.545L1079.66 385.985H1077.77L1075.6 387.42L1074.76 388.61V401H1071.01V382.555H1074.76ZM1111.2 396.695L1112.39 395.435L1112.67 394.665V393.685L1112.11 393.09L1111.31 392.705L1109.7 392.215H1108.33L1106.44 392.74L1105.32 393.895L1105.08 394.805V395.505L1105.95 396.765L1106.58 397.115L1107.95 397.57H1108.93L1111.2 396.695ZM1104.34 387.98L1101.75 385.285L1103.15 383.99L1104.73 382.975L1107.07 382.275H1110.33L1112.67 382.87L1115.44 384.725L1116.42 387.175V397.15L1117.89 399.285L1114.88 401.455L1113.34 399.18L1112.92 399.635L1109.7 401.28H1107.46L1105.08 400.545L1103.36 399.53L1101.33 396.59V394.455L1101.86 392.04L1104.48 389.38L1107.91 388.505H1110.22L1112.53 389.275L1112.67 389.38V387.875L1112.39 387.175L1111.2 386.37L1109.66 385.985H1107.42L1106.27 386.405L1105.32 387.035L1104.34 387.98ZM1126.16 382.555V383.675L1128.58 382.275H1131.73L1134.98 383.15L1137.19 386.125V401H1133.44V387.49L1132.78 386.545L1131.03 385.985H1129.17L1127 387.42L1126.16 388.61V401H1122.42V382.555H1126.16ZM1153.78 387.77L1153.18 387.07L1152.1 386.37L1150.94 385.95H1148.91L1147.2 386.93L1145.73 388.925L1145.38 390.255V392.565L1145.69 393.79L1147.13 395.75L1149.02 396.485H1150.98L1152.9 395.155L1153.78 393.79V387.77ZM1151.29 406.88H1148.18L1145.8 406.25L1143.94 405.06L1142.68 403.8L1145.31 401.105L1146.46 402.26L1147.09 402.75L1148.7 403.17H1150.84L1152.2 402.68L1153.46 401.77L1153.78 401V398.935L1151.68 400.195H1148.46L1144.85 398.795L1142.4 395.61L1141.63 393.02V389.8L1142.4 387.175L1144.75 384.025L1148.28 382.275H1151.4L1153.5 383.045L1153.78 383.255V382.555H1157.49V401.525L1156.61 404.15L1153.81 406.005L1151.29 406.88ZM1178.9 393.79H1166.12L1166.47 394.63L1167.94 396.695L1169.76 397.57H1171.55L1173.65 397.01L1175.78 395.715L1177.74 398.725L1175.05 400.51L1171.97 401.28H1169.03L1165.46 399.53L1163.11 396.38L1162.38 393.825V389.8L1163.11 387.175L1165.46 384.025L1169.03 382.275H1172.18L1175.75 384.025L1178.06 387.175L1178.9 389.59V393.79ZM1166.4 388.925L1166.16 390.08H1175.12L1174.73 388.96L1173.3 386.965L1171.51 385.985H1169.62L1167.91 386.895L1166.4 388.925ZM1193.4 386.475L1191.61 385.985H1190.42L1188.81 386.755L1187.59 388.12L1186.89 389.625V401H1183.14V382.555H1186.89V383.885L1187.31 383.465L1189.76 382.275H1192.17L1194.31 382.87L1193.4 386.475ZM1199.08 401L1197.36 400.335V396.135H1202.09V400.51L1198.94 405.69L1197.12 404.675L1199.08 401ZM1232.58 401H1228.87V399.985L1226.73 401.28H1223.44L1219.8 399.565L1217.46 396.38L1216.69 393.825V389.8L1217.46 387.175L1219.8 384.025L1223.37 382.275H1226.45L1228.55 383.045L1228.83 383.255V374.61H1232.58V401ZM1228.83 387.77L1228.27 387.07L1227.15 386.37L1226 385.95H1224L1222.25 386.93L1220.78 388.925L1220.43 390.255V393.405L1220.78 394.63L1222.22 396.66L1224.14 397.57H1226.03L1227.96 396.24L1228.83 394.98V387.77ZM1254.02 393.79H1241.25L1241.6 394.63L1243.07 396.695L1244.89 397.57H1246.67L1248.77 397.01L1250.91 395.715L1252.87 398.725L1250.17 400.51L1247.09 401.28H1244.15L1240.58 399.53L1238.24 396.38L1237.5 393.825V389.8L1238.24 387.175L1240.58 384.025L1244.15 382.275H1247.3L1250.87 384.025L1253.18 387.175L1254.02 389.59V393.79ZM1241.53 388.925L1241.28 390.08H1250.24L1249.86 388.96L1248.42 386.965L1246.64 385.985H1244.75L1243.03 386.895L1241.53 388.925ZM690.735 443L683.42 424.555H687.41L692.31 437.19L697.245 424.555H701.235L693.92 443H690.735ZM720.001 435.79H707.226L707.576 436.63L709.046 438.695L710.866 439.57H712.651L714.751 439.01L716.886 437.715L718.846 440.725L716.151 442.51L713.071 443.28H710.131L706.561 441.53L704.216 438.38L703.481 435.825V431.8L704.216 429.175L706.561 426.025L710.131 424.275H713.281L716.851 426.025L719.161 429.175L720.001 431.59V435.79ZM707.506 430.925L707.261 432.08H716.221L715.836 430.96L714.401 428.965L712.616 427.985H710.726L709.011 428.895L707.506 430.925ZM728.654 424.555V425.675L731.069 424.275H734.219L737.474 425.15L739.679 428.125V443H735.934V429.49L735.269 428.545L733.519 427.985H731.664L729.494 429.42L728.654 430.61V443H724.909V424.555H728.654ZM759.942 443H756.232V441.985L754.097 443.28H750.807L747.167 441.565L744.822 438.38L744.052 435.825V431.8L744.822 429.175L747.167 426.025L750.737 424.275H753.817L755.917 425.045L756.197 425.255V416.61H759.942V443ZM756.197 429.77L755.637 429.07L754.517 428.37L753.362 427.95H751.367L749.617 428.93L748.147 430.925L747.797 432.255V435.405L748.147 436.63L749.582 438.66L751.507 439.57H753.397L755.322 438.24L756.197 436.98V429.77ZM775.788 428.475L774.003 427.985H772.813L771.203 428.755L769.978 430.12L769.278 431.625V443H765.533V424.555H769.278V425.885L769.698 425.465L772.148 424.275H774.563L776.698 424.87L775.788 428.475ZM795.538 435.79H782.763L783.113 436.63L784.583 438.695L786.403 439.57H788.188L790.288 439.01L792.423 437.715L794.383 440.725L791.688 442.51L788.608 443.28H785.668L782.098 441.53L779.753 438.38L779.018 435.825V431.8L779.753 429.175L782.098 426.025L785.668 424.275H788.818L792.388 426.025L794.698 429.175L795.538 431.59V435.79ZM783.043 430.925L782.798 432.08H791.758L791.373 430.96L789.938 428.965L788.153 427.985H786.263L784.548 428.895L783.043 430.925ZM825.958 435.79H813.183L813.533 436.63L815.003 438.695L816.823 439.57H818.608L820.708 439.01L822.843 437.715L824.803 440.725L822.108 442.51L819.028 443.28H816.088L812.518 441.53L810.173 438.38L809.438 435.825V431.8L810.173 429.175L812.518 426.025L816.088 424.275H819.238L822.808 426.025L825.118 429.175L825.958 431.59V435.79ZM813.463 430.925L813.218 432.08H822.178L821.793 430.96L820.358 428.965L818.573 427.985H816.683L814.968 428.895L813.463 430.925ZM835.346 418.57V425.01H839.931V428.72H835.346V438.31L835.976 439.15L836.921 439.57H837.656L840.491 438.835L841.436 442.475L837.866 443.28H836.186L833.596 442.3L831.601 439.465V428.72H828.451V425.01H831.601V418.57H835.346ZM870.205 443H866.495V441.985L864.36 443.28H861.07L857.43 441.565L855.085 438.38L854.315 435.825V431.8L855.085 429.175L857.43 426.025L861 424.275H864.08L866.18 425.045L866.46 425.255V416.61H870.205V443ZM866.46 429.77L865.9 429.07L864.78 428.37L863.625 427.95H861.63L859.88 428.93L858.41 430.925L858.06 432.255V435.405L858.41 436.63L859.845 438.66L861.77 439.57H863.66L865.585 438.24L866.46 436.98V429.77ZM891.652 435.79H878.877L879.227 436.63L880.697 438.695L882.517 439.57H884.302L886.402 439.01L888.537 437.715L890.497 440.725L887.802 442.51L884.722 443.28H881.782L878.212 441.53L875.867 438.38L875.132 435.825V431.8L875.867 429.175L878.212 426.025L881.782 424.275H884.932L888.502 426.025L890.812 429.175L891.652 431.59V435.79ZM879.157 430.925L878.912 432.08H887.872L887.487 430.96L886.052 428.965L884.267 427.985H882.377L880.662 428.895L879.157 430.925ZM910.627 424.555V425.57L912.762 424.275H916.052L919.692 425.99L922.037 429.175L922.807 431.73V435.755L922.037 438.38L919.692 441.53L916.122 443.28H913.007L910.942 442.51L910.662 442.3V448.705H906.917V424.555H910.627ZM910.662 437.785L911.222 438.485L912.342 439.185L913.497 439.605H915.492L917.242 438.625L918.712 436.63L919.062 435.3V432.185L918.712 430.925L917.277 428.895L915.352 427.985H913.462L911.537 429.315L910.662 430.575V437.785ZM937.253 428.475L935.468 427.985H934.278L932.668 428.755L931.443 430.12L930.743 431.625V443H926.998V424.555H930.743V425.885L931.163 425.465L933.613 424.275H936.028L938.163 424.87L937.253 428.475ZM947.308 439.605H949.618L951.438 438.695L952.208 437.505L952.663 435.37V432.15L952.208 430.12L951.368 428.86L949.653 427.985H947.238L945.593 428.86L944.718 430.085L944.298 432.15V435.37L944.718 437.54L945.523 438.695L947.308 439.605ZM950.318 443.28H946.608L943.073 441.565L941.218 438.87L940.553 435.86V431.73L941.218 428.72L943.073 426.025L946.608 424.275H950.318L953.888 426.025L955.743 428.72L956.373 431.73V435.86L955.743 438.87L953.888 441.565L950.318 443.28ZM975.855 443H972.145V441.985L970.01 443.28H966.72L963.08 441.565L960.735 438.38L959.965 435.825V431.8L960.735 429.175L963.08 426.025L966.65 424.275H969.73L971.83 425.045L972.11 425.255V416.61H975.855V443ZM972.11 429.77L971.55 429.07L970.43 428.37L969.275 427.95H967.28L965.53 428.93L964.06 430.925L963.71 432.255V435.405L964.06 436.63L965.495 438.66L967.42 439.57H969.31L971.235 438.24L972.11 436.98V429.77ZM987.816 439.605H989.426L991.596 438.135L992.471 436.98V424.555H996.216V443H992.506V441.88L990.056 443.28H987.256L983.931 442.405L981.586 439.36V424.555H985.331V438.065L986.136 439.15L987.816 439.605ZM1002.06 443V424.555H1005.81V443H1002.06ZM1001.47 421.685V416.61H1006.4V421.685H1001.47ZM1021.23 428.475L1019.45 427.985H1018.26L1016.65 428.755L1015.42 430.12L1014.72 431.625V443H1010.98V424.555H1014.72V425.885L1015.14 425.465L1017.59 424.275H1020.01L1022.14 424.87L1021.23 428.475ZM1040.98 435.79H1028.21L1028.56 436.63L1030.03 438.695L1031.85 439.57H1033.63L1035.73 439.01L1037.87 437.715L1039.83 440.725L1037.13 442.51L1034.05 443.28H1031.11L1027.54 441.53L1025.2 438.38L1024.46 435.825V431.8L1025.2 429.175L1027.54 426.025L1031.11 424.275H1034.26L1037.83 426.025L1040.14 429.175L1040.98 431.59V435.79ZM1028.49 430.925L1028.24 432.08H1037.2L1036.82 430.96L1035.38 428.965L1033.6 427.985H1031.71L1029.99 428.895L1028.49 430.925ZM1045.3 443V438.135H1050.02V443H1045.3Z" fill="#0066FF"/>
<path d="M97.56 227.73V229.2C104.28 229.55 108.62 233.82 108.62 239.91C108.62 248.03 102.53 253 92.52 253H74.88V204H92.52C102.6 204 108.62 208.9 108.62 217.02C108.62 223.11 104.35 227.38 97.56 227.73ZM91.19 213.1H85.17V224.09H91.19C95.32 224.09 97.7 222.34 97.7 218.63C97.7 214.85 95.32 213.1 91.19 213.1ZM85.17 243.9H91.19C95.32 243.9 97.7 242.15 97.7 238.44C97.7 234.59 95.32 232.84 91.19 232.84H85.17V243.9ZM150.068 253H119.338V204H150.068V213.87H129.978V223.74H149.368V233.26H129.978V243.13H150.068V253ZM201.535 204H240.315V213.87H226.245V253H215.605V213.87H201.535V204ZM270.843 223.53V204H281.553V253H270.843V233.4H257.823V253H247.113V204H257.823V223.53H270.843ZM323.701 253H292.971V204H323.701V213.87H303.611V223.74H323.001V233.26H303.611V243.13H323.701V253ZM395.117 254.19C382.657 254.19 376.427 245.65 376.427 228.5C376.427 211.28 382.797 202.81 395.607 202.81C406.387 202.81 413.457 210.3 413.387 221.78H402.327C402.327 215.9 399.877 212.68 395.607 212.68C389.937 212.68 387.627 217.3 387.627 228.5C387.627 239.63 389.797 244.32 395.117 244.32C399.177 244.32 401.557 240.96 401.557 235.22H412.687C412.687 246.84 405.897 254.19 395.117 254.19ZM444.476 223.53V204H455.186V253H444.476V233.4H431.456V253H420.746V204H431.456V223.53H444.476ZM501.814 253H490.404L487.254 238.37H475.424L472.344 253H460.934L472.904 204H489.844L501.814 253ZM480.394 214.92L477.384 229.2H485.364L482.284 214.92L482.074 209.04H480.674L480.394 214.92ZM532.202 243.55V204H542.002V253H526.882L519.182 222.69L518.692 213.8H517.362V253H507.562V204H522.682L530.382 234.59L530.872 243.55H532.202ZM565.46 254.19C555.31 254.19 549.29 245.16 549.29 228.5C549.29 211.28 556.01 202.81 569.38 202.81C580.02 202.81 586.88 210.44 586.88 221.22H575.75C575.75 215.83 573.23 212.68 569.03 212.68C562.94 212.68 560.42 217.3 560.42 228.5C560.42 240.05 562.8 245.02 568.33 245.02C572.39 245.02 574.91 241.73 575.54 235.43H567.07V226.54H585.48V253H576.31L578.62 242.36H577.29C575.26 250.41 571.9 254.19 565.46 254.19ZM627.558 253H596.828V204H627.558V213.87H607.468V223.74H626.858V233.26H607.468V243.13H627.558V253ZM661.097 253H648.917V241.66H661.097V253Z" fill="#0066FF"/>
</g>
<path d="M79 775L1433 775" stroke="white" stroke-width="7"/>
<path d="M79 919L1433 919" stroke="white" stroke-width="7"/>
<path d="M79 1069H1433" stroke="white" stroke-width="7"/>
<path d="M79 1237H1433" stroke="white" stroke-width="7"/>
<path d="M453 632V1307" stroke="white" stroke-width="7"/>
<path d="M678 632V1307" stroke="white" stroke-width="7"/>
<path d="M910 632V1307" stroke="white" stroke-width="8"/>
<path d="M1140 632V1307" stroke="white" stroke-width="8"/>
<path d="M1390 632V1307" stroke="white" stroke-width="8"/>
<path d="M99.6371 840.248H101.749L110.037 863H107.221L104.789 856.152H96.5971L94.1651 863H91.3491L99.6371 840.248ZM97.4931 853.56H103.893L100.693 844.248L97.4931 853.56ZM128.298 860.376V863H115.146V860.376H120.394V841.496H115.466V838.872H123.05V860.376H128.298ZM141.471 840.664V846.552H147.807V849.176H141.471V859.032L142.271 860.184L143.391 860.632H146.207L148.511 860.056L149.183 862.584L146.207 863.256H142.815L140.575 862.424L138.815 859.896V849.176H134.495V846.552H138.815V840.664H141.471ZM157.235 855.864V856.184L157.651 857.592L159.187 859.672L161.139 860.632H163.731L165.875 860.088L167.539 859.032L168.947 861.144L166.867 862.52L163.955 863.256H160.659L157.427 861.72L155.251 858.776L154.579 856.504V852.696L155.251 850.36L157.427 847.416L160.627 845.88H164.115L167.347 847.416L169.491 850.36L170.227 852.504V855.864H157.235ZM157.235 853.24H167.571V852.824L167.155 851.608L165.619 849.528L163.667 848.504H161.043L159.123 849.496L157.619 851.544L157.235 852.952V853.24ZM189.896 849.4L187.336 848.504H184.872L182.984 849.336L181.672 850.808L180.968 852.344V863H178.312V846.136H180.968V848.088L182.184 846.904L184.36 845.88H187.72L190.696 846.904L189.896 849.4ZM199.197 846.136V847.8L199.997 847.096L202.109 845.88H205.373L208.221 846.648L210.173 849.272V863H207.517V850.36L206.717 849.08L204.829 848.504H202.461L200.157 849.976L199.197 851.352V863H196.541V846.136H199.197ZM225.842 859.736L227.154 858.36L227.474 857.368V856.184L226.802 855.48L225.81 854.968L224.21 854.52H222.482L220.37 855.096L219.122 856.344L218.866 857.464V858.328L219.858 859.736L220.594 860.184L222.098 860.632H223.442L225.842 859.736ZM218.642 850.2L216.818 848.312L217.714 847.48L219.25 846.488L221.298 845.88H224.594L226.898 846.456L229.266 848.056L230.13 850.232V859.928L231.378 861.72L229.234 863.256L227.698 860.952L226.962 861.784L224.018 863.256H221.714L219.538 862.584L218.002 861.688L216.21 859.096V857.24L216.658 855.064L219.026 852.696L222.194 851.896H224.498L226.642 852.6L227.474 853.144V850.712L227.122 849.752L225.778 848.888L224.21 848.504H221.618L220.242 848.952L219.25 849.592L218.642 850.2ZM243.814 840.664V846.552H250.15V849.176H243.814V859.032L244.614 860.184L245.734 860.632H248.55L250.854 860.056L251.526 862.584L248.55 863.256H245.158L242.918 862.424L241.158 859.896V849.176H236.838V846.552H241.158V840.664H243.814ZM266.331 846.136V860.376H271.579V863H258.427V860.376H263.675V848.76H258.747V846.136H266.331ZM263.099 842.808V838.872H266.907V842.808H263.099ZM283.696 863L276.368 846.136H279.248L284.912 859.512L290.576 846.136H293.456L286.128 863H283.696ZM300.517 855.864V856.184L300.933 857.592L302.469 859.672L304.421 860.632H307.013L309.157 860.088L310.821 859.032L312.229 861.144L310.149 862.52L307.237 863.256H303.941L300.709 861.72L298.533 858.776L297.861 856.504V852.696L298.533 850.36L300.709 847.416L303.909 845.88H307.397L310.629 847.416L312.773 850.36L313.509 852.504V855.864H300.517ZM300.517 853.24H310.853V852.824L310.437 851.608L308.901 849.528L306.949 848.504H304.325L302.405 849.496L300.901 851.544L300.517 852.952V853.24ZM341.39 844.856L339.502 842.968L340.91 841.496L344.27 839.992H347.726L351.054 841.624L353.166 844.952V848.024L351.758 850.904L343.182 860.376H353.422V863H339.566V860.632L349.518 849.464L350.51 847.48V845.72L349.23 843.64L347.086 842.616H344.782L342.51 843.704L341.39 844.856Z" fill="#001E3A"/>
<path d="M496.613 715H494.117L485.829 692.248H488.645L495.365 710.872L502.085 692.248H504.901L496.613 715ZM518.17 711.736L519.482 710.36L519.802 709.368V708.184L519.13 707.48L518.138 706.968L516.538 706.52H514.81L512.698 707.096L511.45 708.344L511.194 709.464V710.328L512.186 711.736L512.922 712.184L514.426 712.632H515.77L518.17 711.736ZM510.97 702.2L509.146 700.312L510.042 699.48L511.578 698.488L513.626 697.88H516.922L519.226 698.456L521.594 700.056L522.458 702.232V711.928L523.706 713.72L521.562 715.256L520.026 712.952L519.29 713.784L516.346 715.256H514.042L511.866 714.584L510.33 713.688L508.538 711.096V709.24L508.986 707.064L511.354 704.696L514.522 703.896H516.826L518.97 704.6L519.802 705.144V702.712L519.45 701.752L518.106 700.888L516.538 700.504H513.946L512.57 700.952L511.578 701.592L510.97 702.2ZM543.439 712.376V715H530.286V712.376H535.535V693.496H530.607V690.872H538.191V712.376H543.439ZM551.907 707.864V708.184L552.323 709.592L553.859 711.672L555.811 712.632H558.403L560.547 712.088L562.211 711.032L563.619 713.144L561.539 714.52L558.627 715.256H555.331L552.099 713.72L549.923 710.776L549.251 708.504V704.696L549.923 702.36L552.099 699.416L555.299 697.88H558.787L562.019 699.416L564.163 702.36L564.899 704.504V707.864H551.907ZM551.907 705.24H562.243V704.824L561.827 703.608L560.291 701.528L558.339 700.504H555.715L553.795 701.496L552.291 703.544L551.907 704.952V705.24ZM575.672 712.664H577.816L580.088 711.16L581.08 709.784V698.136H583.736V715H581.112V713.304L580.28 714.04L578.168 715.256H575.256L572.344 714.488L570.264 711.8V698.136H572.92V710.84L573.848 712.184L575.672 712.664ZM605.037 701.4L602.477 700.504H600.013L598.125 701.336L596.813 702.808L596.109 704.344V715H593.453V698.136H596.109V700.088L597.325 698.904L599.501 697.88H602.861L605.837 698.904L605.037 701.4ZM638.614 712.376V695.768L633.174 698.584L631.99 696.216L639.83 692.248H641.27V712.376H646.742V715H632.662V712.376H638.614Z" fill="#001E3A"/>
<path d="M719.613 715H717.117L708.829 692.248H711.645L718.365 710.872L725.085 692.248H727.901L719.613 715ZM741.17 711.736L742.482 710.36L742.802 709.368V708.184L742.13 707.48L741.138 706.968L739.538 706.52H737.81L735.698 707.096L734.45 708.344L734.194 709.464V710.328L735.186 711.736L735.922 712.184L737.426 712.632H738.77L741.17 711.736ZM733.97 702.2L732.146 700.312L733.042 699.48L734.578 698.488L736.626 697.88H739.922L742.226 698.456L744.594 700.056L745.458 702.232V711.928L746.706 713.72L744.562 715.256L743.026 712.952L742.29 713.784L739.346 715.256H737.042L734.866 714.584L733.33 713.688L731.538 711.096V709.24L731.986 707.064L734.354 704.696L737.522 703.896H739.826L741.97 704.6L742.802 705.144V702.712L742.45 701.752L741.106 700.888L739.538 700.504H736.946L735.57 700.952L734.578 701.592L733.97 702.2ZM766.439 712.376V715H753.286V712.376H758.535V693.496H753.607V690.872H761.191V712.376H766.439ZM774.907 707.864V708.184L775.323 709.592L776.859 711.672L778.811 712.632H781.403L783.547 712.088L785.211 711.032L786.619 713.144L784.539 714.52L781.627 715.256H778.331L775.099 713.72L772.923 710.776L772.251 708.504V704.696L772.923 702.36L775.099 699.416L778.299 697.88H781.787L785.019 699.416L787.163 702.36L787.899 704.504V707.864H774.907ZM774.907 705.24H785.243V704.824L784.827 703.608L783.291 701.528L781.339 700.504H778.715L776.795 701.496L775.291 703.544L774.907 704.952V705.24ZM798.672 712.664H800.816L803.088 711.16L804.08 709.784V698.136H806.736V715H804.112V713.304L803.28 714.04L801.168 715.256H798.256L795.344 714.488L793.264 711.8V698.136H795.92V710.84L796.848 712.184L798.672 712.664ZM828.037 701.4L825.477 700.504H823.013L821.125 701.336L819.813 702.808L819.109 704.344V715H816.453V698.136H819.109V700.088L820.325 698.904L822.501 697.88H825.861L828.837 698.904L828.037 701.4ZM856.718 696.856L854.83 694.968L856.238 693.496L859.598 691.992H863.054L866.382 693.624L868.494 696.952V700.024L867.086 702.904L858.51 712.376H868.75V715H854.894V712.632L864.846 701.464L865.838 699.48V697.72L864.558 695.64L862.414 694.616H860.11L857.838 695.704L856.718 696.856Z" fill="#001E3A"/>
<path d="M949.613 715H947.117L938.829 692.248H941.645L948.365 710.872L955.085 692.248H957.901L949.613 715ZM971.17 711.736L972.482 710.36L972.802 709.368V708.184L972.13 707.48L971.138 706.968L969.538 706.52H967.81L965.698 707.096L964.45 708.344L964.194 709.464V710.328L965.186 711.736L965.922 712.184L967.426 712.632H968.77L971.17 711.736ZM963.97 702.2L962.146 700.312L963.042 699.48L964.578 698.488L966.626 697.88H969.922L972.226 698.456L974.594 700.056L975.458 702.232V711.928L976.706 713.72L974.562 715.256L973.026 712.952L972.29 713.784L969.346 715.256H967.042L964.866 714.584L963.33 713.688L961.538 711.096V709.24L961.986 707.064L964.354 704.696L967.522 703.896H969.826L971.97 704.6L972.802 705.144V702.712L972.45 701.752L971.106 700.888L969.538 700.504H966.946L965.57 700.952L964.578 701.592L963.97 702.2ZM996.439 712.376V715H983.286V712.376H988.535V693.496H983.607V690.872H991.191V712.376H996.439ZM1004.91 707.864V708.184L1005.32 709.592L1006.86 711.672L1008.81 712.632H1011.4L1013.55 712.088L1015.21 711.032L1016.62 713.144L1014.54 714.52L1011.63 715.256H1008.33L1005.1 713.72L1002.92 710.776L1002.25 708.504V704.696L1002.92 702.36L1005.1 699.416L1008.3 697.88H1011.79L1015.02 699.416L1017.16 702.36L1017.9 704.504V707.864H1004.91ZM1004.91 705.24H1015.24V704.824L1014.83 703.608L1013.29 701.528L1011.34 700.504H1008.72L1006.8 701.496L1005.29 703.544L1004.91 704.952V705.24ZM1028.67 712.664H1030.82L1033.09 711.16L1034.08 709.784V698.136H1036.74V715H1034.11V713.304L1033.28 714.04L1031.17 715.256H1028.26L1025.34 714.488L1023.26 711.8V698.136H1025.92V710.84L1026.85 712.184L1028.67 712.664ZM1058.04 701.4L1055.48 700.504H1053.01L1051.12 701.336L1049.81 702.808L1049.11 704.344V715H1046.45V698.136H1049.11V700.088L1050.32 698.904L1052.5 697.88H1055.86L1058.84 698.904L1058.04 701.4ZM1091.2 703.096H1089.15V700.984L1093.6 694.872H1085.57V692.248H1097.12V694.328L1092.38 700.856L1095.45 702.008L1097.69 704.248L1098.62 706.712V709.048L1097.69 711.544L1095.61 713.752L1092.22 715.256H1088.83L1085.6 713.912L1084.03 712.408L1085.92 710.52L1087.13 711.736L1089.31 712.632H1091.68L1094.08 711.544L1095.36 710.2L1095.97 708.696V707.096L1095.39 705.688L1093.98 704.216L1091.2 703.096Z" fill="#001E3A"/>
<path d="M1194.61 715H1192.12L1183.83 692.248H1186.65L1193.37 710.872L1200.09 692.248H1202.9L1194.61 715ZM1216.17 711.736L1217.48 710.36L1217.8 709.368V708.184L1217.13 707.48L1216.14 706.968L1214.54 706.52H1212.81L1210.7 707.096L1209.45 708.344L1209.19 709.464V710.328L1210.19 711.736L1210.92 712.184L1212.43 712.632H1213.77L1216.17 711.736ZM1208.97 702.2L1207.15 700.312L1208.04 699.48L1209.58 698.488L1211.63 697.88H1214.92L1217.23 698.456L1219.59 700.056L1220.46 702.232V711.928L1221.71 713.72L1219.56 715.256L1218.03 712.952L1217.29 713.784L1214.35 715.256H1212.04L1209.87 714.584L1208.33 713.688L1206.54 711.096V709.24L1206.99 707.064L1209.35 704.696L1212.52 703.896H1214.83L1216.97 704.6L1217.8 705.144V702.712L1217.45 701.752L1216.11 700.888L1214.54 700.504H1211.95L1210.57 700.952L1209.58 701.592L1208.97 702.2ZM1241.44 712.376V715H1228.29V712.376H1233.53V693.496H1228.61V690.872H1236.19V712.376H1241.44ZM1249.91 707.864V708.184L1250.32 709.592L1251.86 711.672L1253.81 712.632H1256.4L1258.55 712.088L1260.21 711.032L1261.62 713.144L1259.54 714.52L1256.63 715.256H1253.33L1250.1 713.72L1247.92 710.776L1247.25 708.504V704.696L1247.92 702.36L1250.1 699.416L1253.3 697.88H1256.79L1260.02 699.416L1262.16 702.36L1262.9 704.504V707.864H1249.91ZM1249.91 705.24H1260.24V704.824L1259.83 703.608L1258.29 701.528L1256.34 700.504H1253.72L1251.8 701.496L1250.29 703.544L1249.91 704.952V705.24ZM1273.67 712.664H1275.82L1278.09 711.16L1279.08 709.784V698.136H1281.74V715H1279.11V713.304L1278.28 714.04L1276.17 715.256H1273.26L1270.34 714.488L1268.26 711.8V698.136H1270.92V710.84L1271.85 712.184L1273.67 712.664ZM1303.04 701.4L1300.48 700.504H1298.01L1296.12 701.336L1294.81 702.808L1294.11 704.344V715H1291.45V698.136H1294.11V700.088L1295.32 698.904L1297.5 697.88H1300.86L1303.84 698.904L1303.04 701.4ZM1341.16 706.488H1344.58V709.112H1341.16V715H1338.5V709.112H1328.23V707.096L1338.66 692.248H1341.16V706.488ZM1338.5 706.488V696.984L1331.62 706.488H1338.5Z" fill="#001E3A"/>
<path d="M99.6371 984.248H101.749L110.037 1007H107.221L104.789 1000.15H96.5971L94.1651 1007H91.3491L99.6371 984.248ZM97.4931 997.56H103.893L100.693 988.248L97.4931 997.56ZM128.298 1004.38V1007H115.146V1004.38H120.394V985.496H115.466V982.872H123.05V1004.38H128.298ZM141.471 984.664V990.552H147.807V993.176H141.471V1003.03L142.271 1004.18L143.391 1004.63H146.207L148.511 1004.06L149.183 1006.58L146.207 1007.26H142.815L140.575 1006.42L138.815 1003.9V993.176H134.495V990.552H138.815V984.664H141.471ZM157.235 999.864V1000.18L157.651 1001.59L159.187 1003.67L161.139 1004.63H163.731L165.875 1004.09L167.539 1003.03L168.947 1005.14L166.867 1006.52L163.955 1007.26H160.659L157.427 1005.72L155.251 1002.78L154.579 1000.5V996.696L155.251 994.36L157.427 991.416L160.627 989.88H164.115L167.347 991.416L169.491 994.36L170.227 996.504V999.864H157.235ZM157.235 997.24H167.571V996.824L167.155 995.608L165.619 993.528L163.667 992.504H161.043L159.123 993.496L157.619 995.544L157.235 996.952V997.24ZM189.896 993.4L187.336 992.504H184.872L182.984 993.336L181.672 994.808L180.968 996.344V1007H178.312V990.136H180.968V992.088L182.184 990.904L184.36 989.88H187.72L190.696 990.904L189.896 993.4ZM199.197 990.136V991.8L199.997 991.096L202.109 989.88H205.373L208.221 990.648L210.173 993.272V1007H207.517V994.36L206.717 993.08L204.829 992.504H202.461L200.157 993.976L199.197 995.352V1007H196.541V990.136H199.197ZM225.842 1003.74L227.154 1002.36L227.474 1001.37V1000.18L226.802 999.48L225.81 998.968L224.21 998.52H222.482L220.37 999.096L219.122 1000.34L218.866 1001.46V1002.33L219.858 1003.74L220.594 1004.18L222.098 1004.63H223.442L225.842 1003.74ZM218.642 994.2L216.818 992.312L217.714 991.48L219.25 990.488L221.298 989.88H224.594L226.898 990.456L229.266 992.056L230.13 994.232V1003.93L231.378 1005.72L229.234 1007.26L227.698 1004.95L226.962 1005.78L224.018 1007.26H221.714L219.538 1006.58L218.002 1005.69L216.21 1003.1V1001.24L216.658 999.064L219.026 996.696L222.194 995.896H224.498L226.642 996.6L227.474 997.144V994.712L227.122 993.752L225.778 992.888L224.21 992.504H221.618L220.242 992.952L219.25 993.592L218.642 994.2ZM243.814 984.664V990.552H250.15V993.176H243.814V1003.03L244.614 1004.18L245.734 1004.63H248.55L250.854 1004.06L251.526 1006.58L248.55 1007.26H245.158L242.918 1006.42L241.158 1003.9V993.176H236.838V990.552H241.158V984.664H243.814ZM266.331 990.136V1004.38H271.579V1007H258.427V1004.38H263.675V992.76H258.747V990.136H266.331ZM263.099 986.808V982.872H266.907V986.808H263.099ZM283.696 1007L276.368 990.136H279.248L284.912 1003.51L290.576 990.136H293.456L286.128 1007H283.696ZM300.517 999.864V1000.18L300.933 1001.59L302.469 1003.67L304.421 1004.63H307.013L309.157 1004.09L310.821 1003.03L312.229 1005.14L310.149 1006.52L307.237 1007.26H303.941L300.709 1005.72L298.533 1002.78L297.861 1000.5V996.696L298.533 994.36L300.709 991.416L303.909 989.88H307.397L310.629 991.416L312.773 994.36L313.509 996.504V999.864H300.517ZM300.517 997.24H310.853V996.824L310.437 995.608L308.901 993.528L306.949 992.504H304.325L302.405 993.496L300.901 995.544L300.517 996.952V997.24ZM341.39 988.856L339.502 986.968L340.91 985.496L344.27 983.992H347.726L351.054 985.624L353.166 988.952V992.024L351.758 994.904L343.182 1004.38H353.422V1007H339.566V1004.63L349.518 993.464L350.51 991.48V989.72L349.23 987.64L347.086 986.616H344.782L342.51 987.704L341.39 988.856Z" fill="#001E3A"/>
<path d="M99.6371 1139.25H101.749L110.037 1162H107.221L104.789 1155.15H96.5971L94.1651 1162H91.3491L99.6371 1139.25ZM97.4931 1152.56H103.893L100.693 1143.25L97.4931 1152.56ZM128.298 1159.38V1162H115.146V1159.38H120.394V1140.5H115.466V1137.87H123.05V1159.38H128.298ZM141.471 1139.66V1145.55H147.807V1148.18H141.471V1158.03L142.271 1159.18L143.391 1159.63H146.207L148.511 1159.06L149.183 1161.58L146.207 1162.26H142.815L140.575 1161.42L138.815 1158.9V1148.18H134.495V1145.55H138.815V1139.66H141.471ZM157.235 1154.86V1155.18L157.651 1156.59L159.187 1158.67L161.139 1159.63H163.731L165.875 1159.09L167.539 1158.03L168.947 1160.14L166.867 1161.52L163.955 1162.26H160.659L157.427 1160.72L155.251 1157.78L154.579 1155.5V1151.7L155.251 1149.36L157.427 1146.42L160.627 1144.88H164.115L167.347 1146.42L169.491 1149.36L170.227 1151.5V1154.86H157.235ZM157.235 1152.24H167.571V1151.82L167.155 1150.61L165.619 1148.53L163.667 1147.5H161.043L159.123 1148.5L157.619 1150.54L157.235 1151.95V1152.24ZM189.896 1148.4L187.336 1147.5H184.872L182.984 1148.34L181.672 1149.81L180.968 1151.34V1162H178.312V1145.14H180.968V1147.09L182.184 1145.9L184.36 1144.88H187.72L190.696 1145.9L189.896 1148.4ZM199.197 1145.14V1146.8L199.997 1146.1L202.109 1144.88H205.373L208.221 1145.65L210.173 1148.27V1162H207.517V1149.36L206.717 1148.08L204.829 1147.5H202.461L200.157 1148.98L199.197 1150.35V1162H196.541V1145.14H199.197ZM225.842 1158.74L227.154 1157.36L227.474 1156.37V1155.18L226.802 1154.48L225.81 1153.97L224.21 1153.52H222.482L220.37 1154.1L219.122 1155.34L218.866 1156.46V1157.33L219.858 1158.74L220.594 1159.18L222.098 1159.63H223.442L225.842 1158.74ZM218.642 1149.2L216.818 1147.31L217.714 1146.48L219.25 1145.49L221.298 1144.88H224.594L226.898 1145.46L229.266 1147.06L230.13 1149.23V1158.93L231.378 1160.72L229.234 1162.26L227.698 1159.95L226.962 1160.78L224.018 1162.26H221.714L219.538 1161.58L218.002 1160.69L216.21 1158.1V1156.24L216.658 1154.06L219.026 1151.7L222.194 1150.9H224.498L226.642 1151.6L227.474 1152.14V1149.71L227.122 1148.75L225.778 1147.89L224.21 1147.5H221.618L220.242 1147.95L219.25 1148.59L218.642 1149.2ZM243.814 1139.66V1145.55H250.15V1148.18H243.814V1158.03L244.614 1159.18L245.734 1159.63H248.55L250.854 1159.06L251.526 1161.58L248.55 1162.26H245.158L242.918 1161.42L241.158 1158.9V1148.18H236.838V1145.55H241.158V1139.66H243.814ZM266.331 1145.14V1159.38H271.579V1162H258.427V1159.38H263.675V1147.76H258.747V1145.14H266.331ZM263.099 1141.81V1137.87H266.907V1141.81H263.099ZM283.696 1162L276.368 1145.14H279.248L284.912 1158.51L290.576 1145.14H293.456L286.128 1162H283.696ZM300.517 1154.86V1155.18L300.933 1156.59L302.469 1158.67L304.421 1159.63H307.013L309.157 1159.09L310.821 1158.03L312.229 1160.14L310.149 1161.52L307.237 1162.26H303.941L300.709 1160.72L298.533 1157.78L297.861 1155.5V1151.7L298.533 1149.36L300.709 1146.42L303.909 1144.88H307.397L310.629 1146.42L312.773 1149.36L313.509 1151.5V1154.86H300.517ZM300.517 1152.24H310.853V1151.82L310.437 1150.61L308.901 1148.53L306.949 1147.5H304.325L302.405 1148.5L300.901 1150.54L300.517 1151.95V1152.24ZM341.39 1143.86L339.502 1141.97L340.91 1140.5L344.27 1138.99H347.726L351.054 1140.62L353.166 1143.95V1147.02L351.758 1149.9L343.182 1159.38H353.422V1162H339.566V1159.63L349.518 1148.46L350.51 1146.48V1144.72L349.23 1142.64L347.086 1141.62H344.782L342.51 1142.7L341.39 1143.86Z" fill="#001E3A"/>
<path d="M550.614 822C523.702 822 503.532 840.914 500 846.511C503.879 853.664 522.59 870 550.614 870C572.339 870 592.477 859.447 599.83 853.851L615 867.058V824.681L599.83 839.654C593.924 833.885 577.527 822 550.614 822Z" fill="#17A300"/>
<path d="M782.614 959C755.702 959 735.532 977.914 732 983.511C735.879 990.664 754.59 1007 782.614 1007C804.339 1007 824.477 996.447 831.83 990.851L847 1004.06V961.681L831.83 976.654C825.924 970.885 809.527 959 782.614 959Z" fill="#17A300"/>
<path d="M1012.61 1138C985.702 1138 965.532 1156.91 962 1162.51C965.879 1169.66 984.59 1186 1012.61 1186C1034.34 1186 1054.48 1175.45 1061.83 1169.85L1077 1183.06V1140.68L1061.83 1155.65C1055.92 1149.88 1039.53 1138 1012.61 1138Z" fill="#17A300"/>
<path d="M1012.61 976C985.702 976 965.532 994.914 962 1000.51C965.879 1007.66 984.59 1024 1012.61 1024C1034.34 1024 1054.48 1013.45 1061.83 1007.85L1077 1021.06V978.681L1061.83 993.654C1055.92 987.885 1039.53 976 1012.61 976Z" fill="#17A300"/>
<path d="M1257.61 827C1230.7 827 1210.53 845.914 1207 851.511C1210.88 858.664 1229.59 875 1257.61 875C1279.34 875 1299.48 864.447 1306.83 858.851L1322 872.058V829.681L1306.83 844.654C1300.92 838.885 1284.53 827 1257.61 827Z" fill="#17A300"/>
<path d="M559.614 1121C532.702 1121 512.532 1139.91 509 1145.51C512.879 1152.66 531.59 1169 559.614 1169C581.339 1169 601.477 1158.45 608.83 1152.85L624 1166.06V1123.68L608.83 1138.65C602.924 1132.88 586.527 1121 559.614 1121Z" fill="#17A300"/>
</g>
<defs>
<clipPath id="clip0_830_269">
<rect width="1512" height="1408" fill="white"/>
</clipPath>
</defs>
</svg>
