<svg width="1512" height="992" viewBox="0 0 1512 992" fill="none" xmlns="http://www.w3.org/2000/svg">
<rect width="1512" height="992" fill="#FFD5D5"/>
<path fill-rule="evenodd" clip-rule="evenodd" d="M887.224 451.501L896.394 473.544L861.041 573.826H771.221L806.414 473.999L806.606 473.456L806.385 472.924L763.568 370H853.319L879.422 432.746C877.459 434.741 876.258 437.414 876.258 440.353C876.258 446.25 881.093 451.08 887.224 451.501ZM890.397 451.319L899.385 472.924L899.606 473.456L899.415 473.999L864.222 573.826H881.341C930.259 573.826 970.98 507.199 985.226 473.885C968.788 440.353 929.996 370 872.136 370H856.569L881.878 430.839C883.684 429.784 885.813 429.175 888.093 429.175C894.629 429.175 899.928 434.18 899.928 440.353C899.928 445.781 895.831 450.306 890.397 451.319ZM803.394 473.544L760.319 370H705.13C693.765 370 682.896 372.132 673.019 375.891L713.385 472.924L713.606 473.456L713.414 473.999L678.458 573.155C681.337 573.596 684.312 573.826 687.378 573.826H768.04L803.394 473.544ZM670.234 377.006L710.394 473.544L675.467 572.616C651.69 567.667 634.837 548.166 627.849 525.873L598.736 573.826H495.387L551.876 473.824L495.387 370H598.736L627.762 418.386C634.426 400.773 650.077 385.466 670.234 377.006Z" fill="#FF650E"/>
</svg>
