<svg width="417" height="40" viewBox="0 0 417 40" fill="none" xmlns="http://www.w3.org/2000/svg">
<path d="M3.36 33V10.248H13.152L16.128 11.016L18.496 13.384L19.424 16.776L18.56 20.072L16.992 22.376L14.048 23.848H6.016V33H3.36ZM6.016 21.224H13.28L15.2 20.296L16.128 18.92L16.672 16.872L16.128 14.792L14.752 13.416L12.864 12.872H6.016V21.224ZM24.1168 33V30.376H29.3648V12.872H24.2768V10.248H37.1088V12.872H32.0208V30.376H37.2688V33H24.1168ZM43.0175 33V10.248H45.8015L56.6815 29V10.248H59.3375V33H56.1695L45.6735 15.016V33H43.0175ZM64.6703 33V10.248H67.3263V21.032L77.3743 10.248H81.1503L72.3503 19.592L81.4703 33H78.1743L70.4943 21.48L67.3263 24.808V33H64.6703ZM84.979 33V10.248H94.483L97.427 11.048L99.539 13.352L100.211 16.424L99.571 18.952L98.547 20.424L97.587 20.936L98.547 21.544L99.923 23.528L100.627 26.632L99.891 29.736L98.227 31.752L95.571 33H84.979ZM87.635 19.592H95.059L96.659 18.504L97.107 17.864L97.491 16.424L97.107 14.632L95.987 13.384L94.227 12.872H87.635V19.592ZM87.635 30.376H94.899L96.467 29.672L97.427 28.552L97.907 26.632L97.427 24.584L96.627 23.24L94.931 22.216H87.635V30.376ZM124.893 33V10.248H127.516L133.053 22.408L138.589 10.248H141.213V33H138.557V16.136L134.397 25.448H131.709L127.549 16.136V33H124.893ZM146.385 33V10.248H155.889L158.833 11.048L160.945 13.352L161.617 16.424L160.977 18.952L159.953 20.424L158.993 20.936L159.953 21.544L161.329 23.528L162.033 26.632L161.297 29.736L159.633 31.752L156.977 33H146.385ZM149.041 19.592H156.465L158.065 18.504L158.513 17.864L158.897 16.424L158.513 14.632L157.393 13.384L155.633 12.872H149.041V19.592ZM149.041 30.376H156.305L157.873 29.672L158.833 28.552L159.313 26.632L158.833 24.584L158.033 23.24L156.337 22.216H149.041V30.376ZM172.262 33.256L168.774 32.2L166.854 30.856L166.118 29.96L168.038 28.104L168.646 28.872L169.958 29.768L172.838 30.632H175.59L177.99 29.704L178.758 28.808L179.206 27.88V25.96L178.47 24.488L176.966 23.624L170.438 21.832L168.038 20.136L166.982 18.44L166.534 15.816L167.398 13.096L169.446 10.952L172.39 9.992H175.75L179.462 10.952L181.542 12.232L180.102 14.472L178.278 13.384L175.398 12.616H172.87L170.95 13.224L169.766 14.408L169.286 16.072L169.574 17.48L169.99 18.184L171.622 19.368L178.374 21.224L180.838 22.92L181.862 25.384V28.488L181.062 30.216L179.526 31.976L176.038 33.256H172.262Z" fill="black"/>
<path fill-rule="evenodd" clip-rule="evenodd" d="M116.439 9.74198L120 7.60562L120 0L112.359 4.15711L105 -6.55663e-07L105 7.60562L108.53 9.74836C106.627 10.3446 105 11.9175 105 14.1293L105 28.4034C105 32.0033 109.903 35 112.355 36.0484C114.822 34.8388 120 31.984 120 27.7259L120 15.4358C120 12.7788 118.417 10.4902 116.439 9.74198Z" fill="black"/>
</svg>
