<?xml version="1.0" encoding="utf-8"?>
<!-- Generator: $$$/GeneralStr/196=Adobe Illustrator 27.6.0, SVG Export Plug-In . SVG Version: 6.00 Build 0)  -->
<svg version="1.1" id="Calque_1" xmlns="http://www.w3.org/2000/svg" xmlns:xlink="http://www.w3.org/1999/xlink" x="0px" y="0px"
	 viewBox="0 0 185 40" style="enable-background:new 0 0 185 40;" xml:space="preserve">
<style type="text/css">
	.st0{fill-rule:evenodd;clip-rule:evenodd;}
</style>
<path d="M3.4,33V10.2h9.8l3,0.8l2.4,2.4l0.9,3.4l-0.9,3.3L17,22.4L14,23.8H6V33H3.4z M6,21.2h7.3l1.9-0.9l0.9-1.4l0.5-2l-0.5-2.1
	l-1.4-1.4l-1.9-0.5H6V21.2z M24.1,33v-2.6h5.2V12.9h-5.1v-2.6h12.8v2.6H32v17.5h5.2V33H24.1z M43,33V10.2h2.8L56.7,29V10.2h2.7V33
	h-3.2L45.7,15v18H43z M64.7,33V10.2h2.7V21l10-10.8h3.8l-8.8,9.3L81.5,33h-3.3l-7.7-11.5l-3.2,3.3V33H64.7z M85,33V10.2h9.5l2.9,0.8
	l2.1,2.3l0.7,3.1L99.6,19l-1,1.5l-1,0.5l1,0.6l1.4,2l0.7,3.1l-0.7,3.1l-1.7,2L95.6,33H85z M87.6,19.6h7.4l1.6-1.1l0.4-0.6l0.4-1.4
	l-0.4-1.8L96,13.4l-1.8-0.5h-6.6V19.6z M87.6,30.4h7.3l1.6-0.7l1-1.1l0.5-1.9l-0.5-2l-0.8-1.3l-1.7-1h-7.3V30.4z M124.9,33V10.2h2.6
	l5.5,12.2l5.5-12.2h2.6V33h-2.7V16.1l-4.2,9.3h-2.7l-4.2-9.3V33H124.9z M146.4,33V10.2h9.5l2.9,0.8l2.1,2.3l0.7,3.1L161,19l-1,1.5
	l-1,0.5l1,0.6l1.4,2l0.7,3.1l-0.7,3.1l-1.7,2L157,33H146.4z M149,19.6h7.4l1.6-1.1l0.4-0.6l0.4-1.4l-0.4-1.8l-1.1-1.2l-1.8-0.5H149
	V19.6z M149,30.4h7.3l1.6-0.7l1-1.1l0.5-1.9l-0.5-2l-0.8-1.3l-1.7-1H149V30.4z M172.3,33.3l-3.5-1.1l-1.9-1.3l-0.7-0.9l1.9-1.9
	l0.6,0.8l1.3,0.9l2.9,0.9h2.8l2.4-0.9l0.8-0.9l0.4-0.9V26l-0.7-1.5l-1.5-0.9l-6.5-1.8l-2.4-1.7l-1.1-1.7l-0.4-2.6l0.9-2.7l2-2.1
	l2.9-1h3.4l3.7,1l2.1,1.3l-1.4,2.2l-1.8-1.1l-2.9-0.8h-2.5l-1.9,0.6l-1.2,1.2l-0.5,1.7l0.3,1.4l0.4,0.7l1.6,1.2l6.8,1.9l2.5,1.7
	l1,2.5v3.1l-0.8,1.7l-1.5,1.8l-3.5,1.3H172.3z"/>
<path class="st0" d="M116.4,9.7l3.6-2.1V0l-7.6,4.2L105,0v7.6l3.5,2.1c-1.9,0.6-3.5,2.2-3.5,4.4v14.3c0,3.6,4.9,6.6,7.4,7.6
	c2.5-1.2,7.6-4.1,7.6-8.3V15.4C120,12.8,118.4,10.5,116.4,9.7z"/>
</svg>
