<?xml version="1.0" standalone="no"?>
<!DOCTYPE svg PUBLIC "-//W3C//DTD SVG 20010904//EN"
 "http://www.w3.org/TR/2001/REC-SVG-20010904/DTD/svg10.dtd">
<svg version="1.0" xmlns="http://www.w3.org/2000/svg"
 width="1200.000000pt" height="1200.000000pt" viewBox="0 0 1200.000000 1200.000000"
 preserveAspectRatio="xMidYMid meet">
<metadata>
Created by potrace 1.14, written by Peter Selinger 2001-2017
</metadata>
<g transform="translate(0.000000,1200.000000) scale(0.100000,-0.100000)"
fill="#000000" stroke="none">
<path d="M550 6000 l0 -5450 5450 0 5450 0 0 5450 0 5450 -5450 0 -5450 0 0
-5450z m8135 2526 c862 -141 1458 -639 1689 -1413 28 -94 62 -253 72 -336 l7
-57 -538 2 -538 3 -13 64 c-81 394 -354 685 -733 780 -133 34 -235 44 -390 38
-210 -7 -362 -45 -526 -130 -325 -169 -559 -508 -654 -948 -70 -324 -72 -781
-6 -1101 128 -617 484 -997 1013 -1084 144 -24 402 -14 537 19 360 91 619 322
729 651 14 43 29 96 32 117 l7 39 539 0 540 0 -7 -57 c-11 -92 -69 -310 -110
-413 -103 -259 -239 -472 -424 -663 -381 -393 -872 -608 -1479 -646 -600 -38
-1170 124 -1607 458 -84 64 -266 242 -338 331 -219 271 -399 654 -480 1020
-103 463 -107 1028 -11 1483 160 756 580 1329 1199 1632 245 120 498 191 815
229 90 10 579 -3 675 -18z m-3127 -478 l2 -438 -770 0 -770 0 -2 -2077 -3
-2078 -525 0 -525 0 -3 2078 -2 2077 -770 0 -770 0 0 433 c0 239 3 437 7 440
3 4 934 6 2067 5 l2061 -3 3 -437z"/>
</g>
</svg>
